%TF.GenerationSoftware,KiCad,Pcbnew,8.0.4*%
%TF.CreationDate,2024-11-19T10:10:49-07:00*%
%TF.ProjectId,SnakeTank,536e616b-6554-4616-9e6b-2e6b69636164,rev?*%
%TF.SameCoordinates,Original*%
%TF.FileFunction,Soldermask,Top*%
%TF.FilePolarity,Negative*%
%FSLAX46Y46*%
G04 Gerber Fmt 4.6, Leading zero omitted, Abs format (unit mm)*
G04 Created by KiCad (PCBNEW 8.0.4) date 2024-11-19 10:10:49*
%MOMM*%
%LPD*%
G01*
G04 APERTURE LIST*
G04 Aperture macros list*
%AMRoundRect*
0 Rectangle with rounded corners*
0 $1 Rounding radius*
0 $2 $3 $4 $5 $6 $7 $8 $9 X,Y pos of 4 corners*
0 Add a 4 corners polygon primitive as box body*
4,1,4,$2,$3,$4,$5,$6,$7,$8,$9,$2,$3,0*
0 Add four circle primitives for the rounded corners*
1,1,$1+$1,$2,$3*
1,1,$1+$1,$4,$5*
1,1,$1+$1,$6,$7*
1,1,$1+$1,$8,$9*
0 Add four rect primitives between the rounded corners*
20,1,$1+$1,$2,$3,$4,$5,0*
20,1,$1+$1,$4,$5,$6,$7,0*
20,1,$1+$1,$6,$7,$8,$9,0*
20,1,$1+$1,$8,$9,$2,$3,0*%
G04 Aperture macros list end*
%ADD10C,0.010000*%
%ADD11RoundRect,0.102000X-0.750000X-0.450000X0.750000X-0.450000X0.750000X0.450000X-0.750000X0.450000X0*%
%ADD12RoundRect,0.102000X-0.450000X-0.750000X0.450000X-0.750000X0.450000X0.750000X-0.450000X0.750000X0*%
%ADD13RoundRect,0.102000X-0.450000X-0.450000X0.450000X-0.450000X0.450000X0.450000X-0.450000X0.450000X0*%
%ADD14RoundRect,0.200000X-0.275000X0.200000X-0.275000X-0.200000X0.275000X-0.200000X0.275000X0.200000X0*%
%ADD15RoundRect,0.200000X-0.200000X-0.275000X0.200000X-0.275000X0.200000X0.275000X-0.200000X0.275000X0*%
%ADD16RoundRect,0.225000X0.225000X0.250000X-0.225000X0.250000X-0.225000X-0.250000X0.225000X-0.250000X0*%
%ADD17RoundRect,0.225000X-0.225000X-0.250000X0.225000X-0.250000X0.225000X0.250000X-0.225000X0.250000X0*%
%ADD18R,1.050000X0.650000*%
%ADD19RoundRect,0.218750X0.256250X-0.218750X0.256250X0.218750X-0.256250X0.218750X-0.256250X-0.218750X0*%
%ADD20RoundRect,0.225000X0.250000X-0.225000X0.250000X0.225000X-0.250000X0.225000X-0.250000X-0.225000X0*%
%ADD21RoundRect,0.225000X-0.250000X0.225000X-0.250000X-0.225000X0.250000X-0.225000X0.250000X0.225000X0*%
%ADD22R,1.200000X0.400000*%
%ADD23RoundRect,0.200000X0.275000X-0.200000X0.275000X0.200000X-0.275000X0.200000X-0.275000X-0.200000X0*%
%ADD24C,4.000000*%
%ADD25C,1.800000*%
%ADD26R,1.700000X1.700000*%
%ADD27O,1.700000X1.700000*%
%ADD28C,1.500000*%
%ADD29RoundRect,0.200000X0.200000X0.275000X-0.200000X0.275000X-0.200000X-0.275000X0.200000X-0.275000X0*%
%ADD30RoundRect,0.150000X-0.512500X-0.150000X0.512500X-0.150000X0.512500X0.150000X-0.512500X0.150000X0*%
%ADD31R,3.800000X2.000000*%
%ADD32C,2.050000*%
%ADD33RoundRect,0.102000X-0.729000X0.729000X-0.729000X-0.729000X0.729000X-0.729000X0.729000X0.729000X0*%
%ADD34C,1.662000*%
%ADD35R,0.400000X0.380000*%
%ADD36C,0.600000*%
%ADD37R,2.000000X1.000000*%
%ADD38O,0.600000X0.850000*%
%ADD39R,1.000000X0.520000*%
%ADD40R,1.000000X0.270000*%
%ADD41O,2.300000X1.300000*%
%ADD42O,2.600000X1.300000*%
%ADD43C,3.000000*%
%ADD44R,1.800000X2.600000*%
%ADD45O,1.800000X2.600000*%
G04 APERTURE END LIST*
D10*
%TO.C,D2*%
X27695000Y-35000000D02*
X27697000Y-35000000D01*
X27700000Y-35001000D01*
X27702000Y-35001000D01*
X27705000Y-35002000D01*
X27707000Y-35003000D01*
X27710000Y-35004000D01*
X27712000Y-35006000D01*
X27714000Y-35007000D01*
X27716000Y-35009000D01*
X27718000Y-35010000D01*
X27720000Y-35012000D01*
X27722000Y-35014000D01*
X27724000Y-35016000D01*
X27726000Y-35018000D01*
X27727000Y-35020000D01*
X27729000Y-35022000D01*
X27730000Y-35024000D01*
X27732000Y-35026000D01*
X27733000Y-35029000D01*
X27734000Y-35031000D01*
X27735000Y-35034000D01*
X27735000Y-35036000D01*
X27736000Y-35039000D01*
X27736000Y-35041000D01*
X27737000Y-35044000D01*
X27737000Y-35046000D01*
X27737000Y-35049000D01*
X27737000Y-35109000D01*
X27737000Y-35112000D01*
X27737000Y-35114000D01*
X27736000Y-35117000D01*
X27736000Y-35119000D01*
X27735000Y-35122000D01*
X27735000Y-35124000D01*
X27734000Y-35127000D01*
X27733000Y-35129000D01*
X27732000Y-35132000D01*
X27730000Y-35134000D01*
X27729000Y-35136000D01*
X27727000Y-35138000D01*
X27726000Y-35140000D01*
X27724000Y-35142000D01*
X27722000Y-35144000D01*
X27720000Y-35146000D01*
X27718000Y-35148000D01*
X27716000Y-35149000D01*
X27714000Y-35151000D01*
X27712000Y-35152000D01*
X27710000Y-35154000D01*
X27707000Y-35155000D01*
X27705000Y-35156000D01*
X27702000Y-35157000D01*
X27700000Y-35157000D01*
X27697000Y-35158000D01*
X27695000Y-35158000D01*
X27692000Y-35159000D01*
X27690000Y-35159000D01*
X27687000Y-35159000D01*
X27427000Y-35159000D01*
X27424000Y-35159000D01*
X27422000Y-35159000D01*
X27419000Y-35158000D01*
X27417000Y-35158000D01*
X27414000Y-35157000D01*
X27412000Y-35157000D01*
X27409000Y-35156000D01*
X27407000Y-35155000D01*
X27404000Y-35154000D01*
X27402000Y-35152000D01*
X27400000Y-35151000D01*
X27398000Y-35149000D01*
X27396000Y-35148000D01*
X27394000Y-35146000D01*
X27392000Y-35144000D01*
X27390000Y-35142000D01*
X27388000Y-35140000D01*
X27387000Y-35138000D01*
X27385000Y-35136000D01*
X27384000Y-35134000D01*
X27382000Y-35132000D01*
X27381000Y-35129000D01*
X27380000Y-35127000D01*
X27379000Y-35124000D01*
X27379000Y-35122000D01*
X27378000Y-35119000D01*
X27378000Y-35117000D01*
X27377000Y-35114000D01*
X27377000Y-35112000D01*
X27377000Y-35109000D01*
X27377000Y-35049000D01*
X27377000Y-35046000D01*
X27377000Y-35044000D01*
X27378000Y-35041000D01*
X27378000Y-35039000D01*
X27379000Y-35036000D01*
X27379000Y-35034000D01*
X27380000Y-35031000D01*
X27381000Y-35029000D01*
X27382000Y-35026000D01*
X27384000Y-35024000D01*
X27385000Y-35022000D01*
X27387000Y-35020000D01*
X27388000Y-35018000D01*
X27390000Y-35016000D01*
X27392000Y-35014000D01*
X27394000Y-35012000D01*
X27396000Y-35010000D01*
X27398000Y-35009000D01*
X27400000Y-35007000D01*
X27402000Y-35006000D01*
X27404000Y-35004000D01*
X27407000Y-35003000D01*
X27409000Y-35002000D01*
X27412000Y-35001000D01*
X27414000Y-35001000D01*
X27417000Y-35000000D01*
X27419000Y-35000000D01*
X27422000Y-34999000D01*
X27424000Y-34999000D01*
X27427000Y-34999000D01*
X27687000Y-34999000D01*
X27690000Y-34999000D01*
X27692000Y-34999000D01*
X27695000Y-35000000D01*
G36*
X27695000Y-35000000D02*
G01*
X27697000Y-35000000D01*
X27700000Y-35001000D01*
X27702000Y-35001000D01*
X27705000Y-35002000D01*
X27707000Y-35003000D01*
X27710000Y-35004000D01*
X27712000Y-35006000D01*
X27714000Y-35007000D01*
X27716000Y-35009000D01*
X27718000Y-35010000D01*
X27720000Y-35012000D01*
X27722000Y-35014000D01*
X27724000Y-35016000D01*
X27726000Y-35018000D01*
X27727000Y-35020000D01*
X27729000Y-35022000D01*
X27730000Y-35024000D01*
X27732000Y-35026000D01*
X27733000Y-35029000D01*
X27734000Y-35031000D01*
X27735000Y-35034000D01*
X27735000Y-35036000D01*
X27736000Y-35039000D01*
X27736000Y-35041000D01*
X27737000Y-35044000D01*
X27737000Y-35046000D01*
X27737000Y-35049000D01*
X27737000Y-35109000D01*
X27737000Y-35112000D01*
X27737000Y-35114000D01*
X27736000Y-35117000D01*
X27736000Y-35119000D01*
X27735000Y-35122000D01*
X27735000Y-35124000D01*
X27734000Y-35127000D01*
X27733000Y-35129000D01*
X27732000Y-35132000D01*
X27730000Y-35134000D01*
X27729000Y-35136000D01*
X27727000Y-35138000D01*
X27726000Y-35140000D01*
X27724000Y-35142000D01*
X27722000Y-35144000D01*
X27720000Y-35146000D01*
X27718000Y-35148000D01*
X27716000Y-35149000D01*
X27714000Y-35151000D01*
X27712000Y-35152000D01*
X27710000Y-35154000D01*
X27707000Y-35155000D01*
X27705000Y-35156000D01*
X27702000Y-35157000D01*
X27700000Y-35157000D01*
X27697000Y-35158000D01*
X27695000Y-35158000D01*
X27692000Y-35159000D01*
X27690000Y-35159000D01*
X27687000Y-35159000D01*
X27427000Y-35159000D01*
X27424000Y-35159000D01*
X27422000Y-35159000D01*
X27419000Y-35158000D01*
X27417000Y-35158000D01*
X27414000Y-35157000D01*
X27412000Y-35157000D01*
X27409000Y-35156000D01*
X27407000Y-35155000D01*
X27404000Y-35154000D01*
X27402000Y-35152000D01*
X27400000Y-35151000D01*
X27398000Y-35149000D01*
X27396000Y-35148000D01*
X27394000Y-35146000D01*
X27392000Y-35144000D01*
X27390000Y-35142000D01*
X27388000Y-35140000D01*
X27387000Y-35138000D01*
X27385000Y-35136000D01*
X27384000Y-35134000D01*
X27382000Y-35132000D01*
X27381000Y-35129000D01*
X27380000Y-35127000D01*
X27379000Y-35124000D01*
X27379000Y-35122000D01*
X27378000Y-35119000D01*
X27378000Y-35117000D01*
X27377000Y-35114000D01*
X27377000Y-35112000D01*
X27377000Y-35109000D01*
X27377000Y-35049000D01*
X27377000Y-35046000D01*
X27377000Y-35044000D01*
X27378000Y-35041000D01*
X27378000Y-35039000D01*
X27379000Y-35036000D01*
X27379000Y-35034000D01*
X27380000Y-35031000D01*
X27381000Y-35029000D01*
X27382000Y-35026000D01*
X27384000Y-35024000D01*
X27385000Y-35022000D01*
X27387000Y-35020000D01*
X27388000Y-35018000D01*
X27390000Y-35016000D01*
X27392000Y-35014000D01*
X27394000Y-35012000D01*
X27396000Y-35010000D01*
X27398000Y-35009000D01*
X27400000Y-35007000D01*
X27402000Y-35006000D01*
X27404000Y-35004000D01*
X27407000Y-35003000D01*
X27409000Y-35002000D01*
X27412000Y-35001000D01*
X27414000Y-35001000D01*
X27417000Y-35000000D01*
X27419000Y-35000000D01*
X27422000Y-34999000D01*
X27424000Y-34999000D01*
X27427000Y-34999000D01*
X27687000Y-34999000D01*
X27690000Y-34999000D01*
X27692000Y-34999000D01*
X27695000Y-35000000D01*
G37*
X27695000Y-35700000D02*
X27697000Y-35700000D01*
X27700000Y-35701000D01*
X27702000Y-35701000D01*
X27705000Y-35702000D01*
X27707000Y-35703000D01*
X27710000Y-35704000D01*
X27712000Y-35706000D01*
X27714000Y-35707000D01*
X27716000Y-35709000D01*
X27718000Y-35710000D01*
X27720000Y-35712000D01*
X27722000Y-35714000D01*
X27724000Y-35716000D01*
X27726000Y-35718000D01*
X27727000Y-35720000D01*
X27729000Y-35722000D01*
X27730000Y-35724000D01*
X27732000Y-35726000D01*
X27733000Y-35729000D01*
X27734000Y-35731000D01*
X27735000Y-35734000D01*
X27735000Y-35736000D01*
X27736000Y-35739000D01*
X27736000Y-35741000D01*
X27737000Y-35744000D01*
X27737000Y-35746000D01*
X27737000Y-35749000D01*
X27737000Y-35809000D01*
X27737000Y-35812000D01*
X27737000Y-35814000D01*
X27736000Y-35817000D01*
X27736000Y-35819000D01*
X27735000Y-35822000D01*
X27735000Y-35824000D01*
X27734000Y-35827000D01*
X27733000Y-35829000D01*
X27732000Y-35832000D01*
X27730000Y-35834000D01*
X27729000Y-35836000D01*
X27727000Y-35838000D01*
X27726000Y-35840000D01*
X27724000Y-35842000D01*
X27722000Y-35844000D01*
X27720000Y-35846000D01*
X27718000Y-35848000D01*
X27716000Y-35849000D01*
X27714000Y-35851000D01*
X27712000Y-35852000D01*
X27710000Y-35854000D01*
X27707000Y-35855000D01*
X27705000Y-35856000D01*
X27702000Y-35857000D01*
X27700000Y-35857000D01*
X27697000Y-35858000D01*
X27695000Y-35858000D01*
X27692000Y-35859000D01*
X27690000Y-35859000D01*
X27687000Y-35859000D01*
X27427000Y-35859000D01*
X27424000Y-35859000D01*
X27422000Y-35859000D01*
X27419000Y-35858000D01*
X27417000Y-35858000D01*
X27414000Y-35857000D01*
X27412000Y-35857000D01*
X27409000Y-35856000D01*
X27407000Y-35855000D01*
X27404000Y-35854000D01*
X27402000Y-35852000D01*
X27400000Y-35851000D01*
X27398000Y-35849000D01*
X27396000Y-35848000D01*
X27394000Y-35846000D01*
X27392000Y-35844000D01*
X27390000Y-35842000D01*
X27388000Y-35840000D01*
X27387000Y-35838000D01*
X27385000Y-35836000D01*
X27384000Y-35834000D01*
X27382000Y-35832000D01*
X27381000Y-35829000D01*
X27380000Y-35827000D01*
X27379000Y-35824000D01*
X27379000Y-35822000D01*
X27378000Y-35819000D01*
X27378000Y-35817000D01*
X27377000Y-35814000D01*
X27377000Y-35812000D01*
X27377000Y-35809000D01*
X27377000Y-35749000D01*
X27377000Y-35746000D01*
X27377000Y-35744000D01*
X27378000Y-35741000D01*
X27378000Y-35739000D01*
X27379000Y-35736000D01*
X27379000Y-35734000D01*
X27380000Y-35731000D01*
X27381000Y-35729000D01*
X27382000Y-35726000D01*
X27384000Y-35724000D01*
X27385000Y-35722000D01*
X27387000Y-35720000D01*
X27388000Y-35718000D01*
X27390000Y-35716000D01*
X27392000Y-35714000D01*
X27394000Y-35712000D01*
X27396000Y-35710000D01*
X27398000Y-35709000D01*
X27400000Y-35707000D01*
X27402000Y-35706000D01*
X27404000Y-35704000D01*
X27407000Y-35703000D01*
X27409000Y-35702000D01*
X27412000Y-35701000D01*
X27414000Y-35701000D01*
X27417000Y-35700000D01*
X27419000Y-35700000D01*
X27422000Y-35699000D01*
X27424000Y-35699000D01*
X27427000Y-35699000D01*
X27687000Y-35699000D01*
X27690000Y-35699000D01*
X27692000Y-35699000D01*
X27695000Y-35700000D01*
G36*
X27695000Y-35700000D02*
G01*
X27697000Y-35700000D01*
X27700000Y-35701000D01*
X27702000Y-35701000D01*
X27705000Y-35702000D01*
X27707000Y-35703000D01*
X27710000Y-35704000D01*
X27712000Y-35706000D01*
X27714000Y-35707000D01*
X27716000Y-35709000D01*
X27718000Y-35710000D01*
X27720000Y-35712000D01*
X27722000Y-35714000D01*
X27724000Y-35716000D01*
X27726000Y-35718000D01*
X27727000Y-35720000D01*
X27729000Y-35722000D01*
X27730000Y-35724000D01*
X27732000Y-35726000D01*
X27733000Y-35729000D01*
X27734000Y-35731000D01*
X27735000Y-35734000D01*
X27735000Y-35736000D01*
X27736000Y-35739000D01*
X27736000Y-35741000D01*
X27737000Y-35744000D01*
X27737000Y-35746000D01*
X27737000Y-35749000D01*
X27737000Y-35809000D01*
X27737000Y-35812000D01*
X27737000Y-35814000D01*
X27736000Y-35817000D01*
X27736000Y-35819000D01*
X27735000Y-35822000D01*
X27735000Y-35824000D01*
X27734000Y-35827000D01*
X27733000Y-35829000D01*
X27732000Y-35832000D01*
X27730000Y-35834000D01*
X27729000Y-35836000D01*
X27727000Y-35838000D01*
X27726000Y-35840000D01*
X27724000Y-35842000D01*
X27722000Y-35844000D01*
X27720000Y-35846000D01*
X27718000Y-35848000D01*
X27716000Y-35849000D01*
X27714000Y-35851000D01*
X27712000Y-35852000D01*
X27710000Y-35854000D01*
X27707000Y-35855000D01*
X27705000Y-35856000D01*
X27702000Y-35857000D01*
X27700000Y-35857000D01*
X27697000Y-35858000D01*
X27695000Y-35858000D01*
X27692000Y-35859000D01*
X27690000Y-35859000D01*
X27687000Y-35859000D01*
X27427000Y-35859000D01*
X27424000Y-35859000D01*
X27422000Y-35859000D01*
X27419000Y-35858000D01*
X27417000Y-35858000D01*
X27414000Y-35857000D01*
X27412000Y-35857000D01*
X27409000Y-35856000D01*
X27407000Y-35855000D01*
X27404000Y-35854000D01*
X27402000Y-35852000D01*
X27400000Y-35851000D01*
X27398000Y-35849000D01*
X27396000Y-35848000D01*
X27394000Y-35846000D01*
X27392000Y-35844000D01*
X27390000Y-35842000D01*
X27388000Y-35840000D01*
X27387000Y-35838000D01*
X27385000Y-35836000D01*
X27384000Y-35834000D01*
X27382000Y-35832000D01*
X27381000Y-35829000D01*
X27380000Y-35827000D01*
X27379000Y-35824000D01*
X27379000Y-35822000D01*
X27378000Y-35819000D01*
X27378000Y-35817000D01*
X27377000Y-35814000D01*
X27377000Y-35812000D01*
X27377000Y-35809000D01*
X27377000Y-35749000D01*
X27377000Y-35746000D01*
X27377000Y-35744000D01*
X27378000Y-35741000D01*
X27378000Y-35739000D01*
X27379000Y-35736000D01*
X27379000Y-35734000D01*
X27380000Y-35731000D01*
X27381000Y-35729000D01*
X27382000Y-35726000D01*
X27384000Y-35724000D01*
X27385000Y-35722000D01*
X27387000Y-35720000D01*
X27388000Y-35718000D01*
X27390000Y-35716000D01*
X27392000Y-35714000D01*
X27394000Y-35712000D01*
X27396000Y-35710000D01*
X27398000Y-35709000D01*
X27400000Y-35707000D01*
X27402000Y-35706000D01*
X27404000Y-35704000D01*
X27407000Y-35703000D01*
X27409000Y-35702000D01*
X27412000Y-35701000D01*
X27414000Y-35701000D01*
X27417000Y-35700000D01*
X27419000Y-35700000D01*
X27422000Y-35699000D01*
X27424000Y-35699000D01*
X27427000Y-35699000D01*
X27687000Y-35699000D01*
X27690000Y-35699000D01*
X27692000Y-35699000D01*
X27695000Y-35700000D01*
G37*
%TO.C,D1*%
X27695000Y-33272800D02*
X27697000Y-33272800D01*
X27700000Y-33273800D01*
X27702000Y-33273800D01*
X27705000Y-33274800D01*
X27707000Y-33275800D01*
X27710000Y-33276800D01*
X27712000Y-33278800D01*
X27714000Y-33279800D01*
X27716000Y-33281800D01*
X27718000Y-33282800D01*
X27720000Y-33284800D01*
X27722000Y-33286800D01*
X27724000Y-33288800D01*
X27726000Y-33290800D01*
X27727000Y-33292800D01*
X27729000Y-33294800D01*
X27730000Y-33296800D01*
X27732000Y-33298800D01*
X27733000Y-33301800D01*
X27734000Y-33303800D01*
X27735000Y-33306800D01*
X27735000Y-33308800D01*
X27736000Y-33311800D01*
X27736000Y-33313800D01*
X27737000Y-33316800D01*
X27737000Y-33318800D01*
X27737000Y-33321800D01*
X27737000Y-33381800D01*
X27737000Y-33384800D01*
X27737000Y-33386800D01*
X27736000Y-33389800D01*
X27736000Y-33391800D01*
X27735000Y-33394800D01*
X27735000Y-33396800D01*
X27734000Y-33399800D01*
X27733000Y-33401800D01*
X27732000Y-33404800D01*
X27730000Y-33406800D01*
X27729000Y-33408800D01*
X27727000Y-33410800D01*
X27726000Y-33412800D01*
X27724000Y-33414800D01*
X27722000Y-33416800D01*
X27720000Y-33418800D01*
X27718000Y-33420800D01*
X27716000Y-33421800D01*
X27714000Y-33423800D01*
X27712000Y-33424800D01*
X27710000Y-33426800D01*
X27707000Y-33427800D01*
X27705000Y-33428800D01*
X27702000Y-33429800D01*
X27700000Y-33429800D01*
X27697000Y-33430800D01*
X27695000Y-33430800D01*
X27692000Y-33431800D01*
X27690000Y-33431800D01*
X27687000Y-33431800D01*
X27427000Y-33431800D01*
X27424000Y-33431800D01*
X27422000Y-33431800D01*
X27419000Y-33430800D01*
X27417000Y-33430800D01*
X27414000Y-33429800D01*
X27412000Y-33429800D01*
X27409000Y-33428800D01*
X27407000Y-33427800D01*
X27404000Y-33426800D01*
X27402000Y-33424800D01*
X27400000Y-33423800D01*
X27398000Y-33421800D01*
X27396000Y-33420800D01*
X27394000Y-33418800D01*
X27392000Y-33416800D01*
X27390000Y-33414800D01*
X27388000Y-33412800D01*
X27387000Y-33410800D01*
X27385000Y-33408800D01*
X27384000Y-33406800D01*
X27382000Y-33404800D01*
X27381000Y-33401800D01*
X27380000Y-33399800D01*
X27379000Y-33396800D01*
X27379000Y-33394800D01*
X27378000Y-33391800D01*
X27378000Y-33389800D01*
X27377000Y-33386800D01*
X27377000Y-33384800D01*
X27377000Y-33381800D01*
X27377000Y-33321800D01*
X27377000Y-33318800D01*
X27377000Y-33316800D01*
X27378000Y-33313800D01*
X27378000Y-33311800D01*
X27379000Y-33308800D01*
X27379000Y-33306800D01*
X27380000Y-33303800D01*
X27381000Y-33301800D01*
X27382000Y-33298800D01*
X27384000Y-33296800D01*
X27385000Y-33294800D01*
X27387000Y-33292800D01*
X27388000Y-33290800D01*
X27390000Y-33288800D01*
X27392000Y-33286800D01*
X27394000Y-33284800D01*
X27396000Y-33282800D01*
X27398000Y-33281800D01*
X27400000Y-33279800D01*
X27402000Y-33278800D01*
X27404000Y-33276800D01*
X27407000Y-33275800D01*
X27409000Y-33274800D01*
X27412000Y-33273800D01*
X27414000Y-33273800D01*
X27417000Y-33272800D01*
X27419000Y-33272800D01*
X27422000Y-33271800D01*
X27424000Y-33271800D01*
X27427000Y-33271800D01*
X27687000Y-33271800D01*
X27690000Y-33271800D01*
X27692000Y-33271800D01*
X27695000Y-33272800D01*
G36*
X27695000Y-33272800D02*
G01*
X27697000Y-33272800D01*
X27700000Y-33273800D01*
X27702000Y-33273800D01*
X27705000Y-33274800D01*
X27707000Y-33275800D01*
X27710000Y-33276800D01*
X27712000Y-33278800D01*
X27714000Y-33279800D01*
X27716000Y-33281800D01*
X27718000Y-33282800D01*
X27720000Y-33284800D01*
X27722000Y-33286800D01*
X27724000Y-33288800D01*
X27726000Y-33290800D01*
X27727000Y-33292800D01*
X27729000Y-33294800D01*
X27730000Y-33296800D01*
X27732000Y-33298800D01*
X27733000Y-33301800D01*
X27734000Y-33303800D01*
X27735000Y-33306800D01*
X27735000Y-33308800D01*
X27736000Y-33311800D01*
X27736000Y-33313800D01*
X27737000Y-33316800D01*
X27737000Y-33318800D01*
X27737000Y-33321800D01*
X27737000Y-33381800D01*
X27737000Y-33384800D01*
X27737000Y-33386800D01*
X27736000Y-33389800D01*
X27736000Y-33391800D01*
X27735000Y-33394800D01*
X27735000Y-33396800D01*
X27734000Y-33399800D01*
X27733000Y-33401800D01*
X27732000Y-33404800D01*
X27730000Y-33406800D01*
X27729000Y-33408800D01*
X27727000Y-33410800D01*
X27726000Y-33412800D01*
X27724000Y-33414800D01*
X27722000Y-33416800D01*
X27720000Y-33418800D01*
X27718000Y-33420800D01*
X27716000Y-33421800D01*
X27714000Y-33423800D01*
X27712000Y-33424800D01*
X27710000Y-33426800D01*
X27707000Y-33427800D01*
X27705000Y-33428800D01*
X27702000Y-33429800D01*
X27700000Y-33429800D01*
X27697000Y-33430800D01*
X27695000Y-33430800D01*
X27692000Y-33431800D01*
X27690000Y-33431800D01*
X27687000Y-33431800D01*
X27427000Y-33431800D01*
X27424000Y-33431800D01*
X27422000Y-33431800D01*
X27419000Y-33430800D01*
X27417000Y-33430800D01*
X27414000Y-33429800D01*
X27412000Y-33429800D01*
X27409000Y-33428800D01*
X27407000Y-33427800D01*
X27404000Y-33426800D01*
X27402000Y-33424800D01*
X27400000Y-33423800D01*
X27398000Y-33421800D01*
X27396000Y-33420800D01*
X27394000Y-33418800D01*
X27392000Y-33416800D01*
X27390000Y-33414800D01*
X27388000Y-33412800D01*
X27387000Y-33410800D01*
X27385000Y-33408800D01*
X27384000Y-33406800D01*
X27382000Y-33404800D01*
X27381000Y-33401800D01*
X27380000Y-33399800D01*
X27379000Y-33396800D01*
X27379000Y-33394800D01*
X27378000Y-33391800D01*
X27378000Y-33389800D01*
X27377000Y-33386800D01*
X27377000Y-33384800D01*
X27377000Y-33381800D01*
X27377000Y-33321800D01*
X27377000Y-33318800D01*
X27377000Y-33316800D01*
X27378000Y-33313800D01*
X27378000Y-33311800D01*
X27379000Y-33308800D01*
X27379000Y-33306800D01*
X27380000Y-33303800D01*
X27381000Y-33301800D01*
X27382000Y-33298800D01*
X27384000Y-33296800D01*
X27385000Y-33294800D01*
X27387000Y-33292800D01*
X27388000Y-33290800D01*
X27390000Y-33288800D01*
X27392000Y-33286800D01*
X27394000Y-33284800D01*
X27396000Y-33282800D01*
X27398000Y-33281800D01*
X27400000Y-33279800D01*
X27402000Y-33278800D01*
X27404000Y-33276800D01*
X27407000Y-33275800D01*
X27409000Y-33274800D01*
X27412000Y-33273800D01*
X27414000Y-33273800D01*
X27417000Y-33272800D01*
X27419000Y-33272800D01*
X27422000Y-33271800D01*
X27424000Y-33271800D01*
X27427000Y-33271800D01*
X27687000Y-33271800D01*
X27690000Y-33271800D01*
X27692000Y-33271800D01*
X27695000Y-33272800D01*
G37*
X27695000Y-33972800D02*
X27697000Y-33972800D01*
X27700000Y-33973800D01*
X27702000Y-33973800D01*
X27705000Y-33974800D01*
X27707000Y-33975800D01*
X27710000Y-33976800D01*
X27712000Y-33978800D01*
X27714000Y-33979800D01*
X27716000Y-33981800D01*
X27718000Y-33982800D01*
X27720000Y-33984800D01*
X27722000Y-33986800D01*
X27724000Y-33988800D01*
X27726000Y-33990800D01*
X27727000Y-33992800D01*
X27729000Y-33994800D01*
X27730000Y-33996800D01*
X27732000Y-33998800D01*
X27733000Y-34001800D01*
X27734000Y-34003800D01*
X27735000Y-34006800D01*
X27735000Y-34008800D01*
X27736000Y-34011800D01*
X27736000Y-34013800D01*
X27737000Y-34016800D01*
X27737000Y-34018800D01*
X27737000Y-34021800D01*
X27737000Y-34081800D01*
X27737000Y-34084800D01*
X27737000Y-34086800D01*
X27736000Y-34089800D01*
X27736000Y-34091800D01*
X27735000Y-34094800D01*
X27735000Y-34096800D01*
X27734000Y-34099800D01*
X27733000Y-34101800D01*
X27732000Y-34104800D01*
X27730000Y-34106800D01*
X27729000Y-34108800D01*
X27727000Y-34110800D01*
X27726000Y-34112800D01*
X27724000Y-34114800D01*
X27722000Y-34116800D01*
X27720000Y-34118800D01*
X27718000Y-34120800D01*
X27716000Y-34121800D01*
X27714000Y-34123800D01*
X27712000Y-34124800D01*
X27710000Y-34126800D01*
X27707000Y-34127800D01*
X27705000Y-34128800D01*
X27702000Y-34129800D01*
X27700000Y-34129800D01*
X27697000Y-34130800D01*
X27695000Y-34130800D01*
X27692000Y-34131800D01*
X27690000Y-34131800D01*
X27687000Y-34131800D01*
X27427000Y-34131800D01*
X27424000Y-34131800D01*
X27422000Y-34131800D01*
X27419000Y-34130800D01*
X27417000Y-34130800D01*
X27414000Y-34129800D01*
X27412000Y-34129800D01*
X27409000Y-34128800D01*
X27407000Y-34127800D01*
X27404000Y-34126800D01*
X27402000Y-34124800D01*
X27400000Y-34123800D01*
X27398000Y-34121800D01*
X27396000Y-34120800D01*
X27394000Y-34118800D01*
X27392000Y-34116800D01*
X27390000Y-34114800D01*
X27388000Y-34112800D01*
X27387000Y-34110800D01*
X27385000Y-34108800D01*
X27384000Y-34106800D01*
X27382000Y-34104800D01*
X27381000Y-34101800D01*
X27380000Y-34099800D01*
X27379000Y-34096800D01*
X27379000Y-34094800D01*
X27378000Y-34091800D01*
X27378000Y-34089800D01*
X27377000Y-34086800D01*
X27377000Y-34084800D01*
X27377000Y-34081800D01*
X27377000Y-34021800D01*
X27377000Y-34018800D01*
X27377000Y-34016800D01*
X27378000Y-34013800D01*
X27378000Y-34011800D01*
X27379000Y-34008800D01*
X27379000Y-34006800D01*
X27380000Y-34003800D01*
X27381000Y-34001800D01*
X27382000Y-33998800D01*
X27384000Y-33996800D01*
X27385000Y-33994800D01*
X27387000Y-33992800D01*
X27388000Y-33990800D01*
X27390000Y-33988800D01*
X27392000Y-33986800D01*
X27394000Y-33984800D01*
X27396000Y-33982800D01*
X27398000Y-33981800D01*
X27400000Y-33979800D01*
X27402000Y-33978800D01*
X27404000Y-33976800D01*
X27407000Y-33975800D01*
X27409000Y-33974800D01*
X27412000Y-33973800D01*
X27414000Y-33973800D01*
X27417000Y-33972800D01*
X27419000Y-33972800D01*
X27422000Y-33971800D01*
X27424000Y-33971800D01*
X27427000Y-33971800D01*
X27687000Y-33971800D01*
X27690000Y-33971800D01*
X27692000Y-33971800D01*
X27695000Y-33972800D01*
G36*
X27695000Y-33972800D02*
G01*
X27697000Y-33972800D01*
X27700000Y-33973800D01*
X27702000Y-33973800D01*
X27705000Y-33974800D01*
X27707000Y-33975800D01*
X27710000Y-33976800D01*
X27712000Y-33978800D01*
X27714000Y-33979800D01*
X27716000Y-33981800D01*
X27718000Y-33982800D01*
X27720000Y-33984800D01*
X27722000Y-33986800D01*
X27724000Y-33988800D01*
X27726000Y-33990800D01*
X27727000Y-33992800D01*
X27729000Y-33994800D01*
X27730000Y-33996800D01*
X27732000Y-33998800D01*
X27733000Y-34001800D01*
X27734000Y-34003800D01*
X27735000Y-34006800D01*
X27735000Y-34008800D01*
X27736000Y-34011800D01*
X27736000Y-34013800D01*
X27737000Y-34016800D01*
X27737000Y-34018800D01*
X27737000Y-34021800D01*
X27737000Y-34081800D01*
X27737000Y-34084800D01*
X27737000Y-34086800D01*
X27736000Y-34089800D01*
X27736000Y-34091800D01*
X27735000Y-34094800D01*
X27735000Y-34096800D01*
X27734000Y-34099800D01*
X27733000Y-34101800D01*
X27732000Y-34104800D01*
X27730000Y-34106800D01*
X27729000Y-34108800D01*
X27727000Y-34110800D01*
X27726000Y-34112800D01*
X27724000Y-34114800D01*
X27722000Y-34116800D01*
X27720000Y-34118800D01*
X27718000Y-34120800D01*
X27716000Y-34121800D01*
X27714000Y-34123800D01*
X27712000Y-34124800D01*
X27710000Y-34126800D01*
X27707000Y-34127800D01*
X27705000Y-34128800D01*
X27702000Y-34129800D01*
X27700000Y-34129800D01*
X27697000Y-34130800D01*
X27695000Y-34130800D01*
X27692000Y-34131800D01*
X27690000Y-34131800D01*
X27687000Y-34131800D01*
X27427000Y-34131800D01*
X27424000Y-34131800D01*
X27422000Y-34131800D01*
X27419000Y-34130800D01*
X27417000Y-34130800D01*
X27414000Y-34129800D01*
X27412000Y-34129800D01*
X27409000Y-34128800D01*
X27407000Y-34127800D01*
X27404000Y-34126800D01*
X27402000Y-34124800D01*
X27400000Y-34123800D01*
X27398000Y-34121800D01*
X27396000Y-34120800D01*
X27394000Y-34118800D01*
X27392000Y-34116800D01*
X27390000Y-34114800D01*
X27388000Y-34112800D01*
X27387000Y-34110800D01*
X27385000Y-34108800D01*
X27384000Y-34106800D01*
X27382000Y-34104800D01*
X27381000Y-34101800D01*
X27380000Y-34099800D01*
X27379000Y-34096800D01*
X27379000Y-34094800D01*
X27378000Y-34091800D01*
X27378000Y-34089800D01*
X27377000Y-34086800D01*
X27377000Y-34084800D01*
X27377000Y-34081800D01*
X27377000Y-34021800D01*
X27377000Y-34018800D01*
X27377000Y-34016800D01*
X27378000Y-34013800D01*
X27378000Y-34011800D01*
X27379000Y-34008800D01*
X27379000Y-34006800D01*
X27380000Y-34003800D01*
X27381000Y-34001800D01*
X27382000Y-33998800D01*
X27384000Y-33996800D01*
X27385000Y-33994800D01*
X27387000Y-33992800D01*
X27388000Y-33990800D01*
X27390000Y-33988800D01*
X27392000Y-33986800D01*
X27394000Y-33984800D01*
X27396000Y-33982800D01*
X27398000Y-33981800D01*
X27400000Y-33979800D01*
X27402000Y-33978800D01*
X27404000Y-33976800D01*
X27407000Y-33975800D01*
X27409000Y-33974800D01*
X27412000Y-33973800D01*
X27414000Y-33973800D01*
X27417000Y-33972800D01*
X27419000Y-33972800D01*
X27422000Y-33971800D01*
X27424000Y-33971800D01*
X27427000Y-33971800D01*
X27687000Y-33971800D01*
X27690000Y-33971800D01*
X27692000Y-33971800D01*
X27695000Y-33972800D01*
G37*
%TD*%
D11*
%TO.C,U2*%
X75170000Y-25654000D03*
X75170000Y-26924000D03*
X75170000Y-28194000D03*
X75170000Y-29464000D03*
X75170000Y-30734000D03*
X75170000Y-32004000D03*
X75170000Y-33274000D03*
X75170000Y-34544000D03*
X75170000Y-35814000D03*
X75170000Y-37084000D03*
X75170000Y-38354000D03*
X75170000Y-39624000D03*
X75170000Y-40894000D03*
X75170000Y-42164000D03*
D12*
X76935000Y-43414000D03*
X78205000Y-43414000D03*
X79475000Y-43414000D03*
X80745000Y-43414000D03*
X82015000Y-43414000D03*
X83285000Y-43414000D03*
X84555000Y-43414000D03*
X85825000Y-43414000D03*
X87095000Y-43414000D03*
X88365000Y-43414000D03*
X89635000Y-43414000D03*
X90905000Y-43414000D03*
D11*
X92670000Y-42164000D03*
X92670000Y-40894000D03*
X92670000Y-39624000D03*
X92670000Y-38354000D03*
X92670000Y-37084000D03*
X92670000Y-35814000D03*
X92670000Y-34544000D03*
X92670000Y-33274000D03*
X92670000Y-32004000D03*
X92670000Y-30734000D03*
X92670000Y-29464000D03*
X92670000Y-28194000D03*
X92670000Y-26924000D03*
X92670000Y-25654000D03*
D13*
X82420000Y-33374000D03*
X81020000Y-33374000D03*
X83820000Y-33374000D03*
X81020000Y-34774000D03*
X82420000Y-34774000D03*
X83820000Y-34774000D03*
X81020000Y-31974000D03*
X82420000Y-31974000D03*
X83820000Y-31974000D03*
%TD*%
D14*
%TO.C,R5*%
X60706000Y-35751000D03*
X60706000Y-37401000D03*
%TD*%
D15*
%TO.C,R16*%
X42293700Y-36576000D03*
X43943700Y-36576000D03*
%TD*%
D16*
%TO.C,C5*%
X51497000Y-30304000D03*
X49947000Y-30304000D03*
%TD*%
D17*
%TO.C,C14*%
X34023000Y-42164000D03*
X35573000Y-42164000D03*
%TD*%
D18*
%TO.C,RESET1*%
X56599000Y-26611000D03*
X56599000Y-28761000D03*
X60749000Y-26611000D03*
X60749000Y-28761000D03*
%TD*%
D19*
%TO.C,D3*%
X60706000Y-40411500D03*
X60706000Y-38836500D03*
%TD*%
D20*
%TO.C,C8*%
X28827000Y-33822000D03*
X28827000Y-32272000D03*
%TD*%
D21*
%TO.C,C3*%
X58166000Y-38874500D03*
X58166000Y-40424500D03*
%TD*%
D15*
%TO.C,R13*%
X66993000Y-38100000D03*
X68643000Y-38100000D03*
%TD*%
D22*
%TO.C,U4*%
X40221700Y-37655500D03*
X40221700Y-37020500D03*
X40221700Y-36385500D03*
X40221700Y-35750500D03*
X40221700Y-35115500D03*
X40221700Y-34480500D03*
X40221700Y-33845500D03*
X40221700Y-33210500D03*
X40221700Y-32575500D03*
X40221700Y-31940500D03*
X35021700Y-31940500D03*
X35021700Y-32575500D03*
X35021700Y-33210500D03*
X35021700Y-33845500D03*
X35021700Y-34480500D03*
X35021700Y-35115500D03*
X35021700Y-35750500D03*
X35021700Y-36385500D03*
X35021700Y-37020500D03*
X35021700Y-37655500D03*
%TD*%
D23*
%TO.C,R1*%
X23493000Y-27999000D03*
X23493000Y-26349000D03*
%TD*%
D17*
%TO.C,C10*%
X70332000Y-25400000D03*
X71882000Y-25400000D03*
%TD*%
D24*
%TO.C,RV1*%
X41574000Y-46802000D03*
X50374000Y-46802000D03*
D25*
X48474000Y-53802000D03*
X45974000Y-53802000D03*
X43474000Y-53802000D03*
%TD*%
D26*
%TO.C,J1*%
X68580000Y-52807000D03*
D27*
X71120000Y-52807000D03*
X73660000Y-52807000D03*
X76200000Y-52807000D03*
X78740000Y-52807000D03*
X81280000Y-52807000D03*
X83820000Y-52807000D03*
X86360000Y-52807000D03*
X88900000Y-52807000D03*
X91440000Y-52807000D03*
X93980000Y-52807000D03*
X96520000Y-52807000D03*
%TD*%
D28*
%TO.C,3V3*%
X59563000Y-44069000D03*
%TD*%
D21*
%TO.C,C12*%
X62484000Y-30467000D03*
X62484000Y-32017000D03*
%TD*%
D15*
%TO.C,R9*%
X42293700Y-39116000D03*
X43943700Y-39116000D03*
%TD*%
D29*
%TO.C,R7*%
X71932000Y-26924000D03*
X70282000Y-26924000D03*
%TD*%
D23*
%TO.C,R11*%
X49468700Y-38671000D03*
X49468700Y-37021000D03*
%TD*%
D28*
%TO.C,C_PU*%
X54610000Y-32512000D03*
%TD*%
D30*
%TO.C,U1*%
X53726500Y-36733500D03*
X53726500Y-37683500D03*
X53726500Y-38633500D03*
X56001500Y-38633500D03*
X56001500Y-36733500D03*
%TD*%
D15*
%TO.C,R8*%
X42293700Y-33782000D03*
X43943700Y-33782000D03*
%TD*%
%TO.C,R15*%
X66993000Y-33528000D03*
X68643000Y-33528000D03*
%TD*%
D31*
%TO.C,GND*%
X44196000Y-30861000D03*
%TD*%
D30*
%TO.C,Q2*%
X45537200Y-37658000D03*
X45537200Y-39558000D03*
X47812200Y-38608000D03*
%TD*%
D21*
%TO.C,C2*%
X58166000Y-35826500D03*
X58166000Y-37376500D03*
%TD*%
D28*
%TO.C,5V*%
X64135000Y-47625000D03*
%TD*%
D21*
%TO.C,C4*%
X60706000Y-30467000D03*
X60706000Y-32017000D03*
%TD*%
D29*
%TO.C,R6*%
X31938000Y-33809000D03*
X30288000Y-33809000D03*
%TD*%
D17*
%TO.C,C1*%
X53340000Y-40132000D03*
X54890000Y-40132000D03*
%TD*%
D15*
%TO.C,R12*%
X66993000Y-40386000D03*
X68643000Y-40386000D03*
%TD*%
D16*
%TO.C,C11*%
X68085000Y-26924000D03*
X66535000Y-26924000D03*
%TD*%
D21*
%TO.C,C7*%
X38100000Y-40627000D03*
X38100000Y-42177000D03*
%TD*%
D20*
%TO.C,C13*%
X34004000Y-55766000D03*
X34004000Y-54216000D03*
%TD*%
D32*
%TO.C,J3*%
X24860000Y-42926000D03*
X24860000Y-54356000D03*
D33*
X29340000Y-44196000D03*
D34*
X31880000Y-45466000D03*
X29340000Y-46736000D03*
X31880000Y-48006000D03*
X29340000Y-49276000D03*
X31880000Y-50546000D03*
X29340000Y-51816000D03*
X31880000Y-53086000D03*
%TD*%
D14*
%TO.C,R3*%
X62484000Y-27115000D03*
X62484000Y-28765000D03*
%TD*%
D35*
%TO.C,FB1*%
X27811000Y-38885000D03*
X27811000Y-38323000D03*
%TD*%
D15*
%TO.C,R4*%
X30288000Y-35333000D03*
X31938000Y-35333000D03*
%TD*%
D18*
%TO.C,BOOT1*%
X48725000Y-26611000D03*
X48725000Y-28761000D03*
X52875000Y-26611000D03*
X52875000Y-28761000D03*
%TD*%
D30*
%TO.C,Q1*%
X45537200Y-33594000D03*
X45537200Y-35494000D03*
X47812200Y-34544000D03*
%TD*%
D21*
%TO.C,C9*%
X28827000Y-35320000D03*
X28827000Y-36870000D03*
%TD*%
D31*
%TO.C,GND*%
X73279000Y-58420000D03*
%TD*%
D15*
%TO.C,R14*%
X66993000Y-35814000D03*
X68643000Y-35814000D03*
%TD*%
D17*
%TO.C,C6*%
X29576000Y-38350000D03*
X31126000Y-38350000D03*
%TD*%
D23*
%TO.C,R10*%
X49468700Y-35369000D03*
X49468700Y-33719000D03*
%TD*%
D36*
%TO.C,J2*%
X24173000Y-31286000D03*
D37*
X21073000Y-32886000D03*
X21073000Y-35686000D03*
D38*
X24173000Y-37286000D03*
D39*
X25273000Y-31186000D03*
X25273000Y-31936000D03*
D40*
X25273000Y-32536000D03*
X25273000Y-34036000D03*
X25273000Y-35036000D03*
X25273000Y-36036000D03*
D39*
X25273000Y-36636000D03*
X25273000Y-37386000D03*
X25273000Y-37386000D03*
X25273000Y-36636000D03*
D40*
X25273000Y-35536000D03*
X25273000Y-34536000D03*
X25273000Y-33536000D03*
X25273000Y-33036000D03*
D39*
X25273000Y-31936000D03*
X25273000Y-31186000D03*
D41*
X24898000Y-29966000D03*
D42*
X21073000Y-29966000D03*
D41*
X24898000Y-38606000D03*
D42*
X21073000Y-38606000D03*
%TD*%
D23*
%TO.C,R2*%
X27049000Y-27999000D03*
X27049000Y-26349000D03*
%TD*%
D43*
%TO.C,DS1*%
X20916900Y-27028800D03*
X20916900Y-58029500D03*
X95915480Y-27028800D03*
X95916000Y-58029500D03*
D44*
X26416000Y-58029500D03*
D45*
X28956000Y-58029500D03*
X31496000Y-58029500D03*
X34036000Y-58029500D03*
X36576000Y-58029500D03*
X39116000Y-58029500D03*
X41656000Y-58029500D03*
X44196000Y-58029500D03*
X46736000Y-58029500D03*
X49276000Y-58029500D03*
X51816000Y-58029500D03*
X54356000Y-58029500D03*
X56896000Y-58029500D03*
X59436000Y-58029500D03*
X61976000Y-58029500D03*
X64516000Y-58029500D03*
%TD*%
M02*
