%TF.GenerationSoftware,KiCad,Pcbnew,8.0.4*%
%TF.CreationDate,2024-11-18T06:36:06-07:00*%
%TF.ProjectId,SnakeTank,536e616b-6554-4616-9e6b-2e6b69636164,rev?*%
%TF.SameCoordinates,Original*%
%TF.FileFunction,Legend,Top*%
%TF.FilePolarity,Positive*%
%FSLAX46Y46*%
G04 Gerber Fmt 4.6, Leading zero omitted, Abs format (unit mm)*
G04 Created by KiCad (PCBNEW 8.0.4) date 2024-11-18 06:36:06*
%MOMM*%
%LPD*%
G01*
G04 APERTURE LIST*
%ADD10C,0.285750*%
%ADD11C,0.150000*%
%ADD12C,0.050800*%
%ADD13C,0.120000*%
%ADD14C,0.200000*%
%ADD15C,0.127000*%
%ADD16C,0.000000*%
G04 APERTURE END LIST*
D10*
G36*
X30425739Y-25762760D02*
G01*
X30215524Y-25821107D01*
X30197217Y-25760306D01*
X30172831Y-25709810D01*
X30135542Y-25662818D01*
X30089499Y-25630665D01*
X30034701Y-25613352D01*
X29993305Y-25610055D01*
X29932351Y-25615071D01*
X29876449Y-25632177D01*
X29832224Y-25661422D01*
X29798360Y-25709014D01*
X29785459Y-25765167D01*
X29785045Y-25778673D01*
X29791444Y-25834467D01*
X29815509Y-25887392D01*
X29839203Y-25912954D01*
X29887151Y-25942829D01*
X29943421Y-25966346D01*
X29999115Y-25984256D01*
X30014522Y-25988609D01*
X30080406Y-26008430D01*
X30145509Y-26028086D01*
X30203851Y-26049542D01*
X30255432Y-26072797D01*
X30308405Y-26103078D01*
X30357900Y-26141681D01*
X30380234Y-26165323D01*
X30411812Y-26214114D01*
X30433056Y-26271605D01*
X30443263Y-26330012D01*
X30445560Y-26378329D01*
X30441025Y-26443841D01*
X30427422Y-26503445D01*
X30404751Y-26557141D01*
X30373011Y-26604928D01*
X30332202Y-26646806D01*
X30316583Y-26659453D01*
X30269457Y-26690287D01*
X30216226Y-26714742D01*
X30156891Y-26732817D01*
X30091451Y-26744513D01*
X30032254Y-26749386D01*
X29994701Y-26750183D01*
X29934936Y-26747941D01*
X29878824Y-26741214D01*
X29816312Y-26727222D01*
X29759060Y-26706771D01*
X29707069Y-26679863D01*
X29675331Y-26658336D01*
X29630196Y-26618667D01*
X29591766Y-26572451D01*
X29560043Y-26519690D01*
X29535026Y-26460383D01*
X29523742Y-26423555D01*
X29730886Y-26357112D01*
X29746955Y-26412266D01*
X29772417Y-26465679D01*
X29809876Y-26514305D01*
X29832224Y-26534385D01*
X29880335Y-26563948D01*
X29934846Y-26581240D01*
X29989955Y-26586311D01*
X30045898Y-26583471D01*
X30105337Y-26571935D01*
X30161280Y-26546378D01*
X30205335Y-26500410D01*
X30224915Y-26447166D01*
X30228645Y-26404571D01*
X30222443Y-26347988D01*
X30199123Y-26295067D01*
X30176161Y-26270012D01*
X30125400Y-26237898D01*
X30070996Y-26214535D01*
X30010883Y-26194286D01*
X29985488Y-26186819D01*
X29921000Y-26167835D01*
X29859182Y-26147462D01*
X29803716Y-26125426D01*
X29745542Y-26096787D01*
X29696515Y-26065753D01*
X29650878Y-26026521D01*
X29635130Y-26008709D01*
X29603687Y-25958755D01*
X29582534Y-25899659D01*
X29572371Y-25839455D01*
X29570084Y-25789561D01*
X29574383Y-25732116D01*
X29590264Y-25670729D01*
X29617848Y-25615407D01*
X29657134Y-25566150D01*
X29692360Y-25534679D01*
X29744908Y-25500087D01*
X29804108Y-25473992D01*
X29860145Y-25458387D01*
X29921071Y-25449024D01*
X29986884Y-25445903D01*
X30048520Y-25448688D01*
X30105915Y-25457042D01*
X30175847Y-25476846D01*
X30238241Y-25506551D01*
X30293098Y-25546159D01*
X30340417Y-25595668D01*
X30380199Y-25655078D01*
X30405089Y-25706135D01*
X30425739Y-25762760D01*
G37*
G36*
X30844772Y-25856841D02*
G01*
X30844772Y-25999775D01*
X30883218Y-25953647D01*
X30925971Y-25914716D01*
X30973032Y-25882982D01*
X30982961Y-25877499D01*
X31038564Y-25854023D01*
X31095658Y-25841382D01*
X31134550Y-25838974D01*
X31191396Y-25843737D01*
X31247756Y-25860483D01*
X31296078Y-25889286D01*
X31323827Y-25915187D01*
X31356951Y-25962417D01*
X31377807Y-26018262D01*
X31386088Y-26075888D01*
X31386640Y-26096647D01*
X31386640Y-26714450D01*
X31179217Y-26714450D01*
X31179217Y-26155273D01*
X31173353Y-26099579D01*
X31148579Y-26048072D01*
X31098312Y-26017363D01*
X31056662Y-26012338D01*
X30999432Y-26023295D01*
X30947982Y-26050860D01*
X30940527Y-26056168D01*
X30898283Y-26094419D01*
X30863459Y-26138073D01*
X30851193Y-26156948D01*
X30851193Y-26714450D01*
X30648516Y-26714450D01*
X30648516Y-25856841D01*
X30844772Y-25856841D01*
G37*
G36*
X32037133Y-25841467D02*
G01*
X32109329Y-25852546D01*
X32170829Y-25872489D01*
X32221634Y-25901296D01*
X32270099Y-25949769D01*
X32301851Y-26012092D01*
X32315221Y-26071921D01*
X32318229Y-26122610D01*
X32318229Y-26461801D01*
X32319119Y-26524178D01*
X32321789Y-26587078D01*
X32326238Y-26650502D01*
X32331591Y-26706427D01*
X32332467Y-26714450D01*
X32146261Y-26714450D01*
X32137320Y-26657859D01*
X32131465Y-26607248D01*
X32092684Y-26649752D01*
X32047740Y-26683462D01*
X31996632Y-26708378D01*
X31939361Y-26724500D01*
X31875926Y-26731828D01*
X31853412Y-26732316D01*
X31791349Y-26727518D01*
X31736370Y-26713123D01*
X31682986Y-26685459D01*
X31647664Y-26655545D01*
X31612920Y-26609504D01*
X31591045Y-26555829D01*
X31582037Y-26494521D01*
X31581780Y-26481343D01*
X31583498Y-26465151D01*
X31774965Y-26465151D01*
X31786139Y-26524529D01*
X31824765Y-26567713D01*
X31883117Y-26586066D01*
X31916225Y-26587986D01*
X31977346Y-26579645D01*
X32032011Y-26554625D01*
X32080220Y-26512924D01*
X32117107Y-26462753D01*
X32121973Y-26454543D01*
X32121973Y-26303512D01*
X32064970Y-26306292D01*
X32007967Y-26312119D01*
X31950964Y-26320994D01*
X31919296Y-26327241D01*
X31863058Y-26344718D01*
X31811048Y-26377631D01*
X31780039Y-26427980D01*
X31774965Y-26465151D01*
X31583498Y-26465151D01*
X31588814Y-26415058D01*
X31609915Y-26357183D01*
X31645084Y-26307719D01*
X31694320Y-26266666D01*
X31743838Y-26239879D01*
X31802359Y-26218474D01*
X31869883Y-26202453D01*
X31925734Y-26193624D01*
X31986366Y-26186679D01*
X32043341Y-26182149D01*
X32103976Y-26179061D01*
X32121973Y-26178444D01*
X32121973Y-26129868D01*
X32116124Y-26073127D01*
X32092360Y-26021633D01*
X32080377Y-26009267D01*
X32027408Y-25984662D01*
X31968988Y-25978838D01*
X31912950Y-25986906D01*
X31862990Y-26013459D01*
X31854249Y-26020992D01*
X31819912Y-26066218D01*
X31800904Y-26120787D01*
X31800090Y-26124843D01*
X31610814Y-26075430D01*
X31631481Y-26020011D01*
X31667350Y-25961128D01*
X31714370Y-25913790D01*
X31772540Y-25877998D01*
X31827105Y-25857678D01*
X31888806Y-25844747D01*
X31957643Y-25839205D01*
X31975967Y-25838974D01*
X32037133Y-25841467D01*
G37*
G36*
X33312352Y-25856841D02*
G01*
X33017828Y-26177327D01*
X33328823Y-26714450D01*
X33106604Y-26714450D01*
X32888293Y-26309933D01*
X32767413Y-26439747D01*
X32767413Y-26714450D01*
X32568086Y-26714450D01*
X32568086Y-25445903D01*
X32767413Y-25445903D01*
X32767413Y-26231486D01*
X33085387Y-25856841D01*
X33312352Y-25856841D01*
G37*
G36*
X33882759Y-25842198D02*
G01*
X33945467Y-25854577D01*
X34002680Y-25876241D01*
X34054396Y-25907190D01*
X34100616Y-25947423D01*
X34121665Y-25971021D01*
X34155250Y-26018700D01*
X34181887Y-26071915D01*
X34201575Y-26130664D01*
X34214314Y-26194950D01*
X34219622Y-26252749D01*
X34220491Y-26289274D01*
X34220491Y-26329754D01*
X33623626Y-26329754D01*
X33628285Y-26390752D01*
X33642661Y-26450366D01*
X33669978Y-26505415D01*
X33688114Y-26528523D01*
X33732573Y-26564125D01*
X33787258Y-26584950D01*
X33845845Y-26591057D01*
X33903324Y-26583282D01*
X33957531Y-26555356D01*
X33999489Y-26507121D01*
X34026155Y-26448255D01*
X34032051Y-26428580D01*
X34215745Y-26481064D01*
X34191732Y-26539951D01*
X34161289Y-26590987D01*
X34124417Y-26634171D01*
X34081115Y-26669503D01*
X34031384Y-26696984D01*
X33975223Y-26716613D01*
X33912632Y-26728391D01*
X33843612Y-26732316D01*
X33780052Y-26729093D01*
X33721453Y-26719421D01*
X33667817Y-26703302D01*
X33610002Y-26675448D01*
X33559333Y-26638310D01*
X33522567Y-26600269D01*
X33489740Y-26554216D01*
X33463706Y-26502529D01*
X33444463Y-26445209D01*
X33432011Y-26382255D01*
X33426823Y-26325490D01*
X33425974Y-26289553D01*
X33429041Y-26222697D01*
X33432955Y-26196311D01*
X33626976Y-26196311D01*
X34022559Y-26196311D01*
X34013942Y-26133579D01*
X33993056Y-26072337D01*
X33960668Y-26026404D01*
X33908344Y-25992168D01*
X33851034Y-25979409D01*
X33829374Y-25978559D01*
X33773229Y-25985047D01*
X33721232Y-26007173D01*
X33679460Y-26045001D01*
X33650749Y-26092974D01*
X33632874Y-26151469D01*
X33626976Y-26196311D01*
X33432955Y-26196311D01*
X33438242Y-26160666D01*
X33453578Y-26103461D01*
X33475047Y-26051082D01*
X33508907Y-25994595D01*
X33551600Y-25945058D01*
X33601482Y-25903723D01*
X33657081Y-25872539D01*
X33718397Y-25851509D01*
X33775505Y-25841564D01*
X33826303Y-25838974D01*
X33882759Y-25842198D01*
G37*
G36*
X35297248Y-25463770D02*
G01*
X35297248Y-25638809D01*
X34925952Y-25638809D01*
X34925952Y-26714450D01*
X34706804Y-26714450D01*
X34706804Y-25638809D01*
X34338579Y-25638809D01*
X34338579Y-25463770D01*
X35297248Y-25463770D01*
G37*
G36*
X35704305Y-25841467D02*
G01*
X35776501Y-25852546D01*
X35838001Y-25872489D01*
X35888805Y-25901296D01*
X35937270Y-25949769D01*
X35969023Y-26012092D01*
X35982393Y-26071921D01*
X35985401Y-26122610D01*
X35985401Y-26461801D01*
X35986291Y-26524178D01*
X35988960Y-26587078D01*
X35993409Y-26650502D01*
X35998762Y-26706427D01*
X35999638Y-26714450D01*
X35813432Y-26714450D01*
X35804491Y-26657859D01*
X35798636Y-26607248D01*
X35759856Y-26649752D01*
X35714912Y-26683462D01*
X35663804Y-26708378D01*
X35606533Y-26724500D01*
X35543098Y-26731828D01*
X35520583Y-26732316D01*
X35458521Y-26727518D01*
X35403542Y-26713123D01*
X35350158Y-26685459D01*
X35314835Y-26655545D01*
X35280092Y-26609504D01*
X35258216Y-26555829D01*
X35249209Y-26494521D01*
X35248951Y-26481343D01*
X35250669Y-26465151D01*
X35442137Y-26465151D01*
X35453311Y-26524529D01*
X35491936Y-26567713D01*
X35550289Y-26586066D01*
X35583397Y-26587986D01*
X35644517Y-26579645D01*
X35699182Y-26554625D01*
X35747391Y-26512924D01*
X35784278Y-26462753D01*
X35789145Y-26454543D01*
X35789145Y-26303512D01*
X35732142Y-26306292D01*
X35675139Y-26312119D01*
X35618136Y-26320994D01*
X35586467Y-26327241D01*
X35530229Y-26344718D01*
X35478219Y-26377631D01*
X35447211Y-26427980D01*
X35442137Y-26465151D01*
X35250669Y-26465151D01*
X35255985Y-26415058D01*
X35277086Y-26357183D01*
X35312255Y-26307719D01*
X35361492Y-26266666D01*
X35411009Y-26239879D01*
X35469530Y-26218474D01*
X35537054Y-26202453D01*
X35592906Y-26193624D01*
X35653538Y-26186679D01*
X35710513Y-26182149D01*
X35771148Y-26179061D01*
X35789145Y-26178444D01*
X35789145Y-26129868D01*
X35783295Y-26073127D01*
X35759532Y-26021633D01*
X35747548Y-26009267D01*
X35694579Y-25984662D01*
X35636160Y-25978838D01*
X35580122Y-25986906D01*
X35530162Y-26013459D01*
X35521421Y-26020992D01*
X35487083Y-26066218D01*
X35468076Y-26120787D01*
X35467262Y-26124843D01*
X35277985Y-26075430D01*
X35298652Y-26020011D01*
X35334522Y-25961128D01*
X35381542Y-25913790D01*
X35439712Y-25877998D01*
X35494277Y-25857678D01*
X35555977Y-25844747D01*
X35624815Y-25839205D01*
X35643139Y-25838974D01*
X35704305Y-25841467D01*
G37*
G36*
X36431514Y-25856841D02*
G01*
X36431514Y-25999775D01*
X36469960Y-25953647D01*
X36512713Y-25914716D01*
X36559774Y-25882982D01*
X36569703Y-25877499D01*
X36625305Y-25854023D01*
X36682400Y-25841382D01*
X36721292Y-25838974D01*
X36778138Y-25843737D01*
X36834498Y-25860483D01*
X36882820Y-25889286D01*
X36910569Y-25915187D01*
X36943693Y-25962417D01*
X36964549Y-26018262D01*
X36972830Y-26075888D01*
X36973382Y-26096647D01*
X36973382Y-26714450D01*
X36765959Y-26714450D01*
X36765959Y-26155273D01*
X36760094Y-26099579D01*
X36735320Y-26048072D01*
X36685053Y-26017363D01*
X36643403Y-26012338D01*
X36586174Y-26023295D01*
X36534724Y-26050860D01*
X36527269Y-26056168D01*
X36485025Y-26094419D01*
X36450200Y-26138073D01*
X36437935Y-26156948D01*
X36437935Y-26714450D01*
X36235258Y-26714450D01*
X36235258Y-25856841D01*
X36431514Y-25856841D01*
G37*
G36*
X37967784Y-25856841D02*
G01*
X37673260Y-26177327D01*
X37984255Y-26714450D01*
X37762036Y-26714450D01*
X37543725Y-26309933D01*
X37422845Y-26439747D01*
X37422845Y-26714450D01*
X37223518Y-26714450D01*
X37223518Y-25445903D01*
X37422845Y-25445903D01*
X37422845Y-26231486D01*
X37740819Y-25856841D01*
X37967784Y-25856841D01*
G37*
G36*
X39136410Y-25466780D02*
G01*
X39207663Y-25475812D01*
X39271144Y-25490865D01*
X39326851Y-25511940D01*
X39389036Y-25549405D01*
X39437402Y-25597575D01*
X39471950Y-25656449D01*
X39492678Y-25726028D01*
X39499156Y-25785237D01*
X39499587Y-25806311D01*
X39495068Y-25866821D01*
X39481511Y-25922166D01*
X39455456Y-25978256D01*
X39427282Y-26017363D01*
X39382839Y-26060438D01*
X39334868Y-26092306D01*
X39279344Y-26117637D01*
X39252243Y-26126798D01*
X39540346Y-26714450D01*
X39307240Y-26714450D01*
X39054312Y-26159181D01*
X38997920Y-26160577D01*
X38821205Y-26160577D01*
X38821205Y-26714450D01*
X38609036Y-26714450D01*
X38609036Y-25999775D01*
X38821205Y-25999775D01*
X39038678Y-25999775D01*
X39095930Y-25996800D01*
X39156760Y-25984715D01*
X39214011Y-25957941D01*
X39254087Y-25917780D01*
X39276988Y-25864231D01*
X39282952Y-25809382D01*
X39274698Y-25747144D01*
X39244204Y-25690809D01*
X39191240Y-25652000D01*
X39127959Y-25632685D01*
X39062615Y-25626425D01*
X39048170Y-25626246D01*
X38821205Y-25626246D01*
X38821205Y-25999775D01*
X38609036Y-25999775D01*
X38609036Y-25463770D01*
X39057383Y-25463770D01*
X39136410Y-25466780D01*
G37*
G36*
X40097073Y-25842198D02*
G01*
X40159782Y-25854577D01*
X40216994Y-25876241D01*
X40268710Y-25907190D01*
X40314930Y-25947423D01*
X40335979Y-25971021D01*
X40369565Y-26018700D01*
X40396202Y-26071915D01*
X40415890Y-26130664D01*
X40428629Y-26194950D01*
X40433937Y-26252749D01*
X40434805Y-26289274D01*
X40434805Y-26329754D01*
X39837941Y-26329754D01*
X39842600Y-26390752D01*
X39856975Y-26450366D01*
X39884293Y-26505415D01*
X39902429Y-26528523D01*
X39946888Y-26564125D01*
X40001572Y-26584950D01*
X40060160Y-26591057D01*
X40117639Y-26583282D01*
X40171845Y-26555356D01*
X40213804Y-26507121D01*
X40240470Y-26448255D01*
X40246366Y-26428580D01*
X40430060Y-26481064D01*
X40406047Y-26539951D01*
X40375604Y-26590987D01*
X40338732Y-26634171D01*
X40295430Y-26669503D01*
X40245699Y-26696984D01*
X40189538Y-26716613D01*
X40126947Y-26728391D01*
X40057927Y-26732316D01*
X39994366Y-26729093D01*
X39935768Y-26719421D01*
X39882131Y-26703302D01*
X39824317Y-26675448D01*
X39773648Y-26638310D01*
X39736881Y-26600269D01*
X39704055Y-26554216D01*
X39678020Y-26502529D01*
X39658777Y-26445209D01*
X39646326Y-26382255D01*
X39641138Y-26325490D01*
X39640289Y-26289553D01*
X39643356Y-26222697D01*
X39647270Y-26196311D01*
X39841291Y-26196311D01*
X40236874Y-26196311D01*
X40228256Y-26133579D01*
X40207371Y-26072337D01*
X40174983Y-26026404D01*
X40122659Y-25992168D01*
X40065348Y-25979409D01*
X40043689Y-25978559D01*
X39987544Y-25985047D01*
X39935546Y-26007173D01*
X39893775Y-26045001D01*
X39865064Y-26092974D01*
X39847188Y-26151469D01*
X39841291Y-26196311D01*
X39647270Y-26196311D01*
X39652557Y-26160666D01*
X39667892Y-26103461D01*
X39689362Y-26051082D01*
X39723222Y-25994595D01*
X39765915Y-25945058D01*
X39815797Y-25903723D01*
X39871395Y-25872539D01*
X39932712Y-25851509D01*
X39989819Y-25841564D01*
X40040618Y-25838974D01*
X40097073Y-25842198D01*
G37*
G36*
X41327031Y-25856841D02*
G01*
X41050095Y-26714450D01*
X40810568Y-26714450D01*
X40537261Y-25856841D01*
X40753896Y-25856841D01*
X40845743Y-26212223D01*
X40860334Y-26269279D01*
X40873993Y-26324982D01*
X40887451Y-26381455D01*
X40889014Y-26388100D01*
X40903057Y-26446946D01*
X40916561Y-26502974D01*
X40926702Y-26544156D01*
X40945407Y-26544156D01*
X40959923Y-26489846D01*
X40975103Y-26431264D01*
X40989760Y-26373877D01*
X40991749Y-26366046D01*
X41006689Y-26308963D01*
X41021359Y-26254171D01*
X41034183Y-26207757D01*
X41129379Y-25856841D01*
X41327031Y-25856841D01*
G37*
G36*
X41935342Y-25481637D02*
G01*
X41935342Y-26558394D01*
X42163703Y-26558394D01*
X42163703Y-26714450D01*
X41502629Y-26714450D01*
X41502629Y-26558394D01*
X41743832Y-26558394D01*
X41743832Y-25679568D01*
X41692482Y-25710678D01*
X41637538Y-25738682D01*
X41578999Y-25763580D01*
X41524830Y-25782819D01*
X41516867Y-25785373D01*
X41484483Y-25621780D01*
X41539274Y-25604264D01*
X41593516Y-25582705D01*
X41647208Y-25557102D01*
X41700351Y-25527455D01*
X41752944Y-25493765D01*
X41770353Y-25481637D01*
X41935342Y-25481637D01*
G37*
G36*
X42612607Y-26492231D02*
G01*
X42612607Y-26714450D01*
X42382572Y-26714450D01*
X42382572Y-26492231D01*
X42612607Y-26492231D01*
G37*
G36*
X43241812Y-25503429D02*
G01*
X43297549Y-25515207D01*
X43357362Y-25539704D01*
X43409461Y-25575507D01*
X43453846Y-25622617D01*
X43479150Y-25660305D01*
X43504242Y-25710921D01*
X43525082Y-25768898D01*
X43541668Y-25834235D01*
X43551875Y-25891805D01*
X43559361Y-25954086D01*
X43564124Y-26021078D01*
X43566165Y-26092781D01*
X43566251Y-26111443D01*
X43565249Y-26174286D01*
X43562246Y-26233733D01*
X43557241Y-26289784D01*
X43547452Y-26359236D01*
X43534105Y-26422651D01*
X43517197Y-26480029D01*
X43491058Y-26543262D01*
X43459357Y-26597062D01*
X43452349Y-26606690D01*
X43413742Y-26649383D01*
X43369109Y-26683244D01*
X43318449Y-26708271D01*
X43261764Y-26724465D01*
X43199052Y-26731826D01*
X43176809Y-26732316D01*
X43115032Y-26728316D01*
X43058816Y-26716313D01*
X42998699Y-26691348D01*
X42946590Y-26654861D01*
X42902490Y-26606851D01*
X42877539Y-26568444D01*
X42853090Y-26517613D01*
X42832785Y-26459339D01*
X42816624Y-26393622D01*
X42806678Y-26335690D01*
X42799385Y-26272995D01*
X42794744Y-26205536D01*
X42792755Y-26133314D01*
X42792672Y-26114514D01*
X42792712Y-26112002D01*
X43000095Y-26112002D01*
X43000832Y-26177768D01*
X43003043Y-26238134D01*
X43007881Y-26305997D01*
X43015023Y-26365423D01*
X43026633Y-26425596D01*
X43044372Y-26480441D01*
X43047274Y-26486926D01*
X43080214Y-26535880D01*
X43129994Y-26566109D01*
X43176809Y-26572911D01*
X43236531Y-26561651D01*
X43283439Y-26527873D01*
X43314700Y-26478218D01*
X43322815Y-26457613D01*
X43338570Y-26396650D01*
X43347433Y-26339797D01*
X43353763Y-26273405D01*
X43357104Y-26210791D01*
X43358687Y-26141552D01*
X43358828Y-26112002D01*
X43358090Y-26046676D01*
X43355879Y-25986794D01*
X43351041Y-25919597D01*
X43343900Y-25860906D01*
X43332289Y-25801705D01*
X43314551Y-25748117D01*
X43311648Y-25741823D01*
X43278543Y-25694140D01*
X43228208Y-25664697D01*
X43180717Y-25658072D01*
X43122255Y-25668895D01*
X43076334Y-25701365D01*
X43045727Y-25749096D01*
X43037783Y-25768902D01*
X43021294Y-25829395D01*
X43012019Y-25885825D01*
X43005395Y-25951736D01*
X43001898Y-26013905D01*
X43000242Y-26082657D01*
X43000095Y-26112002D01*
X42792712Y-26112002D01*
X42793680Y-26051886D01*
X42796705Y-25992663D01*
X42801748Y-25936846D01*
X42811608Y-25867721D01*
X42825054Y-25804651D01*
X42842085Y-25747635D01*
X42868417Y-25684879D01*
X42900351Y-25631583D01*
X42907410Y-25622059D01*
X42945769Y-25580409D01*
X42998038Y-25542709D01*
X43049283Y-25519730D01*
X43106475Y-25505368D01*
X43169616Y-25499623D01*
X43180717Y-25499504D01*
X43241812Y-25503429D01*
G37*
G36*
X29549705Y-27753909D02*
G01*
X29561168Y-27692745D01*
X29579227Y-27637391D01*
X29608631Y-27580155D01*
X29647013Y-27530827D01*
X29687056Y-27494840D01*
X29738650Y-27461985D01*
X29796002Y-27438518D01*
X29850908Y-27425684D01*
X29910223Y-27420037D01*
X29927979Y-27419744D01*
X29992533Y-27423061D01*
X30051355Y-27433013D01*
X30112736Y-27453009D01*
X30166316Y-27482035D01*
X30206032Y-27514103D01*
X30244872Y-27559974D01*
X30272614Y-27612999D01*
X30289260Y-27673177D01*
X30294721Y-27731702D01*
X30294808Y-27740509D01*
X30289950Y-27799458D01*
X30275375Y-27856331D01*
X30251084Y-27911128D01*
X30233391Y-27940674D01*
X30196383Y-27990566D01*
X30159202Y-28033219D01*
X30114673Y-28079237D01*
X30070658Y-28121362D01*
X30046626Y-28143351D01*
X30004481Y-28180553D01*
X29952822Y-28228156D01*
X29906344Y-28273473D01*
X29865049Y-28316504D01*
X29820717Y-28367079D01*
X29784482Y-28414083D01*
X29751689Y-28465773D01*
X29747357Y-28473888D01*
X30299554Y-28473888D01*
X30299554Y-28634690D01*
X29538538Y-28634690D01*
X29538538Y-28491755D01*
X29566860Y-28438778D01*
X29599624Y-28385234D01*
X29636827Y-28331123D01*
X29678472Y-28276445D01*
X29724556Y-28221200D01*
X29762034Y-28179394D01*
X29802010Y-28137269D01*
X29844483Y-28094825D01*
X29889454Y-28052063D01*
X29933502Y-28010060D01*
X29977150Y-27965497D01*
X30016827Y-27920424D01*
X30051113Y-27872867D01*
X30053606Y-27868648D01*
X30075743Y-27817343D01*
X30085483Y-27760160D01*
X30085989Y-27742743D01*
X30079001Y-27686224D01*
X30053185Y-27634079D01*
X30036297Y-27616279D01*
X29987233Y-27587804D01*
X29929192Y-27578349D01*
X29924908Y-27578312D01*
X29862088Y-27588678D01*
X29813108Y-27619777D01*
X29777967Y-27671609D01*
X29758861Y-27732538D01*
X29750707Y-27794947D01*
X29549705Y-27753909D01*
G37*
G36*
X31089883Y-28205885D02*
G01*
X31242868Y-28205885D01*
X31242868Y-28357474D01*
X31089883Y-28357474D01*
X31089883Y-28634690D01*
X30904515Y-28634690D01*
X30904515Y-28357474D01*
X30436626Y-28357474D01*
X30436626Y-28215656D01*
X30441413Y-28205885D01*
X30603849Y-28205885D01*
X30904515Y-28205885D01*
X30904515Y-27936486D01*
X30904969Y-27874639D01*
X30906081Y-27812611D01*
X30907518Y-27754564D01*
X30909418Y-27690736D01*
X30911782Y-27621129D01*
X30914006Y-27561282D01*
X30891952Y-27561282D01*
X30870396Y-27616430D01*
X30846975Y-27673836D01*
X30821689Y-27733498D01*
X30799194Y-27784942D01*
X30775403Y-27837953D01*
X30755438Y-27881490D01*
X30603849Y-28205885D01*
X30441413Y-28205885D01*
X30835280Y-27401877D01*
X31089883Y-27401877D01*
X31089883Y-28205885D01*
G37*
G36*
X31876304Y-27401877D02*
G01*
X31876304Y-28478634D01*
X32104665Y-28478634D01*
X32104665Y-28634690D01*
X31443591Y-28634690D01*
X31443591Y-28478634D01*
X31684793Y-28478634D01*
X31684793Y-27599808D01*
X31633444Y-27630918D01*
X31578500Y-27658922D01*
X31519961Y-27683820D01*
X31465792Y-27703059D01*
X31457829Y-27705613D01*
X31425445Y-27542020D01*
X31480236Y-27524504D01*
X31534478Y-27502945D01*
X31588170Y-27477342D01*
X31641313Y-27447695D01*
X31693906Y-27414005D01*
X31711315Y-27401877D01*
X31876304Y-27401877D01*
G37*
G36*
X32737219Y-27423669D02*
G01*
X32792956Y-27435447D01*
X32852769Y-27459944D01*
X32904868Y-27495747D01*
X32949253Y-27542857D01*
X32974557Y-27580545D01*
X32999649Y-27631161D01*
X33020489Y-27689138D01*
X33037076Y-27754475D01*
X33047283Y-27812045D01*
X33054768Y-27874326D01*
X33059531Y-27941318D01*
X33061573Y-28013021D01*
X33061658Y-28031683D01*
X33060657Y-28094526D01*
X33057653Y-28153973D01*
X33052648Y-28210024D01*
X33042860Y-28279476D01*
X33029512Y-28342891D01*
X33012605Y-28400269D01*
X32986465Y-28463502D01*
X32954764Y-28517302D01*
X32947757Y-28526930D01*
X32909149Y-28569623D01*
X32864516Y-28603484D01*
X32813857Y-28628511D01*
X32757171Y-28644705D01*
X32694459Y-28652066D01*
X32672216Y-28652556D01*
X32610439Y-28648556D01*
X32554223Y-28636553D01*
X32494106Y-28611588D01*
X32441997Y-28575101D01*
X32397897Y-28527091D01*
X32372946Y-28488684D01*
X32348497Y-28437853D01*
X32328192Y-28379579D01*
X32312031Y-28313862D01*
X32302085Y-28255930D01*
X32294792Y-28193235D01*
X32290151Y-28125776D01*
X32288162Y-28053554D01*
X32288079Y-28034754D01*
X32288119Y-28032242D01*
X32495502Y-28032242D01*
X32496239Y-28098008D01*
X32498451Y-28158374D01*
X32503288Y-28226237D01*
X32510430Y-28285663D01*
X32522040Y-28345836D01*
X32539779Y-28400681D01*
X32542682Y-28407166D01*
X32575621Y-28456120D01*
X32625401Y-28486349D01*
X32672216Y-28493151D01*
X32731938Y-28481891D01*
X32778846Y-28448113D01*
X32810108Y-28398458D01*
X32818222Y-28377853D01*
X32833978Y-28316890D01*
X32842840Y-28260037D01*
X32849170Y-28193645D01*
X32852512Y-28131031D01*
X32854094Y-28061792D01*
X32854235Y-28032242D01*
X32853498Y-27966916D01*
X32851286Y-27907034D01*
X32846448Y-27839837D01*
X32839307Y-27781146D01*
X32827696Y-27721945D01*
X32809958Y-27668357D01*
X32807055Y-27662063D01*
X32773950Y-27614380D01*
X32723615Y-27584937D01*
X32676125Y-27578312D01*
X32617663Y-27589135D01*
X32571741Y-27621605D01*
X32541135Y-27669336D01*
X32533190Y-27689142D01*
X32516701Y-27749635D01*
X32507427Y-27806065D01*
X32500802Y-27871976D01*
X32497305Y-27934145D01*
X32495649Y-28002897D01*
X32495502Y-28032242D01*
X32288119Y-28032242D01*
X32289087Y-27972126D01*
X32292113Y-27912903D01*
X32297155Y-27857086D01*
X32307015Y-27787961D01*
X32320461Y-27724891D01*
X32337493Y-27667875D01*
X32363824Y-27605119D01*
X32395758Y-27551823D01*
X32402818Y-27542299D01*
X32441176Y-27500649D01*
X32493445Y-27462949D01*
X32544690Y-27439970D01*
X32601883Y-27425608D01*
X32665023Y-27419863D01*
X32676125Y-27419744D01*
X32737219Y-27423669D01*
G37*
G36*
X33216876Y-27753909D02*
G01*
X33228339Y-27692745D01*
X33246398Y-27637391D01*
X33275803Y-27580155D01*
X33314184Y-27530827D01*
X33354228Y-27494840D01*
X33405822Y-27461985D01*
X33463173Y-27438518D01*
X33518080Y-27425684D01*
X33577394Y-27420037D01*
X33595151Y-27419744D01*
X33659704Y-27423061D01*
X33718526Y-27433013D01*
X33779908Y-27453009D01*
X33833488Y-27482035D01*
X33873204Y-27514103D01*
X33912043Y-27559974D01*
X33939786Y-27612999D01*
X33956431Y-27673177D01*
X33961893Y-27731702D01*
X33961980Y-27740509D01*
X33957121Y-27799458D01*
X33942547Y-27856331D01*
X33918256Y-27911128D01*
X33900562Y-27940674D01*
X33863554Y-27990566D01*
X33826373Y-28033219D01*
X33781845Y-28079237D01*
X33737830Y-28121362D01*
X33713798Y-28143351D01*
X33671653Y-28180553D01*
X33619993Y-28228156D01*
X33573516Y-28273473D01*
X33532220Y-28316504D01*
X33487889Y-28367079D01*
X33451654Y-28414083D01*
X33418860Y-28465773D01*
X33414528Y-28473888D01*
X33966726Y-28473888D01*
X33966726Y-28634690D01*
X33205709Y-28634690D01*
X33205709Y-28491755D01*
X33234032Y-28438778D01*
X33266795Y-28385234D01*
X33303999Y-28331123D01*
X33345643Y-28276445D01*
X33391728Y-28221200D01*
X33429206Y-28179394D01*
X33469181Y-28137269D01*
X33511654Y-28094825D01*
X33556625Y-28052063D01*
X33600673Y-28010060D01*
X33644322Y-27965497D01*
X33683999Y-27920424D01*
X33718284Y-27872867D01*
X33720777Y-27868648D01*
X33742914Y-27817343D01*
X33752655Y-27760160D01*
X33753161Y-27742743D01*
X33746173Y-27686224D01*
X33720356Y-27634079D01*
X33703469Y-27616279D01*
X33654405Y-27587804D01*
X33596364Y-27578349D01*
X33592080Y-27578312D01*
X33529260Y-27588678D01*
X33480279Y-27619777D01*
X33445138Y-27671609D01*
X33426032Y-27732538D01*
X33417878Y-27794947D01*
X33216876Y-27753909D01*
G37*
G36*
X34875423Y-27401877D02*
G01*
X34875423Y-27544811D01*
X34845540Y-27594634D01*
X34817134Y-27644648D01*
X34790205Y-27694854D01*
X34764754Y-27745251D01*
X34740779Y-27795839D01*
X34711111Y-27863588D01*
X34684068Y-27931677D01*
X34659652Y-28000106D01*
X34637861Y-28068876D01*
X34632824Y-28086121D01*
X34616148Y-28148066D01*
X34601016Y-28211905D01*
X34587429Y-28277636D01*
X34575385Y-28345260D01*
X34564886Y-28414778D01*
X34555930Y-28486189D01*
X34548519Y-28559493D01*
X34543974Y-28615713D01*
X34542652Y-28634690D01*
X34316525Y-28634690D01*
X34322259Y-28573907D01*
X34329412Y-28513836D01*
X34337982Y-28454477D01*
X34347971Y-28395829D01*
X34359378Y-28337893D01*
X34372203Y-28280669D01*
X34386446Y-28224156D01*
X34402108Y-28168354D01*
X34419188Y-28113264D01*
X34437686Y-28058886D01*
X34450806Y-28023029D01*
X34472598Y-27967889D01*
X34496380Y-27912181D01*
X34522151Y-27855907D01*
X34549911Y-27799065D01*
X34579660Y-27741657D01*
X34611398Y-27683681D01*
X34645125Y-27625138D01*
X34680841Y-27566028D01*
X34129761Y-27566028D01*
X34129761Y-27401877D01*
X34875423Y-27401877D01*
G37*
G36*
X35054999Y-46300739D02*
G01*
X34996652Y-46090524D01*
X35057453Y-46072217D01*
X35107949Y-46047831D01*
X35154941Y-46010542D01*
X35187094Y-45964499D01*
X35204407Y-45909701D01*
X35207704Y-45868305D01*
X35202688Y-45807351D01*
X35185582Y-45751449D01*
X35156337Y-45707224D01*
X35108745Y-45673360D01*
X35052592Y-45660459D01*
X35039086Y-45660045D01*
X34983292Y-45666444D01*
X34930367Y-45690509D01*
X34904805Y-45714203D01*
X34874930Y-45762151D01*
X34851413Y-45818421D01*
X34833503Y-45874115D01*
X34829150Y-45889522D01*
X34809329Y-45955406D01*
X34789673Y-46020509D01*
X34768217Y-46078851D01*
X34744962Y-46130432D01*
X34714681Y-46183405D01*
X34676078Y-46232900D01*
X34652436Y-46255234D01*
X34603645Y-46286812D01*
X34546154Y-46308056D01*
X34487747Y-46318263D01*
X34439430Y-46320560D01*
X34373918Y-46316025D01*
X34314314Y-46302422D01*
X34260618Y-46279751D01*
X34212831Y-46248011D01*
X34170953Y-46207202D01*
X34158306Y-46191583D01*
X34127472Y-46144457D01*
X34103017Y-46091226D01*
X34084942Y-46031891D01*
X34073246Y-45966451D01*
X34068373Y-45907254D01*
X34067576Y-45869701D01*
X34069818Y-45809936D01*
X34076545Y-45753824D01*
X34090537Y-45691312D01*
X34110988Y-45634060D01*
X34137896Y-45582069D01*
X34159423Y-45550331D01*
X34199092Y-45505196D01*
X34245308Y-45466766D01*
X34298069Y-45435043D01*
X34357376Y-45410026D01*
X34394204Y-45398742D01*
X34460647Y-45605886D01*
X34405493Y-45621955D01*
X34352080Y-45647417D01*
X34303454Y-45684876D01*
X34283374Y-45707224D01*
X34253811Y-45755335D01*
X34236519Y-45809846D01*
X34231448Y-45864955D01*
X34234288Y-45920898D01*
X34245824Y-45980337D01*
X34271381Y-46036280D01*
X34317349Y-46080335D01*
X34370593Y-46099915D01*
X34413188Y-46103645D01*
X34469771Y-46097443D01*
X34522692Y-46074123D01*
X34547747Y-46051161D01*
X34579861Y-46000400D01*
X34603224Y-45945996D01*
X34623473Y-45885883D01*
X34630940Y-45860488D01*
X34649924Y-45796000D01*
X34670297Y-45734182D01*
X34692333Y-45678716D01*
X34720972Y-45620542D01*
X34752006Y-45571515D01*
X34791238Y-45525878D01*
X34809050Y-45510130D01*
X34859004Y-45478687D01*
X34918100Y-45457534D01*
X34978304Y-45447371D01*
X35028198Y-45445084D01*
X35085643Y-45449383D01*
X35147030Y-45465264D01*
X35202352Y-45492848D01*
X35251609Y-45532134D01*
X35283080Y-45567360D01*
X35317672Y-45619908D01*
X35343767Y-45679108D01*
X35359372Y-45735145D01*
X35368735Y-45796071D01*
X35371856Y-45861884D01*
X35369071Y-45923520D01*
X35360717Y-45980915D01*
X35340913Y-46050847D01*
X35311208Y-46113241D01*
X35271600Y-46168098D01*
X35222091Y-46215417D01*
X35162681Y-46255199D01*
X35111624Y-46280089D01*
X35054999Y-46300739D01*
G37*
G36*
X34595062Y-46473262D02*
G01*
X34657093Y-46482463D01*
X34714298Y-46497798D01*
X34766677Y-46519267D01*
X34823164Y-46553128D01*
X34872701Y-46595821D01*
X34914036Y-46645702D01*
X34945220Y-46701301D01*
X34966250Y-46762618D01*
X34976195Y-46819725D01*
X34978785Y-46870524D01*
X34975561Y-46926979D01*
X34963182Y-46989688D01*
X34941518Y-47046900D01*
X34910569Y-47098616D01*
X34870336Y-47144836D01*
X34846738Y-47165885D01*
X34799059Y-47199471D01*
X34745844Y-47226107D01*
X34687095Y-47245795D01*
X34622809Y-47258535D01*
X34565010Y-47263843D01*
X34528485Y-47264711D01*
X34488005Y-47264711D01*
X34488005Y-47066780D01*
X34621448Y-47066780D01*
X34684180Y-47058162D01*
X34745422Y-47037277D01*
X34791355Y-47004889D01*
X34825591Y-46952565D01*
X34838350Y-46895254D01*
X34839200Y-46873595D01*
X34832712Y-46817450D01*
X34810586Y-46765452D01*
X34772758Y-46723681D01*
X34724785Y-46694970D01*
X34666290Y-46677094D01*
X34621448Y-46671197D01*
X34621448Y-47066780D01*
X34488005Y-47066780D01*
X34488005Y-46667847D01*
X34427007Y-46672505D01*
X34367393Y-46686881D01*
X34312344Y-46714198D01*
X34289236Y-46732335D01*
X34253634Y-46776793D01*
X34232809Y-46831478D01*
X34226702Y-46890066D01*
X34234477Y-46947544D01*
X34262403Y-47001751D01*
X34310638Y-47043710D01*
X34369504Y-47070375D01*
X34389179Y-47076272D01*
X34336695Y-47259965D01*
X34277808Y-47235952D01*
X34226772Y-47205510D01*
X34183588Y-47168638D01*
X34148256Y-47125336D01*
X34120775Y-47075604D01*
X34101146Y-47019443D01*
X34089368Y-46956853D01*
X34085443Y-46887832D01*
X34088666Y-46824272D01*
X34098338Y-46765674D01*
X34114457Y-46712037D01*
X34142311Y-46654223D01*
X34179449Y-46603554D01*
X34217490Y-46566787D01*
X34263543Y-46533961D01*
X34315230Y-46507926D01*
X34372550Y-46488683D01*
X34435504Y-46476232D01*
X34492269Y-46471044D01*
X34528206Y-46470195D01*
X34595062Y-46473262D01*
G37*
G36*
X34960918Y-47660015D02*
G01*
X34817984Y-47660015D01*
X34864112Y-47698461D01*
X34903043Y-47741214D01*
X34934777Y-47788275D01*
X34940260Y-47798204D01*
X34963736Y-47853807D01*
X34976377Y-47910902D01*
X34978785Y-47949793D01*
X34974022Y-48006639D01*
X34957276Y-48062999D01*
X34928473Y-48111321D01*
X34902572Y-48139070D01*
X34855342Y-48172194D01*
X34799497Y-48193050D01*
X34741871Y-48201331D01*
X34721112Y-48201883D01*
X34103310Y-48201883D01*
X34103310Y-47994460D01*
X34662486Y-47994460D01*
X34718180Y-47988596D01*
X34769687Y-47963822D01*
X34800396Y-47913555D01*
X34805421Y-47871905D01*
X34794464Y-47814675D01*
X34766899Y-47763225D01*
X34761591Y-47755771D01*
X34723340Y-47713526D01*
X34679686Y-47678702D01*
X34660811Y-47666436D01*
X34103310Y-47666436D01*
X34103310Y-47463759D01*
X34960918Y-47463759D01*
X34960918Y-47660015D01*
G37*
G36*
X34763266Y-49088805D02*
G01*
X34710782Y-48897295D01*
X34767576Y-48875014D01*
X34812073Y-48836391D01*
X34836033Y-48783414D01*
X34840596Y-48740122D01*
X34834462Y-48683165D01*
X34812679Y-48634038D01*
X34766173Y-48602717D01*
X34755729Y-48601933D01*
X34701293Y-48614433D01*
X34675049Y-48637388D01*
X34649637Y-48688147D01*
X34632174Y-48742951D01*
X34627869Y-48759106D01*
X34608886Y-48832807D01*
X34592662Y-48889384D01*
X34571626Y-48946510D01*
X34544804Y-49000084D01*
X34511084Y-49045423D01*
X34503080Y-49053351D01*
X34454675Y-49086014D01*
X34400302Y-49102711D01*
X34348700Y-49106951D01*
X34288381Y-49100618D01*
X34235287Y-49081617D01*
X34184190Y-49045099D01*
X34150768Y-49005613D01*
X34122188Y-48954542D01*
X34101774Y-48894852D01*
X34090610Y-48835553D01*
X34086017Y-48779473D01*
X34085443Y-48749614D01*
X34088880Y-48680838D01*
X34099192Y-48618562D01*
X34116378Y-48562784D01*
X34147528Y-48502203D01*
X34189420Y-48451776D01*
X34242054Y-48411505D01*
X34305428Y-48381390D01*
X34371312Y-48569829D01*
X34313769Y-48593163D01*
X34265311Y-48631509D01*
X34235313Y-48682314D01*
X34223776Y-48745576D01*
X34223632Y-48754360D01*
X34229055Y-48817016D01*
X34248536Y-48869779D01*
X34292811Y-48907467D01*
X34336974Y-48915162D01*
X34392983Y-48900440D01*
X34415700Y-48877474D01*
X34439184Y-48824060D01*
X34456647Y-48768925D01*
X34463438Y-48744868D01*
X34482980Y-48671168D01*
X34498471Y-48617099D01*
X34518652Y-48562628D01*
X34544497Y-48511728D01*
X34580974Y-48465130D01*
X34584877Y-48461511D01*
X34632497Y-48431230D01*
X34686978Y-48415750D01*
X34739258Y-48411819D01*
X34799124Y-48419460D01*
X34851526Y-48442382D01*
X34896465Y-48480585D01*
X34918205Y-48508412D01*
X34947490Y-48562875D01*
X34965474Y-48618888D01*
X34975886Y-48682054D01*
X34978785Y-48743193D01*
X34975418Y-48807524D01*
X34965315Y-48865819D01*
X34943216Y-48930197D01*
X34910594Y-48985142D01*
X34867448Y-49030654D01*
X34813779Y-49066733D01*
X34763266Y-49088805D01*
G37*
G36*
X34596268Y-49254887D02*
G01*
X34657939Y-49264027D01*
X34714893Y-49279260D01*
X34767131Y-49300586D01*
X34823591Y-49334220D01*
X34873259Y-49376629D01*
X34914377Y-49426551D01*
X34945396Y-49482270D01*
X34966316Y-49543786D01*
X34976209Y-49601130D01*
X34978785Y-49652169D01*
X34975507Y-49710488D01*
X34962918Y-49775055D01*
X34940888Y-49833713D01*
X34909416Y-49886463D01*
X34868502Y-49933305D01*
X34844505Y-49954510D01*
X34797365Y-49987336D01*
X34745142Y-50013371D01*
X34687835Y-50032614D01*
X34625444Y-50045066D01*
X34569568Y-50050254D01*
X34534347Y-50051103D01*
X34467813Y-50048070D01*
X34406049Y-50038971D01*
X34349057Y-50023806D01*
X34296835Y-50002575D01*
X34240467Y-49969091D01*
X34190969Y-49926872D01*
X34149851Y-49877197D01*
X34118832Y-49821484D01*
X34097912Y-49759732D01*
X34088019Y-49701996D01*
X34085443Y-49650494D01*
X34231448Y-49650494D01*
X34238809Y-49706148D01*
X34267075Y-49760482D01*
X34316541Y-49801232D01*
X34373956Y-49824814D01*
X34430488Y-49836888D01*
X34496441Y-49842925D01*
X34532951Y-49843680D01*
X34603224Y-49840687D01*
X34664126Y-49831710D01*
X34727078Y-49812073D01*
X34775391Y-49783085D01*
X34814040Y-49735955D01*
X34831608Y-49675360D01*
X34832780Y-49652169D01*
X34825460Y-49596515D01*
X34797351Y-49542182D01*
X34748160Y-49501432D01*
X34691064Y-49477850D01*
X34634846Y-49465776D01*
X34569259Y-49459739D01*
X34532951Y-49458984D01*
X34462287Y-49461976D01*
X34401044Y-49470953D01*
X34337740Y-49490591D01*
X34289158Y-49519579D01*
X34250292Y-49566709D01*
X34232626Y-49627304D01*
X34231448Y-49650494D01*
X34085443Y-49650494D01*
X34088721Y-49591794D01*
X34101310Y-49526913D01*
X34123340Y-49468098D01*
X34154812Y-49415348D01*
X34195726Y-49368663D01*
X34219723Y-49347595D01*
X34266692Y-49315054D01*
X34318824Y-49289245D01*
X34376118Y-49270168D01*
X34438575Y-49257825D01*
X34494565Y-49252682D01*
X34529881Y-49251840D01*
X34596268Y-49254887D01*
G37*
G36*
X34978785Y-50716364D02*
G01*
X34788950Y-50702964D01*
X34781373Y-50642784D01*
X34758643Y-50588709D01*
X34720758Y-50540739D01*
X34667721Y-50498873D01*
X34611947Y-50468649D01*
X34573431Y-50452549D01*
X34103310Y-50452549D01*
X34103310Y-50253222D01*
X34960918Y-50253222D01*
X34960918Y-50443336D01*
X34746516Y-50443336D01*
X34800954Y-50466289D01*
X34858795Y-50499470D01*
X34905294Y-50537641D01*
X34946122Y-50590031D01*
X34970620Y-50649605D01*
X34978785Y-50716364D01*
G37*
G36*
X34763266Y-51516464D02*
G01*
X34710782Y-51324954D01*
X34767576Y-51302672D01*
X34812073Y-51264050D01*
X34836033Y-51211073D01*
X34840596Y-51167781D01*
X34834462Y-51110824D01*
X34812679Y-51061697D01*
X34766173Y-51030376D01*
X34755729Y-51029592D01*
X34701293Y-51042091D01*
X34675049Y-51065047D01*
X34649637Y-51115805D01*
X34632174Y-51170610D01*
X34627869Y-51186765D01*
X34608886Y-51260465D01*
X34592662Y-51317043D01*
X34571626Y-51374169D01*
X34544804Y-51427743D01*
X34511084Y-51473081D01*
X34503080Y-51481009D01*
X34454675Y-51513672D01*
X34400302Y-51530370D01*
X34348700Y-51534610D01*
X34288381Y-51528276D01*
X34235287Y-51509275D01*
X34184190Y-51472758D01*
X34150768Y-51433271D01*
X34122188Y-51382201D01*
X34101774Y-51322511D01*
X34090610Y-51263212D01*
X34086017Y-51207131D01*
X34085443Y-51177273D01*
X34088880Y-51108497D01*
X34099192Y-51046220D01*
X34116378Y-50990443D01*
X34147528Y-50929861D01*
X34189420Y-50879435D01*
X34242054Y-50839164D01*
X34305428Y-50809048D01*
X34371312Y-50997488D01*
X34313769Y-51020821D01*
X34265311Y-51059168D01*
X34235313Y-51109972D01*
X34223776Y-51173235D01*
X34223632Y-51182019D01*
X34229055Y-51244675D01*
X34248536Y-51297438D01*
X34292811Y-51335126D01*
X34336974Y-51342820D01*
X34392983Y-51328099D01*
X34415700Y-51305132D01*
X34439184Y-51251718D01*
X34456647Y-51196583D01*
X34463438Y-51172527D01*
X34482980Y-51098826D01*
X34498471Y-51044758D01*
X34518652Y-50990287D01*
X34544497Y-50939386D01*
X34580974Y-50892789D01*
X34584877Y-50889170D01*
X34632497Y-50858889D01*
X34686978Y-50843408D01*
X34739258Y-50839478D01*
X34799124Y-50847118D01*
X34851526Y-50870040D01*
X34896465Y-50908243D01*
X34918205Y-50936070D01*
X34947490Y-50990534D01*
X34965474Y-51046546D01*
X34975886Y-51109713D01*
X34978785Y-51170852D01*
X34975418Y-51235183D01*
X34965315Y-51293477D01*
X34943216Y-51357855D01*
X34910594Y-51412800D01*
X34867448Y-51458313D01*
X34813779Y-51494392D01*
X34763266Y-51516464D01*
G37*
G36*
X77423857Y-54778388D02*
G01*
X77212805Y-54828081D01*
X77198248Y-54770960D01*
X77172876Y-54710269D01*
X77139530Y-54661478D01*
X77088988Y-54618638D01*
X77026964Y-54592934D01*
X76966505Y-54584604D01*
X76953456Y-54584366D01*
X76897467Y-54589224D01*
X76838548Y-54607172D01*
X76786521Y-54638346D01*
X76741388Y-54682744D01*
X76713370Y-54722554D01*
X76687470Y-54773201D01*
X76666928Y-54830501D01*
X76651745Y-54894456D01*
X76643185Y-54952835D01*
X76638348Y-55015835D01*
X76637157Y-55069562D01*
X76638666Y-55130434D01*
X76643194Y-55187424D01*
X76653098Y-55253202D01*
X76667719Y-55312914D01*
X76687057Y-55366560D01*
X76716487Y-55422928D01*
X76733750Y-55447837D01*
X76771978Y-55489281D01*
X76821950Y-55524182D01*
X76878621Y-55545787D01*
X76941993Y-55554097D01*
X76950385Y-55554201D01*
X77008483Y-55548818D01*
X77071769Y-55526951D01*
X77124682Y-55488262D01*
X77167221Y-55432753D01*
X77193784Y-55376234D01*
X77213707Y-55308950D01*
X77224293Y-55251422D01*
X77229276Y-55209705D01*
X76937823Y-55209705D01*
X76937823Y-55042483D01*
X77431674Y-55042483D01*
X77431674Y-55703556D01*
X77287343Y-55703556D01*
X77263055Y-55524888D01*
X77230785Y-55577960D01*
X77191448Y-55623171D01*
X77145045Y-55660520D01*
X77116212Y-55677873D01*
X77062357Y-55700839D01*
X77004086Y-55715299D01*
X76947866Y-55721040D01*
X76928331Y-55721423D01*
X76866530Y-55718431D01*
X76808288Y-55709454D01*
X76753606Y-55694492D01*
X76690258Y-55667374D01*
X76632472Y-55630905D01*
X76580248Y-55585084D01*
X76542473Y-55541695D01*
X76533585Y-55529913D01*
X76497153Y-55473371D01*
X76466895Y-55411228D01*
X76447135Y-55357479D01*
X76431327Y-55300144D01*
X76419471Y-55239224D01*
X76411567Y-55174719D01*
X76407615Y-55106627D01*
X76407121Y-55071237D01*
X76408625Y-55011255D01*
X76413137Y-54953898D01*
X76423833Y-54881506D01*
X76439877Y-54813781D01*
X76461268Y-54750723D01*
X76488007Y-54692333D01*
X76520094Y-54638611D01*
X76557529Y-54589555D01*
X76578252Y-54566778D01*
X76625614Y-54523670D01*
X76676970Y-54487869D01*
X76732320Y-54459374D01*
X76791664Y-54438185D01*
X76855002Y-54424303D01*
X76922334Y-54417727D01*
X76950385Y-54417143D01*
X77011875Y-54419876D01*
X77069670Y-54428075D01*
X77134149Y-54445130D01*
X77193307Y-54470055D01*
X77247147Y-54502852D01*
X77280084Y-54529090D01*
X77322937Y-54572889D01*
X77359405Y-54622700D01*
X77389486Y-54678522D01*
X77410189Y-54731154D01*
X77423857Y-54778388D01*
G37*
G36*
X78218944Y-54438116D02*
G01*
X78290692Y-54447435D01*
X78354614Y-54462967D01*
X78410708Y-54484711D01*
X78473325Y-54523367D01*
X78522027Y-54573068D01*
X78556814Y-54633813D01*
X78577686Y-54705604D01*
X78584209Y-54766694D01*
X78584644Y-54788438D01*
X78579982Y-54854382D01*
X78565996Y-54914026D01*
X78542687Y-54967368D01*
X78510053Y-55014409D01*
X78468096Y-55055149D01*
X78452038Y-55067329D01*
X78395882Y-55100071D01*
X78340986Y-55121735D01*
X78279848Y-55137491D01*
X78224131Y-55146107D01*
X78164080Y-55150620D01*
X78125968Y-55151359D01*
X77915754Y-55151359D01*
X77915754Y-55685690D01*
X77698839Y-55685690D01*
X77698839Y-54988882D01*
X77915754Y-54988882D01*
X78119827Y-54988882D01*
X78177405Y-54985776D01*
X78238583Y-54973159D01*
X78296161Y-54945207D01*
X78336466Y-54903280D01*
X78359498Y-54847376D01*
X78365496Y-54790114D01*
X78357134Y-54724650D01*
X78332048Y-54672731D01*
X78290238Y-54634357D01*
X78231704Y-54609526D01*
X78170150Y-54599180D01*
X78127643Y-54597486D01*
X77915754Y-54597486D01*
X77915754Y-54988882D01*
X77698839Y-54988882D01*
X77698839Y-54435010D01*
X78139368Y-54435010D01*
X78218944Y-54438116D01*
G37*
G36*
X79026848Y-54435010D02*
G01*
X79026848Y-55685690D01*
X78807700Y-55685690D01*
X78807700Y-54435010D01*
X79026848Y-54435010D01*
G37*
G36*
X79852532Y-54420135D02*
G01*
X79912392Y-54429112D01*
X79968562Y-54444074D01*
X80021041Y-54465021D01*
X80081451Y-54499620D01*
X80125627Y-54534032D01*
X80166114Y-54574428D01*
X80194056Y-54608653D01*
X80231213Y-54665195D01*
X80262071Y-54727339D01*
X80282224Y-54781087D01*
X80298346Y-54838422D01*
X80310437Y-54899342D01*
X80318498Y-54963847D01*
X80322529Y-55031939D01*
X80323033Y-55067329D01*
X80321561Y-55127596D01*
X80317144Y-55185179D01*
X80306675Y-55257780D01*
X80290972Y-55325610D01*
X80270034Y-55388667D01*
X80243862Y-55446953D01*
X80212455Y-55500466D01*
X80175814Y-55549207D01*
X80155531Y-55571788D01*
X80109295Y-55614896D01*
X80058874Y-55650697D01*
X80004268Y-55679192D01*
X79945478Y-55700381D01*
X79882502Y-55714263D01*
X79815342Y-55720839D01*
X79787306Y-55721423D01*
X79723817Y-55718418D01*
X79664001Y-55709401D01*
X79607857Y-55694374D01*
X79555386Y-55673336D01*
X79494963Y-55638586D01*
X79450756Y-55604023D01*
X79410222Y-55563450D01*
X79382231Y-55529075D01*
X79345155Y-55472554D01*
X79314364Y-55410472D01*
X79294255Y-55356802D01*
X79278168Y-55299572D01*
X79266102Y-55238783D01*
X79258059Y-55174434D01*
X79254037Y-55106526D01*
X79253534Y-55071237D01*
X79253575Y-55069562D01*
X79483570Y-55069562D01*
X79485053Y-55130570D01*
X79489502Y-55187686D01*
X79499235Y-55253610D01*
X79513602Y-55313454D01*
X79532604Y-55367219D01*
X79561525Y-55423711D01*
X79578488Y-55448675D01*
X79621375Y-55494842D01*
X79670753Y-55527819D01*
X79726622Y-55547605D01*
X79788981Y-55554201D01*
X79851555Y-55547588D01*
X79907370Y-55527750D01*
X79956425Y-55494688D01*
X79998721Y-55448400D01*
X80019855Y-55416012D01*
X80044617Y-55365385D01*
X80064256Y-55308143D01*
X80078771Y-55244286D01*
X80086954Y-55186019D01*
X80091579Y-55123158D01*
X80092718Y-55069562D01*
X80091248Y-55008241D01*
X80086838Y-54950880D01*
X80077191Y-54884749D01*
X80062950Y-54824807D01*
X80044116Y-54771053D01*
X80015451Y-54714718D01*
X79998638Y-54689892D01*
X79956117Y-54643724D01*
X79907000Y-54610747D01*
X79851289Y-54590961D01*
X79788981Y-54584366D01*
X79726081Y-54590938D01*
X79670020Y-54610655D01*
X79620799Y-54643518D01*
X79578418Y-54689525D01*
X79557271Y-54721717D01*
X79532224Y-54772478D01*
X79512359Y-54829913D01*
X79497677Y-54894021D01*
X79489400Y-54952543D01*
X79484721Y-55015700D01*
X79483570Y-55069562D01*
X79253575Y-55069562D01*
X79255011Y-55010963D01*
X79259443Y-54953358D01*
X79269946Y-54880704D01*
X79285702Y-54812796D01*
X79306709Y-54749634D01*
X79332969Y-54691218D01*
X79364480Y-54637547D01*
X79401243Y-54588623D01*
X79421594Y-54565940D01*
X79467810Y-54523074D01*
X79518169Y-54487473D01*
X79572673Y-54459138D01*
X79631320Y-54438068D01*
X79694112Y-54424263D01*
X79761047Y-54417724D01*
X79788981Y-54417143D01*
X79852532Y-54420135D01*
G37*
D11*
X50633333Y-32363580D02*
X50585714Y-32411200D01*
X50585714Y-32411200D02*
X50442857Y-32458819D01*
X50442857Y-32458819D02*
X50347619Y-32458819D01*
X50347619Y-32458819D02*
X50204762Y-32411200D01*
X50204762Y-32411200D02*
X50109524Y-32315961D01*
X50109524Y-32315961D02*
X50061905Y-32220723D01*
X50061905Y-32220723D02*
X50014286Y-32030247D01*
X50014286Y-32030247D02*
X50014286Y-31887390D01*
X50014286Y-31887390D02*
X50061905Y-31696914D01*
X50061905Y-31696914D02*
X50109524Y-31601676D01*
X50109524Y-31601676D02*
X50204762Y-31506438D01*
X50204762Y-31506438D02*
X50347619Y-31458819D01*
X50347619Y-31458819D02*
X50442857Y-31458819D01*
X50442857Y-31458819D02*
X50585714Y-31506438D01*
X50585714Y-31506438D02*
X50633333Y-31554057D01*
X51538095Y-31458819D02*
X51061905Y-31458819D01*
X51061905Y-31458819D02*
X51014286Y-31935009D01*
X51014286Y-31935009D02*
X51061905Y-31887390D01*
X51061905Y-31887390D02*
X51157143Y-31839771D01*
X51157143Y-31839771D02*
X51395238Y-31839771D01*
X51395238Y-31839771D02*
X51490476Y-31887390D01*
X51490476Y-31887390D02*
X51538095Y-31935009D01*
X51538095Y-31935009D02*
X51585714Y-32030247D01*
X51585714Y-32030247D02*
X51585714Y-32268342D01*
X51585714Y-32268342D02*
X51538095Y-32363580D01*
X51538095Y-32363580D02*
X51490476Y-32411200D01*
X51490476Y-32411200D02*
X51395238Y-32458819D01*
X51395238Y-32458819D02*
X51157143Y-32458819D01*
X51157143Y-32458819D02*
X51061905Y-32411200D01*
X51061905Y-32411200D02*
X51014286Y-32363580D01*
X56745428Y-25727819D02*
X56412095Y-25251628D01*
X56174000Y-25727819D02*
X56174000Y-24727819D01*
X56174000Y-24727819D02*
X56554952Y-24727819D01*
X56554952Y-24727819D02*
X56650190Y-24775438D01*
X56650190Y-24775438D02*
X56697809Y-24823057D01*
X56697809Y-24823057D02*
X56745428Y-24918295D01*
X56745428Y-24918295D02*
X56745428Y-25061152D01*
X56745428Y-25061152D02*
X56697809Y-25156390D01*
X56697809Y-25156390D02*
X56650190Y-25204009D01*
X56650190Y-25204009D02*
X56554952Y-25251628D01*
X56554952Y-25251628D02*
X56174000Y-25251628D01*
X57174000Y-25204009D02*
X57507333Y-25204009D01*
X57650190Y-25727819D02*
X57174000Y-25727819D01*
X57174000Y-25727819D02*
X57174000Y-24727819D01*
X57174000Y-24727819D02*
X57650190Y-24727819D01*
X58031143Y-25680200D02*
X58174000Y-25727819D01*
X58174000Y-25727819D02*
X58412095Y-25727819D01*
X58412095Y-25727819D02*
X58507333Y-25680200D01*
X58507333Y-25680200D02*
X58554952Y-25632580D01*
X58554952Y-25632580D02*
X58602571Y-25537342D01*
X58602571Y-25537342D02*
X58602571Y-25442104D01*
X58602571Y-25442104D02*
X58554952Y-25346866D01*
X58554952Y-25346866D02*
X58507333Y-25299247D01*
X58507333Y-25299247D02*
X58412095Y-25251628D01*
X58412095Y-25251628D02*
X58221619Y-25204009D01*
X58221619Y-25204009D02*
X58126381Y-25156390D01*
X58126381Y-25156390D02*
X58078762Y-25108771D01*
X58078762Y-25108771D02*
X58031143Y-25013533D01*
X58031143Y-25013533D02*
X58031143Y-24918295D01*
X58031143Y-24918295D02*
X58078762Y-24823057D01*
X58078762Y-24823057D02*
X58126381Y-24775438D01*
X58126381Y-24775438D02*
X58221619Y-24727819D01*
X58221619Y-24727819D02*
X58459714Y-24727819D01*
X58459714Y-24727819D02*
X58602571Y-24775438D01*
X59031143Y-25204009D02*
X59364476Y-25204009D01*
X59507333Y-25727819D02*
X59031143Y-25727819D01*
X59031143Y-25727819D02*
X59031143Y-24727819D01*
X59031143Y-24727819D02*
X59507333Y-24727819D01*
X59793048Y-24727819D02*
X60364476Y-24727819D01*
X60078762Y-25727819D02*
X60078762Y-24727819D01*
X61221619Y-25727819D02*
X60650191Y-25727819D01*
X60935905Y-25727819D02*
X60935905Y-24727819D01*
X60935905Y-24727819D02*
X60840667Y-24870676D01*
X60840667Y-24870676D02*
X60745429Y-24965914D01*
X60745429Y-24965914D02*
X60650191Y-25013533D01*
X33528095Y-30061819D02*
X33528095Y-30871342D01*
X33528095Y-30871342D02*
X33575714Y-30966580D01*
X33575714Y-30966580D02*
X33623333Y-31014200D01*
X33623333Y-31014200D02*
X33718571Y-31061819D01*
X33718571Y-31061819D02*
X33909047Y-31061819D01*
X33909047Y-31061819D02*
X34004285Y-31014200D01*
X34004285Y-31014200D02*
X34051904Y-30966580D01*
X34051904Y-30966580D02*
X34099523Y-30871342D01*
X34099523Y-30871342D02*
X34099523Y-30061819D01*
X35004285Y-30395152D02*
X35004285Y-31061819D01*
X34766190Y-30014200D02*
X34528095Y-30728485D01*
X34528095Y-30728485D02*
X35147142Y-30728485D01*
X53633761Y-51889819D02*
X53300428Y-51413628D01*
X53062333Y-51889819D02*
X53062333Y-50889819D01*
X53062333Y-50889819D02*
X53443285Y-50889819D01*
X53443285Y-50889819D02*
X53538523Y-50937438D01*
X53538523Y-50937438D02*
X53586142Y-50985057D01*
X53586142Y-50985057D02*
X53633761Y-51080295D01*
X53633761Y-51080295D02*
X53633761Y-51223152D01*
X53633761Y-51223152D02*
X53586142Y-51318390D01*
X53586142Y-51318390D02*
X53538523Y-51366009D01*
X53538523Y-51366009D02*
X53443285Y-51413628D01*
X53443285Y-51413628D02*
X53062333Y-51413628D01*
X53919476Y-50889819D02*
X54252809Y-51889819D01*
X54252809Y-51889819D02*
X54586142Y-50889819D01*
X55443285Y-51889819D02*
X54871857Y-51889819D01*
X55157571Y-51889819D02*
X55157571Y-50889819D01*
X55157571Y-50889819D02*
X55062333Y-51032676D01*
X55062333Y-51032676D02*
X54967095Y-51127914D01*
X54967095Y-51127914D02*
X54871857Y-51175533D01*
X58301095Y-41875819D02*
X58872523Y-41875819D01*
X58586809Y-42875819D02*
X58586809Y-41875819D01*
X59205857Y-42875819D02*
X59205857Y-41875819D01*
X59205857Y-41875819D02*
X59586809Y-41875819D01*
X59586809Y-41875819D02*
X59682047Y-41923438D01*
X59682047Y-41923438D02*
X59729666Y-41971057D01*
X59729666Y-41971057D02*
X59777285Y-42066295D01*
X59777285Y-42066295D02*
X59777285Y-42209152D01*
X59777285Y-42209152D02*
X59729666Y-42304390D01*
X59729666Y-42304390D02*
X59682047Y-42352009D01*
X59682047Y-42352009D02*
X59586809Y-42399628D01*
X59586809Y-42399628D02*
X59205857Y-42399628D01*
X60158238Y-41971057D02*
X60205857Y-41923438D01*
X60205857Y-41923438D02*
X60301095Y-41875819D01*
X60301095Y-41875819D02*
X60539190Y-41875819D01*
X60539190Y-41875819D02*
X60634428Y-41923438D01*
X60634428Y-41923438D02*
X60682047Y-41971057D01*
X60682047Y-41971057D02*
X60729666Y-42066295D01*
X60729666Y-42066295D02*
X60729666Y-42161533D01*
X60729666Y-42161533D02*
X60682047Y-42304390D01*
X60682047Y-42304390D02*
X60110619Y-42875819D01*
X60110619Y-42875819D02*
X60729666Y-42875819D01*
X64273580Y-31884857D02*
X64321200Y-31932476D01*
X64321200Y-31932476D02*
X64368819Y-32075333D01*
X64368819Y-32075333D02*
X64368819Y-32170571D01*
X64368819Y-32170571D02*
X64321200Y-32313428D01*
X64321200Y-32313428D02*
X64225961Y-32408666D01*
X64225961Y-32408666D02*
X64130723Y-32456285D01*
X64130723Y-32456285D02*
X63940247Y-32503904D01*
X63940247Y-32503904D02*
X63797390Y-32503904D01*
X63797390Y-32503904D02*
X63606914Y-32456285D01*
X63606914Y-32456285D02*
X63511676Y-32408666D01*
X63511676Y-32408666D02*
X63416438Y-32313428D01*
X63416438Y-32313428D02*
X63368819Y-32170571D01*
X63368819Y-32170571D02*
X63368819Y-32075333D01*
X63368819Y-32075333D02*
X63416438Y-31932476D01*
X63416438Y-31932476D02*
X63464057Y-31884857D01*
X64368819Y-30932476D02*
X64368819Y-31503904D01*
X64368819Y-31218190D02*
X63368819Y-31218190D01*
X63368819Y-31218190D02*
X63511676Y-31313428D01*
X63511676Y-31313428D02*
X63606914Y-31408666D01*
X63606914Y-31408666D02*
X63654533Y-31503904D01*
X63464057Y-30551523D02*
X63416438Y-30503904D01*
X63416438Y-30503904D02*
X63368819Y-30408666D01*
X63368819Y-30408666D02*
X63368819Y-30170571D01*
X63368819Y-30170571D02*
X63416438Y-30075333D01*
X63416438Y-30075333D02*
X63464057Y-30027714D01*
X63464057Y-30027714D02*
X63559295Y-29980095D01*
X63559295Y-29980095D02*
X63654533Y-29980095D01*
X63654533Y-29980095D02*
X63797390Y-30027714D01*
X63797390Y-30027714D02*
X64368819Y-30599142D01*
X64368819Y-30599142D02*
X64368819Y-29980095D01*
X53348095Y-33998819D02*
X53919523Y-33998819D01*
X53633809Y-34998819D02*
X53633809Y-33998819D01*
X54252857Y-34998819D02*
X54252857Y-33998819D01*
X54252857Y-33998819D02*
X54633809Y-33998819D01*
X54633809Y-33998819D02*
X54729047Y-34046438D01*
X54729047Y-34046438D02*
X54776666Y-34094057D01*
X54776666Y-34094057D02*
X54824285Y-34189295D01*
X54824285Y-34189295D02*
X54824285Y-34332152D01*
X54824285Y-34332152D02*
X54776666Y-34427390D01*
X54776666Y-34427390D02*
X54729047Y-34475009D01*
X54729047Y-34475009D02*
X54633809Y-34522628D01*
X54633809Y-34522628D02*
X54252857Y-34522628D01*
X55776666Y-34998819D02*
X55205238Y-34998819D01*
X55490952Y-34998819D02*
X55490952Y-33998819D01*
X55490952Y-33998819D02*
X55395714Y-34141676D01*
X55395714Y-34141676D02*
X55300476Y-34236914D01*
X55300476Y-34236914D02*
X55205238Y-34284533D01*
X43234429Y-27776715D02*
X43669858Y-27776715D01*
X43452143Y-28538715D02*
X43452143Y-27776715D01*
X43923857Y-28538715D02*
X43923857Y-27776715D01*
X43923857Y-27776715D02*
X44214143Y-27776715D01*
X44214143Y-27776715D02*
X44286714Y-27813001D01*
X44286714Y-27813001D02*
X44323000Y-27849287D01*
X44323000Y-27849287D02*
X44359286Y-27921858D01*
X44359286Y-27921858D02*
X44359286Y-28030715D01*
X44359286Y-28030715D02*
X44323000Y-28103287D01*
X44323000Y-28103287D02*
X44286714Y-28139572D01*
X44286714Y-28139572D02*
X44214143Y-28175858D01*
X44214143Y-28175858D02*
X43923857Y-28175858D01*
X45012429Y-28030715D02*
X45012429Y-28538715D01*
X44831000Y-27740430D02*
X44649571Y-28284715D01*
X44649571Y-28284715D02*
X45121286Y-28284715D01*
X51085761Y-40428057D02*
X50990523Y-40380438D01*
X50990523Y-40380438D02*
X50895285Y-40285200D01*
X50895285Y-40285200D02*
X50752428Y-40142342D01*
X50752428Y-40142342D02*
X50657190Y-40094723D01*
X50657190Y-40094723D02*
X50561952Y-40094723D01*
X50609571Y-40332819D02*
X50514333Y-40285200D01*
X50514333Y-40285200D02*
X50419095Y-40189961D01*
X50419095Y-40189961D02*
X50371476Y-39999485D01*
X50371476Y-39999485D02*
X50371476Y-39666152D01*
X50371476Y-39666152D02*
X50419095Y-39475676D01*
X50419095Y-39475676D02*
X50514333Y-39380438D01*
X50514333Y-39380438D02*
X50609571Y-39332819D01*
X50609571Y-39332819D02*
X50800047Y-39332819D01*
X50800047Y-39332819D02*
X50895285Y-39380438D01*
X50895285Y-39380438D02*
X50990523Y-39475676D01*
X50990523Y-39475676D02*
X51038142Y-39666152D01*
X51038142Y-39666152D02*
X51038142Y-39999485D01*
X51038142Y-39999485D02*
X50990523Y-40189961D01*
X50990523Y-40189961D02*
X50895285Y-40285200D01*
X50895285Y-40285200D02*
X50800047Y-40332819D01*
X50800047Y-40332819D02*
X50609571Y-40332819D01*
X51419095Y-39428057D02*
X51466714Y-39380438D01*
X51466714Y-39380438D02*
X51561952Y-39332819D01*
X51561952Y-39332819D02*
X51800047Y-39332819D01*
X51800047Y-39332819D02*
X51895285Y-39380438D01*
X51895285Y-39380438D02*
X51942904Y-39428057D01*
X51942904Y-39428057D02*
X51990523Y-39523295D01*
X51990523Y-39523295D02*
X51990523Y-39618533D01*
X51990523Y-39618533D02*
X51942904Y-39761390D01*
X51942904Y-39761390D02*
X51371476Y-40332819D01*
X51371476Y-40332819D02*
X51990523Y-40332819D01*
X62873095Y-45431819D02*
X63444523Y-45431819D01*
X63158809Y-46431819D02*
X63158809Y-45431819D01*
X63777857Y-46431819D02*
X63777857Y-45431819D01*
X63777857Y-45431819D02*
X64158809Y-45431819D01*
X64158809Y-45431819D02*
X64254047Y-45479438D01*
X64254047Y-45479438D02*
X64301666Y-45527057D01*
X64301666Y-45527057D02*
X64349285Y-45622295D01*
X64349285Y-45622295D02*
X64349285Y-45765152D01*
X64349285Y-45765152D02*
X64301666Y-45860390D01*
X64301666Y-45860390D02*
X64254047Y-45908009D01*
X64254047Y-45908009D02*
X64158809Y-45955628D01*
X64158809Y-45955628D02*
X63777857Y-45955628D01*
X64682619Y-45431819D02*
X65301666Y-45431819D01*
X65301666Y-45431819D02*
X64968333Y-45812771D01*
X64968333Y-45812771D02*
X65111190Y-45812771D01*
X65111190Y-45812771D02*
X65206428Y-45860390D01*
X65206428Y-45860390D02*
X65254047Y-45908009D01*
X65254047Y-45908009D02*
X65301666Y-46003247D01*
X65301666Y-46003247D02*
X65301666Y-46241342D01*
X65301666Y-46241342D02*
X65254047Y-46336580D01*
X65254047Y-46336580D02*
X65206428Y-46384200D01*
X65206428Y-46384200D02*
X65111190Y-46431819D01*
X65111190Y-46431819D02*
X64825476Y-46431819D01*
X64825476Y-46431819D02*
X64730238Y-46384200D01*
X64730238Y-46384200D02*
X64682619Y-46336580D01*
X59795580Y-31408666D02*
X59843200Y-31456285D01*
X59843200Y-31456285D02*
X59890819Y-31599142D01*
X59890819Y-31599142D02*
X59890819Y-31694380D01*
X59890819Y-31694380D02*
X59843200Y-31837237D01*
X59843200Y-31837237D02*
X59747961Y-31932475D01*
X59747961Y-31932475D02*
X59652723Y-31980094D01*
X59652723Y-31980094D02*
X59462247Y-32027713D01*
X59462247Y-32027713D02*
X59319390Y-32027713D01*
X59319390Y-32027713D02*
X59128914Y-31980094D01*
X59128914Y-31980094D02*
X59033676Y-31932475D01*
X59033676Y-31932475D02*
X58938438Y-31837237D01*
X58938438Y-31837237D02*
X58890819Y-31694380D01*
X58890819Y-31694380D02*
X58890819Y-31599142D01*
X58890819Y-31599142D02*
X58938438Y-31456285D01*
X58938438Y-31456285D02*
X58986057Y-31408666D01*
X59224152Y-30551523D02*
X59890819Y-30551523D01*
X58843200Y-30789618D02*
X59557485Y-31027713D01*
X59557485Y-31027713D02*
X59557485Y-30408666D01*
X92583095Y-45047819D02*
X92583095Y-45857342D01*
X92583095Y-45857342D02*
X92630714Y-45952580D01*
X92630714Y-45952580D02*
X92678333Y-46000200D01*
X92678333Y-46000200D02*
X92773571Y-46047819D01*
X92773571Y-46047819D02*
X92964047Y-46047819D01*
X92964047Y-46047819D02*
X93059285Y-46000200D01*
X93059285Y-46000200D02*
X93106904Y-45952580D01*
X93106904Y-45952580D02*
X93154523Y-45857342D01*
X93154523Y-45857342D02*
X93154523Y-45047819D01*
X93583095Y-45143057D02*
X93630714Y-45095438D01*
X93630714Y-45095438D02*
X93725952Y-45047819D01*
X93725952Y-45047819D02*
X93964047Y-45047819D01*
X93964047Y-45047819D02*
X94059285Y-45095438D01*
X94059285Y-45095438D02*
X94106904Y-45143057D01*
X94106904Y-45143057D02*
X94154523Y-45238295D01*
X94154523Y-45238295D02*
X94154523Y-45333533D01*
X94154523Y-45333533D02*
X94106904Y-45476390D01*
X94106904Y-45476390D02*
X93535476Y-46047819D01*
X93535476Y-46047819D02*
X94154523Y-46047819D01*
X30400666Y-39332819D02*
X30400666Y-40047104D01*
X30400666Y-40047104D02*
X30353047Y-40189961D01*
X30353047Y-40189961D02*
X30257809Y-40285200D01*
X30257809Y-40285200D02*
X30114952Y-40332819D01*
X30114952Y-40332819D02*
X30019714Y-40332819D01*
X30781619Y-39332819D02*
X31400666Y-39332819D01*
X31400666Y-39332819D02*
X31067333Y-39713771D01*
X31067333Y-39713771D02*
X31210190Y-39713771D01*
X31210190Y-39713771D02*
X31305428Y-39761390D01*
X31305428Y-39761390D02*
X31353047Y-39809009D01*
X31353047Y-39809009D02*
X31400666Y-39904247D01*
X31400666Y-39904247D02*
X31400666Y-40142342D01*
X31400666Y-40142342D02*
X31353047Y-40237580D01*
X31353047Y-40237580D02*
X31305428Y-40285200D01*
X31305428Y-40285200D02*
X31210190Y-40332819D01*
X31210190Y-40332819D02*
X30924476Y-40332819D01*
X30924476Y-40332819D02*
X30829238Y-40285200D01*
X30829238Y-40285200D02*
X30781619Y-40237580D01*
X62317333Y-26362819D02*
X61984000Y-25886628D01*
X61745905Y-26362819D02*
X61745905Y-25362819D01*
X61745905Y-25362819D02*
X62126857Y-25362819D01*
X62126857Y-25362819D02*
X62222095Y-25410438D01*
X62222095Y-25410438D02*
X62269714Y-25458057D01*
X62269714Y-25458057D02*
X62317333Y-25553295D01*
X62317333Y-25553295D02*
X62317333Y-25696152D01*
X62317333Y-25696152D02*
X62269714Y-25791390D01*
X62269714Y-25791390D02*
X62222095Y-25839009D01*
X62222095Y-25839009D02*
X62126857Y-25886628D01*
X62126857Y-25886628D02*
X61745905Y-25886628D01*
X62650667Y-25362819D02*
X63269714Y-25362819D01*
X63269714Y-25362819D02*
X62936381Y-25743771D01*
X62936381Y-25743771D02*
X63079238Y-25743771D01*
X63079238Y-25743771D02*
X63174476Y-25791390D01*
X63174476Y-25791390D02*
X63222095Y-25839009D01*
X63222095Y-25839009D02*
X63269714Y-25934247D01*
X63269714Y-25934247D02*
X63269714Y-26172342D01*
X63269714Y-26172342D02*
X63222095Y-26267580D01*
X63222095Y-26267580D02*
X63174476Y-26315200D01*
X63174476Y-26315200D02*
X63079238Y-26362819D01*
X63079238Y-26362819D02*
X62793524Y-26362819D01*
X62793524Y-26362819D02*
X62698286Y-26315200D01*
X62698286Y-26315200D02*
X62650667Y-26267580D01*
D12*
X27482916Y-39601815D02*
X27351682Y-39601815D01*
X27351682Y-39734863D02*
X27351682Y-39480863D01*
X27351682Y-39480863D02*
X27539159Y-39480863D01*
X27820374Y-39601815D02*
X27876617Y-39613910D01*
X27876617Y-39613910D02*
X27895364Y-39626006D01*
X27895364Y-39626006D02*
X27914112Y-39650196D01*
X27914112Y-39650196D02*
X27914112Y-39686482D01*
X27914112Y-39686482D02*
X27895364Y-39710672D01*
X27895364Y-39710672D02*
X27876617Y-39722768D01*
X27876617Y-39722768D02*
X27839121Y-39734863D01*
X27839121Y-39734863D02*
X27689140Y-39734863D01*
X27689140Y-39734863D02*
X27689140Y-39480863D01*
X27689140Y-39480863D02*
X27820374Y-39480863D01*
X27820374Y-39480863D02*
X27857869Y-39492958D01*
X27857869Y-39492958D02*
X27876617Y-39505053D01*
X27876617Y-39505053D02*
X27895364Y-39529244D01*
X27895364Y-39529244D02*
X27895364Y-39553434D01*
X27895364Y-39553434D02*
X27876617Y-39577625D01*
X27876617Y-39577625D02*
X27857869Y-39589720D01*
X27857869Y-39589720D02*
X27820374Y-39601815D01*
X27820374Y-39601815D02*
X27689140Y-39601815D01*
X28289065Y-39734863D02*
X28064093Y-39734863D01*
X28176579Y-39734863D02*
X28176579Y-39480863D01*
X28176579Y-39480863D02*
X28139084Y-39517148D01*
X28139084Y-39517148D02*
X28101589Y-39541339D01*
X28101589Y-39541339D02*
X28064093Y-39553434D01*
D11*
X48966666Y-25204009D02*
X49109523Y-25251628D01*
X49109523Y-25251628D02*
X49157142Y-25299247D01*
X49157142Y-25299247D02*
X49204761Y-25394485D01*
X49204761Y-25394485D02*
X49204761Y-25537342D01*
X49204761Y-25537342D02*
X49157142Y-25632580D01*
X49157142Y-25632580D02*
X49109523Y-25680200D01*
X49109523Y-25680200D02*
X49014285Y-25727819D01*
X49014285Y-25727819D02*
X48633333Y-25727819D01*
X48633333Y-25727819D02*
X48633333Y-24727819D01*
X48633333Y-24727819D02*
X48966666Y-24727819D01*
X48966666Y-24727819D02*
X49061904Y-24775438D01*
X49061904Y-24775438D02*
X49109523Y-24823057D01*
X49109523Y-24823057D02*
X49157142Y-24918295D01*
X49157142Y-24918295D02*
X49157142Y-25013533D01*
X49157142Y-25013533D02*
X49109523Y-25108771D01*
X49109523Y-25108771D02*
X49061904Y-25156390D01*
X49061904Y-25156390D02*
X48966666Y-25204009D01*
X48966666Y-25204009D02*
X48633333Y-25204009D01*
X49823809Y-24727819D02*
X50014285Y-24727819D01*
X50014285Y-24727819D02*
X50109523Y-24775438D01*
X50109523Y-24775438D02*
X50204761Y-24870676D01*
X50204761Y-24870676D02*
X50252380Y-25061152D01*
X50252380Y-25061152D02*
X50252380Y-25394485D01*
X50252380Y-25394485D02*
X50204761Y-25584961D01*
X50204761Y-25584961D02*
X50109523Y-25680200D01*
X50109523Y-25680200D02*
X50014285Y-25727819D01*
X50014285Y-25727819D02*
X49823809Y-25727819D01*
X49823809Y-25727819D02*
X49728571Y-25680200D01*
X49728571Y-25680200D02*
X49633333Y-25584961D01*
X49633333Y-25584961D02*
X49585714Y-25394485D01*
X49585714Y-25394485D02*
X49585714Y-25061152D01*
X49585714Y-25061152D02*
X49633333Y-24870676D01*
X49633333Y-24870676D02*
X49728571Y-24775438D01*
X49728571Y-24775438D02*
X49823809Y-24727819D01*
X50871428Y-24727819D02*
X51061904Y-24727819D01*
X51061904Y-24727819D02*
X51157142Y-24775438D01*
X51157142Y-24775438D02*
X51252380Y-24870676D01*
X51252380Y-24870676D02*
X51299999Y-25061152D01*
X51299999Y-25061152D02*
X51299999Y-25394485D01*
X51299999Y-25394485D02*
X51252380Y-25584961D01*
X51252380Y-25584961D02*
X51157142Y-25680200D01*
X51157142Y-25680200D02*
X51061904Y-25727819D01*
X51061904Y-25727819D02*
X50871428Y-25727819D01*
X50871428Y-25727819D02*
X50776190Y-25680200D01*
X50776190Y-25680200D02*
X50680952Y-25584961D01*
X50680952Y-25584961D02*
X50633333Y-25394485D01*
X50633333Y-25394485D02*
X50633333Y-25061152D01*
X50633333Y-25061152D02*
X50680952Y-24870676D01*
X50680952Y-24870676D02*
X50776190Y-24775438D01*
X50776190Y-24775438D02*
X50871428Y-24727819D01*
X51585714Y-24727819D02*
X52157142Y-24727819D01*
X51871428Y-25727819D02*
X51871428Y-24727819D01*
X53014285Y-25727819D02*
X52442857Y-25727819D01*
X52728571Y-25727819D02*
X52728571Y-24727819D01*
X52728571Y-24727819D02*
X52633333Y-24870676D01*
X52633333Y-24870676D02*
X52538095Y-24965914D01*
X52538095Y-24965914D02*
X52442857Y-25013533D01*
X46579461Y-32694057D02*
X46484223Y-32646438D01*
X46484223Y-32646438D02*
X46388985Y-32551200D01*
X46388985Y-32551200D02*
X46246128Y-32408342D01*
X46246128Y-32408342D02*
X46150890Y-32360723D01*
X46150890Y-32360723D02*
X46055652Y-32360723D01*
X46103271Y-32598819D02*
X46008033Y-32551200D01*
X46008033Y-32551200D02*
X45912795Y-32455961D01*
X45912795Y-32455961D02*
X45865176Y-32265485D01*
X45865176Y-32265485D02*
X45865176Y-31932152D01*
X45865176Y-31932152D02*
X45912795Y-31741676D01*
X45912795Y-31741676D02*
X46008033Y-31646438D01*
X46008033Y-31646438D02*
X46103271Y-31598819D01*
X46103271Y-31598819D02*
X46293747Y-31598819D01*
X46293747Y-31598819D02*
X46388985Y-31646438D01*
X46388985Y-31646438D02*
X46484223Y-31741676D01*
X46484223Y-31741676D02*
X46531842Y-31932152D01*
X46531842Y-31932152D02*
X46531842Y-32265485D01*
X46531842Y-32265485D02*
X46484223Y-32455961D01*
X46484223Y-32455961D02*
X46388985Y-32551200D01*
X46388985Y-32551200D02*
X46293747Y-32598819D01*
X46293747Y-32598819D02*
X46103271Y-32598819D01*
X47484223Y-32598819D02*
X46912795Y-32598819D01*
X47198509Y-32598819D02*
X47198509Y-31598819D01*
X47198509Y-31598819D02*
X47103271Y-31741676D01*
X47103271Y-31741676D02*
X47008033Y-31836914D01*
X47008033Y-31836914D02*
X46912795Y-31884533D01*
X72017095Y-55624819D02*
X72588523Y-55624819D01*
X72302809Y-56624819D02*
X72302809Y-55624819D01*
X72921857Y-56624819D02*
X72921857Y-55624819D01*
X72921857Y-55624819D02*
X73302809Y-55624819D01*
X73302809Y-55624819D02*
X73398047Y-55672438D01*
X73398047Y-55672438D02*
X73445666Y-55720057D01*
X73445666Y-55720057D02*
X73493285Y-55815295D01*
X73493285Y-55815295D02*
X73493285Y-55958152D01*
X73493285Y-55958152D02*
X73445666Y-56053390D01*
X73445666Y-56053390D02*
X73398047Y-56101009D01*
X73398047Y-56101009D02*
X73302809Y-56148628D01*
X73302809Y-56148628D02*
X72921857Y-56148628D01*
X74398047Y-55624819D02*
X73921857Y-55624819D01*
X73921857Y-55624819D02*
X73874238Y-56101009D01*
X73874238Y-56101009D02*
X73921857Y-56053390D01*
X73921857Y-56053390D02*
X74017095Y-56005771D01*
X74017095Y-56005771D02*
X74255190Y-56005771D01*
X74255190Y-56005771D02*
X74350428Y-56053390D01*
X74350428Y-56053390D02*
X74398047Y-56101009D01*
X74398047Y-56101009D02*
X74445666Y-56196247D01*
X74445666Y-56196247D02*
X74445666Y-56434342D01*
X74445666Y-56434342D02*
X74398047Y-56529580D01*
X74398047Y-56529580D02*
X74350428Y-56577200D01*
X74350428Y-56577200D02*
X74255190Y-56624819D01*
X74255190Y-56624819D02*
X74017095Y-56624819D01*
X74017095Y-56624819D02*
X73921857Y-56577200D01*
X73921857Y-56577200D02*
X73874238Y-56529580D01*
X27987666Y-30061819D02*
X27987666Y-30776104D01*
X27987666Y-30776104D02*
X27940047Y-30918961D01*
X27940047Y-30918961D02*
X27844809Y-31014200D01*
X27844809Y-31014200D02*
X27701952Y-31061819D01*
X27701952Y-31061819D02*
X27606714Y-31061819D01*
X28416238Y-30157057D02*
X28463857Y-30109438D01*
X28463857Y-30109438D02*
X28559095Y-30061819D01*
X28559095Y-30061819D02*
X28797190Y-30061819D01*
X28797190Y-30061819D02*
X28892428Y-30109438D01*
X28892428Y-30109438D02*
X28940047Y-30157057D01*
X28940047Y-30157057D02*
X28987666Y-30252295D01*
X28987666Y-30252295D02*
X28987666Y-30347533D01*
X28987666Y-30347533D02*
X28940047Y-30490390D01*
X28940047Y-30490390D02*
X28368619Y-31061819D01*
X28368619Y-31061819D02*
X28987666Y-31061819D01*
D13*
%TO.C,R5*%
X60183500Y-36338742D02*
X60183500Y-36813258D01*
X61228500Y-36338742D02*
X61228500Y-36813258D01*
%TO.C,R16*%
X42881442Y-36053500D02*
X43355958Y-36053500D01*
X42881442Y-37098500D02*
X43355958Y-37098500D01*
%TO.C,C5*%
X50862580Y-29794000D02*
X50581420Y-29794000D01*
X50862580Y-30814000D02*
X50581420Y-30814000D01*
%TO.C,C14*%
X34657420Y-41654000D02*
X34938580Y-41654000D01*
X34657420Y-42674000D02*
X34938580Y-42674000D01*
%TO.C,RESET1*%
X56474000Y-25986000D02*
X56474000Y-26106000D01*
X56474000Y-27116000D02*
X56474000Y-28256000D01*
X56474000Y-29266000D02*
X56474000Y-29386000D01*
X56474000Y-29386000D02*
X60874000Y-29386000D01*
X60874000Y-25986000D02*
X56474000Y-25986000D01*
X60874000Y-26106000D02*
X60874000Y-25986000D01*
X60874000Y-28256000D02*
X60874000Y-27116000D01*
X60874000Y-29386000D02*
X60874000Y-29266000D01*
%TO.C,D3*%
X59971000Y-38824000D02*
X59971000Y-41109000D01*
X59971000Y-41109000D02*
X61441000Y-41109000D01*
X61441000Y-41109000D02*
X61441000Y-38824000D01*
%TO.C,C8*%
X28317000Y-33187580D02*
X28317000Y-32906420D01*
X29337000Y-33187580D02*
X29337000Y-32906420D01*
%TO.C,C3*%
X57656000Y-39508920D02*
X57656000Y-39790080D01*
X58676000Y-39508920D02*
X58676000Y-39790080D01*
D14*
%TO.C,D2*%
X27157000Y-35929000D02*
G75*
G02*
X26957000Y-35929000I-100000J0D01*
G01*
X26957000Y-35929000D02*
G75*
G02*
X27157000Y-35929000I100000J0D01*
G01*
D13*
%TO.C,R13*%
X67580742Y-37577500D02*
X68055258Y-37577500D01*
X67580742Y-38622500D02*
X68055258Y-38622500D01*
D11*
%TO.C,U4*%
X35546700Y-30323000D02*
X35546700Y-31433000D01*
X35546700Y-39273000D02*
X35546700Y-38163000D01*
X39696700Y-30323000D02*
X35546700Y-30323000D01*
X39696700Y-30323000D02*
X39696700Y-31433000D01*
X39696700Y-38163000D02*
X39696700Y-39273000D01*
X39696700Y-39273000D02*
X35546700Y-39273000D01*
D13*
X40499200Y-38493000D02*
X40019200Y-38493000D01*
X40259200Y-38163000D01*
X40499200Y-38493000D01*
G36*
X40499200Y-38493000D02*
G01*
X40019200Y-38493000D01*
X40259200Y-38163000D01*
X40499200Y-38493000D01*
G37*
%TO.C,R1*%
X22970500Y-27411258D02*
X22970500Y-26936742D01*
X24015500Y-27411258D02*
X24015500Y-26936742D01*
%TO.C,C10*%
X70966420Y-24890000D02*
X71247580Y-24890000D01*
X70966420Y-25910000D02*
X71247580Y-25910000D01*
%TO.C,RV1*%
X41004000Y-40682000D02*
X50944000Y-40682000D01*
X41004000Y-44547000D02*
X41004000Y-40682000D01*
X41004000Y-52922000D02*
X41004000Y-49057000D01*
X41004000Y-52922000D02*
X42603000Y-52922000D01*
X44345000Y-52922000D02*
X45104000Y-52922000D01*
X46845000Y-52922000D02*
X47604000Y-52922000D01*
X49344000Y-52922000D02*
X50944000Y-52922000D01*
X50944000Y-44547000D02*
X50944000Y-40682000D01*
X50944000Y-52922000D02*
X50944000Y-49057000D01*
%TO.C,J1*%
X67250000Y-51477000D02*
X68580000Y-51477000D01*
X67250000Y-52807000D02*
X67250000Y-51477000D01*
X69850000Y-51477000D02*
X97850000Y-51477000D01*
X69850000Y-54137000D02*
X69850000Y-51477000D01*
X69850000Y-54137000D02*
X97850000Y-54137000D01*
X97850000Y-54137000D02*
X97850000Y-51477000D01*
%TO.C,TP2*%
X60513000Y-44069000D02*
G75*
G02*
X58613000Y-44069000I-950000J0D01*
G01*
X58613000Y-44069000D02*
G75*
G02*
X60513000Y-44069000I950000J0D01*
G01*
%TO.C,C12*%
X61974000Y-31101420D02*
X61974000Y-31382580D01*
X62994000Y-31101420D02*
X62994000Y-31382580D01*
%TO.C,R9*%
X42881442Y-38593500D02*
X43355958Y-38593500D01*
X42881442Y-39638500D02*
X43355958Y-39638500D01*
%TO.C,R7*%
X71344258Y-26401500D02*
X70869742Y-26401500D01*
X71344258Y-27446500D02*
X70869742Y-27446500D01*
%TO.C,R11*%
X48946200Y-38083258D02*
X48946200Y-37608742D01*
X49991200Y-38083258D02*
X49991200Y-37608742D01*
%TO.C,TP1*%
X55560000Y-32512000D02*
G75*
G02*
X53660000Y-32512000I-950000J0D01*
G01*
X53660000Y-32512000D02*
G75*
G02*
X55560000Y-32512000I950000J0D01*
G01*
%TO.C,U1*%
X54864000Y-36123500D02*
X54064000Y-36123500D01*
X54864000Y-36123500D02*
X55664000Y-36123500D01*
X54864000Y-39243500D02*
X54064000Y-39243500D01*
X54864000Y-39243500D02*
X55664000Y-39243500D01*
X53564000Y-36173500D02*
X53324000Y-35843500D01*
X53804000Y-35843500D01*
X53564000Y-36173500D01*
G36*
X53564000Y-36173500D02*
G01*
X53324000Y-35843500D01*
X53804000Y-35843500D01*
X53564000Y-36173500D01*
G37*
%TO.C,R8*%
X42881442Y-33259500D02*
X43355958Y-33259500D01*
X42881442Y-34304500D02*
X43355958Y-34304500D01*
%TO.C,R15*%
X67580742Y-33005500D02*
X68055258Y-33005500D01*
X67580742Y-34050500D02*
X68055258Y-34050500D01*
D11*
%TO.C,TP4*%
X42096000Y-29153000D02*
X46296000Y-29153000D01*
X42096000Y-31553000D02*
X42096000Y-29153000D01*
X46296000Y-29153000D02*
X46296000Y-31553000D01*
X46296000Y-31553000D02*
X42096000Y-31553000D01*
D13*
%TO.C,Q2*%
X46674700Y-37048000D02*
X45874700Y-37048000D01*
X46674700Y-37048000D02*
X47474700Y-37048000D01*
X46674700Y-40168000D02*
X45874700Y-40168000D01*
X46674700Y-40168000D02*
X47474700Y-40168000D01*
X45374700Y-37098000D02*
X45134700Y-36768000D01*
X45614700Y-36768000D01*
X45374700Y-37098000D01*
G36*
X45374700Y-37098000D02*
G01*
X45134700Y-36768000D01*
X45614700Y-36768000D01*
X45374700Y-37098000D01*
G37*
%TO.C,C2*%
X57656000Y-36460920D02*
X57656000Y-36742080D01*
X58676000Y-36460920D02*
X58676000Y-36742080D01*
%TO.C,TP3*%
X65085000Y-47625000D02*
G75*
G02*
X63185000Y-47625000I-950000J0D01*
G01*
X63185000Y-47625000D02*
G75*
G02*
X65085000Y-47625000I950000J0D01*
G01*
%TO.C,C4*%
X60196000Y-31101420D02*
X60196000Y-31382580D01*
X61216000Y-31101420D02*
X61216000Y-31382580D01*
%TO.C,R6*%
X31350258Y-33286500D02*
X30875742Y-33286500D01*
X31350258Y-34331500D02*
X30875742Y-34331500D01*
D15*
%TO.C,U2*%
X74920000Y-18164000D02*
X92920000Y-18164000D01*
X74920000Y-24884000D02*
X74920000Y-18164000D01*
X74920000Y-42934000D02*
X74920000Y-43664000D01*
X74920000Y-43664000D02*
X76165000Y-43664000D01*
X92920000Y-18164000D02*
X92920000Y-24884000D01*
X92920000Y-42934000D02*
X92920000Y-43664000D01*
X92920000Y-43664000D02*
X91675000Y-43664000D01*
D14*
X73820000Y-25654000D02*
G75*
G02*
X73620000Y-25654000I-100000J0D01*
G01*
X73620000Y-25654000D02*
G75*
G02*
X73820000Y-25654000I100000J0D01*
G01*
D13*
%TO.C,C1*%
X53974420Y-39622000D02*
X54255580Y-39622000D01*
X53974420Y-40642000D02*
X54255580Y-40642000D01*
%TO.C,R12*%
X67580742Y-39863500D02*
X68055258Y-39863500D01*
X67580742Y-40908500D02*
X68055258Y-40908500D01*
D16*
%TO.C,G\u002A\u002A\u002A*%
G36*
X86806473Y-54911456D02*
G01*
X86823032Y-54914999D01*
X86844983Y-54919879D01*
X86884518Y-54926127D01*
X86935427Y-54932833D01*
X86975983Y-54937468D01*
X87160349Y-54962796D01*
X87333627Y-54998801D01*
X87503200Y-55047249D01*
X87643566Y-55097077D01*
X87815629Y-55172512D01*
X87971082Y-55260179D01*
X88109339Y-55359577D01*
X88229811Y-55470205D01*
X88331912Y-55591561D01*
X88415052Y-55723143D01*
X88443383Y-55779631D01*
X88478157Y-55859486D01*
X88504024Y-55932463D01*
X88522312Y-56004099D01*
X88534350Y-56079929D01*
X88541465Y-56165488D01*
X88542854Y-56194273D01*
X88543938Y-56283737D01*
X88538584Y-56365604D01*
X88525684Y-56442263D01*
X88504132Y-56516100D01*
X88472820Y-56589503D01*
X88430641Y-56664861D01*
X88376487Y-56744561D01*
X88309253Y-56830991D01*
X88227830Y-56926539D01*
X88176938Y-56983468D01*
X88128794Y-57037483D01*
X88081018Y-57092635D01*
X88036599Y-57145360D01*
X87998529Y-57192091D01*
X87969798Y-57229261D01*
X87963161Y-57238417D01*
X87896619Y-57345013D01*
X87845559Y-57453779D01*
X87810264Y-57562603D01*
X87791017Y-57669377D01*
X87788100Y-57771991D01*
X87801795Y-57868334D01*
X87832385Y-57956298D01*
X87860369Y-58006327D01*
X87907733Y-58066450D01*
X87959984Y-58109940D01*
X88017352Y-58136941D01*
X88080069Y-58147593D01*
X88090347Y-58147790D01*
X88147126Y-58141649D01*
X88203383Y-58122390D01*
X88262209Y-58088760D01*
X88295508Y-58064664D01*
X88320939Y-58044318D01*
X88343955Y-58023714D01*
X88365874Y-58000999D01*
X88388010Y-57974322D01*
X88411679Y-57941827D01*
X88438197Y-57901664D01*
X88468880Y-57851978D01*
X88505043Y-57790917D01*
X88548002Y-57716627D01*
X88570365Y-57677578D01*
X88639263Y-57559527D01*
X88702263Y-57456942D01*
X88760039Y-57368845D01*
X88813269Y-57294258D01*
X88862628Y-57232202D01*
X88908793Y-57181699D01*
X88921869Y-57168894D01*
X89037304Y-57072913D01*
X89168399Y-56989857D01*
X89314890Y-56919856D01*
X89476519Y-56863037D01*
X89622143Y-56825945D01*
X89657138Y-56818839D01*
X89690905Y-56813248D01*
X89726582Y-56809063D01*
X89767307Y-56806179D01*
X89816217Y-56804489D01*
X89876449Y-56803886D01*
X89951141Y-56804263D01*
X90043432Y-56805514D01*
X90156457Y-56807532D01*
X90161117Y-56807621D01*
X90203329Y-56807706D01*
X90236990Y-56805096D01*
X90270150Y-56798308D01*
X90310855Y-56785857D01*
X90347176Y-56773321D01*
X90401303Y-56753791D01*
X90466887Y-56729407D01*
X90534471Y-56703713D01*
X90579102Y-56686377D01*
X90658555Y-56655740D01*
X90722385Y-56632934D01*
X90775428Y-56616843D01*
X90822521Y-56606350D01*
X90868498Y-56600341D01*
X90918198Y-56597699D01*
X90965371Y-56597264D01*
X91005903Y-56597617D01*
X91041720Y-56598963D01*
X91075643Y-56602045D01*
X91110490Y-56607605D01*
X91149082Y-56616386D01*
X91194236Y-56629129D01*
X91248774Y-56646577D01*
X91315514Y-56669473D01*
X91397276Y-56698559D01*
X91496879Y-56734578D01*
X91523353Y-56744191D01*
X91619495Y-56778875D01*
X91725919Y-56816860D01*
X91835566Y-56855653D01*
X91941378Y-56892763D01*
X92036296Y-56925696D01*
X92075720Y-56939223D01*
X92191444Y-56978984D01*
X92287394Y-57012710D01*
X92365646Y-57041453D01*
X92428275Y-57066262D01*
X92477358Y-57088189D01*
X92514968Y-57108285D01*
X92543183Y-57127600D01*
X92564078Y-57147186D01*
X92579727Y-57168092D01*
X92592208Y-57191371D01*
X92597567Y-57203425D01*
X92609398Y-57244856D01*
X92614920Y-57294052D01*
X92613820Y-57343181D01*
X92605783Y-57384416D01*
X92604917Y-57386901D01*
X92595055Y-57417315D01*
X92586524Y-57448534D01*
X92586501Y-57448632D01*
X92578663Y-57471132D01*
X92565118Y-57491313D01*
X92543679Y-57510148D01*
X92512160Y-57528610D01*
X92468375Y-57547670D01*
X92410138Y-57568300D01*
X92335262Y-57591473D01*
X92241561Y-57618161D01*
X92147832Y-57643704D01*
X91929008Y-57704694D01*
X91706849Y-57770986D01*
X91473688Y-57844874D01*
X91451524Y-57852098D01*
X91316121Y-57894159D01*
X91197161Y-57926215D01*
X91092043Y-57948675D01*
X90998170Y-57961946D01*
X90912942Y-57966438D01*
X90833760Y-57962560D01*
X90788059Y-57956382D01*
X90716616Y-57941760D01*
X90650855Y-57921995D01*
X90587153Y-57895304D01*
X90521883Y-57859905D01*
X90451421Y-57814015D01*
X90372141Y-57755852D01*
X90357800Y-57744828D01*
X90287126Y-57690282D01*
X90230088Y-57646970D01*
X90183982Y-57613594D01*
X90146106Y-57588859D01*
X90113757Y-57571470D01*
X90084231Y-57560132D01*
X90054825Y-57553549D01*
X90022836Y-57550425D01*
X89985560Y-57549466D01*
X89949970Y-57549386D01*
X89837459Y-57556691D01*
X89725363Y-57577627D01*
X89619549Y-57610526D01*
X89525886Y-57653722D01*
X89478788Y-57683298D01*
X89446021Y-57708053D01*
X89418855Y-57732777D01*
X89396181Y-57759761D01*
X89376889Y-57791295D01*
X89359869Y-57829667D01*
X89344013Y-57877168D01*
X89328209Y-57936086D01*
X89311349Y-58008713D01*
X89303397Y-58045198D01*
X89283576Y-58134322D01*
X89265273Y-58209043D01*
X89247509Y-58271965D01*
X89229301Y-58325690D01*
X89209671Y-58372822D01*
X89187636Y-58415965D01*
X89162217Y-58457721D01*
X89132432Y-58500693D01*
X89131142Y-58502467D01*
X89042815Y-58607192D01*
X88936916Y-58704549D01*
X88816208Y-58792922D01*
X88683451Y-58870699D01*
X88541406Y-58936265D01*
X88392834Y-58988006D01*
X88240497Y-59024308D01*
X88237399Y-59024871D01*
X88148486Y-59036810D01*
X88046294Y-59043859D01*
X87939621Y-59045873D01*
X87837264Y-59042705D01*
X87748022Y-59034209D01*
X87740641Y-59033133D01*
X87592114Y-59002151D01*
X87453157Y-58955783D01*
X87324799Y-58894625D01*
X87208067Y-58819271D01*
X87103991Y-58730318D01*
X87013599Y-58628358D01*
X86993257Y-58600903D01*
X86934935Y-58512563D01*
X86888557Y-58426362D01*
X86852958Y-58338730D01*
X86826975Y-58246098D01*
X86809443Y-58144897D01*
X86799197Y-58031557D01*
X86797660Y-58001417D01*
X86795909Y-57895170D01*
X86800837Y-57793656D01*
X86813076Y-57692313D01*
X86833255Y-57586575D01*
X86862003Y-57471880D01*
X86878960Y-57412549D01*
X86895844Y-57358576D01*
X86915244Y-57303133D01*
X86938157Y-57243846D01*
X86965580Y-57178342D01*
X86998511Y-57104245D01*
X87037947Y-57019182D01*
X87084886Y-56920779D01*
X87090253Y-56909654D01*
X87135765Y-56815181D01*
X87174058Y-56735021D01*
X87205864Y-56667353D01*
X87231916Y-56610355D01*
X87252945Y-56562208D01*
X87269685Y-56521089D01*
X87282868Y-56485179D01*
X87293226Y-56452656D01*
X87301491Y-56421699D01*
X87308396Y-56390487D01*
X87314672Y-56357200D01*
X87316400Y-56347359D01*
X87317312Y-56275698D01*
X87296330Y-56206634D01*
X87255547Y-56142060D01*
X87197056Y-56083867D01*
X87122951Y-56033950D01*
X87035324Y-55994200D01*
X86936269Y-55966510D01*
X86885957Y-55958147D01*
X86790105Y-55953895D01*
X86696003Y-55965557D01*
X86605707Y-55991951D01*
X86521271Y-56031894D01*
X86444751Y-56084203D01*
X86378203Y-56147696D01*
X86323680Y-56221190D01*
X86283239Y-56303501D01*
X86282519Y-56305414D01*
X86274494Y-56329774D01*
X86268601Y-56355785D01*
X86264556Y-56386510D01*
X86262073Y-56425012D01*
X86260869Y-56474355D01*
X86260658Y-56537601D01*
X86260666Y-56540520D01*
X86260817Y-56579233D01*
X86261223Y-56613386D01*
X86262195Y-56644657D01*
X86264041Y-56674721D01*
X86267073Y-56705254D01*
X86271600Y-56737933D01*
X86277932Y-56774434D01*
X86286380Y-56816432D01*
X86297253Y-56865605D01*
X86310861Y-56923627D01*
X86327515Y-56992176D01*
X86347524Y-57072928D01*
X86371199Y-57167558D01*
X86391915Y-57250112D01*
X86426500Y-57388515D01*
X86456920Y-57511736D01*
X86483507Y-57621389D01*
X86506591Y-57719087D01*
X86526504Y-57806444D01*
X86543576Y-57885075D01*
X86558139Y-57956593D01*
X86570524Y-58022613D01*
X86581061Y-58084747D01*
X86590083Y-58144611D01*
X86597919Y-58203817D01*
X86604900Y-58263980D01*
X86610066Y-58313612D01*
X86621013Y-58472616D01*
X86620562Y-58618120D01*
X86608510Y-58751750D01*
X86584655Y-58875132D01*
X86548793Y-58989892D01*
X86516021Y-59066841D01*
X86447790Y-59184169D01*
X86357780Y-59296612D01*
X86247613Y-59403113D01*
X86118908Y-59502613D01*
X85973285Y-59594055D01*
X85812366Y-59676378D01*
X85637771Y-59748527D01*
X85451119Y-59809441D01*
X85330729Y-59840941D01*
X85215145Y-59865674D01*
X85101400Y-59883865D01*
X84982070Y-59896408D01*
X84849731Y-59904200D01*
X84789425Y-59906246D01*
X84593235Y-59904726D01*
X84409394Y-59888772D01*
X84237569Y-59858235D01*
X84077427Y-59812967D01*
X83928635Y-59752820D01*
X83790860Y-59677646D01*
X83663770Y-59587297D01*
X83547030Y-59481625D01*
X83440309Y-59360483D01*
X83381038Y-59280443D01*
X83283106Y-59120675D01*
X83208138Y-58956326D01*
X83156116Y-58787279D01*
X83127019Y-58613422D01*
X83120826Y-58434639D01*
X83137518Y-58250818D01*
X83170328Y-58087945D01*
X83189554Y-58016121D01*
X83211565Y-57943656D01*
X83237072Y-57868892D01*
X83266781Y-57790170D01*
X83301402Y-57705832D01*
X83341644Y-57614220D01*
X83388215Y-57513676D01*
X83441823Y-57402542D01*
X83503177Y-57279158D01*
X83572986Y-57141868D01*
X83582559Y-57123224D01*
X83627942Y-57032988D01*
X83663891Y-56956281D01*
X83690741Y-56891012D01*
X83708827Y-56835091D01*
X83718486Y-56786429D01*
X83720052Y-56742934D01*
X83713861Y-56702518D01*
X83700249Y-56663090D01*
X83679551Y-56622560D01*
X83666418Y-56600860D01*
X83622931Y-56547576D01*
X83569452Y-56508781D01*
X83507425Y-56485094D01*
X83438293Y-56477134D01*
X83387024Y-56481161D01*
X83302977Y-56502456D01*
X83229170Y-56538548D01*
X83166588Y-56588457D01*
X83116219Y-56651202D01*
X83079048Y-56725802D01*
X83056308Y-56809861D01*
X83054537Y-56827059D01*
X83052413Y-56859438D01*
X83050019Y-56905084D01*
X83047437Y-56962082D01*
X83044749Y-57028518D01*
X83042038Y-57102477D01*
X83039386Y-57182044D01*
X83037188Y-57254425D01*
X83033899Y-57361994D01*
X83030624Y-57454609D01*
X83027187Y-57534412D01*
X83023410Y-57603549D01*
X83019118Y-57664162D01*
X83014133Y-57718395D01*
X83008279Y-57768392D01*
X83001379Y-57816297D01*
X82993257Y-57864252D01*
X82983734Y-57914403D01*
X82982109Y-57922574D01*
X82947522Y-58055769D01*
X82899289Y-58179639D01*
X82838207Y-58293244D01*
X82765073Y-58395646D01*
X82680684Y-58485905D01*
X82585837Y-58563084D01*
X82481328Y-58626243D01*
X82367955Y-58674444D01*
X82334652Y-58685155D01*
X82209192Y-58713724D01*
X82073534Y-58727789D01*
X81929858Y-58727499D01*
X81780341Y-58713004D01*
X81627164Y-58684450D01*
X81472505Y-58641986D01*
X81414580Y-58622510D01*
X81253185Y-58556962D01*
X81107763Y-58480408D01*
X80979589Y-58393843D01*
X80869939Y-58298265D01*
X80780090Y-58194670D01*
X80711317Y-58084055D01*
X80702733Y-58066572D01*
X80668605Y-57987334D01*
X80644059Y-57911889D01*
X80627748Y-57834491D01*
X80618325Y-57749396D01*
X80615494Y-57694503D01*
X80614269Y-57647068D01*
X80614001Y-57605794D01*
X80614644Y-57573629D01*
X80616153Y-57553524D01*
X80617714Y-57548197D01*
X80622421Y-57538216D01*
X80629855Y-57514913D01*
X80638964Y-57481852D01*
X80647943Y-57445779D01*
X80680439Y-57335651D01*
X80724292Y-57228403D01*
X80777988Y-57126269D01*
X80840011Y-57031479D01*
X80908845Y-56946264D01*
X80982977Y-56872858D01*
X81060889Y-56813490D01*
X81088836Y-56796405D01*
X81156231Y-56762575D01*
X81222354Y-56738061D01*
X81283852Y-56723508D01*
X81337373Y-56719559D01*
X81379563Y-56726860D01*
X81398112Y-56736960D01*
X81411024Y-56751193D01*
X81414972Y-56768291D01*
X81408912Y-56790101D01*
X81391801Y-56818470D01*
X81362596Y-56855247D01*
X81320253Y-56902278D01*
X81282094Y-56942441D01*
X81220827Y-57006389D01*
X81171769Y-57058527D01*
X81133124Y-57100933D01*
X81103097Y-57135685D01*
X81079891Y-57164861D01*
X81061712Y-57190539D01*
X81046773Y-57214781D01*
X81010700Y-57297102D01*
X80990118Y-57389398D01*
X80984839Y-57488692D01*
X80994679Y-57592009D01*
X81019452Y-57696372D01*
X81058972Y-57798804D01*
X81086491Y-57852464D01*
X81147582Y-57942762D01*
X81222566Y-58022398D01*
X81309579Y-58090340D01*
X81406760Y-58145557D01*
X81512243Y-58187016D01*
X81624165Y-58213686D01*
X81740664Y-58224535D01*
X81758799Y-58224734D01*
X81860254Y-58217334D01*
X81949969Y-58195100D01*
X82028038Y-58157978D01*
X82094555Y-58105913D01*
X82149615Y-58038853D01*
X82181091Y-57983572D01*
X82202457Y-57933571D01*
X82219300Y-57879375D01*
X82231733Y-57819288D01*
X82239871Y-57751610D01*
X82243829Y-57674645D01*
X82243722Y-57586693D01*
X82239664Y-57486058D01*
X82231771Y-57371041D01*
X82226630Y-57309958D01*
X82216171Y-57185975D01*
X82208187Y-57077156D01*
X82202721Y-56981654D01*
X82199816Y-56897620D01*
X82199514Y-56823208D01*
X82201861Y-56756571D01*
X82206897Y-56695862D01*
X82214668Y-56639232D01*
X82225215Y-56584835D01*
X82238582Y-56530825D01*
X82245399Y-56506597D01*
X82294378Y-56376556D01*
X82362861Y-56255020D01*
X82450000Y-56142915D01*
X82554942Y-56041168D01*
X82676838Y-55950704D01*
X82814837Y-55872451D01*
X82838078Y-55861255D01*
X82945183Y-55813797D01*
X83042161Y-55777849D01*
X83134614Y-55752004D01*
X83228142Y-55734854D01*
X83328349Y-55724993D01*
X83392160Y-55722046D01*
X83500205Y-55721034D01*
X83595829Y-55725876D01*
X83689608Y-55737517D01*
X83792119Y-55756902D01*
X83799114Y-55758404D01*
X83957555Y-55801385D01*
X84105413Y-55859008D01*
X84241341Y-55930135D01*
X84363993Y-56013624D01*
X84472022Y-56108338D01*
X84564083Y-56213136D01*
X84638829Y-56326878D01*
X84694913Y-56448426D01*
X84723077Y-56540520D01*
X84741396Y-56642496D01*
X84750297Y-56755507D01*
X84749871Y-56874892D01*
X84740212Y-56995986D01*
X84721413Y-57114126D01*
X84710731Y-57162081D01*
X84684817Y-57253491D01*
X84649769Y-57354781D01*
X84607697Y-57460724D01*
X84560709Y-57566093D01*
X84510915Y-57665661D01*
X84497522Y-57690402D01*
X84476572Y-57729486D01*
X84451014Y-57778866D01*
X84422125Y-57835914D01*
X84391179Y-57898002D01*
X84359455Y-57962501D01*
X84328228Y-58026784D01*
X84298775Y-58088223D01*
X84272372Y-58144189D01*
X84250295Y-58192055D01*
X84233821Y-58229192D01*
X84224226Y-58252973D01*
X84224042Y-58253499D01*
X84209676Y-58306960D01*
X84199149Y-58370648D01*
X84192861Y-58438819D01*
X84191214Y-58505730D01*
X84194608Y-58565639D01*
X84199926Y-58599110D01*
X84229225Y-58691522D01*
X84273041Y-58771511D01*
X84330107Y-58838566D01*
X84399154Y-58892176D01*
X84478916Y-58931830D01*
X84568124Y-58957015D01*
X84665512Y-58967220D01*
X84769811Y-58961933D01*
X84879754Y-58940644D01*
X84972881Y-58911017D01*
X85065864Y-58866990D01*
X85149846Y-58808457D01*
X85222989Y-58737233D01*
X85283453Y-58655134D01*
X85329401Y-58563972D01*
X85332440Y-58556224D01*
X85341231Y-58531987D01*
X85347896Y-58509178D01*
X85352716Y-58484923D01*
X85355974Y-58456351D01*
X85357953Y-58420590D01*
X85358934Y-58374768D01*
X85359202Y-58316014D01*
X85359164Y-58284579D01*
X85358755Y-58216780D01*
X85357552Y-58161693D01*
X85355099Y-58114934D01*
X85350935Y-58072119D01*
X85344603Y-58028862D01*
X85335644Y-57980779D01*
X85323599Y-57923486D01*
X85319379Y-57904135D01*
X85306943Y-57847358D01*
X85295104Y-57793256D01*
X85284603Y-57745216D01*
X85276180Y-57706625D01*
X85270575Y-57680868D01*
X85269862Y-57677578D01*
X85264953Y-57655289D01*
X85256929Y-57619324D01*
X85246509Y-57572885D01*
X85234412Y-57519175D01*
X85221357Y-57461396D01*
X85216104Y-57438197D01*
X85175385Y-57251929D01*
X85141204Y-57080794D01*
X85113469Y-56923491D01*
X85092089Y-56778719D01*
X85076973Y-56645178D01*
X85068029Y-56521566D01*
X85065166Y-56406582D01*
X85068293Y-56298926D01*
X85077320Y-56197297D01*
X85092154Y-56100394D01*
X85112704Y-56006915D01*
X85115087Y-55997639D01*
X85164713Y-55848072D01*
X85233346Y-55705678D01*
X85319935Y-55571512D01*
X85423432Y-55446632D01*
X85542784Y-55332093D01*
X85676942Y-55228954D01*
X85824855Y-55138269D01*
X85985473Y-55061095D01*
X86084239Y-55022871D01*
X86141730Y-55003284D01*
X86194805Y-54987343D01*
X86249250Y-54973721D01*
X86310849Y-54961088D01*
X86385389Y-54948118D01*
X86463953Y-54935729D01*
X86549456Y-54924014D01*
X86630540Y-54915494D01*
X86703126Y-54910403D01*
X86763131Y-54908979D01*
X86806473Y-54911456D01*
G37*
D13*
%TO.C,C11*%
X67450580Y-26414000D02*
X67169420Y-26414000D01*
X67450580Y-27434000D02*
X67169420Y-27434000D01*
%TO.C,C7*%
X37590000Y-41261420D02*
X37590000Y-41542580D01*
X38610000Y-41261420D02*
X38610000Y-41542580D01*
%TO.C,C13*%
X33494000Y-55131580D02*
X33494000Y-54850420D01*
X34514000Y-55131580D02*
X34514000Y-54850420D01*
D15*
%TO.C,J3*%
X18740000Y-40891000D02*
X18740000Y-56391000D01*
X18740000Y-40891000D02*
X32840000Y-40891000D01*
X32840000Y-40891000D02*
X32840000Y-44416000D01*
X32840000Y-54136000D02*
X32840000Y-56391000D01*
X32840000Y-56391000D02*
X18740000Y-56391000D01*
D14*
X29440000Y-40141000D02*
G75*
G02*
X29240000Y-40141000I-100000J0D01*
G01*
X29240000Y-40141000D02*
G75*
G02*
X29440000Y-40141000I100000J0D01*
G01*
D13*
%TO.C,R3*%
X61961500Y-27702742D02*
X61961500Y-28177258D01*
X63006500Y-27702742D02*
X63006500Y-28177258D01*
D14*
%TO.C,D1*%
X27157000Y-33201800D02*
G75*
G02*
X26957000Y-33201800I-100000J0D01*
G01*
X26957000Y-33201800D02*
G75*
G02*
X27157000Y-33201800I100000J0D01*
G01*
D13*
%TO.C,R4*%
X30875742Y-34810500D02*
X31350258Y-34810500D01*
X30875742Y-35855500D02*
X31350258Y-35855500D01*
%TO.C,BOOT1*%
X48600000Y-25986000D02*
X48600000Y-26106000D01*
X48600000Y-27116000D02*
X48600000Y-28256000D01*
X48600000Y-29266000D02*
X48600000Y-29386000D01*
X48600000Y-29386000D02*
X53000000Y-29386000D01*
X53000000Y-25986000D02*
X48600000Y-25986000D01*
X53000000Y-26106000D02*
X53000000Y-25986000D01*
X53000000Y-28256000D02*
X53000000Y-27116000D01*
X53000000Y-29386000D02*
X53000000Y-29266000D01*
%TO.C,Q1*%
X46674700Y-32984000D02*
X45874700Y-32984000D01*
X46674700Y-32984000D02*
X47474700Y-32984000D01*
X46674700Y-36104000D02*
X45874700Y-36104000D01*
X46674700Y-36104000D02*
X47474700Y-36104000D01*
X45374700Y-33034000D02*
X45134700Y-32704000D01*
X45614700Y-32704000D01*
X45374700Y-33034000D01*
G36*
X45374700Y-33034000D02*
G01*
X45134700Y-32704000D01*
X45614700Y-32704000D01*
X45374700Y-33034000D01*
G37*
%TO.C,C9*%
X28317000Y-35954420D02*
X28317000Y-36235580D01*
X29337000Y-35954420D02*
X29337000Y-36235580D01*
D11*
%TO.C,TP5*%
X71179000Y-57220000D02*
X75379000Y-57220000D01*
X71179000Y-59620000D02*
X71179000Y-57220000D01*
X75379000Y-57220000D02*
X75379000Y-59620000D01*
X75379000Y-59620000D02*
X71179000Y-59620000D01*
D13*
%TO.C,R14*%
X67580742Y-35291500D02*
X68055258Y-35291500D01*
X67580742Y-36336500D02*
X68055258Y-36336500D01*
%TO.C,C6*%
X30210420Y-37840000D02*
X30491580Y-37840000D01*
X30210420Y-38860000D02*
X30491580Y-38860000D01*
%TO.C,R10*%
X48946200Y-34781258D02*
X48946200Y-34306742D01*
X49991200Y-34781258D02*
X49991200Y-34306742D01*
%TO.C,J2*%
X18513000Y-29706000D02*
X18513000Y-38866000D01*
X19463000Y-29706000D02*
X18513000Y-29706000D01*
X19463000Y-38866000D02*
X18513000Y-38866000D01*
X23438000Y-29706000D02*
X22583000Y-29706000D01*
X23438000Y-38866000D02*
X22583000Y-38866000D01*
%TO.C,R2*%
X26526500Y-27411258D02*
X26526500Y-26936742D01*
X27571500Y-27411258D02*
X27571500Y-26936742D01*
%TD*%
M02*
