M48
; DRILL file {KiCad 8.0.4} date 2024-11-18T06:36:04-0700
; FORMAT={-:-/ absolute / inch / decimal}
; #@! TF.CreationDate,2024-11-18T06:36:04-07:00
; #@! TF.GenerationSoftware,Kicad,Pcbnew,8.0.4
; #@! TF.FileFunction,Plated,1,4,PTH
FMAT,2
INCH
; #@! TA.AperFunction,Plated,PTH,ComponentDrill
T1C0.0079
; #@! TA.AperFunction,Plated,PTH,ViaDrill
T2C0.0098
; #@! TA.AperFunction,Plated,PTH,ViaDrill
T3C0.0118
; #@! TA.AperFunction,Plated,PTH,ComponentDrill
T4C0.0236
; #@! TA.AperFunction,Plated,PTH,ComponentDrill
T5C0.0374
; #@! TA.AperFunction,Plated,PTH,ComponentDrill
T6C0.0394
; #@! TA.AperFunction,Plated,PTH,ComponentDrill
T7C0.0472
; #@! TA.AperFunction,Plated,PTH,ComponentDrill
T8C0.0984
%
G90
G05
T1
X3.1465Y-1.2171
X3.1465Y-1.2958
X3.1465Y-1.3352
X3.1465Y-1.4139
X3.2252Y-1.2171
X3.2252Y-1.4139
X3.2646Y-1.2171
X3.2646Y-1.4139
X3.3433Y-1.2171
X3.3433Y-1.2958
X3.3433Y-1.3352
X3.3433Y-1.4139
T2
X0.925Y-1.265
X1.065Y-1.41
X1.42Y-1.4825
X1.42Y-1.5121
X1.44Y-1.435
X1.54Y-1.3504
X1.5402Y-1.38
X1.6152Y-1.3575
X2.6907Y-1.365
X2.695Y-1.455
X2.695Y-1.545
X2.7025Y-1.6275
X2.84Y-1.11
X2.89Y-1.385
X2.89Y-1.445
X2.89Y-1.4959
X2.915Y-1.36
X2.915Y-1.415
X2.915Y-1.47
X3.6Y-1.16
X3.6Y-1.21
X3.72Y-1.66
T3
X0.8Y-1.7
X0.8Y-1.8
X0.8Y-1.9
X0.8Y-2.0
X0.8Y-2.1
X0.805Y-1.23
X0.81Y-1.47
X0.85Y-1.23
X0.85Y-1.47
X0.9Y-1.7
X0.9Y-1.8
X0.9Y-1.9
X0.9Y-2.0
X0.9Y-2.1
X0.95Y-2.285
X0.955Y-1.265
X0.96Y-1.13
X0.96Y-1.57
X0.9749Y-1.0398
X1.0Y-1.13
X1.0Y-1.57
X1.0149Y-1.0398
X1.0295Y-1.4703
X1.0349Y-1.2298
X1.035Y-1.41
X1.085Y-1.44
X1.1949Y-1.2698
X1.2Y-1.0
X1.2Y-1.1
X1.2Y-1.2
X1.21Y-2.135
X1.215Y-1.83
X1.215Y-2.04
X1.2899Y-1.5098
X1.3Y-1.0
X1.3Y-1.1
X1.3Y-1.2
X1.305Y-1.745
X1.385Y-2.135
X1.4Y-1.0
X1.4Y-1.1
X1.485Y-2.215
X1.5Y-1.0
X1.5Y-1.1
X1.5Y-1.3
X1.6Y-1.0
X1.6Y-1.1
X1.64Y-1.7
X1.66Y-2.0
X1.7Y-1.0
X1.7Y-1.1
X1.8Y-1.0
X1.8Y-1.1
X1.8Y-1.7
X1.8Y-1.8
X1.8Y-1.92
X1.87Y-1.13
X1.88Y-2.025
X1.98Y-1.7
X1.98Y-2.025
X1.987Y-2.119
X2.0Y-1.0
X2.05Y-1.35
X2.075Y-2.025
X2.15Y-1.05
X2.15Y-1.0816
X2.16Y-1.7
X2.16Y-1.78
X2.175Y-2.025
X2.205Y-1.135
X2.25Y-1.35
X2.26Y-1.7
X2.26Y-1.78
X2.26Y-1.86
X2.275Y-2.025
X2.3Y-1.0
X2.3Y-1.1
X2.3Y-1.3
X2.35Y-1.975
X2.425Y-1.9008
X2.4275Y-1.3025
X2.45Y-1.7
X2.499Y-1.1062
X2.5Y-1.0
X2.5Y-1.4
X2.5Y-1.5
X2.5Y-1.8
X2.51Y-1.215
X2.53Y-1.1
X2.55Y-1.075
X2.55Y-1.13
X2.57Y-1.35
X2.6Y-1.0
X2.6Y-1.7
X2.615Y-2.285
X2.65Y-1.26
X2.6697Y-1.6239
X2.7Y-1.0
X2.7293Y-1.5443
X2.73Y-1.365
X2.73Y-1.455
X2.75Y-1.26
X2.76Y-2.3
X2.785Y-1.105
X2.8Y-2.2
X2.885Y-1.015
X2.9Y-2.2
X3.0Y-2.2
X3.0Y-2.3
X3.045Y-1.0
X3.1Y-1.3
X3.1Y-1.4
X3.1Y-1.5
X3.1Y-1.6
X3.1Y-2.2
X3.1Y-2.3
X3.2Y-1.5
X3.2Y-1.6
X3.2Y-2.2
X3.2Y-2.3
X3.3Y-1.5
X3.3Y-1.6
X3.3Y-2.2
X3.3Y-2.3
X3.4Y-1.3
X3.4Y-1.4
X3.4Y-1.5
X3.4Y-1.6
X3.4Y-2.2
X3.4Y-2.3
X3.5Y-1.3
X3.5Y-1.4
X3.5Y-1.5
X3.5Y-1.6
X3.5Y-2.2
X3.5Y-2.3
X3.57Y-1.0
X3.6Y-2.2
X3.6Y-2.3
X3.7Y-1.8
X3.7Y-2.2
X3.8Y-1.2
X3.8Y-1.3
X3.8Y-1.4
X3.8Y-1.5
X3.8Y-1.6
X3.8Y-1.7
X3.8Y-1.8
X3.8Y-1.9
T5
X1.1551Y-1.74
X1.1551Y-1.84
X1.1551Y-1.94
X1.1551Y-2.04
X1.2551Y-1.79
X1.2551Y-1.89
X1.2551Y-1.99
X1.2551Y-2.09
T6
X1.7116Y-2.1182
X1.81Y-2.1182
X1.9084Y-2.1182
X2.7Y-2.079
X2.8Y-2.079
X2.9Y-2.079
X3.0Y-2.079
X3.1Y-2.079
X3.2Y-2.079
X3.3Y-2.079
X3.4Y-2.079
X3.5Y-2.079
X3.6Y-2.079
X3.7Y-2.079
X3.8Y-2.079
T7
X1.04Y-2.2846
X1.14Y-2.2846
X1.24Y-2.2846
X1.34Y-2.2846
X1.44Y-2.2846
X1.54Y-2.2846
X1.64Y-2.2846
X1.74Y-2.2846
X1.84Y-2.2846
X1.94Y-2.2846
X2.04Y-2.2846
X2.14Y-2.2846
X2.24Y-2.2846
X2.34Y-2.2846
X2.44Y-2.2846
X2.54Y-2.2846
T8
X0.8235Y-1.0641
X0.8235Y-2.2846
X3.7762Y-1.0641
X3.7762Y-2.2846
T4
G00X0.8552Y-1.1798
M15
G01X0.8041Y-1.1798
M16
G05
G00X0.8552Y-1.5199
M15
G01X0.8041Y-1.5199
M16
G05
G00X0.9999Y-1.1798
M15
G01X0.9606Y-1.1798
M16
G05
G00X0.9999Y-1.5199
M15
G01X0.9606Y-1.5199
M16
G05
M30
