%TF.GenerationSoftware,KiCad,Pcbnew,8.0.4*%
%TF.CreationDate,2024-11-19T10:10:49-07:00*%
%TF.ProjectId,SnakeTank,536e616b-6554-4616-9e6b-2e6b69636164,rev?*%
%TF.SameCoordinates,Original*%
%TF.FileFunction,Legend,Bot*%
%TF.FilePolarity,Positive*%
%FSLAX46Y46*%
G04 Gerber Fmt 4.6, Leading zero omitted, Abs format (unit mm)*
G04 Created by KiCad (PCBNEW 8.0.4) date 2024-11-19 10:10:49*
%MOMM*%
%LPD*%
G01*
G04 APERTURE LIST*
%ADD10C,0.150000*%
%ADD11C,0.120000*%
G04 APERTURE END LIST*
D10*
X24836285Y-60017819D02*
X24836285Y-59017819D01*
X24836285Y-59017819D02*
X24598190Y-59017819D01*
X24598190Y-59017819D02*
X24455333Y-59065438D01*
X24455333Y-59065438D02*
X24360095Y-59160676D01*
X24360095Y-59160676D02*
X24312476Y-59255914D01*
X24312476Y-59255914D02*
X24264857Y-59446390D01*
X24264857Y-59446390D02*
X24264857Y-59589247D01*
X24264857Y-59589247D02*
X24312476Y-59779723D01*
X24312476Y-59779723D02*
X24360095Y-59874961D01*
X24360095Y-59874961D02*
X24455333Y-59970200D01*
X24455333Y-59970200D02*
X24598190Y-60017819D01*
X24598190Y-60017819D02*
X24836285Y-60017819D01*
X23883904Y-59970200D02*
X23741047Y-60017819D01*
X23741047Y-60017819D02*
X23502952Y-60017819D01*
X23502952Y-60017819D02*
X23407714Y-59970200D01*
X23407714Y-59970200D02*
X23360095Y-59922580D01*
X23360095Y-59922580D02*
X23312476Y-59827342D01*
X23312476Y-59827342D02*
X23312476Y-59732104D01*
X23312476Y-59732104D02*
X23360095Y-59636866D01*
X23360095Y-59636866D02*
X23407714Y-59589247D01*
X23407714Y-59589247D02*
X23502952Y-59541628D01*
X23502952Y-59541628D02*
X23693428Y-59494009D01*
X23693428Y-59494009D02*
X23788666Y-59446390D01*
X23788666Y-59446390D02*
X23836285Y-59398771D01*
X23836285Y-59398771D02*
X23883904Y-59303533D01*
X23883904Y-59303533D02*
X23883904Y-59208295D01*
X23883904Y-59208295D02*
X23836285Y-59113057D01*
X23836285Y-59113057D02*
X23788666Y-59065438D01*
X23788666Y-59065438D02*
X23693428Y-59017819D01*
X23693428Y-59017819D02*
X23455333Y-59017819D01*
X23455333Y-59017819D02*
X23312476Y-59065438D01*
X22360095Y-60017819D02*
X22931523Y-60017819D01*
X22645809Y-60017819D02*
X22645809Y-59017819D01*
X22645809Y-59017819D02*
X22741047Y-59160676D01*
X22741047Y-59160676D02*
X22836285Y-59255914D01*
X22836285Y-59255914D02*
X22931523Y-59303533D01*
D11*
%TO.C,DS1*%
X18276000Y-24389500D02*
X18276000Y-60669500D01*
X19076000Y-60669500D02*
X18286000Y-60669500D01*
X19076000Y-60669500D02*
X98556000Y-60669500D01*
X21416000Y-30029500D02*
X94416000Y-30029500D01*
X21416000Y-55029500D02*
X21416000Y-30029500D01*
X26116280Y-49529500D02*
X26116280Y-35530180D01*
X26616000Y-35029500D02*
X90116660Y-35029500D01*
X27916000Y-61029500D02*
X24916000Y-61029500D01*
X90116000Y-50029500D02*
X26616000Y-50029500D01*
X90616000Y-35529500D02*
X90616000Y-49529500D01*
X94416000Y-30029500D02*
X94416000Y-55029500D01*
X94416000Y-55029500D02*
X21416000Y-55029500D01*
X98556000Y-24389500D02*
X18276000Y-24389500D01*
X98556000Y-60669500D02*
X98556000Y-24389500D01*
X26116280Y-35530180D02*
G75*
G02*
X26616660Y-35029800I500380J0D01*
G01*
X26616660Y-50031040D02*
G75*
G02*
X26116280Y-49530660I0J500380D01*
G01*
X90116660Y-35029800D02*
G75*
G02*
X90617100Y-35530180I40J-500400D01*
G01*
X90616000Y-49529500D02*
G75*
G02*
X90116000Y-50029500I-500000J0D01*
G01*
%TD*%
M02*
