%TF.GenerationSoftware,KiCad,Pcbnew,8.0.4*%
%TF.CreationDate,2024-11-19T10:10:49-07:00*%
%TF.ProjectId,SnakeTank,536e616b-6554-4616-9e6b-2e6b69636164,rev?*%
%TF.SameCoordinates,Original*%
%TF.FileFunction,Legend,Top*%
%TF.FilePolarity,Positive*%
%FSLAX46Y46*%
G04 Gerber Fmt 4.6, Leading zero omitted, Abs format (unit mm)*
G04 Created by KiCad (PCBNEW 8.0.4) date 2024-11-19 10:10:49*
%MOMM*%
%LPD*%
G01*
G04 APERTURE LIST*
%ADD10C,0.285750*%
%ADD11C,0.150000*%
%ADD12C,0.050800*%
%ADD13C,0.127000*%
%ADD14C,0.200000*%
%ADD15C,0.120000*%
%ADD16C,0.000000*%
G04 APERTURE END LIST*
D10*
G36*
X31071578Y-28386163D02*
G01*
X31071578Y-29486848D01*
X31305014Y-29486848D01*
X31305014Y-29646372D01*
X30629250Y-29646372D01*
X30629250Y-29486848D01*
X30875812Y-29486848D01*
X30875812Y-28588493D01*
X30823321Y-28620294D01*
X30767156Y-28648920D01*
X30707317Y-28674372D01*
X30651944Y-28694038D01*
X30643804Y-28696649D01*
X30610700Y-28529420D01*
X30666709Y-28511515D01*
X30722157Y-28489477D01*
X30777042Y-28463305D01*
X30831365Y-28433000D01*
X30885127Y-28398561D01*
X30902923Y-28386163D01*
X31071578Y-28386163D01*
G37*
G36*
X32008744Y-28386163D02*
G01*
X32008744Y-29486848D01*
X32242180Y-29486848D01*
X32242180Y-29646372D01*
X31566416Y-29646372D01*
X31566416Y-29486848D01*
X31812978Y-29486848D01*
X31812978Y-28588493D01*
X31760488Y-28620294D01*
X31704322Y-28648920D01*
X31644483Y-28674372D01*
X31589110Y-28694038D01*
X31580970Y-28696649D01*
X31547867Y-28529420D01*
X31603876Y-28511515D01*
X31659323Y-28489477D01*
X31714208Y-28463305D01*
X31768531Y-28433000D01*
X31822293Y-28398561D01*
X31840089Y-28386163D01*
X32008744Y-28386163D01*
G37*
G36*
X33152235Y-28240052D02*
G01*
X32482750Y-29810747D01*
X32379159Y-29810747D01*
X33048645Y-28240052D01*
X33152235Y-28240052D01*
G37*
G36*
X33259250Y-28746019D02*
G01*
X33270969Y-28683495D01*
X33289429Y-28626911D01*
X33319487Y-28568403D01*
X33358721Y-28517979D01*
X33399654Y-28481192D01*
X33452395Y-28447607D01*
X33511021Y-28423618D01*
X33567147Y-28410499D01*
X33627780Y-28404727D01*
X33645931Y-28404427D01*
X33711919Y-28407818D01*
X33772049Y-28417991D01*
X33834794Y-28438431D01*
X33889564Y-28468103D01*
X33930163Y-28500883D01*
X33969866Y-28547773D01*
X33998225Y-28601976D01*
X34015240Y-28663492D01*
X34020823Y-28723317D01*
X34020912Y-28732321D01*
X34015946Y-28792579D01*
X34001047Y-28850716D01*
X33976216Y-28906731D01*
X33958130Y-28936933D01*
X33920299Y-28987934D01*
X33882292Y-29031535D01*
X33836774Y-29078576D01*
X33791781Y-29121636D01*
X33767215Y-29144114D01*
X33724133Y-29182143D01*
X33671326Y-29230804D01*
X33623815Y-29277128D01*
X33581603Y-29321116D01*
X33536286Y-29372814D01*
X33499246Y-29420862D01*
X33465723Y-29473701D01*
X33461295Y-29481996D01*
X34025763Y-29481996D01*
X34025763Y-29646372D01*
X33247836Y-29646372D01*
X33247836Y-29500260D01*
X33276788Y-29446106D01*
X33310279Y-29391373D01*
X33348309Y-29336059D01*
X33390879Y-29280166D01*
X33437988Y-29223693D01*
X33476298Y-29180959D01*
X33517162Y-29137898D01*
X33560579Y-29094510D01*
X33606550Y-29050797D01*
X33651576Y-29007861D01*
X33696195Y-28962308D01*
X33736754Y-28916233D01*
X33771801Y-28867620D01*
X33774349Y-28863307D01*
X33796979Y-28810862D01*
X33806935Y-28752408D01*
X33807453Y-28734604D01*
X33800309Y-28676829D01*
X33773919Y-28623525D01*
X33756656Y-28605330D01*
X33706502Y-28576221D01*
X33647171Y-28566557D01*
X33642792Y-28566519D01*
X33578576Y-28577115D01*
X33528507Y-28608906D01*
X33492585Y-28661889D01*
X33473055Y-28724172D01*
X33464719Y-28787968D01*
X33259250Y-28746019D01*
G37*
G36*
X34643266Y-28408440D02*
G01*
X34700242Y-28420479D01*
X34761384Y-28445520D01*
X34814641Y-28482120D01*
X34860012Y-28530276D01*
X34885879Y-28568802D01*
X34911529Y-28620542D01*
X34932831Y-28679808D01*
X34949787Y-28746597D01*
X34960221Y-28805446D01*
X34967872Y-28869111D01*
X34972741Y-28937592D01*
X34974828Y-29010889D01*
X34974915Y-29029965D01*
X34973892Y-29094204D01*
X34970822Y-29154972D01*
X34965705Y-29212268D01*
X34955699Y-29283264D01*
X34942055Y-29348088D01*
X34924772Y-29406741D01*
X34898051Y-29471380D01*
X34865646Y-29526375D01*
X34858483Y-29536217D01*
X34819018Y-29579859D01*
X34773392Y-29614472D01*
X34721607Y-29640055D01*
X34663662Y-29656609D01*
X34599557Y-29664134D01*
X34576819Y-29664635D01*
X34513669Y-29660546D01*
X34456204Y-29648277D01*
X34394751Y-29622757D01*
X34341484Y-29585459D01*
X34296404Y-29536382D01*
X34270899Y-29497121D01*
X34245907Y-29445160D01*
X34225150Y-29385592D01*
X34208630Y-29318415D01*
X34198463Y-29259195D01*
X34191008Y-29195107D01*
X34186263Y-29126149D01*
X34184230Y-29052322D01*
X34184145Y-29033104D01*
X34184186Y-29030536D01*
X34396178Y-29030536D01*
X34396931Y-29097764D01*
X34399192Y-29159471D01*
X34404137Y-29228843D01*
X34411438Y-29289589D01*
X34423306Y-29351099D01*
X34441439Y-29407163D01*
X34444406Y-29413792D01*
X34478078Y-29463834D01*
X34528963Y-29494735D01*
X34576819Y-29501687D01*
X34637868Y-29490178D01*
X34685818Y-29455648D01*
X34717775Y-29404891D01*
X34726069Y-29383828D01*
X34742175Y-29321510D01*
X34751235Y-29263394D01*
X34757706Y-29195526D01*
X34761121Y-29131521D01*
X34762739Y-29060743D01*
X34762883Y-29030536D01*
X34762129Y-28963758D01*
X34759868Y-28902546D01*
X34754923Y-28833856D01*
X34747623Y-28773860D01*
X34735754Y-28713343D01*
X34717622Y-28658565D01*
X34714655Y-28652131D01*
X34680814Y-28603389D01*
X34629360Y-28573291D01*
X34580814Y-28566519D01*
X34521053Y-28577583D01*
X34474112Y-28610774D01*
X34442825Y-28659565D01*
X34434703Y-28679812D01*
X34417848Y-28741649D01*
X34408368Y-28799333D01*
X34401596Y-28866709D01*
X34398021Y-28930259D01*
X34396328Y-29000539D01*
X34396178Y-29030536D01*
X34184186Y-29030536D01*
X34185176Y-28969084D01*
X34188269Y-28908545D01*
X34193423Y-28851488D01*
X34203503Y-28780827D01*
X34217247Y-28716355D01*
X34234657Y-28658072D01*
X34261574Y-28593921D01*
X34294218Y-28539441D01*
X34301434Y-28529706D01*
X34340645Y-28487130D01*
X34394075Y-28448592D01*
X34446459Y-28425103D01*
X34504923Y-28410422D01*
X34569466Y-28404549D01*
X34580814Y-28404427D01*
X34643266Y-28408440D01*
G37*
G36*
X35133583Y-28746019D02*
G01*
X35145301Y-28683495D01*
X35163761Y-28626911D01*
X35193819Y-28568403D01*
X35233053Y-28517979D01*
X35273986Y-28481192D01*
X35326727Y-28447607D01*
X35385353Y-28423618D01*
X35441480Y-28410499D01*
X35502112Y-28404727D01*
X35520263Y-28404427D01*
X35586252Y-28407818D01*
X35646381Y-28417991D01*
X35709126Y-28438431D01*
X35763897Y-28468103D01*
X35804495Y-28500883D01*
X35844198Y-28547773D01*
X35872557Y-28601976D01*
X35889572Y-28663492D01*
X35895155Y-28723317D01*
X35895244Y-28732321D01*
X35890278Y-28792579D01*
X35875379Y-28850716D01*
X35850549Y-28906731D01*
X35832462Y-28936933D01*
X35794631Y-28987934D01*
X35756624Y-29031535D01*
X35711106Y-29078576D01*
X35666113Y-29121636D01*
X35641547Y-29144114D01*
X35598465Y-29182143D01*
X35545658Y-29230804D01*
X35498148Y-29277128D01*
X35455935Y-29321116D01*
X35410618Y-29372814D01*
X35373578Y-29420862D01*
X35340055Y-29473701D01*
X35335627Y-29481996D01*
X35900095Y-29481996D01*
X35900095Y-29646372D01*
X35122168Y-29646372D01*
X35122168Y-29500260D01*
X35151120Y-29446106D01*
X35184611Y-29391373D01*
X35222641Y-29336059D01*
X35265211Y-29280166D01*
X35312320Y-29223693D01*
X35350630Y-29180959D01*
X35391494Y-29137898D01*
X35434911Y-29094510D01*
X35480882Y-29050797D01*
X35525909Y-29007861D01*
X35570527Y-28962308D01*
X35611086Y-28916233D01*
X35646133Y-28867620D01*
X35648681Y-28863307D01*
X35671311Y-28810862D01*
X35681268Y-28752408D01*
X35681785Y-28734604D01*
X35674642Y-28676829D01*
X35648251Y-28623525D01*
X35630988Y-28605330D01*
X35580834Y-28576221D01*
X35521503Y-28566557D01*
X35517124Y-28566519D01*
X35452908Y-28577115D01*
X35402839Y-28608906D01*
X35366917Y-28661889D01*
X35347387Y-28724172D01*
X35339051Y-28787968D01*
X35133583Y-28746019D01*
G37*
G36*
X36707987Y-29208038D02*
G01*
X36864372Y-29208038D01*
X36864372Y-29362996D01*
X36707987Y-29362996D01*
X36707987Y-29646372D01*
X36518499Y-29646372D01*
X36518499Y-29362996D01*
X36040214Y-29362996D01*
X36040214Y-29218026D01*
X36045107Y-29208038D01*
X36211152Y-29208038D01*
X36518499Y-29208038D01*
X36518499Y-28932653D01*
X36518964Y-28869431D01*
X36520101Y-28806025D01*
X36521569Y-28746687D01*
X36523512Y-28681442D01*
X36525928Y-28610288D01*
X36528202Y-28549111D01*
X36505658Y-28549111D01*
X36483623Y-28605484D01*
X36459681Y-28664166D01*
X36433834Y-28725154D01*
X36410838Y-28777740D01*
X36386519Y-28831929D01*
X36366110Y-28876434D01*
X36211152Y-29208038D01*
X36045107Y-29208038D01*
X36447727Y-28386163D01*
X36707987Y-28386163D01*
X36707987Y-29208038D01*
G37*
G36*
X31463111Y-26260534D02*
G01*
X31248225Y-26320177D01*
X31229511Y-26258024D01*
X31204582Y-26206406D01*
X31166465Y-26158370D01*
X31119399Y-26125503D01*
X31063383Y-26107806D01*
X31021067Y-26104435D01*
X30958759Y-26109562D01*
X30901614Y-26127048D01*
X30856407Y-26156943D01*
X30821790Y-26205593D01*
X30808603Y-26262993D01*
X30808179Y-26276800D01*
X30814721Y-26333834D01*
X30839320Y-26387935D01*
X30863541Y-26414065D01*
X30912554Y-26444604D01*
X30970075Y-26468643D01*
X31027007Y-26486952D01*
X31042756Y-26491401D01*
X31110104Y-26511662D01*
X31176654Y-26531755D01*
X31236292Y-26553688D01*
X31289020Y-26577460D01*
X31343169Y-26608414D01*
X31393765Y-26647875D01*
X31416595Y-26672042D01*
X31448875Y-26721917D01*
X31470591Y-26780686D01*
X31481025Y-26840391D01*
X31483372Y-26889782D01*
X31478737Y-26956750D01*
X31464832Y-27017678D01*
X31441656Y-27072567D01*
X31409211Y-27121416D01*
X31367495Y-27164225D01*
X31351530Y-27177153D01*
X31303356Y-27208672D01*
X31248942Y-27233670D01*
X31188288Y-27252147D01*
X31121394Y-27264103D01*
X31060882Y-27269084D01*
X31022494Y-27269899D01*
X30961401Y-27267607D01*
X30904042Y-27260731D01*
X30840141Y-27246427D01*
X30781617Y-27225523D01*
X30728471Y-27198016D01*
X30696027Y-27176011D01*
X30649889Y-27135460D01*
X30610606Y-27088218D01*
X30578178Y-27034284D01*
X30552605Y-26973659D01*
X30541069Y-26936012D01*
X30752816Y-26868094D01*
X30769243Y-26924473D01*
X30795270Y-26979073D01*
X30833562Y-27028779D01*
X30856407Y-27049306D01*
X30905587Y-27079526D01*
X30961310Y-27097202D01*
X31017643Y-27102385D01*
X31074829Y-27099482D01*
X31135589Y-27087690D01*
X31192775Y-27061565D01*
X31237810Y-27014576D01*
X31257825Y-26960149D01*
X31261637Y-26916607D01*
X31255298Y-26858767D01*
X31231459Y-26804669D01*
X31207987Y-26779057D01*
X31156098Y-26746230D01*
X31100484Y-26722348D01*
X31039036Y-26701649D01*
X31013077Y-26694016D01*
X30947156Y-26674610D01*
X30883964Y-26653784D01*
X30827265Y-26631258D01*
X30767799Y-26601983D01*
X30717682Y-26570260D01*
X30671031Y-26530155D01*
X30654933Y-26511948D01*
X30622791Y-26460884D01*
X30601168Y-26400475D01*
X30590779Y-26338932D01*
X30588441Y-26287930D01*
X30592836Y-26229208D01*
X30609070Y-26166457D01*
X30637267Y-26109906D01*
X30677426Y-26059554D01*
X30713435Y-26027384D01*
X30767150Y-25992024D01*
X30827666Y-25965348D01*
X30884949Y-25949397D01*
X30947228Y-25939825D01*
X31014504Y-25936635D01*
X31077509Y-25939482D01*
X31136180Y-25948022D01*
X31207666Y-25968266D01*
X31271447Y-25998631D01*
X31327523Y-26039119D01*
X31375893Y-26089728D01*
X31416559Y-26150459D01*
X31442002Y-26202650D01*
X31463111Y-26260534D01*
G37*
G36*
X31891456Y-26356705D02*
G01*
X31891456Y-26502816D01*
X31930756Y-26455662D01*
X31974460Y-26415866D01*
X32022566Y-26383427D01*
X32032716Y-26377822D01*
X32089554Y-26353824D01*
X32147918Y-26340902D01*
X32187674Y-26338441D01*
X32245783Y-26343310D01*
X32303395Y-26360428D01*
X32352791Y-26389871D01*
X32381157Y-26416348D01*
X32415017Y-26464627D01*
X32436336Y-26521713D01*
X32444801Y-26580620D01*
X32445366Y-26601840D01*
X32445366Y-27233372D01*
X32233333Y-27233372D01*
X32233333Y-26661769D01*
X32227339Y-26604837D01*
X32202014Y-26552185D01*
X32150630Y-26520794D01*
X32108054Y-26515658D01*
X32049553Y-26526858D01*
X31996959Y-26555036D01*
X31989339Y-26560461D01*
X31946156Y-26599563D01*
X31910558Y-26644186D01*
X31898020Y-26663481D01*
X31898020Y-27233372D01*
X31690839Y-27233372D01*
X31690839Y-26356705D01*
X31891456Y-26356705D01*
G37*
G36*
X33110314Y-26340989D02*
G01*
X33184114Y-26352315D01*
X33246981Y-26372701D01*
X33298915Y-26402148D01*
X33348456Y-26451698D01*
X33380915Y-26515406D01*
X33394582Y-26576565D01*
X33397657Y-26628380D01*
X33397657Y-26975109D01*
X33398566Y-27038872D01*
X33401295Y-27103170D01*
X33405843Y-27168003D01*
X33411315Y-27225171D01*
X33412211Y-27233372D01*
X33221867Y-27233372D01*
X33212727Y-27175523D01*
X33206742Y-27123788D01*
X33167099Y-27167236D01*
X33121157Y-27201695D01*
X33068913Y-27227165D01*
X33010369Y-27243645D01*
X32945525Y-27251136D01*
X32922510Y-27251635D01*
X32859068Y-27246731D01*
X32802867Y-27232016D01*
X32748297Y-27203736D01*
X32712190Y-27173158D01*
X32676674Y-27126093D01*
X32654313Y-27071226D01*
X32645105Y-27008555D01*
X32644842Y-26995085D01*
X32646598Y-26978533D01*
X32842320Y-26978533D01*
X32853742Y-27039231D01*
X32893226Y-27083374D01*
X32952875Y-27102135D01*
X32986719Y-27104097D01*
X33049198Y-27095572D01*
X33105078Y-27069995D01*
X33154358Y-27027368D01*
X33192065Y-26976081D01*
X33197039Y-26967689D01*
X33197039Y-26813302D01*
X33138769Y-26816144D01*
X33080500Y-26822101D01*
X33022230Y-26831173D01*
X32989858Y-26837559D01*
X32932370Y-26855424D01*
X32879205Y-26889069D01*
X32847507Y-26940536D01*
X32842320Y-26978533D01*
X32646598Y-26978533D01*
X32652032Y-26927327D01*
X32673602Y-26868166D01*
X32709552Y-26817603D01*
X32759883Y-26775637D01*
X32810501Y-26748255D01*
X32870322Y-26726375D01*
X32939347Y-26709997D01*
X32996439Y-26700972D01*
X33058419Y-26693873D01*
X33116660Y-26689242D01*
X33178643Y-26686086D01*
X33197039Y-26685455D01*
X33197039Y-26635800D01*
X33191060Y-26577798D01*
X33166768Y-26525160D01*
X33154518Y-26512518D01*
X33100372Y-26487367D01*
X33040655Y-26481413D01*
X32983371Y-26489661D01*
X32932301Y-26516803D01*
X32923366Y-26524504D01*
X32888265Y-26570735D01*
X32868835Y-26626516D01*
X32868004Y-26630663D01*
X32674521Y-26580152D01*
X32695647Y-26523501D01*
X32732314Y-26463309D01*
X32780378Y-26414920D01*
X32839841Y-26378332D01*
X32895619Y-26357560D01*
X32958690Y-26344342D01*
X33029057Y-26338677D01*
X33047789Y-26338441D01*
X33110314Y-26340989D01*
G37*
G36*
X34413871Y-26356705D02*
G01*
X34112802Y-26684313D01*
X34430708Y-27233372D01*
X34203551Y-27233372D01*
X33980389Y-26819866D01*
X33856822Y-26952564D01*
X33856822Y-27233372D01*
X33653066Y-27233372D01*
X33653066Y-25936635D01*
X33856822Y-25936635D01*
X33856822Y-26739676D01*
X34181863Y-26356705D01*
X34413871Y-26356705D01*
G37*
G36*
X34996953Y-26341736D02*
G01*
X35061055Y-26354391D01*
X35119539Y-26376536D01*
X35172405Y-26408172D01*
X35219652Y-26449300D01*
X35241168Y-26473422D01*
X35275500Y-26522161D01*
X35302729Y-26576558D01*
X35322854Y-26636613D01*
X35335877Y-26702327D01*
X35341303Y-26761411D01*
X35342191Y-26798748D01*
X35342191Y-26840127D01*
X34732062Y-26840127D01*
X34736824Y-26902481D01*
X34751520Y-26963419D01*
X34779444Y-27019692D01*
X34797984Y-27043313D01*
X34843430Y-27079707D01*
X34899330Y-27100994D01*
X34959219Y-27107236D01*
X35017975Y-27099289D01*
X35073387Y-27070743D01*
X35116278Y-27021436D01*
X35143536Y-26961261D01*
X35149564Y-26941149D01*
X35337339Y-26994799D01*
X35312793Y-27054995D01*
X35281674Y-27107165D01*
X35243982Y-27151309D01*
X35199718Y-27187426D01*
X35148881Y-27215518D01*
X35091472Y-27235583D01*
X35027491Y-27247622D01*
X34956936Y-27251635D01*
X34891964Y-27248340D01*
X34832063Y-27238454D01*
X34777235Y-27221976D01*
X34718136Y-27193504D01*
X34666341Y-27155540D01*
X34628757Y-27116654D01*
X34595201Y-27069577D01*
X34568588Y-27016742D01*
X34548917Y-26958148D01*
X34536189Y-26893795D01*
X34530886Y-26835769D01*
X34530018Y-26799033D01*
X34533153Y-26730691D01*
X34537154Y-26703719D01*
X34735487Y-26703719D01*
X35139861Y-26703719D01*
X35131052Y-26639593D01*
X35109702Y-26576989D01*
X35076594Y-26530037D01*
X35023107Y-26495039D01*
X34964523Y-26481997D01*
X34942382Y-26481127D01*
X34884990Y-26487760D01*
X34831837Y-26510378D01*
X34789137Y-26549046D01*
X34759788Y-26598086D01*
X34741515Y-26657880D01*
X34735487Y-26703719D01*
X34537154Y-26703719D01*
X34542559Y-26667282D01*
X34558235Y-26608806D01*
X34580181Y-26555262D01*
X34614794Y-26497521D01*
X34658436Y-26446883D01*
X34709426Y-26404628D01*
X34766260Y-26372752D01*
X34828939Y-26351255D01*
X34887316Y-26341088D01*
X34939243Y-26338441D01*
X34996953Y-26341736D01*
G37*
G36*
X36442875Y-25954899D02*
G01*
X36442875Y-26133828D01*
X36063329Y-26133828D01*
X36063329Y-27233372D01*
X35839311Y-27233372D01*
X35839311Y-26133828D01*
X35462903Y-26133828D01*
X35462903Y-25954899D01*
X36442875Y-25954899D01*
G37*
G36*
X36858978Y-26340989D02*
G01*
X36932778Y-26352315D01*
X36995645Y-26372701D01*
X37047579Y-26402148D01*
X37097121Y-26451698D01*
X37129579Y-26515406D01*
X37143246Y-26576565D01*
X37146321Y-26628380D01*
X37146321Y-26975109D01*
X37147230Y-27038872D01*
X37149959Y-27103170D01*
X37154507Y-27168003D01*
X37159979Y-27225171D01*
X37160875Y-27233372D01*
X36970531Y-27233372D01*
X36961391Y-27175523D01*
X36955406Y-27123788D01*
X36915764Y-27167236D01*
X36869821Y-27201695D01*
X36817577Y-27227165D01*
X36759033Y-27243645D01*
X36694189Y-27251136D01*
X36671174Y-27251635D01*
X36607732Y-27246731D01*
X36551531Y-27232016D01*
X36496961Y-27203736D01*
X36460854Y-27173158D01*
X36425338Y-27126093D01*
X36402977Y-27071226D01*
X36393769Y-27008555D01*
X36393506Y-26995085D01*
X36395262Y-26978533D01*
X36590984Y-26978533D01*
X36602406Y-27039231D01*
X36641891Y-27083374D01*
X36701540Y-27102135D01*
X36735383Y-27104097D01*
X36797862Y-27095572D01*
X36853742Y-27069995D01*
X36903022Y-27027368D01*
X36940729Y-26976081D01*
X36945703Y-26967689D01*
X36945703Y-26813302D01*
X36887434Y-26816144D01*
X36829164Y-26822101D01*
X36770894Y-26831173D01*
X36738522Y-26837559D01*
X36681034Y-26855424D01*
X36627869Y-26889069D01*
X36596171Y-26940536D01*
X36590984Y-26978533D01*
X36395262Y-26978533D01*
X36400696Y-26927327D01*
X36422266Y-26868166D01*
X36458217Y-26817603D01*
X36508547Y-26775637D01*
X36559165Y-26748255D01*
X36618987Y-26726375D01*
X36688011Y-26709997D01*
X36745104Y-26700972D01*
X36807083Y-26693873D01*
X36865324Y-26689242D01*
X36927307Y-26686086D01*
X36945703Y-26685455D01*
X36945703Y-26635800D01*
X36939724Y-26577798D01*
X36915432Y-26525160D01*
X36903183Y-26512518D01*
X36849036Y-26487367D01*
X36789319Y-26481413D01*
X36732036Y-26489661D01*
X36680965Y-26516803D01*
X36672030Y-26524504D01*
X36636929Y-26570735D01*
X36617499Y-26626516D01*
X36616668Y-26630663D01*
X36423185Y-26580152D01*
X36444311Y-26523501D01*
X36480978Y-26463309D01*
X36529043Y-26414920D01*
X36588506Y-26378332D01*
X36644283Y-26357560D01*
X36707355Y-26344342D01*
X36777722Y-26338677D01*
X36796453Y-26338441D01*
X36858978Y-26340989D01*
G37*
G36*
X37602347Y-26356705D02*
G01*
X37602347Y-26502816D01*
X37641648Y-26455662D01*
X37685351Y-26415866D01*
X37733457Y-26383427D01*
X37743607Y-26377822D01*
X37800446Y-26353824D01*
X37858809Y-26340902D01*
X37898565Y-26338441D01*
X37956674Y-26343310D01*
X38014287Y-26360428D01*
X38063682Y-26389871D01*
X38092048Y-26416348D01*
X38125908Y-26464627D01*
X38147228Y-26521713D01*
X38155693Y-26580620D01*
X38156257Y-26601840D01*
X38156257Y-27233372D01*
X37944225Y-27233372D01*
X37944225Y-26661769D01*
X37938230Y-26604837D01*
X37912905Y-26552185D01*
X37861521Y-26520794D01*
X37818946Y-26515658D01*
X37760444Y-26526858D01*
X37707851Y-26555036D01*
X37700230Y-26560461D01*
X37657048Y-26599563D01*
X37621449Y-26644186D01*
X37608911Y-26663481D01*
X37608911Y-27233372D01*
X37401730Y-27233372D01*
X37401730Y-26356705D01*
X37602347Y-26356705D01*
G37*
G36*
X39172757Y-26356705D02*
G01*
X38871688Y-26684313D01*
X39189594Y-27233372D01*
X38962437Y-27233372D01*
X38739275Y-26819866D01*
X38615708Y-26952564D01*
X38615708Y-27233372D01*
X38411952Y-27233372D01*
X38411952Y-25936635D01*
X38615708Y-25936635D01*
X38615708Y-26739676D01*
X38940748Y-26356705D01*
X39172757Y-26356705D01*
G37*
G36*
X40367352Y-25957976D02*
G01*
X40440189Y-25967209D01*
X40505080Y-25982597D01*
X40562026Y-26004139D01*
X40625593Y-26042437D01*
X40675034Y-26091677D01*
X40710348Y-26151860D01*
X40731537Y-26222985D01*
X40738159Y-26283509D01*
X40738600Y-26305052D01*
X40733981Y-26366907D01*
X40720122Y-26423482D01*
X40693488Y-26480819D01*
X40664689Y-26520794D01*
X40619258Y-26564826D01*
X40570220Y-26597403D01*
X40513463Y-26623297D01*
X40485760Y-26632661D01*
X40780265Y-27233372D01*
X40541978Y-27233372D01*
X40283430Y-26665764D01*
X40225785Y-26667191D01*
X40045143Y-26667191D01*
X40045143Y-27233372D01*
X39828259Y-27233372D01*
X39828259Y-26502816D01*
X40045143Y-26502816D01*
X40267449Y-26502816D01*
X40325973Y-26499775D01*
X40388154Y-26487421D01*
X40446678Y-26460052D01*
X40487645Y-26418998D01*
X40511054Y-26364260D01*
X40517151Y-26308191D01*
X40508713Y-26244571D01*
X40477542Y-26186983D01*
X40423401Y-26147312D01*
X40358714Y-26127568D01*
X40291917Y-26121169D01*
X40277152Y-26120986D01*
X40045143Y-26120986D01*
X40045143Y-26502816D01*
X39828259Y-26502816D01*
X39828259Y-25954899D01*
X40286569Y-25954899D01*
X40367352Y-25957976D01*
G37*
G36*
X41349364Y-26341736D02*
G01*
X41413466Y-26354391D01*
X41471950Y-26376536D01*
X41524815Y-26408172D01*
X41572062Y-26449300D01*
X41593579Y-26473422D01*
X41627911Y-26522161D01*
X41655139Y-26576558D01*
X41675265Y-26636613D01*
X41688287Y-26702327D01*
X41693713Y-26761411D01*
X41694601Y-26798748D01*
X41694601Y-26840127D01*
X41084473Y-26840127D01*
X41089235Y-26902481D01*
X41103930Y-26963419D01*
X41131855Y-27019692D01*
X41150394Y-27043313D01*
X41195841Y-27079707D01*
X41251741Y-27100994D01*
X41311630Y-27107236D01*
X41370386Y-27099289D01*
X41425798Y-27070743D01*
X41468688Y-27021436D01*
X41495947Y-26961261D01*
X41501974Y-26941149D01*
X41689750Y-26994799D01*
X41665203Y-27054995D01*
X41634084Y-27107165D01*
X41596393Y-27151309D01*
X41552128Y-27187426D01*
X41501292Y-27215518D01*
X41443883Y-27235583D01*
X41379901Y-27247622D01*
X41309347Y-27251635D01*
X41244375Y-27248340D01*
X41184474Y-27238454D01*
X41129646Y-27221976D01*
X41070546Y-27193504D01*
X41018751Y-27155540D01*
X40981168Y-27116654D01*
X40947612Y-27069577D01*
X40920999Y-27016742D01*
X40901328Y-26958148D01*
X40888600Y-26893795D01*
X40883296Y-26835769D01*
X40882429Y-26799033D01*
X40885564Y-26730691D01*
X40889565Y-26703719D01*
X41087897Y-26703719D01*
X41492271Y-26703719D01*
X41483462Y-26639593D01*
X41462113Y-26576989D01*
X41429005Y-26530037D01*
X41375518Y-26495039D01*
X41316934Y-26481997D01*
X41294793Y-26481127D01*
X41237401Y-26487760D01*
X41184247Y-26510378D01*
X41141548Y-26549046D01*
X41112199Y-26598086D01*
X41093926Y-26657880D01*
X41087897Y-26703719D01*
X40889565Y-26703719D01*
X40894969Y-26667282D01*
X40910645Y-26608806D01*
X40932592Y-26555262D01*
X40967205Y-26497521D01*
X41010847Y-26446883D01*
X41061836Y-26404628D01*
X41118671Y-26372752D01*
X41181350Y-26351255D01*
X41239727Y-26341088D01*
X41291654Y-26338441D01*
X41349364Y-26341736D01*
G37*
G36*
X42606654Y-26356705D02*
G01*
X42323564Y-27233372D01*
X42078714Y-27233372D01*
X41799333Y-26356705D01*
X42020783Y-26356705D01*
X42114671Y-26719985D01*
X42129586Y-26778308D01*
X42143548Y-26835249D01*
X42157305Y-26892977D01*
X42158904Y-26899770D01*
X42173258Y-26959923D01*
X42187062Y-27017197D01*
X42197429Y-27059294D01*
X42216549Y-27059294D01*
X42231388Y-27003776D01*
X42246906Y-26943893D01*
X42261888Y-26885231D01*
X42263921Y-26877226D01*
X42279193Y-26818875D01*
X42294189Y-26762864D01*
X42307298Y-26715419D01*
X42404610Y-26356705D01*
X42606654Y-26356705D01*
G37*
G36*
X43228483Y-25973163D02*
G01*
X43228483Y-27073848D01*
X43461918Y-27073848D01*
X43461918Y-27233372D01*
X42786154Y-27233372D01*
X42786154Y-27073848D01*
X43032717Y-27073848D01*
X43032717Y-26175493D01*
X42980226Y-26207294D01*
X42924061Y-26235920D01*
X42864222Y-26261372D01*
X42808848Y-26281038D01*
X42800708Y-26283649D01*
X42767605Y-26116420D01*
X42823614Y-26098515D01*
X42879061Y-26076477D01*
X42933946Y-26050305D01*
X42988270Y-26020000D01*
X43042031Y-25985561D01*
X43059827Y-25973163D01*
X43228483Y-25973163D01*
G37*
G36*
X43920799Y-27006214D02*
G01*
X43920799Y-27233372D01*
X43685651Y-27233372D01*
X43685651Y-27006214D01*
X43920799Y-27006214D01*
G37*
G36*
X44563985Y-25995440D02*
G01*
X44620961Y-26007479D01*
X44682103Y-26032520D01*
X44735360Y-26069120D01*
X44780731Y-26117276D01*
X44806597Y-26155802D01*
X44832248Y-26207542D01*
X44853550Y-26266808D01*
X44870505Y-26333597D01*
X44880939Y-26392446D01*
X44888591Y-26456111D01*
X44893460Y-26524592D01*
X44895547Y-26597889D01*
X44895634Y-26616965D01*
X44894611Y-26681204D01*
X44891541Y-26741972D01*
X44886424Y-26799268D01*
X44876418Y-26870264D01*
X44862774Y-26935088D01*
X44845491Y-26993741D01*
X44818770Y-27058380D01*
X44786365Y-27113375D01*
X44779202Y-27123217D01*
X44739736Y-27166859D01*
X44694111Y-27201472D01*
X44642326Y-27227055D01*
X44584381Y-27243609D01*
X44520275Y-27251134D01*
X44497538Y-27251635D01*
X44434388Y-27247546D01*
X44376923Y-27235277D01*
X44315470Y-27209757D01*
X44262203Y-27172459D01*
X44217123Y-27123382D01*
X44191618Y-27084121D01*
X44166625Y-27032160D01*
X44145869Y-26972592D01*
X44129349Y-26905415D01*
X44119182Y-26846195D01*
X44111727Y-26782107D01*
X44106982Y-26713149D01*
X44104949Y-26639322D01*
X44104864Y-26620104D01*
X44104905Y-26617536D01*
X44316897Y-26617536D01*
X44317650Y-26684764D01*
X44319911Y-26746471D01*
X44324856Y-26815843D01*
X44332156Y-26876589D01*
X44344025Y-26938099D01*
X44362158Y-26994163D01*
X44365125Y-27000792D01*
X44398797Y-27050834D01*
X44449682Y-27081735D01*
X44497538Y-27088687D01*
X44558587Y-27077178D01*
X44606537Y-27042648D01*
X44638494Y-26991891D01*
X44646788Y-26970828D01*
X44662894Y-26908510D01*
X44671954Y-26850394D01*
X44678425Y-26782526D01*
X44681840Y-26718521D01*
X44683458Y-26647743D01*
X44683602Y-26617536D01*
X44682848Y-26550758D01*
X44680587Y-26489546D01*
X44675642Y-26420856D01*
X44668342Y-26360860D01*
X44656473Y-26300343D01*
X44638341Y-26245565D01*
X44635373Y-26239131D01*
X44601533Y-26190389D01*
X44550079Y-26160291D01*
X44501533Y-26153519D01*
X44441772Y-26164583D01*
X44394830Y-26197774D01*
X44363544Y-26246565D01*
X44355422Y-26266812D01*
X44338567Y-26328649D01*
X44329086Y-26386333D01*
X44322314Y-26453709D01*
X44318740Y-26517259D01*
X44317047Y-26587539D01*
X44316897Y-26617536D01*
X44104905Y-26617536D01*
X44105895Y-26556084D01*
X44108988Y-26495545D01*
X44114142Y-26438488D01*
X44124222Y-26367827D01*
X44137966Y-26303355D01*
X44155376Y-26245072D01*
X44182293Y-26180921D01*
X44214937Y-26126441D01*
X44222153Y-26116706D01*
X44261364Y-26074130D01*
X44314794Y-26035592D01*
X44367178Y-26012103D01*
X44425642Y-25997422D01*
X44490185Y-25991549D01*
X44501533Y-25991427D01*
X44563985Y-25995440D01*
G37*
G36*
X34546999Y-46300739D02*
G01*
X34488652Y-46090524D01*
X34549453Y-46072217D01*
X34599949Y-46047831D01*
X34646941Y-46010542D01*
X34679094Y-45964499D01*
X34696407Y-45909701D01*
X34699704Y-45868305D01*
X34694688Y-45807351D01*
X34677582Y-45751449D01*
X34648337Y-45707224D01*
X34600745Y-45673360D01*
X34544592Y-45660459D01*
X34531086Y-45660045D01*
X34475292Y-45666444D01*
X34422367Y-45690509D01*
X34396805Y-45714203D01*
X34366930Y-45762151D01*
X34343413Y-45818421D01*
X34325503Y-45874115D01*
X34321150Y-45889522D01*
X34301329Y-45955406D01*
X34281673Y-46020509D01*
X34260217Y-46078851D01*
X34236962Y-46130432D01*
X34206681Y-46183405D01*
X34168078Y-46232900D01*
X34144436Y-46255234D01*
X34095645Y-46286812D01*
X34038154Y-46308056D01*
X33979747Y-46318263D01*
X33931430Y-46320560D01*
X33865918Y-46316025D01*
X33806314Y-46302422D01*
X33752618Y-46279751D01*
X33704831Y-46248011D01*
X33662953Y-46207202D01*
X33650306Y-46191583D01*
X33619472Y-46144457D01*
X33595017Y-46091226D01*
X33576942Y-46031891D01*
X33565246Y-45966451D01*
X33560373Y-45907254D01*
X33559576Y-45869701D01*
X33561818Y-45809936D01*
X33568545Y-45753824D01*
X33582537Y-45691312D01*
X33602988Y-45634060D01*
X33629896Y-45582069D01*
X33651423Y-45550331D01*
X33691092Y-45505196D01*
X33737308Y-45466766D01*
X33790069Y-45435043D01*
X33849376Y-45410026D01*
X33886204Y-45398742D01*
X33952647Y-45605886D01*
X33897493Y-45621955D01*
X33844080Y-45647417D01*
X33795454Y-45684876D01*
X33775374Y-45707224D01*
X33745811Y-45755335D01*
X33728519Y-45809846D01*
X33723448Y-45864955D01*
X33726288Y-45920898D01*
X33737824Y-45980337D01*
X33763381Y-46036280D01*
X33809349Y-46080335D01*
X33862593Y-46099915D01*
X33905188Y-46103645D01*
X33961771Y-46097443D01*
X34014692Y-46074123D01*
X34039747Y-46051161D01*
X34071861Y-46000400D01*
X34095224Y-45945996D01*
X34115473Y-45885883D01*
X34122940Y-45860488D01*
X34141924Y-45796000D01*
X34162297Y-45734182D01*
X34184333Y-45678716D01*
X34212972Y-45620542D01*
X34244006Y-45571515D01*
X34283238Y-45525878D01*
X34301050Y-45510130D01*
X34351004Y-45478687D01*
X34410100Y-45457534D01*
X34470304Y-45447371D01*
X34520198Y-45445084D01*
X34577643Y-45449383D01*
X34639030Y-45465264D01*
X34694352Y-45492848D01*
X34743609Y-45532134D01*
X34775080Y-45567360D01*
X34809672Y-45619908D01*
X34835767Y-45679108D01*
X34851372Y-45735145D01*
X34860735Y-45796071D01*
X34863856Y-45861884D01*
X34861071Y-45923520D01*
X34852717Y-45980915D01*
X34832913Y-46050847D01*
X34803208Y-46113241D01*
X34763600Y-46168098D01*
X34714091Y-46215417D01*
X34654681Y-46255199D01*
X34603624Y-46280089D01*
X34546999Y-46300739D01*
G37*
G36*
X34087062Y-46473262D02*
G01*
X34149093Y-46482463D01*
X34206298Y-46497798D01*
X34258677Y-46519267D01*
X34315164Y-46553128D01*
X34364701Y-46595821D01*
X34406036Y-46645702D01*
X34437220Y-46701301D01*
X34458250Y-46762618D01*
X34468195Y-46819725D01*
X34470785Y-46870524D01*
X34467561Y-46926979D01*
X34455182Y-46989688D01*
X34433518Y-47046900D01*
X34402569Y-47098616D01*
X34362336Y-47144836D01*
X34338738Y-47165885D01*
X34291059Y-47199471D01*
X34237844Y-47226107D01*
X34179095Y-47245795D01*
X34114809Y-47258535D01*
X34057010Y-47263843D01*
X34020485Y-47264711D01*
X33980005Y-47264711D01*
X33980005Y-47066780D01*
X34113448Y-47066780D01*
X34176180Y-47058162D01*
X34237422Y-47037277D01*
X34283355Y-47004889D01*
X34317591Y-46952565D01*
X34330350Y-46895254D01*
X34331200Y-46873595D01*
X34324712Y-46817450D01*
X34302586Y-46765452D01*
X34264758Y-46723681D01*
X34216785Y-46694970D01*
X34158290Y-46677094D01*
X34113448Y-46671197D01*
X34113448Y-47066780D01*
X33980005Y-47066780D01*
X33980005Y-46667847D01*
X33919007Y-46672505D01*
X33859393Y-46686881D01*
X33804344Y-46714198D01*
X33781236Y-46732335D01*
X33745634Y-46776793D01*
X33724809Y-46831478D01*
X33718702Y-46890066D01*
X33726477Y-46947544D01*
X33754403Y-47001751D01*
X33802638Y-47043710D01*
X33861504Y-47070375D01*
X33881179Y-47076272D01*
X33828695Y-47259965D01*
X33769808Y-47235952D01*
X33718772Y-47205510D01*
X33675588Y-47168638D01*
X33640256Y-47125336D01*
X33612775Y-47075604D01*
X33593146Y-47019443D01*
X33581368Y-46956853D01*
X33577443Y-46887832D01*
X33580666Y-46824272D01*
X33590338Y-46765674D01*
X33606457Y-46712037D01*
X33634311Y-46654223D01*
X33671449Y-46603554D01*
X33709490Y-46566787D01*
X33755543Y-46533961D01*
X33807230Y-46507926D01*
X33864550Y-46488683D01*
X33927504Y-46476232D01*
X33984269Y-46471044D01*
X34020206Y-46470195D01*
X34087062Y-46473262D01*
G37*
G36*
X34452918Y-47660015D02*
G01*
X34309984Y-47660015D01*
X34356112Y-47698461D01*
X34395043Y-47741214D01*
X34426777Y-47788275D01*
X34432260Y-47798204D01*
X34455736Y-47853807D01*
X34468377Y-47910902D01*
X34470785Y-47949793D01*
X34466022Y-48006639D01*
X34449276Y-48062999D01*
X34420473Y-48111321D01*
X34394572Y-48139070D01*
X34347342Y-48172194D01*
X34291497Y-48193050D01*
X34233871Y-48201331D01*
X34213112Y-48201883D01*
X33595310Y-48201883D01*
X33595310Y-47994460D01*
X34154486Y-47994460D01*
X34210180Y-47988596D01*
X34261687Y-47963822D01*
X34292396Y-47913555D01*
X34297421Y-47871905D01*
X34286464Y-47814675D01*
X34258899Y-47763225D01*
X34253591Y-47755771D01*
X34215340Y-47713526D01*
X34171686Y-47678702D01*
X34152811Y-47666436D01*
X33595310Y-47666436D01*
X33595310Y-47463759D01*
X34452918Y-47463759D01*
X34452918Y-47660015D01*
G37*
G36*
X34255266Y-49088805D02*
G01*
X34202782Y-48897295D01*
X34259576Y-48875014D01*
X34304073Y-48836391D01*
X34328033Y-48783414D01*
X34332596Y-48740122D01*
X34326462Y-48683165D01*
X34304679Y-48634038D01*
X34258173Y-48602717D01*
X34247729Y-48601933D01*
X34193293Y-48614433D01*
X34167049Y-48637388D01*
X34141637Y-48688147D01*
X34124174Y-48742951D01*
X34119869Y-48759106D01*
X34100886Y-48832807D01*
X34084662Y-48889384D01*
X34063626Y-48946510D01*
X34036804Y-49000084D01*
X34003084Y-49045423D01*
X33995080Y-49053351D01*
X33946675Y-49086014D01*
X33892302Y-49102711D01*
X33840700Y-49106951D01*
X33780381Y-49100618D01*
X33727287Y-49081617D01*
X33676190Y-49045099D01*
X33642768Y-49005613D01*
X33614188Y-48954542D01*
X33593774Y-48894852D01*
X33582610Y-48835553D01*
X33578017Y-48779473D01*
X33577443Y-48749614D01*
X33580880Y-48680838D01*
X33591192Y-48618562D01*
X33608378Y-48562784D01*
X33639528Y-48502203D01*
X33681420Y-48451776D01*
X33734054Y-48411505D01*
X33797428Y-48381390D01*
X33863312Y-48569829D01*
X33805769Y-48593163D01*
X33757311Y-48631509D01*
X33727313Y-48682314D01*
X33715776Y-48745576D01*
X33715632Y-48754360D01*
X33721055Y-48817016D01*
X33740536Y-48869779D01*
X33784811Y-48907467D01*
X33828974Y-48915162D01*
X33884983Y-48900440D01*
X33907700Y-48877474D01*
X33931184Y-48824060D01*
X33948647Y-48768925D01*
X33955438Y-48744868D01*
X33974980Y-48671168D01*
X33990471Y-48617099D01*
X34010652Y-48562628D01*
X34036497Y-48511728D01*
X34072974Y-48465130D01*
X34076877Y-48461511D01*
X34124497Y-48431230D01*
X34178978Y-48415750D01*
X34231258Y-48411819D01*
X34291124Y-48419460D01*
X34343526Y-48442382D01*
X34388465Y-48480585D01*
X34410205Y-48508412D01*
X34439490Y-48562875D01*
X34457474Y-48618888D01*
X34467886Y-48682054D01*
X34470785Y-48743193D01*
X34467418Y-48807524D01*
X34457315Y-48865819D01*
X34435216Y-48930197D01*
X34402594Y-48985142D01*
X34359448Y-49030654D01*
X34305779Y-49066733D01*
X34255266Y-49088805D01*
G37*
G36*
X34088268Y-49254887D02*
G01*
X34149939Y-49264027D01*
X34206893Y-49279260D01*
X34259131Y-49300586D01*
X34315591Y-49334220D01*
X34365259Y-49376629D01*
X34406377Y-49426551D01*
X34437396Y-49482270D01*
X34458316Y-49543786D01*
X34468209Y-49601130D01*
X34470785Y-49652169D01*
X34467507Y-49710488D01*
X34454918Y-49775055D01*
X34432888Y-49833713D01*
X34401416Y-49886463D01*
X34360502Y-49933305D01*
X34336505Y-49954510D01*
X34289365Y-49987336D01*
X34237142Y-50013371D01*
X34179835Y-50032614D01*
X34117444Y-50045066D01*
X34061568Y-50050254D01*
X34026347Y-50051103D01*
X33959813Y-50048070D01*
X33898049Y-50038971D01*
X33841057Y-50023806D01*
X33788835Y-50002575D01*
X33732467Y-49969091D01*
X33682969Y-49926872D01*
X33641851Y-49877197D01*
X33610832Y-49821484D01*
X33589912Y-49759732D01*
X33580019Y-49701996D01*
X33577443Y-49650494D01*
X33723448Y-49650494D01*
X33730809Y-49706148D01*
X33759075Y-49760482D01*
X33808541Y-49801232D01*
X33865956Y-49824814D01*
X33922488Y-49836888D01*
X33988441Y-49842925D01*
X34024951Y-49843680D01*
X34095224Y-49840687D01*
X34156126Y-49831710D01*
X34219078Y-49812073D01*
X34267391Y-49783085D01*
X34306040Y-49735955D01*
X34323608Y-49675360D01*
X34324780Y-49652169D01*
X34317460Y-49596515D01*
X34289351Y-49542182D01*
X34240160Y-49501432D01*
X34183064Y-49477850D01*
X34126846Y-49465776D01*
X34061259Y-49459739D01*
X34024951Y-49458984D01*
X33954287Y-49461976D01*
X33893044Y-49470953D01*
X33829740Y-49490591D01*
X33781158Y-49519579D01*
X33742292Y-49566709D01*
X33724626Y-49627304D01*
X33723448Y-49650494D01*
X33577443Y-49650494D01*
X33580721Y-49591794D01*
X33593310Y-49526913D01*
X33615340Y-49468098D01*
X33646812Y-49415348D01*
X33687726Y-49368663D01*
X33711723Y-49347595D01*
X33758692Y-49315054D01*
X33810824Y-49289245D01*
X33868118Y-49270168D01*
X33930575Y-49257825D01*
X33986565Y-49252682D01*
X34021881Y-49251840D01*
X34088268Y-49254887D01*
G37*
G36*
X34470785Y-50716364D02*
G01*
X34280950Y-50702964D01*
X34273373Y-50642784D01*
X34250643Y-50588709D01*
X34212758Y-50540739D01*
X34159721Y-50498873D01*
X34103947Y-50468649D01*
X34065431Y-50452549D01*
X33595310Y-50452549D01*
X33595310Y-50253222D01*
X34452918Y-50253222D01*
X34452918Y-50443336D01*
X34238516Y-50443336D01*
X34292954Y-50466289D01*
X34350795Y-50499470D01*
X34397294Y-50537641D01*
X34438122Y-50590031D01*
X34462620Y-50649605D01*
X34470785Y-50716364D01*
G37*
G36*
X34255266Y-51516464D02*
G01*
X34202782Y-51324954D01*
X34259576Y-51302672D01*
X34304073Y-51264050D01*
X34328033Y-51211073D01*
X34332596Y-51167781D01*
X34326462Y-51110824D01*
X34304679Y-51061697D01*
X34258173Y-51030376D01*
X34247729Y-51029592D01*
X34193293Y-51042091D01*
X34167049Y-51065047D01*
X34141637Y-51115805D01*
X34124174Y-51170610D01*
X34119869Y-51186765D01*
X34100886Y-51260465D01*
X34084662Y-51317043D01*
X34063626Y-51374169D01*
X34036804Y-51427743D01*
X34003084Y-51473081D01*
X33995080Y-51481009D01*
X33946675Y-51513672D01*
X33892302Y-51530370D01*
X33840700Y-51534610D01*
X33780381Y-51528276D01*
X33727287Y-51509275D01*
X33676190Y-51472758D01*
X33642768Y-51433271D01*
X33614188Y-51382201D01*
X33593774Y-51322511D01*
X33582610Y-51263212D01*
X33578017Y-51207131D01*
X33577443Y-51177273D01*
X33580880Y-51108497D01*
X33591192Y-51046220D01*
X33608378Y-50990443D01*
X33639528Y-50929861D01*
X33681420Y-50879435D01*
X33734054Y-50839164D01*
X33797428Y-50809048D01*
X33863312Y-50997488D01*
X33805769Y-51020821D01*
X33757311Y-51059168D01*
X33727313Y-51109972D01*
X33715776Y-51173235D01*
X33715632Y-51182019D01*
X33721055Y-51244675D01*
X33740536Y-51297438D01*
X33784811Y-51335126D01*
X33828974Y-51342820D01*
X33884983Y-51328099D01*
X33907700Y-51305132D01*
X33931184Y-51251718D01*
X33948647Y-51196583D01*
X33955438Y-51172527D01*
X33974980Y-51098826D01*
X33990471Y-51044758D01*
X34010652Y-50990287D01*
X34036497Y-50939386D01*
X34072974Y-50892789D01*
X34076877Y-50889170D01*
X34124497Y-50858889D01*
X34178978Y-50843408D01*
X34231258Y-50839478D01*
X34291124Y-50847118D01*
X34343526Y-50870040D01*
X34388465Y-50908243D01*
X34410205Y-50936070D01*
X34439490Y-50990534D01*
X34457474Y-51046546D01*
X34467886Y-51109713D01*
X34470785Y-51170852D01*
X34467418Y-51235183D01*
X34457315Y-51293477D01*
X34435216Y-51357855D01*
X34402594Y-51412800D01*
X34359448Y-51458313D01*
X34305779Y-51494392D01*
X34255266Y-51516464D01*
G37*
G36*
X77423857Y-54778388D02*
G01*
X77212805Y-54828081D01*
X77198248Y-54770960D01*
X77172876Y-54710269D01*
X77139530Y-54661478D01*
X77088988Y-54618638D01*
X77026964Y-54592934D01*
X76966505Y-54584604D01*
X76953456Y-54584366D01*
X76897467Y-54589224D01*
X76838548Y-54607172D01*
X76786521Y-54638346D01*
X76741388Y-54682744D01*
X76713370Y-54722554D01*
X76687470Y-54773201D01*
X76666928Y-54830501D01*
X76651745Y-54894456D01*
X76643185Y-54952835D01*
X76638348Y-55015835D01*
X76637157Y-55069562D01*
X76638666Y-55130434D01*
X76643194Y-55187424D01*
X76653098Y-55253202D01*
X76667719Y-55312914D01*
X76687057Y-55366560D01*
X76716487Y-55422928D01*
X76733750Y-55447837D01*
X76771978Y-55489281D01*
X76821950Y-55524182D01*
X76878621Y-55545787D01*
X76941993Y-55554097D01*
X76950385Y-55554201D01*
X77008483Y-55548818D01*
X77071769Y-55526951D01*
X77124682Y-55488262D01*
X77167221Y-55432753D01*
X77193784Y-55376234D01*
X77213707Y-55308950D01*
X77224293Y-55251422D01*
X77229276Y-55209705D01*
X76937823Y-55209705D01*
X76937823Y-55042483D01*
X77431674Y-55042483D01*
X77431674Y-55703556D01*
X77287343Y-55703556D01*
X77263055Y-55524888D01*
X77230785Y-55577960D01*
X77191448Y-55623171D01*
X77145045Y-55660520D01*
X77116212Y-55677873D01*
X77062357Y-55700839D01*
X77004086Y-55715299D01*
X76947866Y-55721040D01*
X76928331Y-55721423D01*
X76866530Y-55718431D01*
X76808288Y-55709454D01*
X76753606Y-55694492D01*
X76690258Y-55667374D01*
X76632472Y-55630905D01*
X76580248Y-55585084D01*
X76542473Y-55541695D01*
X76533585Y-55529913D01*
X76497153Y-55473371D01*
X76466895Y-55411228D01*
X76447135Y-55357479D01*
X76431327Y-55300144D01*
X76419471Y-55239224D01*
X76411567Y-55174719D01*
X76407615Y-55106627D01*
X76407121Y-55071237D01*
X76408625Y-55011255D01*
X76413137Y-54953898D01*
X76423833Y-54881506D01*
X76439877Y-54813781D01*
X76461268Y-54750723D01*
X76488007Y-54692333D01*
X76520094Y-54638611D01*
X76557529Y-54589555D01*
X76578252Y-54566778D01*
X76625614Y-54523670D01*
X76676970Y-54487869D01*
X76732320Y-54459374D01*
X76791664Y-54438185D01*
X76855002Y-54424303D01*
X76922334Y-54417727D01*
X76950385Y-54417143D01*
X77011875Y-54419876D01*
X77069670Y-54428075D01*
X77134149Y-54445130D01*
X77193307Y-54470055D01*
X77247147Y-54502852D01*
X77280084Y-54529090D01*
X77322937Y-54572889D01*
X77359405Y-54622700D01*
X77389486Y-54678522D01*
X77410189Y-54731154D01*
X77423857Y-54778388D01*
G37*
G36*
X78218944Y-54438116D02*
G01*
X78290692Y-54447435D01*
X78354614Y-54462967D01*
X78410708Y-54484711D01*
X78473325Y-54523367D01*
X78522027Y-54573068D01*
X78556814Y-54633813D01*
X78577686Y-54705604D01*
X78584209Y-54766694D01*
X78584644Y-54788438D01*
X78579982Y-54854382D01*
X78565996Y-54914026D01*
X78542687Y-54967368D01*
X78510053Y-55014409D01*
X78468096Y-55055149D01*
X78452038Y-55067329D01*
X78395882Y-55100071D01*
X78340986Y-55121735D01*
X78279848Y-55137491D01*
X78224131Y-55146107D01*
X78164080Y-55150620D01*
X78125968Y-55151359D01*
X77915754Y-55151359D01*
X77915754Y-55685690D01*
X77698839Y-55685690D01*
X77698839Y-54988882D01*
X77915754Y-54988882D01*
X78119827Y-54988882D01*
X78177405Y-54985776D01*
X78238583Y-54973159D01*
X78296161Y-54945207D01*
X78336466Y-54903280D01*
X78359498Y-54847376D01*
X78365496Y-54790114D01*
X78357134Y-54724650D01*
X78332048Y-54672731D01*
X78290238Y-54634357D01*
X78231704Y-54609526D01*
X78170150Y-54599180D01*
X78127643Y-54597486D01*
X77915754Y-54597486D01*
X77915754Y-54988882D01*
X77698839Y-54988882D01*
X77698839Y-54435010D01*
X78139368Y-54435010D01*
X78218944Y-54438116D01*
G37*
G36*
X79026848Y-54435010D02*
G01*
X79026848Y-55685690D01*
X78807700Y-55685690D01*
X78807700Y-54435010D01*
X79026848Y-54435010D01*
G37*
G36*
X79852532Y-54420135D02*
G01*
X79912392Y-54429112D01*
X79968562Y-54444074D01*
X80021041Y-54465021D01*
X80081451Y-54499620D01*
X80125627Y-54534032D01*
X80166114Y-54574428D01*
X80194056Y-54608653D01*
X80231213Y-54665195D01*
X80262071Y-54727339D01*
X80282224Y-54781087D01*
X80298346Y-54838422D01*
X80310437Y-54899342D01*
X80318498Y-54963847D01*
X80322529Y-55031939D01*
X80323033Y-55067329D01*
X80321561Y-55127596D01*
X80317144Y-55185179D01*
X80306675Y-55257780D01*
X80290972Y-55325610D01*
X80270034Y-55388667D01*
X80243862Y-55446953D01*
X80212455Y-55500466D01*
X80175814Y-55549207D01*
X80155531Y-55571788D01*
X80109295Y-55614896D01*
X80058874Y-55650697D01*
X80004268Y-55679192D01*
X79945478Y-55700381D01*
X79882502Y-55714263D01*
X79815342Y-55720839D01*
X79787306Y-55721423D01*
X79723817Y-55718418D01*
X79664001Y-55709401D01*
X79607857Y-55694374D01*
X79555386Y-55673336D01*
X79494963Y-55638586D01*
X79450756Y-55604023D01*
X79410222Y-55563450D01*
X79382231Y-55529075D01*
X79345155Y-55472554D01*
X79314364Y-55410472D01*
X79294255Y-55356802D01*
X79278168Y-55299572D01*
X79266102Y-55238783D01*
X79258059Y-55174434D01*
X79254037Y-55106526D01*
X79253534Y-55071237D01*
X79253575Y-55069562D01*
X79483570Y-55069562D01*
X79485053Y-55130570D01*
X79489502Y-55187686D01*
X79499235Y-55253610D01*
X79513602Y-55313454D01*
X79532604Y-55367219D01*
X79561525Y-55423711D01*
X79578488Y-55448675D01*
X79621375Y-55494842D01*
X79670753Y-55527819D01*
X79726622Y-55547605D01*
X79788981Y-55554201D01*
X79851555Y-55547588D01*
X79907370Y-55527750D01*
X79956425Y-55494688D01*
X79998721Y-55448400D01*
X80019855Y-55416012D01*
X80044617Y-55365385D01*
X80064256Y-55308143D01*
X80078771Y-55244286D01*
X80086954Y-55186019D01*
X80091579Y-55123158D01*
X80092718Y-55069562D01*
X80091248Y-55008241D01*
X80086838Y-54950880D01*
X80077191Y-54884749D01*
X80062950Y-54824807D01*
X80044116Y-54771053D01*
X80015451Y-54714718D01*
X79998638Y-54689892D01*
X79956117Y-54643724D01*
X79907000Y-54610747D01*
X79851289Y-54590961D01*
X79788981Y-54584366D01*
X79726081Y-54590938D01*
X79670020Y-54610655D01*
X79620799Y-54643518D01*
X79578418Y-54689525D01*
X79557271Y-54721717D01*
X79532224Y-54772478D01*
X79512359Y-54829913D01*
X79497677Y-54894021D01*
X79489400Y-54952543D01*
X79484721Y-55015700D01*
X79483570Y-55069562D01*
X79253575Y-55069562D01*
X79255011Y-55010963D01*
X79259443Y-54953358D01*
X79269946Y-54880704D01*
X79285702Y-54812796D01*
X79306709Y-54749634D01*
X79332969Y-54691218D01*
X79364480Y-54637547D01*
X79401243Y-54588623D01*
X79421594Y-54565940D01*
X79467810Y-54523074D01*
X79518169Y-54487473D01*
X79572673Y-54459138D01*
X79631320Y-54438068D01*
X79694112Y-54424263D01*
X79761047Y-54417724D01*
X79788981Y-54417143D01*
X79852532Y-54420135D01*
G37*
D11*
X76583095Y-16233819D02*
X76583095Y-17043342D01*
X76583095Y-17043342D02*
X76630714Y-17138580D01*
X76630714Y-17138580D02*
X76678333Y-17186200D01*
X76678333Y-17186200D02*
X76773571Y-17233819D01*
X76773571Y-17233819D02*
X76964047Y-17233819D01*
X76964047Y-17233819D02*
X77059285Y-17186200D01*
X77059285Y-17186200D02*
X77106904Y-17138580D01*
X77106904Y-17138580D02*
X77154523Y-17043342D01*
X77154523Y-17043342D02*
X77154523Y-16233819D01*
X77583095Y-16329057D02*
X77630714Y-16281438D01*
X77630714Y-16281438D02*
X77725952Y-16233819D01*
X77725952Y-16233819D02*
X77964047Y-16233819D01*
X77964047Y-16233819D02*
X78059285Y-16281438D01*
X78059285Y-16281438D02*
X78106904Y-16329057D01*
X78106904Y-16329057D02*
X78154523Y-16424295D01*
X78154523Y-16424295D02*
X78154523Y-16519533D01*
X78154523Y-16519533D02*
X78106904Y-16662390D01*
X78106904Y-16662390D02*
X77535476Y-17233819D01*
X77535476Y-17233819D02*
X78154523Y-17233819D01*
X56745428Y-25727819D02*
X56412095Y-25251628D01*
X56174000Y-25727819D02*
X56174000Y-24727819D01*
X56174000Y-24727819D02*
X56554952Y-24727819D01*
X56554952Y-24727819D02*
X56650190Y-24775438D01*
X56650190Y-24775438D02*
X56697809Y-24823057D01*
X56697809Y-24823057D02*
X56745428Y-24918295D01*
X56745428Y-24918295D02*
X56745428Y-25061152D01*
X56745428Y-25061152D02*
X56697809Y-25156390D01*
X56697809Y-25156390D02*
X56650190Y-25204009D01*
X56650190Y-25204009D02*
X56554952Y-25251628D01*
X56554952Y-25251628D02*
X56174000Y-25251628D01*
X57174000Y-25204009D02*
X57507333Y-25204009D01*
X57650190Y-25727819D02*
X57174000Y-25727819D01*
X57174000Y-25727819D02*
X57174000Y-24727819D01*
X57174000Y-24727819D02*
X57650190Y-24727819D01*
X58031143Y-25680200D02*
X58174000Y-25727819D01*
X58174000Y-25727819D02*
X58412095Y-25727819D01*
X58412095Y-25727819D02*
X58507333Y-25680200D01*
X58507333Y-25680200D02*
X58554952Y-25632580D01*
X58554952Y-25632580D02*
X58602571Y-25537342D01*
X58602571Y-25537342D02*
X58602571Y-25442104D01*
X58602571Y-25442104D02*
X58554952Y-25346866D01*
X58554952Y-25346866D02*
X58507333Y-25299247D01*
X58507333Y-25299247D02*
X58412095Y-25251628D01*
X58412095Y-25251628D02*
X58221619Y-25204009D01*
X58221619Y-25204009D02*
X58126381Y-25156390D01*
X58126381Y-25156390D02*
X58078762Y-25108771D01*
X58078762Y-25108771D02*
X58031143Y-25013533D01*
X58031143Y-25013533D02*
X58031143Y-24918295D01*
X58031143Y-24918295D02*
X58078762Y-24823057D01*
X58078762Y-24823057D02*
X58126381Y-24775438D01*
X58126381Y-24775438D02*
X58221619Y-24727819D01*
X58221619Y-24727819D02*
X58459714Y-24727819D01*
X58459714Y-24727819D02*
X58602571Y-24775438D01*
X59031143Y-25204009D02*
X59364476Y-25204009D01*
X59507333Y-25727819D02*
X59031143Y-25727819D01*
X59031143Y-25727819D02*
X59031143Y-24727819D01*
X59031143Y-24727819D02*
X59507333Y-24727819D01*
X59793048Y-24727819D02*
X60364476Y-24727819D01*
X60078762Y-25727819D02*
X60078762Y-24727819D01*
X61221619Y-25727819D02*
X60650191Y-25727819D01*
X60935905Y-25727819D02*
X60935905Y-24727819D01*
X60935905Y-24727819D02*
X60840667Y-24870676D01*
X60840667Y-24870676D02*
X60745429Y-24965914D01*
X60745429Y-24965914D02*
X60650191Y-25013533D01*
X40059428Y-30189715D02*
X40059428Y-30806572D01*
X40059428Y-30806572D02*
X40095714Y-30879144D01*
X40095714Y-30879144D02*
X40132000Y-30915430D01*
X40132000Y-30915430D02*
X40204571Y-30951715D01*
X40204571Y-30951715D02*
X40349714Y-30951715D01*
X40349714Y-30951715D02*
X40422285Y-30915430D01*
X40422285Y-30915430D02*
X40458571Y-30879144D01*
X40458571Y-30879144D02*
X40494857Y-30806572D01*
X40494857Y-30806572D02*
X40494857Y-30189715D01*
X41184286Y-30443715D02*
X41184286Y-30951715D01*
X41002857Y-30153430D02*
X40821428Y-30697715D01*
X40821428Y-30697715D02*
X41293143Y-30697715D01*
X52109761Y-54302819D02*
X51776428Y-53826628D01*
X51538333Y-54302819D02*
X51538333Y-53302819D01*
X51538333Y-53302819D02*
X51919285Y-53302819D01*
X51919285Y-53302819D02*
X52014523Y-53350438D01*
X52014523Y-53350438D02*
X52062142Y-53398057D01*
X52062142Y-53398057D02*
X52109761Y-53493295D01*
X52109761Y-53493295D02*
X52109761Y-53636152D01*
X52109761Y-53636152D02*
X52062142Y-53731390D01*
X52062142Y-53731390D02*
X52014523Y-53779009D01*
X52014523Y-53779009D02*
X51919285Y-53826628D01*
X51919285Y-53826628D02*
X51538333Y-53826628D01*
X52395476Y-53302819D02*
X52728809Y-54302819D01*
X52728809Y-54302819D02*
X53062142Y-53302819D01*
X53919285Y-54302819D02*
X53347857Y-54302819D01*
X53633571Y-54302819D02*
X53633571Y-53302819D01*
X53633571Y-53302819D02*
X53538333Y-53445676D01*
X53538333Y-53445676D02*
X53443095Y-53540914D01*
X53443095Y-53540914D02*
X53347857Y-53588533D01*
X57054905Y-41618819D02*
X57673952Y-41618819D01*
X57673952Y-41618819D02*
X57340619Y-41999771D01*
X57340619Y-41999771D02*
X57483476Y-41999771D01*
X57483476Y-41999771D02*
X57578714Y-42047390D01*
X57578714Y-42047390D02*
X57626333Y-42095009D01*
X57626333Y-42095009D02*
X57673952Y-42190247D01*
X57673952Y-42190247D02*
X57673952Y-42428342D01*
X57673952Y-42428342D02*
X57626333Y-42523580D01*
X57626333Y-42523580D02*
X57578714Y-42571200D01*
X57578714Y-42571200D02*
X57483476Y-42618819D01*
X57483476Y-42618819D02*
X57197762Y-42618819D01*
X57197762Y-42618819D02*
X57102524Y-42571200D01*
X57102524Y-42571200D02*
X57054905Y-42523580D01*
X57959667Y-41618819D02*
X58293000Y-42618819D01*
X58293000Y-42618819D02*
X58626333Y-41618819D01*
X58864429Y-41618819D02*
X59483476Y-41618819D01*
X59483476Y-41618819D02*
X59150143Y-41999771D01*
X59150143Y-41999771D02*
X59293000Y-41999771D01*
X59293000Y-41999771D02*
X59388238Y-42047390D01*
X59388238Y-42047390D02*
X59435857Y-42095009D01*
X59435857Y-42095009D02*
X59483476Y-42190247D01*
X59483476Y-42190247D02*
X59483476Y-42428342D01*
X59483476Y-42428342D02*
X59435857Y-42523580D01*
X59435857Y-42523580D02*
X59388238Y-42571200D01*
X59388238Y-42571200D02*
X59293000Y-42618819D01*
X59293000Y-42618819D02*
X59007286Y-42618819D01*
X59007286Y-42618819D02*
X58912048Y-42571200D01*
X58912048Y-42571200D02*
X58864429Y-42523580D01*
X53514761Y-34903580D02*
X53467142Y-34951200D01*
X53467142Y-34951200D02*
X53324285Y-34998819D01*
X53324285Y-34998819D02*
X53229047Y-34998819D01*
X53229047Y-34998819D02*
X53086190Y-34951200D01*
X53086190Y-34951200D02*
X52990952Y-34855961D01*
X52990952Y-34855961D02*
X52943333Y-34760723D01*
X52943333Y-34760723D02*
X52895714Y-34570247D01*
X52895714Y-34570247D02*
X52895714Y-34427390D01*
X52895714Y-34427390D02*
X52943333Y-34236914D01*
X52943333Y-34236914D02*
X52990952Y-34141676D01*
X52990952Y-34141676D02*
X53086190Y-34046438D01*
X53086190Y-34046438D02*
X53229047Y-33998819D01*
X53229047Y-33998819D02*
X53324285Y-33998819D01*
X53324285Y-33998819D02*
X53467142Y-34046438D01*
X53467142Y-34046438D02*
X53514761Y-34094057D01*
X53705238Y-35094057D02*
X54467142Y-35094057D01*
X54705238Y-34998819D02*
X54705238Y-33998819D01*
X54705238Y-33998819D02*
X55086190Y-33998819D01*
X55086190Y-33998819D02*
X55181428Y-34046438D01*
X55181428Y-34046438D02*
X55229047Y-34094057D01*
X55229047Y-34094057D02*
X55276666Y-34189295D01*
X55276666Y-34189295D02*
X55276666Y-34332152D01*
X55276666Y-34332152D02*
X55229047Y-34427390D01*
X55229047Y-34427390D02*
X55181428Y-34475009D01*
X55181428Y-34475009D02*
X55086190Y-34522628D01*
X55086190Y-34522628D02*
X54705238Y-34522628D01*
X55705238Y-33998819D02*
X55705238Y-34808342D01*
X55705238Y-34808342D02*
X55752857Y-34903580D01*
X55752857Y-34903580D02*
X55800476Y-34951200D01*
X55800476Y-34951200D02*
X55895714Y-34998819D01*
X55895714Y-34998819D02*
X56086190Y-34998819D01*
X56086190Y-34998819D02*
X56181428Y-34951200D01*
X56181428Y-34951200D02*
X56229047Y-34903580D01*
X56229047Y-34903580D02*
X56276666Y-34808342D01*
X56276666Y-34808342D02*
X56276666Y-33998819D01*
X43488428Y-28448001D02*
X43415857Y-28411715D01*
X43415857Y-28411715D02*
X43306999Y-28411715D01*
X43306999Y-28411715D02*
X43198142Y-28448001D01*
X43198142Y-28448001D02*
X43125571Y-28520572D01*
X43125571Y-28520572D02*
X43089285Y-28593144D01*
X43089285Y-28593144D02*
X43052999Y-28738287D01*
X43052999Y-28738287D02*
X43052999Y-28847144D01*
X43052999Y-28847144D02*
X43089285Y-28992287D01*
X43089285Y-28992287D02*
X43125571Y-29064858D01*
X43125571Y-29064858D02*
X43198142Y-29137430D01*
X43198142Y-29137430D02*
X43306999Y-29173715D01*
X43306999Y-29173715D02*
X43379571Y-29173715D01*
X43379571Y-29173715D02*
X43488428Y-29137430D01*
X43488428Y-29137430D02*
X43524714Y-29101144D01*
X43524714Y-29101144D02*
X43524714Y-28847144D01*
X43524714Y-28847144D02*
X43379571Y-28847144D01*
X43851285Y-29173715D02*
X43851285Y-28411715D01*
X43851285Y-28411715D02*
X44286714Y-29173715D01*
X44286714Y-29173715D02*
X44286714Y-28411715D01*
X44649571Y-29173715D02*
X44649571Y-28411715D01*
X44649571Y-28411715D02*
X44831000Y-28411715D01*
X44831000Y-28411715D02*
X44939857Y-28448001D01*
X44939857Y-28448001D02*
X45012428Y-28520572D01*
X45012428Y-28520572D02*
X45048714Y-28593144D01*
X45048714Y-28593144D02*
X45085000Y-28738287D01*
X45085000Y-28738287D02*
X45085000Y-28847144D01*
X45085000Y-28847144D02*
X45048714Y-28992287D01*
X45048714Y-28992287D02*
X45012428Y-29064858D01*
X45012428Y-29064858D02*
X44939857Y-29137430D01*
X44939857Y-29137430D02*
X44831000Y-29173715D01*
X44831000Y-29173715D02*
X44649571Y-29173715D01*
X51085761Y-40428057D02*
X50990523Y-40380438D01*
X50990523Y-40380438D02*
X50895285Y-40285200D01*
X50895285Y-40285200D02*
X50752428Y-40142342D01*
X50752428Y-40142342D02*
X50657190Y-40094723D01*
X50657190Y-40094723D02*
X50561952Y-40094723D01*
X50609571Y-40332819D02*
X50514333Y-40285200D01*
X50514333Y-40285200D02*
X50419095Y-40189961D01*
X50419095Y-40189961D02*
X50371476Y-39999485D01*
X50371476Y-39999485D02*
X50371476Y-39666152D01*
X50371476Y-39666152D02*
X50419095Y-39475676D01*
X50419095Y-39475676D02*
X50514333Y-39380438D01*
X50514333Y-39380438D02*
X50609571Y-39332819D01*
X50609571Y-39332819D02*
X50800047Y-39332819D01*
X50800047Y-39332819D02*
X50895285Y-39380438D01*
X50895285Y-39380438D02*
X50990523Y-39475676D01*
X50990523Y-39475676D02*
X51038142Y-39666152D01*
X51038142Y-39666152D02*
X51038142Y-39999485D01*
X51038142Y-39999485D02*
X50990523Y-40189961D01*
X50990523Y-40189961D02*
X50895285Y-40285200D01*
X50895285Y-40285200D02*
X50800047Y-40332819D01*
X50800047Y-40332819D02*
X50609571Y-40332819D01*
X51419095Y-39428057D02*
X51466714Y-39380438D01*
X51466714Y-39380438D02*
X51561952Y-39332819D01*
X51561952Y-39332819D02*
X51800047Y-39332819D01*
X51800047Y-39332819D02*
X51895285Y-39380438D01*
X51895285Y-39380438D02*
X51942904Y-39428057D01*
X51942904Y-39428057D02*
X51990523Y-39523295D01*
X51990523Y-39523295D02*
X51990523Y-39618533D01*
X51990523Y-39618533D02*
X51942904Y-39761390D01*
X51942904Y-39761390D02*
X51371476Y-40332819D01*
X51371476Y-40332819D02*
X51990523Y-40332819D01*
X65087523Y-45174819D02*
X64611333Y-45174819D01*
X64611333Y-45174819D02*
X64563714Y-45651009D01*
X64563714Y-45651009D02*
X64611333Y-45603390D01*
X64611333Y-45603390D02*
X64706571Y-45555771D01*
X64706571Y-45555771D02*
X64944666Y-45555771D01*
X64944666Y-45555771D02*
X65039904Y-45603390D01*
X65039904Y-45603390D02*
X65087523Y-45651009D01*
X65087523Y-45651009D02*
X65135142Y-45746247D01*
X65135142Y-45746247D02*
X65135142Y-45984342D01*
X65135142Y-45984342D02*
X65087523Y-46079580D01*
X65087523Y-46079580D02*
X65039904Y-46127200D01*
X65039904Y-46127200D02*
X64944666Y-46174819D01*
X64944666Y-46174819D02*
X64706571Y-46174819D01*
X64706571Y-46174819D02*
X64611333Y-46127200D01*
X64611333Y-46127200D02*
X64563714Y-46079580D01*
X65420857Y-45174819D02*
X65754190Y-46174819D01*
X65754190Y-46174819D02*
X66087523Y-45174819D01*
X33655000Y-52033715D02*
X33655000Y-52578001D01*
X33655000Y-52578001D02*
X33618715Y-52686858D01*
X33618715Y-52686858D02*
X33546143Y-52759430D01*
X33546143Y-52759430D02*
X33437286Y-52795715D01*
X33437286Y-52795715D02*
X33364715Y-52795715D01*
X33945286Y-52033715D02*
X34417000Y-52033715D01*
X34417000Y-52033715D02*
X34163000Y-52324001D01*
X34163000Y-52324001D02*
X34271857Y-52324001D01*
X34271857Y-52324001D02*
X34344429Y-52360287D01*
X34344429Y-52360287D02*
X34380714Y-52396572D01*
X34380714Y-52396572D02*
X34417000Y-52469144D01*
X34417000Y-52469144D02*
X34417000Y-52650572D01*
X34417000Y-52650572D02*
X34380714Y-52723144D01*
X34380714Y-52723144D02*
X34344429Y-52759430D01*
X34344429Y-52759430D02*
X34271857Y-52795715D01*
X34271857Y-52795715D02*
X34054143Y-52795715D01*
X34054143Y-52795715D02*
X33981571Y-52759430D01*
X33981571Y-52759430D02*
X33945286Y-52723144D01*
D12*
X27482916Y-39601815D02*
X27351682Y-39601815D01*
X27351682Y-39734863D02*
X27351682Y-39480863D01*
X27351682Y-39480863D02*
X27539159Y-39480863D01*
X27820374Y-39601815D02*
X27876617Y-39613910D01*
X27876617Y-39613910D02*
X27895364Y-39626006D01*
X27895364Y-39626006D02*
X27914112Y-39650196D01*
X27914112Y-39650196D02*
X27914112Y-39686482D01*
X27914112Y-39686482D02*
X27895364Y-39710672D01*
X27895364Y-39710672D02*
X27876617Y-39722768D01*
X27876617Y-39722768D02*
X27839121Y-39734863D01*
X27839121Y-39734863D02*
X27689140Y-39734863D01*
X27689140Y-39734863D02*
X27689140Y-39480863D01*
X27689140Y-39480863D02*
X27820374Y-39480863D01*
X27820374Y-39480863D02*
X27857869Y-39492958D01*
X27857869Y-39492958D02*
X27876617Y-39505053D01*
X27876617Y-39505053D02*
X27895364Y-39529244D01*
X27895364Y-39529244D02*
X27895364Y-39553434D01*
X27895364Y-39553434D02*
X27876617Y-39577625D01*
X27876617Y-39577625D02*
X27857869Y-39589720D01*
X27857869Y-39589720D02*
X27820374Y-39601815D01*
X27820374Y-39601815D02*
X27689140Y-39601815D01*
X28289065Y-39734863D02*
X28064093Y-39734863D01*
X28176579Y-39734863D02*
X28176579Y-39480863D01*
X28176579Y-39480863D02*
X28139084Y-39517148D01*
X28139084Y-39517148D02*
X28101589Y-39541339D01*
X28101589Y-39541339D02*
X28064093Y-39553434D01*
D11*
X48966666Y-25204009D02*
X49109523Y-25251628D01*
X49109523Y-25251628D02*
X49157142Y-25299247D01*
X49157142Y-25299247D02*
X49204761Y-25394485D01*
X49204761Y-25394485D02*
X49204761Y-25537342D01*
X49204761Y-25537342D02*
X49157142Y-25632580D01*
X49157142Y-25632580D02*
X49109523Y-25680200D01*
X49109523Y-25680200D02*
X49014285Y-25727819D01*
X49014285Y-25727819D02*
X48633333Y-25727819D01*
X48633333Y-25727819D02*
X48633333Y-24727819D01*
X48633333Y-24727819D02*
X48966666Y-24727819D01*
X48966666Y-24727819D02*
X49061904Y-24775438D01*
X49061904Y-24775438D02*
X49109523Y-24823057D01*
X49109523Y-24823057D02*
X49157142Y-24918295D01*
X49157142Y-24918295D02*
X49157142Y-25013533D01*
X49157142Y-25013533D02*
X49109523Y-25108771D01*
X49109523Y-25108771D02*
X49061904Y-25156390D01*
X49061904Y-25156390D02*
X48966666Y-25204009D01*
X48966666Y-25204009D02*
X48633333Y-25204009D01*
X49823809Y-24727819D02*
X50014285Y-24727819D01*
X50014285Y-24727819D02*
X50109523Y-24775438D01*
X50109523Y-24775438D02*
X50204761Y-24870676D01*
X50204761Y-24870676D02*
X50252380Y-25061152D01*
X50252380Y-25061152D02*
X50252380Y-25394485D01*
X50252380Y-25394485D02*
X50204761Y-25584961D01*
X50204761Y-25584961D02*
X50109523Y-25680200D01*
X50109523Y-25680200D02*
X50014285Y-25727819D01*
X50014285Y-25727819D02*
X49823809Y-25727819D01*
X49823809Y-25727819D02*
X49728571Y-25680200D01*
X49728571Y-25680200D02*
X49633333Y-25584961D01*
X49633333Y-25584961D02*
X49585714Y-25394485D01*
X49585714Y-25394485D02*
X49585714Y-25061152D01*
X49585714Y-25061152D02*
X49633333Y-24870676D01*
X49633333Y-24870676D02*
X49728571Y-24775438D01*
X49728571Y-24775438D02*
X49823809Y-24727819D01*
X50871428Y-24727819D02*
X51061904Y-24727819D01*
X51061904Y-24727819D02*
X51157142Y-24775438D01*
X51157142Y-24775438D02*
X51252380Y-24870676D01*
X51252380Y-24870676D02*
X51299999Y-25061152D01*
X51299999Y-25061152D02*
X51299999Y-25394485D01*
X51299999Y-25394485D02*
X51252380Y-25584961D01*
X51252380Y-25584961D02*
X51157142Y-25680200D01*
X51157142Y-25680200D02*
X51061904Y-25727819D01*
X51061904Y-25727819D02*
X50871428Y-25727819D01*
X50871428Y-25727819D02*
X50776190Y-25680200D01*
X50776190Y-25680200D02*
X50680952Y-25584961D01*
X50680952Y-25584961D02*
X50633333Y-25394485D01*
X50633333Y-25394485D02*
X50633333Y-25061152D01*
X50633333Y-25061152D02*
X50680952Y-24870676D01*
X50680952Y-24870676D02*
X50776190Y-24775438D01*
X50776190Y-24775438D02*
X50871428Y-24727819D01*
X51585714Y-24727819D02*
X52157142Y-24727819D01*
X51871428Y-25727819D02*
X51871428Y-24727819D01*
X53014285Y-25727819D02*
X52442857Y-25727819D01*
X52728571Y-25727819D02*
X52728571Y-24727819D01*
X52728571Y-24727819D02*
X52633333Y-24870676D01*
X52633333Y-24870676D02*
X52538095Y-24965914D01*
X52538095Y-24965914D02*
X52442857Y-25013533D01*
X45878761Y-35094057D02*
X45783523Y-35046438D01*
X45783523Y-35046438D02*
X45688285Y-34951200D01*
X45688285Y-34951200D02*
X45545428Y-34808342D01*
X45545428Y-34808342D02*
X45450190Y-34760723D01*
X45450190Y-34760723D02*
X45354952Y-34760723D01*
X45402571Y-34998819D02*
X45307333Y-34951200D01*
X45307333Y-34951200D02*
X45212095Y-34855961D01*
X45212095Y-34855961D02*
X45164476Y-34665485D01*
X45164476Y-34665485D02*
X45164476Y-34332152D01*
X45164476Y-34332152D02*
X45212095Y-34141676D01*
X45212095Y-34141676D02*
X45307333Y-34046438D01*
X45307333Y-34046438D02*
X45402571Y-33998819D01*
X45402571Y-33998819D02*
X45593047Y-33998819D01*
X45593047Y-33998819D02*
X45688285Y-34046438D01*
X45688285Y-34046438D02*
X45783523Y-34141676D01*
X45783523Y-34141676D02*
X45831142Y-34332152D01*
X45831142Y-34332152D02*
X45831142Y-34665485D01*
X45831142Y-34665485D02*
X45783523Y-34855961D01*
X45783523Y-34855961D02*
X45688285Y-34951200D01*
X45688285Y-34951200D02*
X45593047Y-34998819D01*
X45593047Y-34998819D02*
X45402571Y-34998819D01*
X46783523Y-34998819D02*
X46212095Y-34998819D01*
X46497809Y-34998819D02*
X46497809Y-33998819D01*
X46497809Y-33998819D02*
X46402571Y-34141676D01*
X46402571Y-34141676D02*
X46307333Y-34236914D01*
X46307333Y-34236914D02*
X46212095Y-34284533D01*
X72517095Y-55636438D02*
X72421857Y-55588819D01*
X72421857Y-55588819D02*
X72279000Y-55588819D01*
X72279000Y-55588819D02*
X72136143Y-55636438D01*
X72136143Y-55636438D02*
X72040905Y-55731676D01*
X72040905Y-55731676D02*
X71993286Y-55826914D01*
X71993286Y-55826914D02*
X71945667Y-56017390D01*
X71945667Y-56017390D02*
X71945667Y-56160247D01*
X71945667Y-56160247D02*
X71993286Y-56350723D01*
X71993286Y-56350723D02*
X72040905Y-56445961D01*
X72040905Y-56445961D02*
X72136143Y-56541200D01*
X72136143Y-56541200D02*
X72279000Y-56588819D01*
X72279000Y-56588819D02*
X72374238Y-56588819D01*
X72374238Y-56588819D02*
X72517095Y-56541200D01*
X72517095Y-56541200D02*
X72564714Y-56493580D01*
X72564714Y-56493580D02*
X72564714Y-56160247D01*
X72564714Y-56160247D02*
X72374238Y-56160247D01*
X72993286Y-56588819D02*
X72993286Y-55588819D01*
X72993286Y-55588819D02*
X73564714Y-56588819D01*
X73564714Y-56588819D02*
X73564714Y-55588819D01*
X74040905Y-56588819D02*
X74040905Y-55588819D01*
X74040905Y-55588819D02*
X74279000Y-55588819D01*
X74279000Y-55588819D02*
X74421857Y-55636438D01*
X74421857Y-55636438D02*
X74517095Y-55731676D01*
X74517095Y-55731676D02*
X74564714Y-55826914D01*
X74564714Y-55826914D02*
X74612333Y-56017390D01*
X74612333Y-56017390D02*
X74612333Y-56160247D01*
X74612333Y-56160247D02*
X74564714Y-56350723D01*
X74564714Y-56350723D02*
X74517095Y-56445961D01*
X74517095Y-56445961D02*
X74421857Y-56541200D01*
X74421857Y-56541200D02*
X74279000Y-56588819D01*
X74279000Y-56588819D02*
X74040905Y-56588819D01*
X22733000Y-39587715D02*
X22733000Y-40132001D01*
X22733000Y-40132001D02*
X22696715Y-40240858D01*
X22696715Y-40240858D02*
X22624143Y-40313430D01*
X22624143Y-40313430D02*
X22515286Y-40349715D01*
X22515286Y-40349715D02*
X22442715Y-40349715D01*
X23059571Y-39660287D02*
X23095857Y-39624001D01*
X23095857Y-39624001D02*
X23168429Y-39587715D01*
X23168429Y-39587715D02*
X23349857Y-39587715D01*
X23349857Y-39587715D02*
X23422429Y-39624001D01*
X23422429Y-39624001D02*
X23458714Y-39660287D01*
X23458714Y-39660287D02*
X23495000Y-39732858D01*
X23495000Y-39732858D02*
X23495000Y-39805430D01*
X23495000Y-39805430D02*
X23458714Y-39914287D01*
X23458714Y-39914287D02*
X23023286Y-40349715D01*
X23023286Y-40349715D02*
X23495000Y-40349715D01*
D13*
%TO.C,U2*%
X74920000Y-18164000D02*
X92920000Y-18164000D01*
X74920000Y-24884000D02*
X74920000Y-18164000D01*
X74920000Y-42934000D02*
X74920000Y-43664000D01*
X74920000Y-43664000D02*
X76165000Y-43664000D01*
X92920000Y-18164000D02*
X92920000Y-24884000D01*
X92920000Y-42934000D02*
X92920000Y-43664000D01*
X92920000Y-43664000D02*
X91675000Y-43664000D01*
D14*
X73820000Y-25654000D02*
G75*
G02*
X73620000Y-25654000I-100000J0D01*
G01*
X73620000Y-25654000D02*
G75*
G02*
X73820000Y-25654000I100000J0D01*
G01*
D15*
%TO.C,R5*%
X60183500Y-36338742D02*
X60183500Y-36813258D01*
X61228500Y-36338742D02*
X61228500Y-36813258D01*
%TO.C,R16*%
X42881442Y-36053500D02*
X43355958Y-36053500D01*
X42881442Y-37098500D02*
X43355958Y-37098500D01*
%TO.C,C5*%
X50862580Y-29794000D02*
X50581420Y-29794000D01*
X50862580Y-30814000D02*
X50581420Y-30814000D01*
%TO.C,C14*%
X34657420Y-41654000D02*
X34938580Y-41654000D01*
X34657420Y-42674000D02*
X34938580Y-42674000D01*
%TO.C,RESET1*%
X56474000Y-25986000D02*
X56474000Y-26106000D01*
X56474000Y-27116000D02*
X56474000Y-28256000D01*
X56474000Y-29266000D02*
X56474000Y-29386000D01*
X56474000Y-29386000D02*
X60874000Y-29386000D01*
X60874000Y-25986000D02*
X56474000Y-25986000D01*
X60874000Y-26106000D02*
X60874000Y-25986000D01*
X60874000Y-28256000D02*
X60874000Y-27116000D01*
X60874000Y-29386000D02*
X60874000Y-29266000D01*
%TO.C,D3*%
X59971000Y-38824000D02*
X59971000Y-41109000D01*
X59971000Y-41109000D02*
X61441000Y-41109000D01*
X61441000Y-41109000D02*
X61441000Y-38824000D01*
%TO.C,C8*%
X28317000Y-33187580D02*
X28317000Y-32906420D01*
X29337000Y-33187580D02*
X29337000Y-32906420D01*
%TO.C,C3*%
X57656000Y-39508920D02*
X57656000Y-39790080D01*
X58676000Y-39508920D02*
X58676000Y-39790080D01*
D14*
%TO.C,D2*%
X27157000Y-35929000D02*
G75*
G02*
X26957000Y-35929000I-100000J0D01*
G01*
X26957000Y-35929000D02*
G75*
G02*
X27157000Y-35929000I100000J0D01*
G01*
D15*
%TO.C,R13*%
X67580742Y-37577500D02*
X68055258Y-37577500D01*
X67580742Y-38622500D02*
X68055258Y-38622500D01*
D11*
%TO.C,U4*%
X35546700Y-30323000D02*
X35546700Y-31433000D01*
X35546700Y-39273000D02*
X35546700Y-38163000D01*
X39696700Y-30323000D02*
X35546700Y-30323000D01*
X39696700Y-30323000D02*
X39696700Y-31433000D01*
X39696700Y-38163000D02*
X39696700Y-39273000D01*
X39696700Y-39273000D02*
X35546700Y-39273000D01*
D15*
X40499200Y-38493000D02*
X40019200Y-38493000D01*
X40259200Y-38163000D01*
X40499200Y-38493000D01*
G36*
X40499200Y-38493000D02*
G01*
X40019200Y-38493000D01*
X40259200Y-38163000D01*
X40499200Y-38493000D01*
G37*
%TO.C,R1*%
X22970500Y-27411258D02*
X22970500Y-26936742D01*
X24015500Y-27411258D02*
X24015500Y-26936742D01*
%TO.C,C10*%
X70966420Y-24890000D02*
X71247580Y-24890000D01*
X70966420Y-25910000D02*
X71247580Y-25910000D01*
%TO.C,RV1*%
X41004000Y-40682000D02*
X50944000Y-40682000D01*
X41004000Y-44547000D02*
X41004000Y-40682000D01*
X41004000Y-52922000D02*
X41004000Y-49057000D01*
X41004000Y-52922000D02*
X42603000Y-52922000D01*
X44345000Y-52922000D02*
X45104000Y-52922000D01*
X46845000Y-52922000D02*
X47604000Y-52922000D01*
X49344000Y-52922000D02*
X50944000Y-52922000D01*
X50944000Y-44547000D02*
X50944000Y-40682000D01*
X50944000Y-52922000D02*
X50944000Y-49057000D01*
%TO.C,J1*%
X67250000Y-51477000D02*
X68580000Y-51477000D01*
X67250000Y-52807000D02*
X67250000Y-51477000D01*
X69850000Y-51477000D02*
X97850000Y-51477000D01*
X69850000Y-54137000D02*
X69850000Y-51477000D01*
X69850000Y-54137000D02*
X97850000Y-54137000D01*
X97850000Y-54137000D02*
X97850000Y-51477000D01*
%TO.C,3V3*%
X60513000Y-44069000D02*
G75*
G02*
X58613000Y-44069000I-950000J0D01*
G01*
X58613000Y-44069000D02*
G75*
G02*
X60513000Y-44069000I950000J0D01*
G01*
%TO.C,C12*%
X61974000Y-31101420D02*
X61974000Y-31382580D01*
X62994000Y-31101420D02*
X62994000Y-31382580D01*
%TO.C,R9*%
X42881442Y-38593500D02*
X43355958Y-38593500D01*
X42881442Y-39638500D02*
X43355958Y-39638500D01*
%TO.C,R7*%
X71344258Y-26401500D02*
X70869742Y-26401500D01*
X71344258Y-27446500D02*
X70869742Y-27446500D01*
%TO.C,R11*%
X48946200Y-38083258D02*
X48946200Y-37608742D01*
X49991200Y-38083258D02*
X49991200Y-37608742D01*
%TO.C,C_PU*%
X55560000Y-32512000D02*
G75*
G02*
X53660000Y-32512000I-950000J0D01*
G01*
X53660000Y-32512000D02*
G75*
G02*
X55560000Y-32512000I950000J0D01*
G01*
%TO.C,U1*%
X54864000Y-36123500D02*
X54064000Y-36123500D01*
X54864000Y-36123500D02*
X55664000Y-36123500D01*
X54864000Y-39243500D02*
X54064000Y-39243500D01*
X54864000Y-39243500D02*
X55664000Y-39243500D01*
X53564000Y-36173500D02*
X53324000Y-35843500D01*
X53804000Y-35843500D01*
X53564000Y-36173500D01*
G36*
X53564000Y-36173500D02*
G01*
X53324000Y-35843500D01*
X53804000Y-35843500D01*
X53564000Y-36173500D01*
G37*
%TO.C,R8*%
X42881442Y-33259500D02*
X43355958Y-33259500D01*
X42881442Y-34304500D02*
X43355958Y-34304500D01*
%TO.C,R15*%
X67580742Y-33005500D02*
X68055258Y-33005500D01*
X67580742Y-34050500D02*
X68055258Y-34050500D01*
D11*
%TO.C,GND*%
X42096000Y-29661000D02*
X46296000Y-29661000D01*
X42096000Y-32061000D02*
X42096000Y-29661000D01*
X46296000Y-29661000D02*
X46296000Y-32061000D01*
X46296000Y-32061000D02*
X42096000Y-32061000D01*
D15*
%TO.C,Q2*%
X46674700Y-37048000D02*
X45874700Y-37048000D01*
X46674700Y-37048000D02*
X47474700Y-37048000D01*
X46674700Y-40168000D02*
X45874700Y-40168000D01*
X46674700Y-40168000D02*
X47474700Y-40168000D01*
X45374700Y-37098000D02*
X45134700Y-36768000D01*
X45614700Y-36768000D01*
X45374700Y-37098000D01*
G36*
X45374700Y-37098000D02*
G01*
X45134700Y-36768000D01*
X45614700Y-36768000D01*
X45374700Y-37098000D01*
G37*
%TO.C,C2*%
X57656000Y-36460920D02*
X57656000Y-36742080D01*
X58676000Y-36460920D02*
X58676000Y-36742080D01*
%TO.C,5V*%
X65085000Y-47625000D02*
G75*
G02*
X63185000Y-47625000I-950000J0D01*
G01*
X63185000Y-47625000D02*
G75*
G02*
X65085000Y-47625000I950000J0D01*
G01*
%TO.C,C4*%
X60196000Y-31101420D02*
X60196000Y-31382580D01*
X61216000Y-31101420D02*
X61216000Y-31382580D01*
%TO.C,R6*%
X31350258Y-33286500D02*
X30875742Y-33286500D01*
X31350258Y-34331500D02*
X30875742Y-34331500D01*
%TO.C,C1*%
X53974420Y-39622000D02*
X54255580Y-39622000D01*
X53974420Y-40642000D02*
X54255580Y-40642000D01*
%TO.C,R12*%
X67580742Y-39863500D02*
X68055258Y-39863500D01*
X67580742Y-40908500D02*
X68055258Y-40908500D01*
D16*
%TO.C,G\u002A\u002A\u002A*%
G36*
X86806473Y-54911456D02*
G01*
X86823032Y-54914999D01*
X86844983Y-54919879D01*
X86884518Y-54926127D01*
X86935427Y-54932833D01*
X86975983Y-54937468D01*
X87160349Y-54962796D01*
X87333627Y-54998801D01*
X87503200Y-55047249D01*
X87643566Y-55097077D01*
X87815629Y-55172512D01*
X87971082Y-55260179D01*
X88109339Y-55359577D01*
X88229811Y-55470205D01*
X88331912Y-55591561D01*
X88415052Y-55723143D01*
X88443383Y-55779631D01*
X88478157Y-55859486D01*
X88504024Y-55932463D01*
X88522312Y-56004099D01*
X88534350Y-56079929D01*
X88541465Y-56165488D01*
X88542854Y-56194273D01*
X88543938Y-56283737D01*
X88538584Y-56365604D01*
X88525684Y-56442263D01*
X88504132Y-56516100D01*
X88472820Y-56589503D01*
X88430641Y-56664861D01*
X88376487Y-56744561D01*
X88309253Y-56830991D01*
X88227830Y-56926539D01*
X88176938Y-56983468D01*
X88128794Y-57037483D01*
X88081018Y-57092635D01*
X88036599Y-57145360D01*
X87998529Y-57192091D01*
X87969798Y-57229261D01*
X87963161Y-57238417D01*
X87896619Y-57345013D01*
X87845559Y-57453779D01*
X87810264Y-57562603D01*
X87791017Y-57669377D01*
X87788100Y-57771991D01*
X87801795Y-57868334D01*
X87832385Y-57956298D01*
X87860369Y-58006327D01*
X87907733Y-58066450D01*
X87959984Y-58109940D01*
X88017352Y-58136941D01*
X88080069Y-58147593D01*
X88090347Y-58147790D01*
X88147126Y-58141649D01*
X88203383Y-58122390D01*
X88262209Y-58088760D01*
X88295508Y-58064664D01*
X88320939Y-58044318D01*
X88343955Y-58023714D01*
X88365874Y-58000999D01*
X88388010Y-57974322D01*
X88411679Y-57941827D01*
X88438197Y-57901664D01*
X88468880Y-57851978D01*
X88505043Y-57790917D01*
X88548002Y-57716627D01*
X88570365Y-57677578D01*
X88639263Y-57559527D01*
X88702263Y-57456942D01*
X88760039Y-57368845D01*
X88813269Y-57294258D01*
X88862628Y-57232202D01*
X88908793Y-57181699D01*
X88921869Y-57168894D01*
X89037304Y-57072913D01*
X89168399Y-56989857D01*
X89314890Y-56919856D01*
X89476519Y-56863037D01*
X89622143Y-56825945D01*
X89657138Y-56818839D01*
X89690905Y-56813248D01*
X89726582Y-56809063D01*
X89767307Y-56806179D01*
X89816217Y-56804489D01*
X89876449Y-56803886D01*
X89951141Y-56804263D01*
X90043432Y-56805514D01*
X90156457Y-56807532D01*
X90161117Y-56807621D01*
X90203329Y-56807706D01*
X90236990Y-56805096D01*
X90270150Y-56798308D01*
X90310855Y-56785857D01*
X90347176Y-56773321D01*
X90401303Y-56753791D01*
X90466887Y-56729407D01*
X90534471Y-56703713D01*
X90579102Y-56686377D01*
X90658555Y-56655740D01*
X90722385Y-56632934D01*
X90775428Y-56616843D01*
X90822521Y-56606350D01*
X90868498Y-56600341D01*
X90918198Y-56597699D01*
X90965371Y-56597264D01*
X91005903Y-56597617D01*
X91041720Y-56598963D01*
X91075643Y-56602045D01*
X91110490Y-56607605D01*
X91149082Y-56616386D01*
X91194236Y-56629129D01*
X91248774Y-56646577D01*
X91315514Y-56669473D01*
X91397276Y-56698559D01*
X91496879Y-56734578D01*
X91523353Y-56744191D01*
X91619495Y-56778875D01*
X91725919Y-56816860D01*
X91835566Y-56855653D01*
X91941378Y-56892763D01*
X92036296Y-56925696D01*
X92075720Y-56939223D01*
X92191444Y-56978984D01*
X92287394Y-57012710D01*
X92365646Y-57041453D01*
X92428275Y-57066262D01*
X92477358Y-57088189D01*
X92514968Y-57108285D01*
X92543183Y-57127600D01*
X92564078Y-57147186D01*
X92579727Y-57168092D01*
X92592208Y-57191371D01*
X92597567Y-57203425D01*
X92609398Y-57244856D01*
X92614920Y-57294052D01*
X92613820Y-57343181D01*
X92605783Y-57384416D01*
X92604917Y-57386901D01*
X92595055Y-57417315D01*
X92586524Y-57448534D01*
X92586501Y-57448632D01*
X92578663Y-57471132D01*
X92565118Y-57491313D01*
X92543679Y-57510148D01*
X92512160Y-57528610D01*
X92468375Y-57547670D01*
X92410138Y-57568300D01*
X92335262Y-57591473D01*
X92241561Y-57618161D01*
X92147832Y-57643704D01*
X91929008Y-57704694D01*
X91706849Y-57770986D01*
X91473688Y-57844874D01*
X91451524Y-57852098D01*
X91316121Y-57894159D01*
X91197161Y-57926215D01*
X91092043Y-57948675D01*
X90998170Y-57961946D01*
X90912942Y-57966438D01*
X90833760Y-57962560D01*
X90788059Y-57956382D01*
X90716616Y-57941760D01*
X90650855Y-57921995D01*
X90587153Y-57895304D01*
X90521883Y-57859905D01*
X90451421Y-57814015D01*
X90372141Y-57755852D01*
X90357800Y-57744828D01*
X90287126Y-57690282D01*
X90230088Y-57646970D01*
X90183982Y-57613594D01*
X90146106Y-57588859D01*
X90113757Y-57571470D01*
X90084231Y-57560132D01*
X90054825Y-57553549D01*
X90022836Y-57550425D01*
X89985560Y-57549466D01*
X89949970Y-57549386D01*
X89837459Y-57556691D01*
X89725363Y-57577627D01*
X89619549Y-57610526D01*
X89525886Y-57653722D01*
X89478788Y-57683298D01*
X89446021Y-57708053D01*
X89418855Y-57732777D01*
X89396181Y-57759761D01*
X89376889Y-57791295D01*
X89359869Y-57829667D01*
X89344013Y-57877168D01*
X89328209Y-57936086D01*
X89311349Y-58008713D01*
X89303397Y-58045198D01*
X89283576Y-58134322D01*
X89265273Y-58209043D01*
X89247509Y-58271965D01*
X89229301Y-58325690D01*
X89209671Y-58372822D01*
X89187636Y-58415965D01*
X89162217Y-58457721D01*
X89132432Y-58500693D01*
X89131142Y-58502467D01*
X89042815Y-58607192D01*
X88936916Y-58704549D01*
X88816208Y-58792922D01*
X88683451Y-58870699D01*
X88541406Y-58936265D01*
X88392834Y-58988006D01*
X88240497Y-59024308D01*
X88237399Y-59024871D01*
X88148486Y-59036810D01*
X88046294Y-59043859D01*
X87939621Y-59045873D01*
X87837264Y-59042705D01*
X87748022Y-59034209D01*
X87740641Y-59033133D01*
X87592114Y-59002151D01*
X87453157Y-58955783D01*
X87324799Y-58894625D01*
X87208067Y-58819271D01*
X87103991Y-58730318D01*
X87013599Y-58628358D01*
X86993257Y-58600903D01*
X86934935Y-58512563D01*
X86888557Y-58426362D01*
X86852958Y-58338730D01*
X86826975Y-58246098D01*
X86809443Y-58144897D01*
X86799197Y-58031557D01*
X86797660Y-58001417D01*
X86795909Y-57895170D01*
X86800837Y-57793656D01*
X86813076Y-57692313D01*
X86833255Y-57586575D01*
X86862003Y-57471880D01*
X86878960Y-57412549D01*
X86895844Y-57358576D01*
X86915244Y-57303133D01*
X86938157Y-57243846D01*
X86965580Y-57178342D01*
X86998511Y-57104245D01*
X87037947Y-57019182D01*
X87084886Y-56920779D01*
X87090253Y-56909654D01*
X87135765Y-56815181D01*
X87174058Y-56735021D01*
X87205864Y-56667353D01*
X87231916Y-56610355D01*
X87252945Y-56562208D01*
X87269685Y-56521089D01*
X87282868Y-56485179D01*
X87293226Y-56452656D01*
X87301491Y-56421699D01*
X87308396Y-56390487D01*
X87314672Y-56357200D01*
X87316400Y-56347359D01*
X87317312Y-56275698D01*
X87296330Y-56206634D01*
X87255547Y-56142060D01*
X87197056Y-56083867D01*
X87122951Y-56033950D01*
X87035324Y-55994200D01*
X86936269Y-55966510D01*
X86885957Y-55958147D01*
X86790105Y-55953895D01*
X86696003Y-55965557D01*
X86605707Y-55991951D01*
X86521271Y-56031894D01*
X86444751Y-56084203D01*
X86378203Y-56147696D01*
X86323680Y-56221190D01*
X86283239Y-56303501D01*
X86282519Y-56305414D01*
X86274494Y-56329774D01*
X86268601Y-56355785D01*
X86264556Y-56386510D01*
X86262073Y-56425012D01*
X86260869Y-56474355D01*
X86260658Y-56537601D01*
X86260666Y-56540520D01*
X86260817Y-56579233D01*
X86261223Y-56613386D01*
X86262195Y-56644657D01*
X86264041Y-56674721D01*
X86267073Y-56705254D01*
X86271600Y-56737933D01*
X86277932Y-56774434D01*
X86286380Y-56816432D01*
X86297253Y-56865605D01*
X86310861Y-56923627D01*
X86327515Y-56992176D01*
X86347524Y-57072928D01*
X86371199Y-57167558D01*
X86391915Y-57250112D01*
X86426500Y-57388515D01*
X86456920Y-57511736D01*
X86483507Y-57621389D01*
X86506591Y-57719087D01*
X86526504Y-57806444D01*
X86543576Y-57885075D01*
X86558139Y-57956593D01*
X86570524Y-58022613D01*
X86581061Y-58084747D01*
X86590083Y-58144611D01*
X86597919Y-58203817D01*
X86604900Y-58263980D01*
X86610066Y-58313612D01*
X86621013Y-58472616D01*
X86620562Y-58618120D01*
X86608510Y-58751750D01*
X86584655Y-58875132D01*
X86548793Y-58989892D01*
X86516021Y-59066841D01*
X86447790Y-59184169D01*
X86357780Y-59296612D01*
X86247613Y-59403113D01*
X86118908Y-59502613D01*
X85973285Y-59594055D01*
X85812366Y-59676378D01*
X85637771Y-59748527D01*
X85451119Y-59809441D01*
X85330729Y-59840941D01*
X85215145Y-59865674D01*
X85101400Y-59883865D01*
X84982070Y-59896408D01*
X84849731Y-59904200D01*
X84789425Y-59906246D01*
X84593235Y-59904726D01*
X84409394Y-59888772D01*
X84237569Y-59858235D01*
X84077427Y-59812967D01*
X83928635Y-59752820D01*
X83790860Y-59677646D01*
X83663770Y-59587297D01*
X83547030Y-59481625D01*
X83440309Y-59360483D01*
X83381038Y-59280443D01*
X83283106Y-59120675D01*
X83208138Y-58956326D01*
X83156116Y-58787279D01*
X83127019Y-58613422D01*
X83120826Y-58434639D01*
X83137518Y-58250818D01*
X83170328Y-58087945D01*
X83189554Y-58016121D01*
X83211565Y-57943656D01*
X83237072Y-57868892D01*
X83266781Y-57790170D01*
X83301402Y-57705832D01*
X83341644Y-57614220D01*
X83388215Y-57513676D01*
X83441823Y-57402542D01*
X83503177Y-57279158D01*
X83572986Y-57141868D01*
X83582559Y-57123224D01*
X83627942Y-57032988D01*
X83663891Y-56956281D01*
X83690741Y-56891012D01*
X83708827Y-56835091D01*
X83718486Y-56786429D01*
X83720052Y-56742934D01*
X83713861Y-56702518D01*
X83700249Y-56663090D01*
X83679551Y-56622560D01*
X83666418Y-56600860D01*
X83622931Y-56547576D01*
X83569452Y-56508781D01*
X83507425Y-56485094D01*
X83438293Y-56477134D01*
X83387024Y-56481161D01*
X83302977Y-56502456D01*
X83229170Y-56538548D01*
X83166588Y-56588457D01*
X83116219Y-56651202D01*
X83079048Y-56725802D01*
X83056308Y-56809861D01*
X83054537Y-56827059D01*
X83052413Y-56859438D01*
X83050019Y-56905084D01*
X83047437Y-56962082D01*
X83044749Y-57028518D01*
X83042038Y-57102477D01*
X83039386Y-57182044D01*
X83037188Y-57254425D01*
X83033899Y-57361994D01*
X83030624Y-57454609D01*
X83027187Y-57534412D01*
X83023410Y-57603549D01*
X83019118Y-57664162D01*
X83014133Y-57718395D01*
X83008279Y-57768392D01*
X83001379Y-57816297D01*
X82993257Y-57864252D01*
X82983734Y-57914403D01*
X82982109Y-57922574D01*
X82947522Y-58055769D01*
X82899289Y-58179639D01*
X82838207Y-58293244D01*
X82765073Y-58395646D01*
X82680684Y-58485905D01*
X82585837Y-58563084D01*
X82481328Y-58626243D01*
X82367955Y-58674444D01*
X82334652Y-58685155D01*
X82209192Y-58713724D01*
X82073534Y-58727789D01*
X81929858Y-58727499D01*
X81780341Y-58713004D01*
X81627164Y-58684450D01*
X81472505Y-58641986D01*
X81414580Y-58622510D01*
X81253185Y-58556962D01*
X81107763Y-58480408D01*
X80979589Y-58393843D01*
X80869939Y-58298265D01*
X80780090Y-58194670D01*
X80711317Y-58084055D01*
X80702733Y-58066572D01*
X80668605Y-57987334D01*
X80644059Y-57911889D01*
X80627748Y-57834491D01*
X80618325Y-57749396D01*
X80615494Y-57694503D01*
X80614269Y-57647068D01*
X80614001Y-57605794D01*
X80614644Y-57573629D01*
X80616153Y-57553524D01*
X80617714Y-57548197D01*
X80622421Y-57538216D01*
X80629855Y-57514913D01*
X80638964Y-57481852D01*
X80647943Y-57445779D01*
X80680439Y-57335651D01*
X80724292Y-57228403D01*
X80777988Y-57126269D01*
X80840011Y-57031479D01*
X80908845Y-56946264D01*
X80982977Y-56872858D01*
X81060889Y-56813490D01*
X81088836Y-56796405D01*
X81156231Y-56762575D01*
X81222354Y-56738061D01*
X81283852Y-56723508D01*
X81337373Y-56719559D01*
X81379563Y-56726860D01*
X81398112Y-56736960D01*
X81411024Y-56751193D01*
X81414972Y-56768291D01*
X81408912Y-56790101D01*
X81391801Y-56818470D01*
X81362596Y-56855247D01*
X81320253Y-56902278D01*
X81282094Y-56942441D01*
X81220827Y-57006389D01*
X81171769Y-57058527D01*
X81133124Y-57100933D01*
X81103097Y-57135685D01*
X81079891Y-57164861D01*
X81061712Y-57190539D01*
X81046773Y-57214781D01*
X81010700Y-57297102D01*
X80990118Y-57389398D01*
X80984839Y-57488692D01*
X80994679Y-57592009D01*
X81019452Y-57696372D01*
X81058972Y-57798804D01*
X81086491Y-57852464D01*
X81147582Y-57942762D01*
X81222566Y-58022398D01*
X81309579Y-58090340D01*
X81406760Y-58145557D01*
X81512243Y-58187016D01*
X81624165Y-58213686D01*
X81740664Y-58224535D01*
X81758799Y-58224734D01*
X81860254Y-58217334D01*
X81949969Y-58195100D01*
X82028038Y-58157978D01*
X82094555Y-58105913D01*
X82149615Y-58038853D01*
X82181091Y-57983572D01*
X82202457Y-57933571D01*
X82219300Y-57879375D01*
X82231733Y-57819288D01*
X82239871Y-57751610D01*
X82243829Y-57674645D01*
X82243722Y-57586693D01*
X82239664Y-57486058D01*
X82231771Y-57371041D01*
X82226630Y-57309958D01*
X82216171Y-57185975D01*
X82208187Y-57077156D01*
X82202721Y-56981654D01*
X82199816Y-56897620D01*
X82199514Y-56823208D01*
X82201861Y-56756571D01*
X82206897Y-56695862D01*
X82214668Y-56639232D01*
X82225215Y-56584835D01*
X82238582Y-56530825D01*
X82245399Y-56506597D01*
X82294378Y-56376556D01*
X82362861Y-56255020D01*
X82450000Y-56142915D01*
X82554942Y-56041168D01*
X82676838Y-55950704D01*
X82814837Y-55872451D01*
X82838078Y-55861255D01*
X82945183Y-55813797D01*
X83042161Y-55777849D01*
X83134614Y-55752004D01*
X83228142Y-55734854D01*
X83328349Y-55724993D01*
X83392160Y-55722046D01*
X83500205Y-55721034D01*
X83595829Y-55725876D01*
X83689608Y-55737517D01*
X83792119Y-55756902D01*
X83799114Y-55758404D01*
X83957555Y-55801385D01*
X84105413Y-55859008D01*
X84241341Y-55930135D01*
X84363993Y-56013624D01*
X84472022Y-56108338D01*
X84564083Y-56213136D01*
X84638829Y-56326878D01*
X84694913Y-56448426D01*
X84723077Y-56540520D01*
X84741396Y-56642496D01*
X84750297Y-56755507D01*
X84749871Y-56874892D01*
X84740212Y-56995986D01*
X84721413Y-57114126D01*
X84710731Y-57162081D01*
X84684817Y-57253491D01*
X84649769Y-57354781D01*
X84607697Y-57460724D01*
X84560709Y-57566093D01*
X84510915Y-57665661D01*
X84497522Y-57690402D01*
X84476572Y-57729486D01*
X84451014Y-57778866D01*
X84422125Y-57835914D01*
X84391179Y-57898002D01*
X84359455Y-57962501D01*
X84328228Y-58026784D01*
X84298775Y-58088223D01*
X84272372Y-58144189D01*
X84250295Y-58192055D01*
X84233821Y-58229192D01*
X84224226Y-58252973D01*
X84224042Y-58253499D01*
X84209676Y-58306960D01*
X84199149Y-58370648D01*
X84192861Y-58438819D01*
X84191214Y-58505730D01*
X84194608Y-58565639D01*
X84199926Y-58599110D01*
X84229225Y-58691522D01*
X84273041Y-58771511D01*
X84330107Y-58838566D01*
X84399154Y-58892176D01*
X84478916Y-58931830D01*
X84568124Y-58957015D01*
X84665512Y-58967220D01*
X84769811Y-58961933D01*
X84879754Y-58940644D01*
X84972881Y-58911017D01*
X85065864Y-58866990D01*
X85149846Y-58808457D01*
X85222989Y-58737233D01*
X85283453Y-58655134D01*
X85329401Y-58563972D01*
X85332440Y-58556224D01*
X85341231Y-58531987D01*
X85347896Y-58509178D01*
X85352716Y-58484923D01*
X85355974Y-58456351D01*
X85357953Y-58420590D01*
X85358934Y-58374768D01*
X85359202Y-58316014D01*
X85359164Y-58284579D01*
X85358755Y-58216780D01*
X85357552Y-58161693D01*
X85355099Y-58114934D01*
X85350935Y-58072119D01*
X85344603Y-58028862D01*
X85335644Y-57980779D01*
X85323599Y-57923486D01*
X85319379Y-57904135D01*
X85306943Y-57847358D01*
X85295104Y-57793256D01*
X85284603Y-57745216D01*
X85276180Y-57706625D01*
X85270575Y-57680868D01*
X85269862Y-57677578D01*
X85264953Y-57655289D01*
X85256929Y-57619324D01*
X85246509Y-57572885D01*
X85234412Y-57519175D01*
X85221357Y-57461396D01*
X85216104Y-57438197D01*
X85175385Y-57251929D01*
X85141204Y-57080794D01*
X85113469Y-56923491D01*
X85092089Y-56778719D01*
X85076973Y-56645178D01*
X85068029Y-56521566D01*
X85065166Y-56406582D01*
X85068293Y-56298926D01*
X85077320Y-56197297D01*
X85092154Y-56100394D01*
X85112704Y-56006915D01*
X85115087Y-55997639D01*
X85164713Y-55848072D01*
X85233346Y-55705678D01*
X85319935Y-55571512D01*
X85423432Y-55446632D01*
X85542784Y-55332093D01*
X85676942Y-55228954D01*
X85824855Y-55138269D01*
X85985473Y-55061095D01*
X86084239Y-55022871D01*
X86141730Y-55003284D01*
X86194805Y-54987343D01*
X86249250Y-54973721D01*
X86310849Y-54961088D01*
X86385389Y-54948118D01*
X86463953Y-54935729D01*
X86549456Y-54924014D01*
X86630540Y-54915494D01*
X86703126Y-54910403D01*
X86763131Y-54908979D01*
X86806473Y-54911456D01*
G37*
D15*
%TO.C,C11*%
X67450580Y-26414000D02*
X67169420Y-26414000D01*
X67450580Y-27434000D02*
X67169420Y-27434000D01*
%TO.C,C7*%
X37590000Y-41261420D02*
X37590000Y-41542580D01*
X38610000Y-41261420D02*
X38610000Y-41542580D01*
%TO.C,C13*%
X33494000Y-55131580D02*
X33494000Y-54850420D01*
X34514000Y-55131580D02*
X34514000Y-54850420D01*
D13*
%TO.C,J3*%
X18740000Y-40891000D02*
X18740000Y-56391000D01*
X18740000Y-40891000D02*
X32840000Y-40891000D01*
X32840000Y-40891000D02*
X32840000Y-44416000D01*
X32840000Y-54136000D02*
X32840000Y-56391000D01*
X32840000Y-56391000D02*
X18740000Y-56391000D01*
D14*
X29440000Y-40141000D02*
G75*
G02*
X29240000Y-40141000I-100000J0D01*
G01*
X29240000Y-40141000D02*
G75*
G02*
X29440000Y-40141000I100000J0D01*
G01*
D15*
%TO.C,R3*%
X61961500Y-27702742D02*
X61961500Y-28177258D01*
X63006500Y-27702742D02*
X63006500Y-28177258D01*
D14*
%TO.C,D1*%
X27157000Y-33201800D02*
G75*
G02*
X26957000Y-33201800I-100000J0D01*
G01*
X26957000Y-33201800D02*
G75*
G02*
X27157000Y-33201800I100000J0D01*
G01*
D15*
%TO.C,R4*%
X30875742Y-34810500D02*
X31350258Y-34810500D01*
X30875742Y-35855500D02*
X31350258Y-35855500D01*
%TO.C,BOOT1*%
X48600000Y-25986000D02*
X48600000Y-26106000D01*
X48600000Y-27116000D02*
X48600000Y-28256000D01*
X48600000Y-29266000D02*
X48600000Y-29386000D01*
X48600000Y-29386000D02*
X53000000Y-29386000D01*
X53000000Y-25986000D02*
X48600000Y-25986000D01*
X53000000Y-26106000D02*
X53000000Y-25986000D01*
X53000000Y-28256000D02*
X53000000Y-27116000D01*
X53000000Y-29386000D02*
X53000000Y-29266000D01*
%TO.C,Q1*%
X46674700Y-32984000D02*
X45874700Y-32984000D01*
X46674700Y-32984000D02*
X47474700Y-32984000D01*
X46674700Y-36104000D02*
X45874700Y-36104000D01*
X46674700Y-36104000D02*
X47474700Y-36104000D01*
X45374700Y-33034000D02*
X45134700Y-32704000D01*
X45614700Y-32704000D01*
X45374700Y-33034000D01*
G36*
X45374700Y-33034000D02*
G01*
X45134700Y-32704000D01*
X45614700Y-32704000D01*
X45374700Y-33034000D01*
G37*
%TO.C,C9*%
X28317000Y-35954420D02*
X28317000Y-36235580D01*
X29337000Y-35954420D02*
X29337000Y-36235580D01*
D11*
%TO.C,GND*%
X71179000Y-57220000D02*
X75379000Y-57220000D01*
X71179000Y-59620000D02*
X71179000Y-57220000D01*
X75379000Y-57220000D02*
X75379000Y-59620000D01*
X75379000Y-59620000D02*
X71179000Y-59620000D01*
D15*
%TO.C,R14*%
X67580742Y-35291500D02*
X68055258Y-35291500D01*
X67580742Y-36336500D02*
X68055258Y-36336500D01*
%TO.C,C6*%
X30210420Y-37840000D02*
X30491580Y-37840000D01*
X30210420Y-38860000D02*
X30491580Y-38860000D01*
%TO.C,R10*%
X48946200Y-34781258D02*
X48946200Y-34306742D01*
X49991200Y-34781258D02*
X49991200Y-34306742D01*
%TO.C,J2*%
X18513000Y-29706000D02*
X18513000Y-38866000D01*
X19463000Y-29706000D02*
X18513000Y-29706000D01*
X19463000Y-38866000D02*
X18513000Y-38866000D01*
X23438000Y-29706000D02*
X22583000Y-29706000D01*
X23438000Y-38866000D02*
X22583000Y-38866000D01*
%TO.C,R2*%
X26526500Y-27411258D02*
X26526500Y-26936742D01*
X27571500Y-27411258D02*
X27571500Y-26936742D01*
%TD*%
M02*
