%TF.GenerationSoftware,KiCad,Pcbnew,8.0.4*%
%TF.CreationDate,2024-11-19T10:10:49-07:00*%
%TF.ProjectId,SnakeTank,536e616b-6554-4616-9e6b-2e6b69636164,rev?*%
%TF.SameCoordinates,Original*%
%TF.FileFunction,Copper,L3,Inr*%
%TF.FilePolarity,Positive*%
%FSLAX46Y46*%
G04 Gerber Fmt 4.6, Leading zero omitted, Abs format (unit mm)*
G04 Created by KiCad (PCBNEW 8.0.4) date 2024-11-19 10:10:49*
%MOMM*%
%LPD*%
G01*
G04 APERTURE LIST*
%TA.AperFunction,ComponentPad*%
%ADD10C,0.500000*%
%TD*%
%TA.AperFunction,WasherPad*%
%ADD11C,4.000000*%
%TD*%
%TA.AperFunction,ComponentPad*%
%ADD12C,1.800000*%
%TD*%
%TA.AperFunction,ComponentPad*%
%ADD13R,1.700000X1.700000*%
%TD*%
%TA.AperFunction,ComponentPad*%
%ADD14O,1.700000X1.700000*%
%TD*%
%TA.AperFunction,ComponentPad*%
%ADD15R,1.458000X1.458000*%
%TD*%
%TA.AperFunction,ComponentPad*%
%ADD16C,1.458000*%
%TD*%
%TA.AperFunction,ComponentPad*%
%ADD17O,2.300000X1.300000*%
%TD*%
%TA.AperFunction,ComponentPad*%
%ADD18O,2.600000X1.300000*%
%TD*%
%TA.AperFunction,ComponentPad*%
%ADD19C,3.000000*%
%TD*%
%TA.AperFunction,ComponentPad*%
%ADD20R,1.800000X2.600000*%
%TD*%
%TA.AperFunction,ComponentPad*%
%ADD21O,1.800000X2.600000*%
%TD*%
%TA.AperFunction,ViaPad*%
%ADD22C,0.700000*%
%TD*%
%TA.AperFunction,ViaPad*%
%ADD23C,0.600000*%
%TD*%
G04 APERTURE END LIST*
D10*
%TO.N,N/C*%
%TO.C,U2*%
X84620000Y-35514000D03*
X80220000Y-35514000D03*
X80220000Y-31214000D03*
X84620000Y-31214000D03*
%TD*%
D11*
%TO.N,*%
%TO.C,RV1*%
X41574000Y-46802000D03*
X50374000Y-46802000D03*
D12*
%TO.N,GND*%
X48474000Y-53802000D03*
%TO.N,Net-(DS1-VO)*%
X45974000Y-53802000D03*
%TO.N,+5V*%
X43474000Y-53802000D03*
%TD*%
D13*
%TO.N,IO3*%
%TO.C,J1*%
X68580000Y-52807000D03*
D14*
%TO.N,IO46*%
X71120000Y-52807000D03*
%TO.N,IO9*%
X73660000Y-52807000D03*
%TO.N,IO10*%
X76200000Y-52807000D03*
%TO.N,IO11*%
X78740000Y-52807000D03*
%TO.N,IO12*%
X81280000Y-52807000D03*
%TO.N,IO13*%
X83820000Y-52807000D03*
%TO.N,IO14*%
X86360000Y-52807000D03*
%TO.N,IO21*%
X88900000Y-52807000D03*
%TO.N,IO47*%
X91440000Y-52807000D03*
%TO.N,IO48*%
X93980000Y-52807000D03*
%TO.N,IO45*%
X96520000Y-52807000D03*
%TD*%
D15*
%TO.N,+5V*%
%TO.C,J3*%
X29340000Y-44196000D03*
D16*
%TO.N,GND*%
X31880000Y-45466000D03*
%TO.N,DHT11_1_data*%
X29340000Y-46736000D03*
%TO.N,DHT11_2_data*%
X31880000Y-48006000D03*
%TO.N,DHT11_3_data*%
X29340000Y-49276000D03*
%TO.N,DHT11_4_data*%
X31880000Y-50546000D03*
%TO.N,+5V*%
X29340000Y-51816000D03*
%TO.N,GND*%
X31880000Y-53086000D03*
%TD*%
D17*
%TO.N,GND*%
%TO.C,J2*%
X24898000Y-29966000D03*
D18*
X21073000Y-29966000D03*
D17*
X24898000Y-38606000D03*
D18*
X21073000Y-38606000D03*
%TD*%
D19*
%TO.N,*%
%TO.C,DS1*%
X20916900Y-27028800D03*
X20916900Y-58029500D03*
X95915480Y-27028800D03*
X95916000Y-58029500D03*
D20*
%TO.N,GND*%
X26416000Y-58029500D03*
D21*
%TO.N,+5V*%
X28956000Y-58029500D03*
%TO.N,Net-(DS1-VO)*%
X31496000Y-58029500D03*
%TO.N,LCD_RS*%
X34036000Y-58029500D03*
%TO.N,GND*%
X36576000Y-58029500D03*
%TO.N,LCD_E*%
X39116000Y-58029500D03*
%TO.N,unconnected-(DS1-D0-Pad7)*%
X41656000Y-58029500D03*
%TO.N,unconnected-(DS1-D1-Pad8)*%
X44196000Y-58029500D03*
%TO.N,unconnected-(DS1-D2-Pad9)*%
X46736000Y-58029500D03*
%TO.N,unconnected-(DS1-D3-Pad10)*%
X49276000Y-58029500D03*
%TO.N,LCD_D4*%
X51816000Y-58029500D03*
%TO.N,LCD_D5*%
X54356000Y-58029500D03*
%TO.N,LCD_D6*%
X56896000Y-58029500D03*
%TO.N,LCD_D7*%
X59436000Y-58029500D03*
%TO.N,+5V*%
X61976000Y-58029500D03*
%TO.N,GND*%
X64516000Y-58029500D03*
%TD*%
D22*
%TO.N,GND*%
X67310000Y-55880000D03*
X36576000Y-59619400D03*
X29959886Y-36387849D03*
X26416000Y-29972000D03*
X66040000Y-43180000D03*
X22860000Y-50800000D03*
X57404000Y-43180000D03*
X30861000Y-51816000D03*
X52705000Y-51435000D03*
X81280000Y-40640000D03*
X83820000Y-55880000D03*
X21590000Y-37338000D03*
X63500000Y-38100000D03*
X32764000Y-38350000D03*
X78740000Y-40640000D03*
X65278000Y-34290000D03*
X63500000Y-25400000D03*
X86360000Y-38100000D03*
X78740000Y-35560000D03*
X63500000Y-45720000D03*
X40640000Y-27940000D03*
X22860000Y-48260000D03*
X25400000Y-28702000D03*
X57404000Y-47244000D03*
X41656000Y-43180000D03*
X93980000Y-45720000D03*
X58420000Y-33020000D03*
X56007000Y-28829000D03*
X30351000Y-32254000D03*
X73279000Y-25781000D03*
X38100000Y-33020000D03*
X70104000Y-58420000D03*
X33020000Y-27940000D03*
X47498000Y-28702000D03*
X20320000Y-45720000D03*
X38100000Y-25400000D03*
X20320000Y-50800000D03*
X66040000Y-25400000D03*
X45720000Y-48768000D03*
X37719000Y-56261000D03*
D23*
X39114946Y-34299628D03*
D22*
X27559000Y-36576000D03*
X86360000Y-35560000D03*
D23*
X27051000Y-35814000D03*
D22*
X86360000Y-33020000D03*
X88900000Y-55880000D03*
X93980000Y-55880000D03*
X50292000Y-51435000D03*
X81280000Y-55880000D03*
X64770000Y-27305000D03*
X38100000Y-27940000D03*
X67310000Y-58420000D03*
X78740000Y-38100000D03*
X40640000Y-25400000D03*
X24763000Y-26412000D03*
X96520000Y-38100000D03*
X81280000Y-38100000D03*
X86360000Y-40640000D03*
X76200000Y-58420000D03*
X20447000Y-31242000D03*
X70104000Y-55880000D03*
X30480000Y-27940000D03*
D23*
X73406000Y-35179000D03*
D22*
X88900000Y-35560000D03*
X86360000Y-58420000D03*
X77343000Y-25400000D03*
X20320000Y-48260000D03*
X45720000Y-27940000D03*
X91440000Y-55880000D03*
X76200000Y-55880000D03*
X67809386Y-41246586D03*
X61658500Y-33083500D03*
D23*
X23495000Y-32131000D03*
D22*
X24130000Y-58039000D03*
X58420000Y-27940000D03*
D23*
X41026531Y-34480500D03*
D22*
X57150000Y-34290000D03*
X63475180Y-28097364D03*
X96520000Y-35560000D03*
X96520000Y-30480000D03*
X43180000Y-27940000D03*
X35560000Y-25400000D03*
X54864000Y-43180000D03*
X88900000Y-33020000D03*
X96520000Y-45720000D03*
X96520000Y-48260000D03*
X22860000Y-45720000D03*
X20320000Y-43180000D03*
X91440000Y-58420000D03*
X33147000Y-44323000D03*
X35560000Y-27940000D03*
X63754000Y-30861000D03*
X26287000Y-31238000D03*
X54610000Y-25400000D03*
X59690000Y-50165000D03*
X42164000Y-50800000D03*
X83820000Y-58420000D03*
X63500000Y-35560000D03*
X20574000Y-37338000D03*
X25400000Y-39878000D03*
X96520000Y-33020000D03*
X47752000Y-51435000D03*
X24384000Y-28702000D03*
D23*
X73406000Y-36703000D03*
D22*
X78740000Y-58420000D03*
X96520000Y-40640000D03*
X62230000Y-43180000D03*
X33020000Y-30480000D03*
X96520000Y-43180000D03*
X43180000Y-25400000D03*
X30861000Y-46482000D03*
X69850000Y-32004000D03*
X45720000Y-43180000D03*
X20320000Y-53340000D03*
X54610000Y-27472403D03*
X50469800Y-53822600D03*
D23*
X36068000Y-38407903D03*
D22*
X57404000Y-45212000D03*
X21590000Y-31242000D03*
X45720000Y-45720000D03*
X86360000Y-55880000D03*
X52070000Y-34290000D03*
X45720000Y-25400000D03*
X69323486Y-39224486D03*
X54864000Y-45212000D03*
D23*
X73406000Y-37996172D03*
D22*
X25779000Y-26412000D03*
X26148236Y-37345764D03*
X30734000Y-54229000D03*
X83820000Y-38100000D03*
X33020000Y-25400000D03*
X67310000Y-32004000D03*
X30480000Y-25400000D03*
X61595000Y-48279800D03*
X68580000Y-25400000D03*
X24384000Y-39878000D03*
X69342000Y-36957000D03*
X90678000Y-25400000D03*
X69342000Y-34671000D03*
D23*
X36576000Y-36449000D03*
D22*
X57785000Y-51435000D03*
X50292000Y-43180000D03*
X50800000Y-26543000D03*
X22860000Y-53340000D03*
X78740000Y-33020000D03*
X88900000Y-38100000D03*
X30480000Y-30480000D03*
X78740000Y-55880000D03*
X35179000Y-54229000D03*
X88900000Y-58420000D03*
X22860000Y-43180000D03*
X83820000Y-40640000D03*
X55245000Y-51435000D03*
X88900000Y-40640000D03*
X81280000Y-58420000D03*
D23*
%TO.N,/CHIP_PU*%
X72136000Y-28194000D03*
X64770000Y-28702000D03*
%TO.N,/GPIO_0*%
X94488000Y-42164000D03*
X54610000Y-26670000D03*
%TO.N,LCD_E*%
X74041000Y-35941000D03*
%TO.N,LCD_RS*%
X74041000Y-34544000D03*
%TO.N,Net-(FB1-Pad2)*%
X24257083Y-32131832D03*
X26289000Y-35814000D03*
%TO.N,LCD_D4*%
X74041000Y-37338000D03*
D22*
%TO.N,ESP_3V3*%
X70739000Y-28067000D03*
D23*
X64262000Y-27940000D03*
%TO.N,/FTDI_UART_RX*%
X91440000Y-29464000D03*
X39121698Y-35052000D03*
%TO.N,DHT11_3_data*%
X68453000Y-39243000D03*
%TO.N,DHT11_2_data*%
X68453000Y-36957000D03*
%TO.N,DHT11_1_data*%
X68344880Y-34671000D03*
%TO.N,DHT11_4_data*%
X68643000Y-41339000D03*
%TO.N,/FDTI_UART_TX*%
X91440000Y-30734000D03*
X36068000Y-37655500D03*
%TD*%
%TA.AperFunction,Conductor*%
%TO.N,GND*%
G36*
X98208539Y-24650185D02*
G01*
X98254294Y-24702989D01*
X98265500Y-24754500D01*
X98265500Y-60589500D01*
X98245815Y-60656539D01*
X98193011Y-60702294D01*
X98141500Y-60713500D01*
X18618500Y-60713500D01*
X18551461Y-60693815D01*
X18505706Y-60641011D01*
X18494500Y-60589500D01*
X18494500Y-58029498D01*
X18911290Y-58029498D01*
X18911290Y-58029501D01*
X18931704Y-58314933D01*
X18992528Y-58594537D01*
X18992530Y-58594543D01*
X18992531Y-58594546D01*
X19053292Y-58757451D01*
X19092535Y-58862666D01*
X19229670Y-59113809D01*
X19229675Y-59113817D01*
X19401154Y-59342887D01*
X19401170Y-59342905D01*
X19603494Y-59545229D01*
X19603512Y-59545245D01*
X19832582Y-59716724D01*
X19832590Y-59716729D01*
X20083733Y-59853864D01*
X20083732Y-59853864D01*
X20083736Y-59853865D01*
X20083739Y-59853867D01*
X20351854Y-59953869D01*
X20351860Y-59953870D01*
X20351862Y-59953871D01*
X20631466Y-60014695D01*
X20631468Y-60014695D01*
X20631472Y-60014696D01*
X20885120Y-60032837D01*
X20916899Y-60035110D01*
X20916900Y-60035110D01*
X20916901Y-60035110D01*
X20945495Y-60033064D01*
X21202328Y-60014696D01*
X21481946Y-59953869D01*
X21750061Y-59853867D01*
X22001215Y-59716726D01*
X22230295Y-59545239D01*
X22432639Y-59342895D01*
X22604126Y-59113815D01*
X22741267Y-58862661D01*
X22841269Y-58594546D01*
X22902096Y-58314928D01*
X22922510Y-58029500D01*
X22902096Y-57744072D01*
X22841269Y-57464454D01*
X22741267Y-57196339D01*
X22684235Y-57091894D01*
X22604129Y-56945190D01*
X22604124Y-56945182D01*
X22432645Y-56716112D01*
X22432629Y-56716094D01*
X22398190Y-56681655D01*
X25016000Y-56681655D01*
X25016000Y-57779500D01*
X25867518Y-57779500D01*
X25856889Y-57797909D01*
X25816000Y-57950509D01*
X25816000Y-58108491D01*
X25856889Y-58261091D01*
X25867518Y-58279500D01*
X25016000Y-58279500D01*
X25016000Y-59377344D01*
X25022401Y-59436872D01*
X25022403Y-59436879D01*
X25072645Y-59571586D01*
X25072649Y-59571593D01*
X25158809Y-59686687D01*
X25158812Y-59686690D01*
X25273906Y-59772850D01*
X25273913Y-59772854D01*
X25408620Y-59823096D01*
X25408627Y-59823098D01*
X25468155Y-59829499D01*
X25468172Y-59829500D01*
X26166000Y-59829500D01*
X26166000Y-58577982D01*
X26184409Y-58588611D01*
X26337009Y-58629500D01*
X26494991Y-58629500D01*
X26647591Y-58588611D01*
X26666000Y-58577982D01*
X26666000Y-59829500D01*
X27363828Y-59829500D01*
X27363844Y-59829499D01*
X27423372Y-59823098D01*
X27423379Y-59823096D01*
X27558086Y-59772854D01*
X27558093Y-59772850D01*
X27673187Y-59686690D01*
X27673190Y-59686687D01*
X27759350Y-59571593D01*
X27759354Y-59571586D01*
X27789213Y-59491531D01*
X27831084Y-59435597D01*
X27896548Y-59411180D01*
X27964821Y-59426031D01*
X27993076Y-59447183D01*
X28043636Y-59497743D01*
X28043641Y-59497747D01*
X28199192Y-59610760D01*
X28221978Y-59627315D01*
X28338501Y-59686687D01*
X28418393Y-59727395D01*
X28418396Y-59727396D01*
X28523221Y-59761455D01*
X28628049Y-59795515D01*
X28845778Y-59830000D01*
X28845779Y-59830000D01*
X29066221Y-59830000D01*
X29066222Y-59830000D01*
X29283951Y-59795515D01*
X29493606Y-59727395D01*
X29690022Y-59627315D01*
X29868365Y-59497742D01*
X30024242Y-59341865D01*
X30034804Y-59327326D01*
X30125682Y-59202245D01*
X30181011Y-59159579D01*
X30250625Y-59153600D01*
X30312420Y-59186205D01*
X30326318Y-59202245D01*
X30427752Y-59341858D01*
X30427756Y-59341863D01*
X30583636Y-59497743D01*
X30583641Y-59497747D01*
X30739192Y-59610760D01*
X30761978Y-59627315D01*
X30878501Y-59686687D01*
X30958393Y-59727395D01*
X30958396Y-59727396D01*
X31063221Y-59761455D01*
X31168049Y-59795515D01*
X31385778Y-59830000D01*
X31385779Y-59830000D01*
X31606221Y-59830000D01*
X31606222Y-59830000D01*
X31823951Y-59795515D01*
X32033606Y-59727395D01*
X32230022Y-59627315D01*
X32408365Y-59497742D01*
X32564242Y-59341865D01*
X32574804Y-59327326D01*
X32665682Y-59202245D01*
X32721011Y-59159579D01*
X32790625Y-59153600D01*
X32852420Y-59186205D01*
X32866318Y-59202245D01*
X32967752Y-59341858D01*
X32967756Y-59341863D01*
X33123636Y-59497743D01*
X33123641Y-59497747D01*
X33279192Y-59610760D01*
X33301978Y-59627315D01*
X33418501Y-59686687D01*
X33498393Y-59727395D01*
X33498396Y-59727396D01*
X33603221Y-59761455D01*
X33708049Y-59795515D01*
X33925778Y-59830000D01*
X33925779Y-59830000D01*
X34146221Y-59830000D01*
X34146222Y-59830000D01*
X34363951Y-59795515D01*
X34573606Y-59727395D01*
X34770022Y-59627315D01*
X34948365Y-59497742D01*
X35104242Y-59341865D01*
X35205991Y-59201817D01*
X35261320Y-59159153D01*
X35330933Y-59153174D01*
X35392729Y-59185779D01*
X35406627Y-59201818D01*
X35508142Y-59341541D01*
X35663958Y-59497357D01*
X35842239Y-59626886D01*
X36038589Y-59726932D01*
X36248163Y-59795026D01*
X36325999Y-59807354D01*
X36326000Y-59807354D01*
X36326000Y-58577982D01*
X36344409Y-58588611D01*
X36497009Y-58629500D01*
X36654991Y-58629500D01*
X36807591Y-58588611D01*
X36826000Y-58577982D01*
X36826000Y-59807354D01*
X36903834Y-59795026D01*
X36903837Y-59795026D01*
X37113410Y-59726932D01*
X37309760Y-59626886D01*
X37488041Y-59497357D01*
X37643857Y-59341541D01*
X37643862Y-59341535D01*
X37745372Y-59201819D01*
X37800702Y-59159153D01*
X37870315Y-59153174D01*
X37932110Y-59185779D01*
X37946008Y-59201819D01*
X38047752Y-59341858D01*
X38047756Y-59341863D01*
X38203636Y-59497743D01*
X38203641Y-59497747D01*
X38359192Y-59610760D01*
X38381978Y-59627315D01*
X38498501Y-59686687D01*
X38578393Y-59727395D01*
X38578396Y-59727396D01*
X38683221Y-59761455D01*
X38788049Y-59795515D01*
X39005778Y-59830000D01*
X39005779Y-59830000D01*
X39226221Y-59830000D01*
X39226222Y-59830000D01*
X39443951Y-59795515D01*
X39653606Y-59727395D01*
X39850022Y-59627315D01*
X40028365Y-59497742D01*
X40184242Y-59341865D01*
X40194804Y-59327326D01*
X40285682Y-59202245D01*
X40341011Y-59159579D01*
X40410625Y-59153600D01*
X40472420Y-59186205D01*
X40486318Y-59202245D01*
X40587752Y-59341858D01*
X40587756Y-59341863D01*
X40743636Y-59497743D01*
X40743641Y-59497747D01*
X40899192Y-59610760D01*
X40921978Y-59627315D01*
X41038501Y-59686687D01*
X41118393Y-59727395D01*
X41118396Y-59727396D01*
X41223221Y-59761455D01*
X41328049Y-59795515D01*
X41545778Y-59830000D01*
X41545779Y-59830000D01*
X41766221Y-59830000D01*
X41766222Y-59830000D01*
X41983951Y-59795515D01*
X42193606Y-59727395D01*
X42390022Y-59627315D01*
X42568365Y-59497742D01*
X42724242Y-59341865D01*
X42734804Y-59327326D01*
X42825682Y-59202245D01*
X42881011Y-59159579D01*
X42950625Y-59153600D01*
X43012420Y-59186205D01*
X43026318Y-59202245D01*
X43127752Y-59341858D01*
X43127756Y-59341863D01*
X43283636Y-59497743D01*
X43283641Y-59497747D01*
X43439192Y-59610760D01*
X43461978Y-59627315D01*
X43578501Y-59686687D01*
X43658393Y-59727395D01*
X43658396Y-59727396D01*
X43763221Y-59761455D01*
X43868049Y-59795515D01*
X44085778Y-59830000D01*
X44085779Y-59830000D01*
X44306221Y-59830000D01*
X44306222Y-59830000D01*
X44523951Y-59795515D01*
X44733606Y-59727395D01*
X44930022Y-59627315D01*
X45108365Y-59497742D01*
X45264242Y-59341865D01*
X45274804Y-59327326D01*
X45365682Y-59202245D01*
X45421011Y-59159579D01*
X45490625Y-59153600D01*
X45552420Y-59186205D01*
X45566318Y-59202245D01*
X45667752Y-59341858D01*
X45667756Y-59341863D01*
X45823636Y-59497743D01*
X45823641Y-59497747D01*
X45979192Y-59610760D01*
X46001978Y-59627315D01*
X46118501Y-59686687D01*
X46198393Y-59727395D01*
X46198396Y-59727396D01*
X46303221Y-59761455D01*
X46408049Y-59795515D01*
X46625778Y-59830000D01*
X46625779Y-59830000D01*
X46846221Y-59830000D01*
X46846222Y-59830000D01*
X47063951Y-59795515D01*
X47273606Y-59727395D01*
X47470022Y-59627315D01*
X47648365Y-59497742D01*
X47804242Y-59341865D01*
X47814804Y-59327326D01*
X47905682Y-59202245D01*
X47961011Y-59159579D01*
X48030625Y-59153600D01*
X48092420Y-59186205D01*
X48106318Y-59202245D01*
X48207752Y-59341858D01*
X48207756Y-59341863D01*
X48363636Y-59497743D01*
X48363641Y-59497747D01*
X48519192Y-59610760D01*
X48541978Y-59627315D01*
X48658501Y-59686687D01*
X48738393Y-59727395D01*
X48738396Y-59727396D01*
X48843221Y-59761455D01*
X48948049Y-59795515D01*
X49165778Y-59830000D01*
X49165779Y-59830000D01*
X49386221Y-59830000D01*
X49386222Y-59830000D01*
X49603951Y-59795515D01*
X49813606Y-59727395D01*
X50010022Y-59627315D01*
X50188365Y-59497742D01*
X50344242Y-59341865D01*
X50354804Y-59327326D01*
X50445682Y-59202245D01*
X50501011Y-59159579D01*
X50570625Y-59153600D01*
X50632420Y-59186205D01*
X50646318Y-59202245D01*
X50747752Y-59341858D01*
X50747756Y-59341863D01*
X50903636Y-59497743D01*
X50903641Y-59497747D01*
X51059192Y-59610760D01*
X51081978Y-59627315D01*
X51198501Y-59686687D01*
X51278393Y-59727395D01*
X51278396Y-59727396D01*
X51383221Y-59761455D01*
X51488049Y-59795515D01*
X51705778Y-59830000D01*
X51705779Y-59830000D01*
X51926221Y-59830000D01*
X51926222Y-59830000D01*
X52143951Y-59795515D01*
X52353606Y-59727395D01*
X52550022Y-59627315D01*
X52728365Y-59497742D01*
X52884242Y-59341865D01*
X52894804Y-59327326D01*
X52985682Y-59202245D01*
X53041011Y-59159579D01*
X53110625Y-59153600D01*
X53172420Y-59186205D01*
X53186318Y-59202245D01*
X53287752Y-59341858D01*
X53287756Y-59341863D01*
X53443636Y-59497743D01*
X53443641Y-59497747D01*
X53599192Y-59610760D01*
X53621978Y-59627315D01*
X53738501Y-59686687D01*
X53818393Y-59727395D01*
X53818396Y-59727396D01*
X53923221Y-59761455D01*
X54028049Y-59795515D01*
X54245778Y-59830000D01*
X54245779Y-59830000D01*
X54466221Y-59830000D01*
X54466222Y-59830000D01*
X54683951Y-59795515D01*
X54893606Y-59727395D01*
X55090022Y-59627315D01*
X55268365Y-59497742D01*
X55424242Y-59341865D01*
X55434804Y-59327326D01*
X55525682Y-59202245D01*
X55581011Y-59159579D01*
X55650625Y-59153600D01*
X55712420Y-59186205D01*
X55726318Y-59202245D01*
X55827752Y-59341858D01*
X55827756Y-59341863D01*
X55983636Y-59497743D01*
X55983641Y-59497747D01*
X56139192Y-59610760D01*
X56161978Y-59627315D01*
X56278501Y-59686687D01*
X56358393Y-59727395D01*
X56358396Y-59727396D01*
X56463221Y-59761455D01*
X56568049Y-59795515D01*
X56785778Y-59830000D01*
X56785779Y-59830000D01*
X57006221Y-59830000D01*
X57006222Y-59830000D01*
X57223951Y-59795515D01*
X57433606Y-59727395D01*
X57630022Y-59627315D01*
X57808365Y-59497742D01*
X57964242Y-59341865D01*
X57974804Y-59327326D01*
X58065682Y-59202245D01*
X58121011Y-59159579D01*
X58190625Y-59153600D01*
X58252420Y-59186205D01*
X58266318Y-59202245D01*
X58367752Y-59341858D01*
X58367756Y-59341863D01*
X58523636Y-59497743D01*
X58523641Y-59497747D01*
X58679192Y-59610760D01*
X58701978Y-59627315D01*
X58818501Y-59686687D01*
X58898393Y-59727395D01*
X58898396Y-59727396D01*
X59003221Y-59761455D01*
X59108049Y-59795515D01*
X59325778Y-59830000D01*
X59325779Y-59830000D01*
X59546221Y-59830000D01*
X59546222Y-59830000D01*
X59763951Y-59795515D01*
X59973606Y-59727395D01*
X60170022Y-59627315D01*
X60348365Y-59497742D01*
X60504242Y-59341865D01*
X60514804Y-59327326D01*
X60605682Y-59202245D01*
X60661011Y-59159579D01*
X60730625Y-59153600D01*
X60792420Y-59186205D01*
X60806318Y-59202245D01*
X60907752Y-59341858D01*
X60907756Y-59341863D01*
X61063636Y-59497743D01*
X61063641Y-59497747D01*
X61219192Y-59610760D01*
X61241978Y-59627315D01*
X61358501Y-59686687D01*
X61438393Y-59727395D01*
X61438396Y-59727396D01*
X61543221Y-59761455D01*
X61648049Y-59795515D01*
X61865778Y-59830000D01*
X61865779Y-59830000D01*
X62086221Y-59830000D01*
X62086222Y-59830000D01*
X62303951Y-59795515D01*
X62513606Y-59727395D01*
X62710022Y-59627315D01*
X62888365Y-59497742D01*
X63044242Y-59341865D01*
X63145991Y-59201817D01*
X63201320Y-59159153D01*
X63270933Y-59153174D01*
X63332729Y-59185779D01*
X63346627Y-59201818D01*
X63448142Y-59341541D01*
X63603958Y-59497357D01*
X63782239Y-59626886D01*
X63978589Y-59726932D01*
X64188163Y-59795026D01*
X64265999Y-59807354D01*
X64266000Y-59807354D01*
X64266000Y-58577982D01*
X64284409Y-58588611D01*
X64437009Y-58629500D01*
X64594991Y-58629500D01*
X64747591Y-58588611D01*
X64766000Y-58577982D01*
X64766000Y-59807354D01*
X64843834Y-59795026D01*
X64843837Y-59795026D01*
X65053410Y-59726932D01*
X65249760Y-59626886D01*
X65428041Y-59497357D01*
X65583857Y-59341541D01*
X65713386Y-59163260D01*
X65813432Y-58966910D01*
X65881526Y-58757335D01*
X65916000Y-58539681D01*
X65916000Y-58279500D01*
X65064482Y-58279500D01*
X65075111Y-58261091D01*
X65116000Y-58108491D01*
X65116000Y-58029498D01*
X93910390Y-58029498D01*
X93910390Y-58029501D01*
X93930804Y-58314933D01*
X93991628Y-58594537D01*
X93991630Y-58594543D01*
X93991631Y-58594546D01*
X94052392Y-58757451D01*
X94091635Y-58862666D01*
X94228770Y-59113809D01*
X94228775Y-59113817D01*
X94400254Y-59342887D01*
X94400270Y-59342905D01*
X94602594Y-59545229D01*
X94602612Y-59545245D01*
X94831682Y-59716724D01*
X94831690Y-59716729D01*
X95082833Y-59853864D01*
X95082832Y-59853864D01*
X95082836Y-59853865D01*
X95082839Y-59853867D01*
X95350954Y-59953869D01*
X95350960Y-59953870D01*
X95350962Y-59953871D01*
X95630566Y-60014695D01*
X95630568Y-60014695D01*
X95630572Y-60014696D01*
X95884220Y-60032837D01*
X95915999Y-60035110D01*
X95916000Y-60035110D01*
X95916001Y-60035110D01*
X95944595Y-60033064D01*
X96201428Y-60014696D01*
X96481046Y-59953869D01*
X96749161Y-59853867D01*
X97000315Y-59716726D01*
X97229395Y-59545239D01*
X97431739Y-59342895D01*
X97603226Y-59113815D01*
X97740367Y-58862661D01*
X97840369Y-58594546D01*
X97901196Y-58314928D01*
X97921610Y-58029500D01*
X97901196Y-57744072D01*
X97840369Y-57464454D01*
X97740367Y-57196339D01*
X97683335Y-57091894D01*
X97603229Y-56945190D01*
X97603224Y-56945182D01*
X97431745Y-56716112D01*
X97431729Y-56716094D01*
X97229405Y-56513770D01*
X97229387Y-56513754D01*
X97000317Y-56342275D01*
X97000309Y-56342270D01*
X96749166Y-56205135D01*
X96749167Y-56205135D01*
X96641915Y-56165132D01*
X96481046Y-56105131D01*
X96481043Y-56105130D01*
X96481037Y-56105128D01*
X96201433Y-56044304D01*
X95916001Y-56023890D01*
X95915999Y-56023890D01*
X95630566Y-56044304D01*
X95350962Y-56105128D01*
X95082833Y-56205135D01*
X94831690Y-56342270D01*
X94831682Y-56342275D01*
X94602612Y-56513754D01*
X94602594Y-56513770D01*
X94400270Y-56716094D01*
X94400254Y-56716112D01*
X94228775Y-56945182D01*
X94228770Y-56945190D01*
X94091635Y-57196333D01*
X93991628Y-57464462D01*
X93930804Y-57744066D01*
X93910390Y-58029498D01*
X65116000Y-58029498D01*
X65116000Y-57950509D01*
X65075111Y-57797909D01*
X65064482Y-57779500D01*
X65916000Y-57779500D01*
X65916000Y-57519318D01*
X65881526Y-57301664D01*
X65813432Y-57092089D01*
X65713386Y-56895739D01*
X65583857Y-56717458D01*
X65428041Y-56561642D01*
X65249760Y-56432113D01*
X65053410Y-56332067D01*
X64843836Y-56263973D01*
X64766000Y-56251644D01*
X64766000Y-57481017D01*
X64747591Y-57470389D01*
X64594991Y-57429500D01*
X64437009Y-57429500D01*
X64284409Y-57470389D01*
X64266000Y-57481017D01*
X64266000Y-56251644D01*
X64188164Y-56263973D01*
X64188161Y-56263973D01*
X63978589Y-56332067D01*
X63782239Y-56432113D01*
X63603958Y-56561642D01*
X63448142Y-56717458D01*
X63448142Y-56717459D01*
X63346627Y-56857181D01*
X63291297Y-56899846D01*
X63221683Y-56905825D01*
X63159888Y-56873219D01*
X63145991Y-56857180D01*
X63044247Y-56717141D01*
X63044243Y-56717136D01*
X62888363Y-56561256D01*
X62888358Y-56561252D01*
X62710025Y-56431687D01*
X62710024Y-56431686D01*
X62710022Y-56431685D01*
X62647096Y-56399622D01*
X62513606Y-56331604D01*
X62513603Y-56331603D01*
X62303952Y-56263485D01*
X62195086Y-56246242D01*
X62086222Y-56229000D01*
X61865778Y-56229000D01*
X61793201Y-56240495D01*
X61648047Y-56263485D01*
X61438396Y-56331603D01*
X61438393Y-56331604D01*
X61241974Y-56431687D01*
X61063641Y-56561252D01*
X61063636Y-56561256D01*
X60907756Y-56717136D01*
X60907752Y-56717141D01*
X60806318Y-56856754D01*
X60750988Y-56899420D01*
X60681375Y-56905399D01*
X60619580Y-56872793D01*
X60605682Y-56856754D01*
X60504247Y-56717141D01*
X60504243Y-56717136D01*
X60348363Y-56561256D01*
X60348358Y-56561252D01*
X60170025Y-56431687D01*
X60170024Y-56431686D01*
X60170022Y-56431685D01*
X60107096Y-56399622D01*
X59973606Y-56331604D01*
X59973603Y-56331603D01*
X59763952Y-56263485D01*
X59655086Y-56246242D01*
X59546222Y-56229000D01*
X59325778Y-56229000D01*
X59253201Y-56240495D01*
X59108047Y-56263485D01*
X58898396Y-56331603D01*
X58898393Y-56331604D01*
X58701974Y-56431687D01*
X58523641Y-56561252D01*
X58523636Y-56561256D01*
X58367756Y-56717136D01*
X58367752Y-56717141D01*
X58266318Y-56856754D01*
X58210988Y-56899420D01*
X58141375Y-56905399D01*
X58079580Y-56872793D01*
X58065682Y-56856754D01*
X57964247Y-56717141D01*
X57964243Y-56717136D01*
X57808363Y-56561256D01*
X57808358Y-56561252D01*
X57630025Y-56431687D01*
X57630024Y-56431686D01*
X57630022Y-56431685D01*
X57567096Y-56399622D01*
X57433606Y-56331604D01*
X57433603Y-56331603D01*
X57223952Y-56263485D01*
X57115086Y-56246242D01*
X57006222Y-56229000D01*
X56785778Y-56229000D01*
X56713201Y-56240495D01*
X56568047Y-56263485D01*
X56358396Y-56331603D01*
X56358393Y-56331604D01*
X56161974Y-56431687D01*
X55983641Y-56561252D01*
X55983636Y-56561256D01*
X55827756Y-56717136D01*
X55827752Y-56717141D01*
X55726318Y-56856754D01*
X55670988Y-56899420D01*
X55601375Y-56905399D01*
X55539580Y-56872793D01*
X55525682Y-56856754D01*
X55424247Y-56717141D01*
X55424243Y-56717136D01*
X55268363Y-56561256D01*
X55268358Y-56561252D01*
X55090025Y-56431687D01*
X55090024Y-56431686D01*
X55090022Y-56431685D01*
X55027096Y-56399622D01*
X54893606Y-56331604D01*
X54893603Y-56331603D01*
X54683952Y-56263485D01*
X54575086Y-56246242D01*
X54466222Y-56229000D01*
X54245778Y-56229000D01*
X54173201Y-56240495D01*
X54028047Y-56263485D01*
X53818396Y-56331603D01*
X53818393Y-56331604D01*
X53621974Y-56431687D01*
X53443641Y-56561252D01*
X53443636Y-56561256D01*
X53287756Y-56717136D01*
X53287752Y-56717141D01*
X53186318Y-56856754D01*
X53130988Y-56899420D01*
X53061375Y-56905399D01*
X52999580Y-56872793D01*
X52985682Y-56856754D01*
X52884247Y-56717141D01*
X52884243Y-56717136D01*
X52728363Y-56561256D01*
X52728358Y-56561252D01*
X52550025Y-56431687D01*
X52550024Y-56431686D01*
X52550022Y-56431685D01*
X52487096Y-56399622D01*
X52353606Y-56331604D01*
X52353603Y-56331603D01*
X52143952Y-56263485D01*
X52035086Y-56246242D01*
X51926222Y-56229000D01*
X51705778Y-56229000D01*
X51633201Y-56240495D01*
X51488047Y-56263485D01*
X51278396Y-56331603D01*
X51278393Y-56331604D01*
X51081974Y-56431687D01*
X50903641Y-56561252D01*
X50903636Y-56561256D01*
X50747756Y-56717136D01*
X50747752Y-56717141D01*
X50646318Y-56856754D01*
X50590988Y-56899420D01*
X50521375Y-56905399D01*
X50459580Y-56872793D01*
X50445682Y-56856754D01*
X50344247Y-56717141D01*
X50344243Y-56717136D01*
X50188363Y-56561256D01*
X50188358Y-56561252D01*
X50010025Y-56431687D01*
X50010024Y-56431686D01*
X50010022Y-56431685D01*
X49947096Y-56399622D01*
X49813606Y-56331604D01*
X49813603Y-56331603D01*
X49603952Y-56263485D01*
X49495086Y-56246242D01*
X49386222Y-56229000D01*
X49165778Y-56229000D01*
X49093201Y-56240495D01*
X48948047Y-56263485D01*
X48738396Y-56331603D01*
X48738393Y-56331604D01*
X48541974Y-56431687D01*
X48363641Y-56561252D01*
X48363636Y-56561256D01*
X48207756Y-56717136D01*
X48207752Y-56717141D01*
X48106318Y-56856754D01*
X48050988Y-56899420D01*
X47981375Y-56905399D01*
X47919580Y-56872793D01*
X47905682Y-56856754D01*
X47804247Y-56717141D01*
X47804243Y-56717136D01*
X47648363Y-56561256D01*
X47648358Y-56561252D01*
X47470025Y-56431687D01*
X47470024Y-56431686D01*
X47470022Y-56431685D01*
X47407096Y-56399622D01*
X47273606Y-56331604D01*
X47273603Y-56331603D01*
X47063952Y-56263485D01*
X46955086Y-56246242D01*
X46846222Y-56229000D01*
X46625778Y-56229000D01*
X46553201Y-56240495D01*
X46408047Y-56263485D01*
X46198396Y-56331603D01*
X46198393Y-56331604D01*
X46001974Y-56431687D01*
X45823641Y-56561252D01*
X45823636Y-56561256D01*
X45667756Y-56717136D01*
X45667752Y-56717141D01*
X45566318Y-56856754D01*
X45510988Y-56899420D01*
X45441375Y-56905399D01*
X45379580Y-56872793D01*
X45365682Y-56856754D01*
X45264247Y-56717141D01*
X45264243Y-56717136D01*
X45108363Y-56561256D01*
X45108358Y-56561252D01*
X44930025Y-56431687D01*
X44930024Y-56431686D01*
X44930022Y-56431685D01*
X44867096Y-56399622D01*
X44733606Y-56331604D01*
X44733603Y-56331603D01*
X44523952Y-56263485D01*
X44415086Y-56246242D01*
X44306222Y-56229000D01*
X44085778Y-56229000D01*
X44013201Y-56240495D01*
X43868047Y-56263485D01*
X43658396Y-56331603D01*
X43658393Y-56331604D01*
X43461974Y-56431687D01*
X43283641Y-56561252D01*
X43283636Y-56561256D01*
X43127756Y-56717136D01*
X43127752Y-56717141D01*
X43026318Y-56856754D01*
X42970988Y-56899420D01*
X42901375Y-56905399D01*
X42839580Y-56872793D01*
X42825682Y-56856754D01*
X42724247Y-56717141D01*
X42724243Y-56717136D01*
X42568363Y-56561256D01*
X42568358Y-56561252D01*
X42390025Y-56431687D01*
X42390024Y-56431686D01*
X42390022Y-56431685D01*
X42327096Y-56399622D01*
X42193606Y-56331604D01*
X42193603Y-56331603D01*
X41983952Y-56263485D01*
X41875086Y-56246242D01*
X41766222Y-56229000D01*
X41545778Y-56229000D01*
X41473201Y-56240495D01*
X41328047Y-56263485D01*
X41118396Y-56331603D01*
X41118393Y-56331604D01*
X40921974Y-56431687D01*
X40743641Y-56561252D01*
X40743636Y-56561256D01*
X40587756Y-56717136D01*
X40587752Y-56717141D01*
X40486318Y-56856754D01*
X40430988Y-56899420D01*
X40361375Y-56905399D01*
X40299580Y-56872793D01*
X40285682Y-56856754D01*
X40184247Y-56717141D01*
X40184243Y-56717136D01*
X40028363Y-56561256D01*
X40028358Y-56561252D01*
X39850025Y-56431687D01*
X39850024Y-56431686D01*
X39850022Y-56431685D01*
X39787096Y-56399622D01*
X39653606Y-56331604D01*
X39653603Y-56331603D01*
X39443952Y-56263485D01*
X39335086Y-56246242D01*
X39226222Y-56229000D01*
X39005778Y-56229000D01*
X38933201Y-56240495D01*
X38788047Y-56263485D01*
X38578396Y-56331603D01*
X38578393Y-56331604D01*
X38381974Y-56431687D01*
X38203641Y-56561252D01*
X38203636Y-56561256D01*
X38047756Y-56717136D01*
X37946008Y-56857181D01*
X37890678Y-56899846D01*
X37821065Y-56905825D01*
X37759270Y-56873219D01*
X37745372Y-56857180D01*
X37643862Y-56717464D01*
X37643857Y-56717458D01*
X37488041Y-56561642D01*
X37309760Y-56432113D01*
X37113410Y-56332067D01*
X36903836Y-56263973D01*
X36826000Y-56251644D01*
X36826000Y-57481017D01*
X36807591Y-57470389D01*
X36654991Y-57429500D01*
X36497009Y-57429500D01*
X36344409Y-57470389D01*
X36326000Y-57481017D01*
X36326000Y-56251644D01*
X36248164Y-56263973D01*
X36248161Y-56263973D01*
X36038589Y-56332067D01*
X35842239Y-56432113D01*
X35663958Y-56561642D01*
X35508142Y-56717458D01*
X35508142Y-56717459D01*
X35406627Y-56857181D01*
X35351297Y-56899846D01*
X35281683Y-56905825D01*
X35219888Y-56873219D01*
X35205991Y-56857180D01*
X35104247Y-56717141D01*
X35104243Y-56717136D01*
X34948363Y-56561256D01*
X34948358Y-56561252D01*
X34770025Y-56431687D01*
X34770024Y-56431686D01*
X34770022Y-56431685D01*
X34707096Y-56399622D01*
X34573606Y-56331604D01*
X34573603Y-56331603D01*
X34363952Y-56263485D01*
X34255086Y-56246242D01*
X34146222Y-56229000D01*
X33925778Y-56229000D01*
X33853201Y-56240495D01*
X33708047Y-56263485D01*
X33498396Y-56331603D01*
X33498393Y-56331604D01*
X33301974Y-56431687D01*
X33123641Y-56561252D01*
X33123636Y-56561256D01*
X32967756Y-56717136D01*
X32967752Y-56717141D01*
X32866318Y-56856754D01*
X32810988Y-56899420D01*
X32741375Y-56905399D01*
X32679580Y-56872793D01*
X32665682Y-56856754D01*
X32564247Y-56717141D01*
X32564243Y-56717136D01*
X32408363Y-56561256D01*
X32408358Y-56561252D01*
X32230025Y-56431687D01*
X32230024Y-56431686D01*
X32230022Y-56431685D01*
X32167096Y-56399622D01*
X32033606Y-56331604D01*
X32033603Y-56331603D01*
X31823952Y-56263485D01*
X31715086Y-56246242D01*
X31606222Y-56229000D01*
X31385778Y-56229000D01*
X31313201Y-56240495D01*
X31168047Y-56263485D01*
X30958396Y-56331603D01*
X30958393Y-56331604D01*
X30761974Y-56431687D01*
X30583641Y-56561252D01*
X30583636Y-56561256D01*
X30427756Y-56717136D01*
X30427752Y-56717141D01*
X30326318Y-56856754D01*
X30270988Y-56899420D01*
X30201375Y-56905399D01*
X30139580Y-56872793D01*
X30125682Y-56856754D01*
X30024247Y-56717141D01*
X30024243Y-56717136D01*
X29868363Y-56561256D01*
X29868358Y-56561252D01*
X29690025Y-56431687D01*
X29690024Y-56431686D01*
X29690022Y-56431685D01*
X29627096Y-56399622D01*
X29493606Y-56331604D01*
X29493603Y-56331603D01*
X29283952Y-56263485D01*
X29175086Y-56246242D01*
X29066222Y-56229000D01*
X28845778Y-56229000D01*
X28773201Y-56240495D01*
X28628047Y-56263485D01*
X28418396Y-56331603D01*
X28418393Y-56331604D01*
X28221974Y-56431687D01*
X28043641Y-56561252D01*
X28043636Y-56561256D01*
X27993075Y-56611817D01*
X27931752Y-56645301D01*
X27862060Y-56640316D01*
X27806127Y-56598445D01*
X27789213Y-56567468D01*
X27759354Y-56487413D01*
X27759350Y-56487406D01*
X27673190Y-56372312D01*
X27673187Y-56372309D01*
X27558093Y-56286149D01*
X27558086Y-56286145D01*
X27423379Y-56235903D01*
X27423372Y-56235901D01*
X27363844Y-56229500D01*
X26666000Y-56229500D01*
X26666000Y-57481017D01*
X26647591Y-57470389D01*
X26494991Y-57429500D01*
X26337009Y-57429500D01*
X26184409Y-57470389D01*
X26166000Y-57481017D01*
X26166000Y-56229500D01*
X25468155Y-56229500D01*
X25408627Y-56235901D01*
X25408620Y-56235903D01*
X25273913Y-56286145D01*
X25273906Y-56286149D01*
X25158812Y-56372309D01*
X25158809Y-56372312D01*
X25072649Y-56487406D01*
X25072645Y-56487413D01*
X25022403Y-56622120D01*
X25022401Y-56622127D01*
X25016000Y-56681655D01*
X22398190Y-56681655D01*
X22230305Y-56513770D01*
X22230287Y-56513754D01*
X22001217Y-56342275D01*
X22001209Y-56342270D01*
X21750066Y-56205135D01*
X21750067Y-56205135D01*
X21642815Y-56165132D01*
X21481946Y-56105131D01*
X21481943Y-56105130D01*
X21481937Y-56105128D01*
X21202333Y-56044304D01*
X20916901Y-56023890D01*
X20916899Y-56023890D01*
X20631466Y-56044304D01*
X20351862Y-56105128D01*
X20083733Y-56205135D01*
X19832590Y-56342270D01*
X19832582Y-56342275D01*
X19603512Y-56513754D01*
X19603494Y-56513770D01*
X19401170Y-56716094D01*
X19401154Y-56716112D01*
X19229675Y-56945182D01*
X19229670Y-56945190D01*
X19092535Y-57196333D01*
X18992528Y-57464462D01*
X18931704Y-57744066D01*
X18911290Y-58029498D01*
X18494500Y-58029498D01*
X18494500Y-54255616D01*
X23584500Y-54255616D01*
X23584500Y-54456384D01*
X23601361Y-54562839D01*
X23615907Y-54654680D01*
X23677949Y-54845626D01*
X23733348Y-54954351D01*
X23769095Y-55024508D01*
X23887103Y-55186932D01*
X24029068Y-55328897D01*
X24191492Y-55446905D01*
X24276007Y-55489967D01*
X24370373Y-55538050D01*
X24370375Y-55538050D01*
X24370378Y-55538052D01*
X24561320Y-55600093D01*
X24759616Y-55631500D01*
X24759617Y-55631500D01*
X24960383Y-55631500D01*
X24960384Y-55631500D01*
X25158680Y-55600093D01*
X25349622Y-55538052D01*
X25528508Y-55446905D01*
X25690932Y-55328897D01*
X25832897Y-55186932D01*
X25950905Y-55024508D01*
X26042052Y-54845622D01*
X26104093Y-54654680D01*
X26135500Y-54456384D01*
X26135500Y-54255616D01*
X26104093Y-54057320D01*
X26042052Y-53866378D01*
X26042050Y-53866375D01*
X26042050Y-53866373D01*
X25963384Y-53711984D01*
X25950905Y-53687492D01*
X25832897Y-53525068D01*
X25690932Y-53383103D01*
X25528508Y-53265095D01*
X25349626Y-53173949D01*
X25158680Y-53111907D01*
X24960384Y-53080500D01*
X24759616Y-53080500D01*
X24660468Y-53096203D01*
X24561319Y-53111907D01*
X24370373Y-53173949D01*
X24191491Y-53265095D01*
X24098822Y-53332423D01*
X24029068Y-53383103D01*
X24029066Y-53383105D01*
X24029065Y-53383105D01*
X23887105Y-53525065D01*
X23887105Y-53525066D01*
X23887103Y-53525068D01*
X23860997Y-53561000D01*
X23769095Y-53687491D01*
X23677949Y-53866373D01*
X23615907Y-54057319D01*
X23606922Y-54114046D01*
X23584500Y-54255616D01*
X18494500Y-54255616D01*
X18494500Y-46735998D01*
X28105804Y-46735998D01*
X28105804Y-46736001D01*
X28124553Y-46950310D01*
X28124555Y-46950321D01*
X28180232Y-47158112D01*
X28180234Y-47158116D01*
X28180235Y-47158120D01*
X28205673Y-47212672D01*
X28271155Y-47353098D01*
X28271157Y-47353102D01*
X28394551Y-47529327D01*
X28546672Y-47681448D01*
X28722897Y-47804842D01*
X28722899Y-47804843D01*
X28722902Y-47804845D01*
X28913276Y-47893618D01*
X28965715Y-47939790D01*
X28984867Y-48006984D01*
X28964651Y-48073865D01*
X28913276Y-48118382D01*
X28722901Y-48207155D01*
X28722897Y-48207157D01*
X28546672Y-48330551D01*
X28394551Y-48482672D01*
X28271157Y-48658897D01*
X28271155Y-48658901D01*
X28180236Y-48853878D01*
X28180232Y-48853887D01*
X28124555Y-49061678D01*
X28124553Y-49061689D01*
X28105804Y-49275998D01*
X28105804Y-49276001D01*
X28124553Y-49490310D01*
X28124555Y-49490321D01*
X28180232Y-49698112D01*
X28180234Y-49698116D01*
X28180235Y-49698120D01*
X28205673Y-49752672D01*
X28271155Y-49893098D01*
X28271157Y-49893102D01*
X28394551Y-50069327D01*
X28546672Y-50221448D01*
X28722897Y-50344842D01*
X28722899Y-50344843D01*
X28722902Y-50344845D01*
X28913276Y-50433618D01*
X28965715Y-50479790D01*
X28984867Y-50546984D01*
X28964651Y-50613865D01*
X28913276Y-50658382D01*
X28722901Y-50747155D01*
X28722897Y-50747157D01*
X28546672Y-50870551D01*
X28394551Y-51022672D01*
X28271157Y-51198897D01*
X28271155Y-51198901D01*
X28180236Y-51393878D01*
X28180232Y-51393887D01*
X28124555Y-51601678D01*
X28124553Y-51601689D01*
X28105804Y-51815998D01*
X28105804Y-51816001D01*
X28124553Y-52030310D01*
X28124555Y-52030321D01*
X28180232Y-52238112D01*
X28180234Y-52238116D01*
X28180235Y-52238120D01*
X28271155Y-52433098D01*
X28271157Y-52433102D01*
X28394551Y-52609327D01*
X28546672Y-52761448D01*
X28722897Y-52884842D01*
X28722899Y-52884843D01*
X28722902Y-52884845D01*
X28917880Y-52975765D01*
X29125684Y-53031446D01*
X29278766Y-53044838D01*
X29339998Y-53050196D01*
X29340000Y-53050196D01*
X29340002Y-53050196D01*
X29393579Y-53045508D01*
X29554316Y-53031446D01*
X29762120Y-52975765D01*
X29957098Y-52884845D01*
X30133326Y-52761449D01*
X30285449Y-52609326D01*
X30408845Y-52433098D01*
X30499765Y-52238120D01*
X30555446Y-52030316D01*
X30574196Y-51816000D01*
X30555446Y-51601684D01*
X30499765Y-51393880D01*
X30408845Y-51198902D01*
X30408843Y-51198899D01*
X30408842Y-51198897D01*
X30285448Y-51022672D01*
X30133327Y-50870551D01*
X29957102Y-50747157D01*
X29957098Y-50747155D01*
X29766721Y-50658380D01*
X29714284Y-50612210D01*
X29695132Y-50545016D01*
X29715348Y-50478135D01*
X29766721Y-50433619D01*
X29957098Y-50344845D01*
X30133326Y-50221449D01*
X30285449Y-50069326D01*
X30408845Y-49893098D01*
X30499765Y-49698120D01*
X30555446Y-49490316D01*
X30574196Y-49276000D01*
X30573064Y-49263066D01*
X30556597Y-49074842D01*
X30555446Y-49061684D01*
X30499765Y-48853880D01*
X30408845Y-48658902D01*
X30408843Y-48658899D01*
X30408842Y-48658897D01*
X30285448Y-48482672D01*
X30133327Y-48330551D01*
X29957102Y-48207157D01*
X29957098Y-48207155D01*
X29766721Y-48118380D01*
X29714284Y-48072210D01*
X29695132Y-48005016D01*
X29715348Y-47938135D01*
X29766721Y-47893619D01*
X29957098Y-47804845D01*
X30133326Y-47681449D01*
X30285449Y-47529326D01*
X30408845Y-47353098D01*
X30499765Y-47158120D01*
X30555446Y-46950316D01*
X30574196Y-46736000D01*
X30555446Y-46521684D01*
X30499765Y-46313880D01*
X30408845Y-46118902D01*
X30408843Y-46118899D01*
X30408842Y-46118897D01*
X30285448Y-45942672D01*
X30133327Y-45790551D01*
X29957102Y-45667157D01*
X29957094Y-45667153D01*
X29945788Y-45661881D01*
X29893348Y-45615709D01*
X29874196Y-45548516D01*
X29894411Y-45481635D01*
X29947576Y-45436300D01*
X29998191Y-45425499D01*
X30116872Y-45425499D01*
X30176483Y-45419091D01*
X30311331Y-45368796D01*
X30426546Y-45282546D01*
X30432850Y-45274123D01*
X30488780Y-45232253D01*
X30558472Y-45227267D01*
X30619796Y-45260751D01*
X30653283Y-45322073D01*
X30655645Y-45359241D01*
X30646305Y-45465997D01*
X30646305Y-45466000D01*
X30665047Y-45680224D01*
X30665049Y-45680234D01*
X30720703Y-45887941D01*
X30720707Y-45887950D01*
X30811588Y-46082846D01*
X30811589Y-46082848D01*
X30851952Y-46140492D01*
X30851953Y-46140493D01*
X31417449Y-45574996D01*
X31437370Y-45649343D01*
X31499905Y-45757657D01*
X31588343Y-45846095D01*
X31696657Y-45908630D01*
X31771002Y-45928550D01*
X31205505Y-46494046D01*
X31263153Y-46534411D01*
X31453866Y-46623342D01*
X31506305Y-46669514D01*
X31525457Y-46736708D01*
X31505241Y-46803589D01*
X31453866Y-46848106D01*
X31262902Y-46937155D01*
X31262897Y-46937157D01*
X31086672Y-47060551D01*
X30934551Y-47212672D01*
X30811157Y-47388897D01*
X30811155Y-47388901D01*
X30720236Y-47583878D01*
X30720232Y-47583887D01*
X30664555Y-47791678D01*
X30664553Y-47791689D01*
X30645804Y-48005998D01*
X30645804Y-48006001D01*
X30664553Y-48220310D01*
X30664555Y-48220321D01*
X30720232Y-48428112D01*
X30720234Y-48428116D01*
X30720235Y-48428120D01*
X30811155Y-48623098D01*
X30811157Y-48623102D01*
X30934551Y-48799327D01*
X31086672Y-48951448D01*
X31262897Y-49074842D01*
X31262899Y-49074843D01*
X31262902Y-49074845D01*
X31453276Y-49163618D01*
X31505715Y-49209790D01*
X31524867Y-49276984D01*
X31504651Y-49343865D01*
X31453276Y-49388382D01*
X31262901Y-49477155D01*
X31262897Y-49477157D01*
X31086672Y-49600551D01*
X30934551Y-49752672D01*
X30811157Y-49928897D01*
X30811155Y-49928901D01*
X30720236Y-50123878D01*
X30720232Y-50123887D01*
X30664555Y-50331678D01*
X30664553Y-50331689D01*
X30645804Y-50545998D01*
X30645804Y-50546001D01*
X30664553Y-50760310D01*
X30664555Y-50760321D01*
X30720232Y-50968112D01*
X30720234Y-50968116D01*
X30720235Y-50968120D01*
X30745673Y-51022672D01*
X30811155Y-51163098D01*
X30811157Y-51163102D01*
X30934551Y-51339327D01*
X31086672Y-51491448D01*
X31262897Y-51614842D01*
X31262899Y-51614843D01*
X31262902Y-51614845D01*
X31453866Y-51703893D01*
X31506305Y-51750065D01*
X31525457Y-51817259D01*
X31505241Y-51884140D01*
X31453866Y-51928657D01*
X31263149Y-52017590D01*
X31205506Y-52057952D01*
X31205505Y-52057953D01*
X31771002Y-52623449D01*
X31696657Y-52643370D01*
X31588343Y-52705905D01*
X31499905Y-52794343D01*
X31437370Y-52902657D01*
X31417449Y-52977002D01*
X30851953Y-52411505D01*
X30851952Y-52411506D01*
X30811591Y-52469149D01*
X30720706Y-52664049D01*
X30720703Y-52664058D01*
X30665049Y-52871765D01*
X30665047Y-52871775D01*
X30646305Y-53085999D01*
X30646305Y-53086000D01*
X30665047Y-53300224D01*
X30665049Y-53300234D01*
X30720703Y-53507941D01*
X30720707Y-53507950D01*
X30811588Y-53702846D01*
X30811589Y-53702848D01*
X30851952Y-53760492D01*
X30851953Y-53760493D01*
X31417449Y-53194996D01*
X31437370Y-53269343D01*
X31499905Y-53377657D01*
X31588343Y-53466095D01*
X31696657Y-53528630D01*
X31771002Y-53548550D01*
X31205505Y-54114046D01*
X31263153Y-54154411D01*
X31458049Y-54245292D01*
X31458058Y-54245296D01*
X31665765Y-54300950D01*
X31665775Y-54300952D01*
X31879999Y-54319695D01*
X31880001Y-54319695D01*
X32094224Y-54300952D01*
X32094234Y-54300950D01*
X32301941Y-54245296D01*
X32301950Y-54245292D01*
X32496845Y-54154412D01*
X32554493Y-54114046D01*
X32242441Y-53801993D01*
X42068700Y-53801993D01*
X42068700Y-53802006D01*
X42087864Y-54033297D01*
X42087866Y-54033308D01*
X42144842Y-54258300D01*
X42238075Y-54470848D01*
X42365016Y-54665147D01*
X42365019Y-54665151D01*
X42365021Y-54665153D01*
X42522216Y-54835913D01*
X42522219Y-54835915D01*
X42522222Y-54835918D01*
X42705365Y-54978464D01*
X42705371Y-54978468D01*
X42705374Y-54978470D01*
X42790445Y-55024508D01*
X42908652Y-55088479D01*
X42909497Y-55088936D01*
X43023487Y-55128068D01*
X43129015Y-55164297D01*
X43129017Y-55164297D01*
X43129019Y-55164298D01*
X43357951Y-55202500D01*
X43357952Y-55202500D01*
X43590048Y-55202500D01*
X43590049Y-55202500D01*
X43818981Y-55164298D01*
X44038503Y-55088936D01*
X44242626Y-54978470D01*
X44243170Y-54978047D01*
X44304129Y-54930600D01*
X44425784Y-54835913D01*
X44582979Y-54665153D01*
X44620191Y-54608196D01*
X44673337Y-54562839D01*
X44742569Y-54553415D01*
X44805904Y-54582917D01*
X44827809Y-54608196D01*
X44865016Y-54665147D01*
X44865019Y-54665151D01*
X44865021Y-54665153D01*
X45022216Y-54835913D01*
X45022219Y-54835915D01*
X45022222Y-54835918D01*
X45205365Y-54978464D01*
X45205371Y-54978468D01*
X45205374Y-54978470D01*
X45290445Y-55024508D01*
X45408652Y-55088479D01*
X45409497Y-55088936D01*
X45523487Y-55128068D01*
X45629015Y-55164297D01*
X45629017Y-55164297D01*
X45629019Y-55164298D01*
X45857951Y-55202500D01*
X45857952Y-55202500D01*
X46090048Y-55202500D01*
X46090049Y-55202500D01*
X46318981Y-55164298D01*
X46538503Y-55088936D01*
X46742626Y-54978470D01*
X46743170Y-54978047D01*
X46804129Y-54930600D01*
X46925784Y-54835913D01*
X47082979Y-54665153D01*
X47120491Y-54607736D01*
X47173634Y-54562382D01*
X47242865Y-54552957D01*
X47306201Y-54582458D01*
X47320914Y-54599436D01*
X47322812Y-54599633D01*
X47991037Y-53931408D01*
X48008075Y-53994993D01*
X48073901Y-54109007D01*
X48166993Y-54202099D01*
X48281007Y-54267925D01*
X48344590Y-54284962D01*
X47675201Y-54954351D01*
X47705649Y-54978050D01*
X47909697Y-55088476D01*
X47909706Y-55088479D01*
X48129139Y-55163811D01*
X48357993Y-55202000D01*
X48590007Y-55202000D01*
X48818860Y-55163811D01*
X49038293Y-55088479D01*
X49038301Y-55088476D01*
X49242355Y-54978047D01*
X49272797Y-54954351D01*
X49272798Y-54954350D01*
X48603410Y-54284962D01*
X48666993Y-54267925D01*
X48781007Y-54202099D01*
X48874099Y-54109007D01*
X48939925Y-53994993D01*
X48956962Y-53931409D01*
X49625186Y-54599633D01*
X49709482Y-54470611D01*
X49802682Y-54258135D01*
X49859638Y-54033218D01*
X49878798Y-53802005D01*
X49878798Y-53801994D01*
X49859638Y-53570781D01*
X49802682Y-53345864D01*
X49709484Y-53133393D01*
X49625186Y-53004365D01*
X48956962Y-53672589D01*
X48939925Y-53609007D01*
X48874099Y-53494993D01*
X48781007Y-53401901D01*
X48666993Y-53336075D01*
X48603409Y-53319037D01*
X49272797Y-52649647D01*
X49272797Y-52649645D01*
X49242360Y-52625955D01*
X49242354Y-52625951D01*
X49038302Y-52515523D01*
X49038293Y-52515520D01*
X48818860Y-52440188D01*
X48590007Y-52402000D01*
X48357993Y-52402000D01*
X48129139Y-52440188D01*
X47909706Y-52515520D01*
X47909697Y-52515523D01*
X47705650Y-52625949D01*
X47675200Y-52649647D01*
X48344591Y-53319037D01*
X48281007Y-53336075D01*
X48166993Y-53401901D01*
X48073901Y-53494993D01*
X48008075Y-53609007D01*
X47991037Y-53672591D01*
X47322811Y-53004365D01*
X47318029Y-53004861D01*
X47274959Y-53041618D01*
X47205728Y-53051041D01*
X47142392Y-53021538D01*
X47120489Y-52996260D01*
X47082983Y-52938852D01*
X47082980Y-52938849D01*
X47082979Y-52938847D01*
X46925784Y-52768087D01*
X46925779Y-52768083D01*
X46925777Y-52768081D01*
X46742634Y-52625535D01*
X46742628Y-52625531D01*
X46538504Y-52515064D01*
X46538495Y-52515061D01*
X46318984Y-52439702D01*
X46147282Y-52411050D01*
X46090049Y-52401500D01*
X45857951Y-52401500D01*
X45812164Y-52409140D01*
X45629015Y-52439702D01*
X45409504Y-52515061D01*
X45409495Y-52515064D01*
X45205371Y-52625531D01*
X45205365Y-52625535D01*
X45022222Y-52768081D01*
X45022219Y-52768084D01*
X45022216Y-52768086D01*
X45022216Y-52768087D01*
X44898337Y-52902657D01*
X44865015Y-52938854D01*
X44827808Y-52995804D01*
X44774662Y-53041161D01*
X44705430Y-53050584D01*
X44642095Y-53021082D01*
X44620192Y-52995804D01*
X44582984Y-52938854D01*
X44582982Y-52938852D01*
X44582979Y-52938847D01*
X44425784Y-52768087D01*
X44425779Y-52768083D01*
X44425777Y-52768081D01*
X44242634Y-52625535D01*
X44242628Y-52625531D01*
X44038504Y-52515064D01*
X44038495Y-52515061D01*
X43818984Y-52439702D01*
X43647282Y-52411050D01*
X43590049Y-52401500D01*
X43357951Y-52401500D01*
X43312164Y-52409140D01*
X43129015Y-52439702D01*
X42909504Y-52515061D01*
X42909495Y-52515064D01*
X42705371Y-52625531D01*
X42705365Y-52625535D01*
X42522222Y-52768081D01*
X42522219Y-52768084D01*
X42365016Y-52938852D01*
X42238075Y-53133151D01*
X42144842Y-53345699D01*
X42087866Y-53570691D01*
X42087864Y-53570702D01*
X42068700Y-53801993D01*
X32242441Y-53801993D01*
X31988998Y-53548550D01*
X32063343Y-53528630D01*
X32171657Y-53466095D01*
X32260095Y-53377657D01*
X32322630Y-53269343D01*
X32342550Y-53194997D01*
X32908046Y-53760493D01*
X32948412Y-53702845D01*
X33039292Y-53507950D01*
X33039296Y-53507941D01*
X33094950Y-53300234D01*
X33094952Y-53300224D01*
X33113695Y-53086000D01*
X33113695Y-53085999D01*
X33094952Y-52871775D01*
X33094950Y-52871765D01*
X33039296Y-52664058D01*
X33039292Y-52664049D01*
X32948412Y-52469155D01*
X32908045Y-52411505D01*
X32342550Y-52977001D01*
X32322630Y-52902657D01*
X32260095Y-52794343D01*
X32171657Y-52705905D01*
X32063343Y-52643370D01*
X31988997Y-52623449D01*
X32554493Y-52057953D01*
X32554492Y-52057952D01*
X32496848Y-52017589D01*
X32496846Y-52017588D01*
X32306133Y-51928657D01*
X32283961Y-51909135D01*
X67229500Y-51909135D01*
X67229500Y-53704870D01*
X67229501Y-53704876D01*
X67235908Y-53764483D01*
X67286202Y-53899328D01*
X67286206Y-53899335D01*
X67372452Y-54014544D01*
X67372455Y-54014547D01*
X67487664Y-54100793D01*
X67487671Y-54100797D01*
X67622517Y-54151091D01*
X67622516Y-54151091D01*
X67629444Y-54151835D01*
X67682127Y-54157500D01*
X69477872Y-54157499D01*
X69537483Y-54151091D01*
X69672331Y-54100796D01*
X69787546Y-54014546D01*
X69873796Y-53899331D01*
X69922810Y-53767916D01*
X69964681Y-53711984D01*
X70030145Y-53687566D01*
X70098418Y-53702417D01*
X70126673Y-53723569D01*
X70248599Y-53845495D01*
X70345384Y-53913265D01*
X70442165Y-53981032D01*
X70442167Y-53981033D01*
X70442170Y-53981035D01*
X70656337Y-54080903D01*
X70884592Y-54142063D01*
X71061034Y-54157500D01*
X71119999Y-54162659D01*
X71120000Y-54162659D01*
X71120001Y-54162659D01*
X71178966Y-54157500D01*
X71355408Y-54142063D01*
X71583663Y-54080903D01*
X71797830Y-53981035D01*
X71991401Y-53845495D01*
X72158495Y-53678401D01*
X72277846Y-53507950D01*
X72288425Y-53492842D01*
X72343002Y-53449217D01*
X72412500Y-53442023D01*
X72474855Y-53473546D01*
X72491575Y-53492842D01*
X72621500Y-53678395D01*
X72621505Y-53678401D01*
X72788599Y-53845495D01*
X72885384Y-53913265D01*
X72982165Y-53981032D01*
X72982167Y-53981033D01*
X72982170Y-53981035D01*
X73196337Y-54080903D01*
X73424592Y-54142063D01*
X73601034Y-54157500D01*
X73659999Y-54162659D01*
X73660000Y-54162659D01*
X73660001Y-54162659D01*
X73718966Y-54157500D01*
X73895408Y-54142063D01*
X74123663Y-54080903D01*
X74337830Y-53981035D01*
X74531401Y-53845495D01*
X74698495Y-53678401D01*
X74817846Y-53507950D01*
X74828425Y-53492842D01*
X74883002Y-53449217D01*
X74952500Y-53442023D01*
X75014855Y-53473546D01*
X75031575Y-53492842D01*
X75161500Y-53678395D01*
X75161505Y-53678401D01*
X75328599Y-53845495D01*
X75425384Y-53913265D01*
X75522165Y-53981032D01*
X75522167Y-53981033D01*
X75522170Y-53981035D01*
X75736337Y-54080903D01*
X75964592Y-54142063D01*
X76141034Y-54157500D01*
X76199999Y-54162659D01*
X76200000Y-54162659D01*
X76200001Y-54162659D01*
X76258966Y-54157500D01*
X76435408Y-54142063D01*
X76663663Y-54080903D01*
X76877830Y-53981035D01*
X77071401Y-53845495D01*
X77238495Y-53678401D01*
X77357846Y-53507950D01*
X77368425Y-53492842D01*
X77423002Y-53449217D01*
X77492500Y-53442023D01*
X77554855Y-53473546D01*
X77571575Y-53492842D01*
X77701500Y-53678395D01*
X77701505Y-53678401D01*
X77868599Y-53845495D01*
X77965384Y-53913265D01*
X78062165Y-53981032D01*
X78062167Y-53981033D01*
X78062170Y-53981035D01*
X78276337Y-54080903D01*
X78504592Y-54142063D01*
X78681034Y-54157500D01*
X78739999Y-54162659D01*
X78740000Y-54162659D01*
X78740001Y-54162659D01*
X78798966Y-54157500D01*
X78975408Y-54142063D01*
X79203663Y-54080903D01*
X79417830Y-53981035D01*
X79611401Y-53845495D01*
X79778495Y-53678401D01*
X79897846Y-53507950D01*
X79908425Y-53492842D01*
X79963002Y-53449217D01*
X80032500Y-53442023D01*
X80094855Y-53473546D01*
X80111575Y-53492842D01*
X80241500Y-53678395D01*
X80241505Y-53678401D01*
X80408599Y-53845495D01*
X80505384Y-53913265D01*
X80602165Y-53981032D01*
X80602167Y-53981033D01*
X80602170Y-53981035D01*
X80816337Y-54080903D01*
X81044592Y-54142063D01*
X81221034Y-54157500D01*
X81279999Y-54162659D01*
X81280000Y-54162659D01*
X81280001Y-54162659D01*
X81338966Y-54157500D01*
X81515408Y-54142063D01*
X81743663Y-54080903D01*
X81957830Y-53981035D01*
X82151401Y-53845495D01*
X82318495Y-53678401D01*
X82437846Y-53507950D01*
X82448425Y-53492842D01*
X82503002Y-53449217D01*
X82572500Y-53442023D01*
X82634855Y-53473546D01*
X82651575Y-53492842D01*
X82781500Y-53678395D01*
X82781505Y-53678401D01*
X82948599Y-53845495D01*
X83045384Y-53913265D01*
X83142165Y-53981032D01*
X83142167Y-53981033D01*
X83142170Y-53981035D01*
X83356337Y-54080903D01*
X83584592Y-54142063D01*
X83761034Y-54157500D01*
X83819999Y-54162659D01*
X83820000Y-54162659D01*
X83820001Y-54162659D01*
X83878966Y-54157500D01*
X84055408Y-54142063D01*
X84283663Y-54080903D01*
X84497830Y-53981035D01*
X84691401Y-53845495D01*
X84858495Y-53678401D01*
X84977846Y-53507950D01*
X84988425Y-53492842D01*
X85043002Y-53449217D01*
X85112500Y-53442023D01*
X85174855Y-53473546D01*
X85191575Y-53492842D01*
X85321500Y-53678395D01*
X85321505Y-53678401D01*
X85488599Y-53845495D01*
X85585384Y-53913265D01*
X85682165Y-53981032D01*
X85682167Y-53981033D01*
X85682170Y-53981035D01*
X85896337Y-54080903D01*
X86124592Y-54142063D01*
X86301034Y-54157500D01*
X86359999Y-54162659D01*
X86360000Y-54162659D01*
X86360001Y-54162659D01*
X86418966Y-54157500D01*
X86595408Y-54142063D01*
X86823663Y-54080903D01*
X87037830Y-53981035D01*
X87231401Y-53845495D01*
X87398495Y-53678401D01*
X87517846Y-53507950D01*
X87528425Y-53492842D01*
X87583002Y-53449217D01*
X87652500Y-53442023D01*
X87714855Y-53473546D01*
X87731575Y-53492842D01*
X87861500Y-53678395D01*
X87861505Y-53678401D01*
X88028599Y-53845495D01*
X88125384Y-53913265D01*
X88222165Y-53981032D01*
X88222167Y-53981033D01*
X88222170Y-53981035D01*
X88436337Y-54080903D01*
X88664592Y-54142063D01*
X88841034Y-54157500D01*
X88899999Y-54162659D01*
X88900000Y-54162659D01*
X88900001Y-54162659D01*
X88958966Y-54157500D01*
X89135408Y-54142063D01*
X89363663Y-54080903D01*
X89577830Y-53981035D01*
X89771401Y-53845495D01*
X89938495Y-53678401D01*
X90057846Y-53507950D01*
X90068425Y-53492842D01*
X90123002Y-53449217D01*
X90192500Y-53442023D01*
X90254855Y-53473546D01*
X90271575Y-53492842D01*
X90401500Y-53678395D01*
X90401505Y-53678401D01*
X90568599Y-53845495D01*
X90665384Y-53913265D01*
X90762165Y-53981032D01*
X90762167Y-53981033D01*
X90762170Y-53981035D01*
X90976337Y-54080903D01*
X91204592Y-54142063D01*
X91381034Y-54157500D01*
X91439999Y-54162659D01*
X91440000Y-54162659D01*
X91440001Y-54162659D01*
X91498966Y-54157500D01*
X91675408Y-54142063D01*
X91903663Y-54080903D01*
X92117830Y-53981035D01*
X92311401Y-53845495D01*
X92478495Y-53678401D01*
X92597846Y-53507950D01*
X92608425Y-53492842D01*
X92663002Y-53449217D01*
X92732500Y-53442023D01*
X92794855Y-53473546D01*
X92811575Y-53492842D01*
X92941500Y-53678395D01*
X92941505Y-53678401D01*
X93108599Y-53845495D01*
X93205384Y-53913265D01*
X93302165Y-53981032D01*
X93302167Y-53981033D01*
X93302170Y-53981035D01*
X93516337Y-54080903D01*
X93744592Y-54142063D01*
X93921034Y-54157500D01*
X93979999Y-54162659D01*
X93980000Y-54162659D01*
X93980001Y-54162659D01*
X94038966Y-54157500D01*
X94215408Y-54142063D01*
X94443663Y-54080903D01*
X94657830Y-53981035D01*
X94851401Y-53845495D01*
X95018495Y-53678401D01*
X95137846Y-53507950D01*
X95148425Y-53492842D01*
X95203002Y-53449217D01*
X95272500Y-53442023D01*
X95334855Y-53473546D01*
X95351575Y-53492842D01*
X95481500Y-53678395D01*
X95481505Y-53678401D01*
X95648599Y-53845495D01*
X95745384Y-53913265D01*
X95842165Y-53981032D01*
X95842167Y-53981033D01*
X95842170Y-53981035D01*
X96056337Y-54080903D01*
X96284592Y-54142063D01*
X96461034Y-54157500D01*
X96519999Y-54162659D01*
X96520000Y-54162659D01*
X96520001Y-54162659D01*
X96578966Y-54157500D01*
X96755408Y-54142063D01*
X96983663Y-54080903D01*
X97197830Y-53981035D01*
X97391401Y-53845495D01*
X97558495Y-53678401D01*
X97694035Y-53484830D01*
X97793903Y-53270663D01*
X97855063Y-53042408D01*
X97875659Y-52807000D01*
X97855063Y-52571592D01*
X97793903Y-52343337D01*
X97694035Y-52129171D01*
X97688425Y-52121158D01*
X97558494Y-51935597D01*
X97391402Y-51768506D01*
X97391395Y-51768501D01*
X97381319Y-51761446D01*
X97314518Y-51714671D01*
X97197834Y-51632967D01*
X97197830Y-51632965D01*
X97197828Y-51632964D01*
X96983663Y-51533097D01*
X96983659Y-51533096D01*
X96983655Y-51533094D01*
X96755413Y-51471938D01*
X96755403Y-51471936D01*
X96520001Y-51451341D01*
X96519999Y-51451341D01*
X96284596Y-51471936D01*
X96284586Y-51471938D01*
X96056344Y-51533094D01*
X96056335Y-51533098D01*
X95842171Y-51632964D01*
X95842169Y-51632965D01*
X95648597Y-51768505D01*
X95481505Y-51935597D01*
X95351575Y-52121158D01*
X95296998Y-52164783D01*
X95227500Y-52171977D01*
X95165145Y-52140454D01*
X95148425Y-52121158D01*
X95018494Y-51935597D01*
X94851402Y-51768506D01*
X94851395Y-51768501D01*
X94841319Y-51761446D01*
X94774518Y-51714671D01*
X94657834Y-51632967D01*
X94657830Y-51632965D01*
X94657828Y-51632964D01*
X94443663Y-51533097D01*
X94443659Y-51533096D01*
X94443655Y-51533094D01*
X94215413Y-51471938D01*
X94215403Y-51471936D01*
X93980001Y-51451341D01*
X93979999Y-51451341D01*
X93744596Y-51471936D01*
X93744586Y-51471938D01*
X93516344Y-51533094D01*
X93516335Y-51533098D01*
X93302171Y-51632964D01*
X93302169Y-51632965D01*
X93108597Y-51768505D01*
X92941505Y-51935597D01*
X92811575Y-52121158D01*
X92756998Y-52164783D01*
X92687500Y-52171977D01*
X92625145Y-52140454D01*
X92608425Y-52121158D01*
X92478494Y-51935597D01*
X92311402Y-51768506D01*
X92311395Y-51768501D01*
X92301319Y-51761446D01*
X92234518Y-51714671D01*
X92117834Y-51632967D01*
X92117830Y-51632965D01*
X92117828Y-51632964D01*
X91903663Y-51533097D01*
X91903659Y-51533096D01*
X91903655Y-51533094D01*
X91675413Y-51471938D01*
X91675403Y-51471936D01*
X91440001Y-51451341D01*
X91439999Y-51451341D01*
X91204596Y-51471936D01*
X91204586Y-51471938D01*
X90976344Y-51533094D01*
X90976335Y-51533098D01*
X90762171Y-51632964D01*
X90762169Y-51632965D01*
X90568597Y-51768505D01*
X90401505Y-51935597D01*
X90271575Y-52121158D01*
X90216998Y-52164783D01*
X90147500Y-52171977D01*
X90085145Y-52140454D01*
X90068425Y-52121158D01*
X89938494Y-51935597D01*
X89771402Y-51768506D01*
X89771395Y-51768501D01*
X89761319Y-51761446D01*
X89694518Y-51714671D01*
X89577834Y-51632967D01*
X89577830Y-51632965D01*
X89577828Y-51632964D01*
X89363663Y-51533097D01*
X89363659Y-51533096D01*
X89363655Y-51533094D01*
X89135413Y-51471938D01*
X89135403Y-51471936D01*
X88900001Y-51451341D01*
X88899999Y-51451341D01*
X88664596Y-51471936D01*
X88664586Y-51471938D01*
X88436344Y-51533094D01*
X88436335Y-51533098D01*
X88222171Y-51632964D01*
X88222169Y-51632965D01*
X88028597Y-51768505D01*
X87861505Y-51935597D01*
X87731575Y-52121158D01*
X87676998Y-52164783D01*
X87607500Y-52171977D01*
X87545145Y-52140454D01*
X87528425Y-52121158D01*
X87398494Y-51935597D01*
X87231402Y-51768506D01*
X87231395Y-51768501D01*
X87221319Y-51761446D01*
X87154518Y-51714671D01*
X87037834Y-51632967D01*
X87037830Y-51632965D01*
X87037828Y-51632964D01*
X86823663Y-51533097D01*
X86823659Y-51533096D01*
X86823655Y-51533094D01*
X86595413Y-51471938D01*
X86595403Y-51471936D01*
X86360001Y-51451341D01*
X86359999Y-51451341D01*
X86124596Y-51471936D01*
X86124586Y-51471938D01*
X85896344Y-51533094D01*
X85896335Y-51533098D01*
X85682171Y-51632964D01*
X85682169Y-51632965D01*
X85488597Y-51768505D01*
X85321505Y-51935597D01*
X85191575Y-52121158D01*
X85136998Y-52164783D01*
X85067500Y-52171977D01*
X85005145Y-52140454D01*
X84988425Y-52121158D01*
X84858494Y-51935597D01*
X84691402Y-51768506D01*
X84691395Y-51768501D01*
X84681319Y-51761446D01*
X84614518Y-51714671D01*
X84497834Y-51632967D01*
X84497830Y-51632965D01*
X84497828Y-51632964D01*
X84283663Y-51533097D01*
X84283659Y-51533096D01*
X84283655Y-51533094D01*
X84055413Y-51471938D01*
X84055403Y-51471936D01*
X83820001Y-51451341D01*
X83819999Y-51451341D01*
X83584596Y-51471936D01*
X83584586Y-51471938D01*
X83356344Y-51533094D01*
X83356335Y-51533098D01*
X83142171Y-51632964D01*
X83142169Y-51632965D01*
X82948597Y-51768505D01*
X82781505Y-51935597D01*
X82651575Y-52121158D01*
X82596998Y-52164783D01*
X82527500Y-52171977D01*
X82465145Y-52140454D01*
X82448425Y-52121158D01*
X82318494Y-51935597D01*
X82151402Y-51768506D01*
X82151395Y-51768501D01*
X82141319Y-51761446D01*
X82074518Y-51714671D01*
X81957834Y-51632967D01*
X81957830Y-51632965D01*
X81957828Y-51632964D01*
X81743663Y-51533097D01*
X81743659Y-51533096D01*
X81743655Y-51533094D01*
X81515413Y-51471938D01*
X81515403Y-51471936D01*
X81280001Y-51451341D01*
X81279999Y-51451341D01*
X81044596Y-51471936D01*
X81044586Y-51471938D01*
X80816344Y-51533094D01*
X80816335Y-51533098D01*
X80602171Y-51632964D01*
X80602169Y-51632965D01*
X80408597Y-51768505D01*
X80241505Y-51935597D01*
X80111575Y-52121158D01*
X80056998Y-52164783D01*
X79987500Y-52171977D01*
X79925145Y-52140454D01*
X79908425Y-52121158D01*
X79778494Y-51935597D01*
X79611402Y-51768506D01*
X79611395Y-51768501D01*
X79601319Y-51761446D01*
X79534518Y-51714671D01*
X79417834Y-51632967D01*
X79417830Y-51632965D01*
X79417828Y-51632964D01*
X79203663Y-51533097D01*
X79203659Y-51533096D01*
X79203655Y-51533094D01*
X78975413Y-51471938D01*
X78975403Y-51471936D01*
X78740001Y-51451341D01*
X78739999Y-51451341D01*
X78504596Y-51471936D01*
X78504586Y-51471938D01*
X78276344Y-51533094D01*
X78276335Y-51533098D01*
X78062171Y-51632964D01*
X78062169Y-51632965D01*
X77868597Y-51768505D01*
X77701505Y-51935597D01*
X77571575Y-52121158D01*
X77516998Y-52164783D01*
X77447500Y-52171977D01*
X77385145Y-52140454D01*
X77368425Y-52121158D01*
X77238494Y-51935597D01*
X77071402Y-51768506D01*
X77071395Y-51768501D01*
X77061319Y-51761446D01*
X76994518Y-51714671D01*
X76877834Y-51632967D01*
X76877830Y-51632965D01*
X76877828Y-51632964D01*
X76663663Y-51533097D01*
X76663659Y-51533096D01*
X76663655Y-51533094D01*
X76435413Y-51471938D01*
X76435403Y-51471936D01*
X76200001Y-51451341D01*
X76199999Y-51451341D01*
X75964596Y-51471936D01*
X75964586Y-51471938D01*
X75736344Y-51533094D01*
X75736335Y-51533098D01*
X75522171Y-51632964D01*
X75522169Y-51632965D01*
X75328597Y-51768505D01*
X75161505Y-51935597D01*
X75031575Y-52121158D01*
X74976998Y-52164783D01*
X74907500Y-52171977D01*
X74845145Y-52140454D01*
X74828425Y-52121158D01*
X74698494Y-51935597D01*
X74531402Y-51768506D01*
X74531395Y-51768501D01*
X74521319Y-51761446D01*
X74454518Y-51714671D01*
X74337834Y-51632967D01*
X74337830Y-51632965D01*
X74337828Y-51632964D01*
X74123663Y-51533097D01*
X74123659Y-51533096D01*
X74123655Y-51533094D01*
X73895413Y-51471938D01*
X73895403Y-51471936D01*
X73660001Y-51451341D01*
X73659999Y-51451341D01*
X73424596Y-51471936D01*
X73424586Y-51471938D01*
X73196344Y-51533094D01*
X73196335Y-51533098D01*
X72982171Y-51632964D01*
X72982169Y-51632965D01*
X72788597Y-51768505D01*
X72621505Y-51935597D01*
X72491575Y-52121158D01*
X72436998Y-52164783D01*
X72367500Y-52171977D01*
X72305145Y-52140454D01*
X72288425Y-52121158D01*
X72158494Y-51935597D01*
X71991402Y-51768506D01*
X71991395Y-51768501D01*
X71981319Y-51761446D01*
X71914518Y-51714671D01*
X71797834Y-51632967D01*
X71797830Y-51632965D01*
X71797828Y-51632964D01*
X71583663Y-51533097D01*
X71583659Y-51533096D01*
X71583655Y-51533094D01*
X71355413Y-51471938D01*
X71355403Y-51471936D01*
X71120001Y-51451341D01*
X71119999Y-51451341D01*
X70884596Y-51471936D01*
X70884586Y-51471938D01*
X70656344Y-51533094D01*
X70656335Y-51533098D01*
X70442171Y-51632964D01*
X70442169Y-51632965D01*
X70248600Y-51768503D01*
X70126673Y-51890430D01*
X70065350Y-51923914D01*
X69995658Y-51918930D01*
X69939725Y-51877058D01*
X69922810Y-51846081D01*
X69873797Y-51714671D01*
X69873793Y-51714664D01*
X69787547Y-51599455D01*
X69787544Y-51599452D01*
X69672335Y-51513206D01*
X69672328Y-51513202D01*
X69537482Y-51462908D01*
X69537483Y-51462908D01*
X69477883Y-51456501D01*
X69477881Y-51456500D01*
X69477873Y-51456500D01*
X69477864Y-51456500D01*
X67682129Y-51456500D01*
X67682123Y-51456501D01*
X67622516Y-51462908D01*
X67487671Y-51513202D01*
X67487664Y-51513206D01*
X67372455Y-51599452D01*
X67372452Y-51599455D01*
X67286206Y-51714664D01*
X67286202Y-51714671D01*
X67235908Y-51849517D01*
X67229501Y-51909116D01*
X67229500Y-51909135D01*
X32283961Y-51909135D01*
X32253694Y-51882485D01*
X32234542Y-51815291D01*
X32254758Y-51748410D01*
X32306131Y-51703894D01*
X32497098Y-51614845D01*
X32673326Y-51491449D01*
X32825449Y-51339326D01*
X32948845Y-51163098D01*
X33039765Y-50968120D01*
X33095446Y-50760316D01*
X33114196Y-50546000D01*
X33095446Y-50331684D01*
X33039765Y-50123880D01*
X32948845Y-49928902D01*
X32948843Y-49928899D01*
X32948842Y-49928897D01*
X32825448Y-49752672D01*
X32673327Y-49600551D01*
X32497102Y-49477157D01*
X32497098Y-49477155D01*
X32306721Y-49388380D01*
X32254284Y-49342210D01*
X32235132Y-49275016D01*
X32255348Y-49208135D01*
X32306721Y-49163619D01*
X32497098Y-49074845D01*
X32673326Y-48951449D01*
X32825449Y-48799326D01*
X32948845Y-48623098D01*
X33039765Y-48428120D01*
X33095446Y-48220316D01*
X33114196Y-48006000D01*
X33095446Y-47791684D01*
X33039765Y-47583880D01*
X32948845Y-47388902D01*
X32948843Y-47388899D01*
X32948842Y-47388897D01*
X32825448Y-47212672D01*
X32673327Y-47060551D01*
X32497102Y-46937157D01*
X32497098Y-46937155D01*
X32306133Y-46848106D01*
X32253763Y-46801994D01*
X39068556Y-46801994D01*
X39068556Y-46802005D01*
X39088310Y-47116004D01*
X39088311Y-47116011D01*
X39147270Y-47425083D01*
X39244497Y-47724316D01*
X39244499Y-47724321D01*
X39378461Y-48009003D01*
X39378464Y-48009009D01*
X39547051Y-48274661D01*
X39547054Y-48274665D01*
X39747606Y-48517090D01*
X39747608Y-48517092D01*
X39747610Y-48517094D01*
X39898615Y-48658897D01*
X39976968Y-48732476D01*
X39976978Y-48732484D01*
X40231504Y-48917408D01*
X40231509Y-48917410D01*
X40231516Y-48917416D01*
X40507234Y-49068994D01*
X40507239Y-49068996D01*
X40507241Y-49068997D01*
X40507242Y-49068998D01*
X40799771Y-49184818D01*
X40799774Y-49184819D01*
X41015454Y-49240196D01*
X41104527Y-49263066D01*
X41170010Y-49271338D01*
X41416670Y-49302499D01*
X41416679Y-49302499D01*
X41416682Y-49302500D01*
X41416684Y-49302500D01*
X41731316Y-49302500D01*
X41731318Y-49302500D01*
X41731321Y-49302499D01*
X41731329Y-49302499D01*
X41917593Y-49278968D01*
X42043473Y-49263066D01*
X42348225Y-49184819D01*
X42348228Y-49184818D01*
X42640757Y-49068998D01*
X42640758Y-49068997D01*
X42640756Y-49068997D01*
X42640766Y-49068994D01*
X42916484Y-48917416D01*
X43171030Y-48732478D01*
X43400390Y-48517094D01*
X43600947Y-48274663D01*
X43769537Y-48009007D01*
X43903503Y-47724315D01*
X44000731Y-47425079D01*
X44059688Y-47116015D01*
X44059689Y-47116004D01*
X44079444Y-46802005D01*
X44079444Y-46801994D01*
X47868556Y-46801994D01*
X47868556Y-46802005D01*
X47888310Y-47116004D01*
X47888311Y-47116011D01*
X47947270Y-47425083D01*
X48044497Y-47724316D01*
X48044499Y-47724321D01*
X48178461Y-48009003D01*
X48178464Y-48009009D01*
X48347051Y-48274661D01*
X48347054Y-48274665D01*
X48547606Y-48517090D01*
X48547608Y-48517092D01*
X48547610Y-48517094D01*
X48698615Y-48658897D01*
X48776968Y-48732476D01*
X48776978Y-48732484D01*
X49031504Y-48917408D01*
X49031509Y-48917410D01*
X49031516Y-48917416D01*
X49307234Y-49068994D01*
X49307239Y-49068996D01*
X49307241Y-49068997D01*
X49307242Y-49068998D01*
X49599771Y-49184818D01*
X49599774Y-49184819D01*
X49815454Y-49240196D01*
X49904527Y-49263066D01*
X49970010Y-49271338D01*
X50216670Y-49302499D01*
X50216679Y-49302499D01*
X50216682Y-49302500D01*
X50216684Y-49302500D01*
X50531316Y-49302500D01*
X50531318Y-49302500D01*
X50531321Y-49302499D01*
X50531329Y-49302499D01*
X50717593Y-49278968D01*
X50843473Y-49263066D01*
X51148225Y-49184819D01*
X51148228Y-49184818D01*
X51440757Y-49068998D01*
X51440758Y-49068997D01*
X51440756Y-49068997D01*
X51440766Y-49068994D01*
X51716484Y-48917416D01*
X51971030Y-48732478D01*
X52200390Y-48517094D01*
X52400947Y-48274663D01*
X52569537Y-48009007D01*
X52703503Y-47724315D01*
X52800731Y-47425079D01*
X52859688Y-47116015D01*
X52859689Y-47116004D01*
X52879444Y-46802005D01*
X52879444Y-46801994D01*
X52859689Y-46487995D01*
X52859688Y-46487988D01*
X52859688Y-46487985D01*
X52800731Y-46178921D01*
X52703503Y-45879685D01*
X52569537Y-45594993D01*
X52461973Y-45425499D01*
X52400948Y-45329338D01*
X52400945Y-45329334D01*
X52200393Y-45086909D01*
X52200391Y-45086907D01*
X52142436Y-45032483D01*
X51971030Y-44871522D01*
X51971027Y-44871520D01*
X51971021Y-44871515D01*
X51716495Y-44686591D01*
X51716488Y-44686586D01*
X51716484Y-44686584D01*
X51440766Y-44535006D01*
X51440763Y-44535004D01*
X51440758Y-44535002D01*
X51440757Y-44535001D01*
X51148228Y-44419181D01*
X51148225Y-44419180D01*
X50843476Y-44340934D01*
X50843463Y-44340932D01*
X50531329Y-44301500D01*
X50531318Y-44301500D01*
X50216682Y-44301500D01*
X50216670Y-44301500D01*
X49904536Y-44340932D01*
X49904523Y-44340934D01*
X49599774Y-44419180D01*
X49599771Y-44419181D01*
X49307242Y-44535001D01*
X49307241Y-44535002D01*
X49031516Y-44686584D01*
X49031504Y-44686591D01*
X48776978Y-44871515D01*
X48776968Y-44871523D01*
X48547608Y-45086907D01*
X48547606Y-45086909D01*
X48347054Y-45329334D01*
X48347051Y-45329338D01*
X48178464Y-45594990D01*
X48178461Y-45594996D01*
X48044499Y-45879678D01*
X48044497Y-45879683D01*
X47947270Y-46178916D01*
X47888311Y-46487988D01*
X47888310Y-46487995D01*
X47868556Y-46801994D01*
X44079444Y-46801994D01*
X44059689Y-46487995D01*
X44059688Y-46487988D01*
X44059688Y-46487985D01*
X44000731Y-46178921D01*
X43903503Y-45879685D01*
X43769537Y-45594993D01*
X43661973Y-45425499D01*
X43600948Y-45329338D01*
X43600945Y-45329334D01*
X43400393Y-45086909D01*
X43400391Y-45086907D01*
X43342436Y-45032483D01*
X43171030Y-44871522D01*
X43171027Y-44871520D01*
X43171021Y-44871515D01*
X42916495Y-44686591D01*
X42916488Y-44686586D01*
X42916484Y-44686584D01*
X42640766Y-44535006D01*
X42640763Y-44535004D01*
X42640758Y-44535002D01*
X42640757Y-44535001D01*
X42348228Y-44419181D01*
X42348225Y-44419180D01*
X42043476Y-44340934D01*
X42043463Y-44340932D01*
X41731329Y-44301500D01*
X41731318Y-44301500D01*
X41416682Y-44301500D01*
X41416670Y-44301500D01*
X41104536Y-44340932D01*
X41104523Y-44340934D01*
X40799774Y-44419180D01*
X40799771Y-44419181D01*
X40507242Y-44535001D01*
X40507241Y-44535002D01*
X40231516Y-44686584D01*
X40231504Y-44686591D01*
X39976978Y-44871515D01*
X39976968Y-44871523D01*
X39747608Y-45086907D01*
X39747606Y-45086909D01*
X39547054Y-45329334D01*
X39547051Y-45329338D01*
X39378464Y-45594990D01*
X39378461Y-45594996D01*
X39244499Y-45879678D01*
X39244497Y-45879683D01*
X39147270Y-46178916D01*
X39088311Y-46487988D01*
X39088310Y-46487995D01*
X39068556Y-46801994D01*
X32253763Y-46801994D01*
X32253694Y-46801933D01*
X32234542Y-46734740D01*
X32254758Y-46667859D01*
X32306134Y-46623342D01*
X32496843Y-46534413D01*
X32554493Y-46494046D01*
X31988998Y-45928550D01*
X32063343Y-45908630D01*
X32171657Y-45846095D01*
X32260095Y-45757657D01*
X32322630Y-45649343D01*
X32342550Y-45574997D01*
X32908046Y-46140493D01*
X32948412Y-46082845D01*
X33039292Y-45887950D01*
X33039296Y-45887941D01*
X33094950Y-45680234D01*
X33094952Y-45680224D01*
X33113695Y-45466000D01*
X33113695Y-45465999D01*
X33094952Y-45251775D01*
X33094950Y-45251765D01*
X33039296Y-45044058D01*
X33039292Y-45044049D01*
X32948412Y-44849155D01*
X32908045Y-44791505D01*
X32342550Y-45357001D01*
X32322630Y-45282657D01*
X32260095Y-45174343D01*
X32171657Y-45085905D01*
X32063343Y-45023370D01*
X31988997Y-45003449D01*
X32554493Y-44437953D01*
X32554492Y-44437952D01*
X32496848Y-44397589D01*
X32496846Y-44397588D01*
X32301950Y-44306707D01*
X32301941Y-44306703D01*
X32094234Y-44251049D01*
X32094224Y-44251047D01*
X31880001Y-44232305D01*
X31879999Y-44232305D01*
X31665775Y-44251047D01*
X31665765Y-44251049D01*
X31458058Y-44306703D01*
X31458049Y-44306706D01*
X31263149Y-44397591D01*
X31205506Y-44437952D01*
X31205505Y-44437953D01*
X31771002Y-45003449D01*
X31696657Y-45023370D01*
X31588343Y-45085905D01*
X31499905Y-45174343D01*
X31437370Y-45282657D01*
X31417449Y-45357002D01*
X30851953Y-44791505D01*
X30851952Y-44791506D01*
X30811590Y-44849150D01*
X30811588Y-44849152D01*
X30805878Y-44861398D01*
X30759703Y-44913835D01*
X30692508Y-44932983D01*
X30625628Y-44912764D01*
X30580297Y-44859596D01*
X30569499Y-44808991D01*
X30569499Y-43419128D01*
X30563091Y-43359517D01*
X30512796Y-43224669D01*
X30512795Y-43224668D01*
X30512793Y-43224664D01*
X30426547Y-43109455D01*
X30426544Y-43109452D01*
X30311335Y-43023206D01*
X30311328Y-43023202D01*
X30176482Y-42972908D01*
X30176483Y-42972908D01*
X30116883Y-42966501D01*
X30116881Y-42966500D01*
X30116873Y-42966500D01*
X30116864Y-42966500D01*
X28563129Y-42966500D01*
X28563123Y-42966501D01*
X28503516Y-42972908D01*
X28368671Y-43023202D01*
X28368664Y-43023206D01*
X28253455Y-43109452D01*
X28253452Y-43109455D01*
X28167206Y-43224664D01*
X28167202Y-43224671D01*
X28116908Y-43359517D01*
X28110877Y-43415622D01*
X28110501Y-43419123D01*
X28110500Y-43419135D01*
X28110500Y-44972870D01*
X28110501Y-44972876D01*
X28116908Y-45032483D01*
X28167202Y-45167328D01*
X28167206Y-45167335D01*
X28253452Y-45282544D01*
X28253455Y-45282547D01*
X28368664Y-45368793D01*
X28368671Y-45368797D01*
X28503517Y-45419091D01*
X28503516Y-45419091D01*
X28510444Y-45419835D01*
X28563127Y-45425500D01*
X28681807Y-45425499D01*
X28748844Y-45445183D01*
X28794599Y-45497987D01*
X28804543Y-45567145D01*
X28775519Y-45630701D01*
X28734217Y-45661878D01*
X28722902Y-45667154D01*
X28722897Y-45667157D01*
X28546672Y-45790551D01*
X28394551Y-45942672D01*
X28271157Y-46118897D01*
X28271155Y-46118901D01*
X28180236Y-46313878D01*
X28180232Y-46313887D01*
X28124555Y-46521678D01*
X28124553Y-46521689D01*
X28105804Y-46735998D01*
X18494500Y-46735998D01*
X18494500Y-42825616D01*
X23584500Y-42825616D01*
X23584500Y-43026383D01*
X23615907Y-43224680D01*
X23677949Y-43415626D01*
X23769095Y-43594508D01*
X23887103Y-43756932D01*
X24029068Y-43898897D01*
X24191492Y-44016905D01*
X24276007Y-44059967D01*
X24370373Y-44108050D01*
X24370375Y-44108050D01*
X24370378Y-44108052D01*
X24561320Y-44170093D01*
X24759616Y-44201500D01*
X24759617Y-44201500D01*
X24960383Y-44201500D01*
X24960384Y-44201500D01*
X25158680Y-44170093D01*
X25349622Y-44108052D01*
X25528508Y-44016905D01*
X25690932Y-43898897D01*
X25832897Y-43756932D01*
X25950905Y-43594508D01*
X26042052Y-43415622D01*
X26104093Y-43224680D01*
X26135500Y-43026384D01*
X26135500Y-42825616D01*
X26104093Y-42627320D01*
X26042052Y-42436378D01*
X26042050Y-42436375D01*
X26042050Y-42436373D01*
X25950904Y-42257491D01*
X25882976Y-42163996D01*
X93682435Y-42163996D01*
X93682435Y-42164003D01*
X93702630Y-42343249D01*
X93702631Y-42343254D01*
X93762211Y-42513523D01*
X93833714Y-42627319D01*
X93858184Y-42666262D01*
X93985738Y-42793816D01*
X94138478Y-42889789D01*
X94308745Y-42949368D01*
X94308750Y-42949369D01*
X94487996Y-42969565D01*
X94488000Y-42969565D01*
X94488004Y-42969565D01*
X94667249Y-42949369D01*
X94667252Y-42949368D01*
X94667255Y-42949368D01*
X94837522Y-42889789D01*
X94990262Y-42793816D01*
X95117816Y-42666262D01*
X95213789Y-42513522D01*
X95273368Y-42343255D01*
X95283031Y-42257492D01*
X95293565Y-42164003D01*
X95293565Y-42163996D01*
X95273369Y-41984750D01*
X95273368Y-41984745D01*
X95213788Y-41814476D01*
X95134646Y-41688523D01*
X95117816Y-41661738D01*
X94990262Y-41534184D01*
X94964902Y-41518249D01*
X94837523Y-41438211D01*
X94667254Y-41378631D01*
X94667249Y-41378630D01*
X94488004Y-41358435D01*
X94487996Y-41358435D01*
X94308750Y-41378630D01*
X94308745Y-41378631D01*
X94138476Y-41438211D01*
X93985737Y-41534184D01*
X93858184Y-41661737D01*
X93762211Y-41814476D01*
X93702631Y-41984745D01*
X93702630Y-41984750D01*
X93682435Y-42163996D01*
X25882976Y-42163996D01*
X25832897Y-42095068D01*
X25690932Y-41953103D01*
X25528508Y-41835095D01*
X25488041Y-41814476D01*
X25349626Y-41743949D01*
X25158680Y-41681907D01*
X24960384Y-41650500D01*
X24759616Y-41650500D01*
X24688662Y-41661738D01*
X24561319Y-41681907D01*
X24370373Y-41743949D01*
X24191491Y-41835095D01*
X24098822Y-41902423D01*
X24029068Y-41953103D01*
X24029066Y-41953105D01*
X24029065Y-41953105D01*
X23887105Y-42095065D01*
X23887105Y-42095066D01*
X23887103Y-42095068D01*
X23865815Y-42124369D01*
X23769095Y-42257491D01*
X23677949Y-42436373D01*
X23615907Y-42627319D01*
X23584500Y-42825616D01*
X18494500Y-42825616D01*
X18494500Y-41338996D01*
X67837435Y-41338996D01*
X67837435Y-41339003D01*
X67857630Y-41518249D01*
X67857631Y-41518254D01*
X67917211Y-41688523D01*
X67952037Y-41743948D01*
X68013184Y-41841262D01*
X68140738Y-41968816D01*
X68293478Y-42064789D01*
X68463745Y-42124368D01*
X68463750Y-42124369D01*
X68642996Y-42144565D01*
X68643000Y-42144565D01*
X68643004Y-42144565D01*
X68822249Y-42124369D01*
X68822252Y-42124368D01*
X68822255Y-42124368D01*
X68992522Y-42064789D01*
X69145262Y-41968816D01*
X69272816Y-41841262D01*
X69368789Y-41688522D01*
X69428368Y-41518255D01*
X69444100Y-41378630D01*
X69448565Y-41339003D01*
X69448565Y-41338996D01*
X69428369Y-41159750D01*
X69428368Y-41159745D01*
X69368788Y-40989476D01*
X69272815Y-40836737D01*
X69145262Y-40709184D01*
X68992523Y-40613211D01*
X68822254Y-40553631D01*
X68822249Y-40553630D01*
X68643004Y-40533435D01*
X68642996Y-40533435D01*
X68463750Y-40553630D01*
X68463745Y-40553631D01*
X68293476Y-40613211D01*
X68140737Y-40709184D01*
X68013184Y-40836737D01*
X67917211Y-40989476D01*
X67857631Y-41159745D01*
X67857630Y-41159750D01*
X67837435Y-41338996D01*
X18494500Y-41338996D01*
X18494500Y-38356000D01*
X19298261Y-38356000D01*
X20256012Y-38356000D01*
X20238795Y-38365940D01*
X20182940Y-38421795D01*
X20143444Y-38490204D01*
X20123000Y-38566504D01*
X20123000Y-38645496D01*
X20143444Y-38721796D01*
X20182940Y-38790205D01*
X20238795Y-38846060D01*
X20256012Y-38856000D01*
X19298261Y-38856000D01*
X19301315Y-38875285D01*
X19301318Y-38875295D01*
X19357250Y-39047441D01*
X19357252Y-39047447D01*
X19439434Y-39208734D01*
X19545823Y-39355169D01*
X19673830Y-39483176D01*
X19820265Y-39589565D01*
X19981552Y-39671747D01*
X19981555Y-39671748D01*
X20153706Y-39727682D01*
X20332494Y-39756000D01*
X20823000Y-39756000D01*
X20823000Y-38906000D01*
X21323000Y-38906000D01*
X21323000Y-39756000D01*
X21813506Y-39756000D01*
X21992293Y-39727682D01*
X22164444Y-39671748D01*
X22164447Y-39671747D01*
X22325734Y-39589565D01*
X22472169Y-39483176D01*
X22600176Y-39355169D01*
X22706565Y-39208734D01*
X22788747Y-39047447D01*
X22788749Y-39047441D01*
X22844681Y-38875295D01*
X22844684Y-38875285D01*
X22847739Y-38856000D01*
X21889988Y-38856000D01*
X21907205Y-38846060D01*
X21963060Y-38790205D01*
X22002556Y-38721796D01*
X22023000Y-38645496D01*
X22023000Y-38566504D01*
X22002556Y-38490204D01*
X21963060Y-38421795D01*
X21907205Y-38365940D01*
X21889988Y-38356000D01*
X22847739Y-38356000D01*
X23273261Y-38356000D01*
X24231012Y-38356000D01*
X24213795Y-38365940D01*
X24157940Y-38421795D01*
X24118444Y-38490204D01*
X24098000Y-38566504D01*
X24098000Y-38645496D01*
X24118444Y-38721796D01*
X24157940Y-38790205D01*
X24213795Y-38846060D01*
X24231012Y-38856000D01*
X23273261Y-38856000D01*
X23276315Y-38875285D01*
X23276318Y-38875295D01*
X23332250Y-39047441D01*
X23332252Y-39047447D01*
X23414434Y-39208734D01*
X23520823Y-39355169D01*
X23648830Y-39483176D01*
X23795265Y-39589565D01*
X23956552Y-39671747D01*
X23956555Y-39671748D01*
X24128706Y-39727682D01*
X24307494Y-39756000D01*
X24648000Y-39756000D01*
X24648000Y-38906000D01*
X25148000Y-38906000D01*
X25148000Y-39756000D01*
X25488506Y-39756000D01*
X25667293Y-39727682D01*
X25839444Y-39671748D01*
X25839447Y-39671747D01*
X26000734Y-39589565D01*
X26147169Y-39483176D01*
X26275176Y-39355169D01*
X26356673Y-39242996D01*
X67647435Y-39242996D01*
X67647435Y-39243003D01*
X67667630Y-39422249D01*
X67667631Y-39422254D01*
X67727211Y-39592523D01*
X67776991Y-39671747D01*
X67823184Y-39745262D01*
X67950738Y-39872816D01*
X68103478Y-39968789D01*
X68273745Y-40028368D01*
X68273750Y-40028369D01*
X68452996Y-40048565D01*
X68453000Y-40048565D01*
X68453004Y-40048565D01*
X68632249Y-40028369D01*
X68632252Y-40028368D01*
X68632255Y-40028368D01*
X68802522Y-39968789D01*
X68955262Y-39872816D01*
X69082816Y-39745262D01*
X69178789Y-39592522D01*
X69238368Y-39422255D01*
X69258565Y-39243000D01*
X69254704Y-39208734D01*
X69238369Y-39063750D01*
X69238368Y-39063745D01*
X69232663Y-39047441D01*
X69178789Y-38893478D01*
X69082816Y-38740738D01*
X68955262Y-38613184D01*
X68802523Y-38517211D01*
X68632254Y-38457631D01*
X68632249Y-38457630D01*
X68453004Y-38437435D01*
X68452996Y-38437435D01*
X68273750Y-38457630D01*
X68273745Y-38457631D01*
X68103476Y-38517211D01*
X67950737Y-38613184D01*
X67823184Y-38740737D01*
X67727211Y-38893476D01*
X67667631Y-39063745D01*
X67667630Y-39063750D01*
X67647435Y-39242996D01*
X26356673Y-39242996D01*
X26381565Y-39208734D01*
X26463747Y-39047447D01*
X26463749Y-39047441D01*
X26519681Y-38875295D01*
X26519684Y-38875285D01*
X26522739Y-38856000D01*
X25564988Y-38856000D01*
X25582205Y-38846060D01*
X25638060Y-38790205D01*
X25677556Y-38721796D01*
X25698000Y-38645496D01*
X25698000Y-38566504D01*
X25677556Y-38490204D01*
X25638060Y-38421795D01*
X25582205Y-38365940D01*
X25564988Y-38356000D01*
X26522739Y-38356000D01*
X26519684Y-38336714D01*
X26519681Y-38336704D01*
X26463749Y-38164558D01*
X26463747Y-38164552D01*
X26381565Y-38003265D01*
X26275176Y-37856830D01*
X26147169Y-37728823D01*
X26046241Y-37655496D01*
X35262435Y-37655496D01*
X35262435Y-37655503D01*
X35282630Y-37834749D01*
X35282631Y-37834754D01*
X35342211Y-38005023D01*
X35416573Y-38123368D01*
X35438184Y-38157762D01*
X35565738Y-38285316D01*
X35718478Y-38381289D01*
X35878934Y-38437435D01*
X35888745Y-38440868D01*
X35888750Y-38440869D01*
X36067996Y-38461065D01*
X36068000Y-38461065D01*
X36068004Y-38461065D01*
X36247249Y-38440869D01*
X36247252Y-38440868D01*
X36247255Y-38440868D01*
X36417522Y-38381289D01*
X36570262Y-38285316D01*
X36697816Y-38157762D01*
X36793789Y-38005022D01*
X36853368Y-37834755D01*
X36861502Y-37762565D01*
X36873565Y-37655503D01*
X36873565Y-37655496D01*
X36853369Y-37476250D01*
X36853368Y-37476245D01*
X36804994Y-37338000D01*
X36793789Y-37305978D01*
X36697816Y-37153238D01*
X36570262Y-37025684D01*
X36511046Y-36988476D01*
X36460946Y-36956996D01*
X67647435Y-36956996D01*
X67647435Y-36957003D01*
X67667630Y-37136249D01*
X67667631Y-37136254D01*
X67727211Y-37306523D01*
X67821134Y-37456000D01*
X67823184Y-37459262D01*
X67950738Y-37586816D01*
X68009100Y-37623487D01*
X68060052Y-37655503D01*
X68103478Y-37682789D01*
X68216966Y-37722500D01*
X68273745Y-37742368D01*
X68273750Y-37742369D01*
X68452996Y-37762565D01*
X68453000Y-37762565D01*
X68453004Y-37762565D01*
X68632249Y-37742369D01*
X68632252Y-37742368D01*
X68632255Y-37742368D01*
X68802522Y-37682789D01*
X68955262Y-37586816D01*
X69082816Y-37459262D01*
X69178789Y-37306522D01*
X69238368Y-37136255D01*
X69243746Y-37088525D01*
X69258565Y-36957003D01*
X69258565Y-36956996D01*
X69238369Y-36777750D01*
X69238368Y-36777745D01*
X69218333Y-36720488D01*
X69178789Y-36607478D01*
X69082816Y-36454738D01*
X68955262Y-36327184D01*
X68937880Y-36316262D01*
X68802523Y-36231211D01*
X68632254Y-36171631D01*
X68632249Y-36171630D01*
X68453004Y-36151435D01*
X68452996Y-36151435D01*
X68273750Y-36171630D01*
X68273745Y-36171631D01*
X68103476Y-36231211D01*
X67950737Y-36327184D01*
X67823184Y-36454737D01*
X67727211Y-36607476D01*
X67667631Y-36777745D01*
X67667630Y-36777750D01*
X67647435Y-36956996D01*
X36460946Y-36956996D01*
X36417523Y-36929711D01*
X36247254Y-36870131D01*
X36247249Y-36870130D01*
X36068004Y-36849935D01*
X36067996Y-36849935D01*
X35888750Y-36870130D01*
X35888745Y-36870131D01*
X35718476Y-36929711D01*
X35565737Y-37025684D01*
X35438184Y-37153237D01*
X35342211Y-37305976D01*
X35282631Y-37476245D01*
X35282630Y-37476250D01*
X35262435Y-37655496D01*
X26046241Y-37655496D01*
X26000734Y-37622434D01*
X25839447Y-37540252D01*
X25839444Y-37540251D01*
X25667293Y-37484317D01*
X25488506Y-37456000D01*
X25148000Y-37456000D01*
X25148000Y-38306000D01*
X24648000Y-38306000D01*
X24648000Y-37722500D01*
X24664614Y-37660498D01*
X24667502Y-37655496D01*
X24685984Y-37623485D01*
X24723500Y-37483475D01*
X24723500Y-37088525D01*
X24685984Y-36948515D01*
X24675127Y-36929711D01*
X24613511Y-36822988D01*
X24613506Y-36822982D01*
X24511017Y-36720493D01*
X24511011Y-36720488D01*
X24385488Y-36648017D01*
X24385489Y-36648017D01*
X24353703Y-36639500D01*
X24245475Y-36610500D01*
X24100525Y-36610500D01*
X23992297Y-36639500D01*
X23960511Y-36648017D01*
X23834988Y-36720488D01*
X23834982Y-36720493D01*
X23732493Y-36822982D01*
X23732488Y-36822988D01*
X23660017Y-36948511D01*
X23660016Y-36948515D01*
X23622500Y-37088525D01*
X23622500Y-37483475D01*
X23660016Y-37623485D01*
X23660017Y-37623487D01*
X23661384Y-37628588D01*
X23659721Y-37698438D01*
X23629291Y-37748363D01*
X23520822Y-37856832D01*
X23414434Y-38003265D01*
X23332252Y-38164552D01*
X23332250Y-38164558D01*
X23276318Y-38336704D01*
X23276315Y-38336714D01*
X23273261Y-38356000D01*
X22847739Y-38356000D01*
X22844684Y-38336714D01*
X22844681Y-38336704D01*
X22788749Y-38164558D01*
X22788747Y-38164552D01*
X22706565Y-38003265D01*
X22600176Y-37856830D01*
X22472169Y-37728823D01*
X22325734Y-37622434D01*
X22164447Y-37540252D01*
X22164444Y-37540251D01*
X21992293Y-37484317D01*
X21813506Y-37456000D01*
X21323000Y-37456000D01*
X21323000Y-38306000D01*
X20823000Y-38306000D01*
X20823000Y-37456000D01*
X20332494Y-37456000D01*
X20153706Y-37484317D01*
X19981555Y-37540251D01*
X19981552Y-37540252D01*
X19820265Y-37622434D01*
X19673830Y-37728823D01*
X19545823Y-37856830D01*
X19439434Y-38003265D01*
X19357252Y-38164552D01*
X19357250Y-38164558D01*
X19301318Y-38336704D01*
X19301315Y-38336714D01*
X19298261Y-38356000D01*
X18494500Y-38356000D01*
X18494500Y-35813996D01*
X25483435Y-35813996D01*
X25483435Y-35814003D01*
X25503630Y-35993249D01*
X25503631Y-35993254D01*
X25563211Y-36163523D01*
X25582648Y-36194456D01*
X25659184Y-36316262D01*
X25786738Y-36443816D01*
X25939478Y-36539789D01*
X25973858Y-36551819D01*
X26109745Y-36599368D01*
X26109750Y-36599369D01*
X26288996Y-36619565D01*
X26289000Y-36619565D01*
X26289004Y-36619565D01*
X26468249Y-36599369D01*
X26468252Y-36599368D01*
X26468255Y-36599368D01*
X26638522Y-36539789D01*
X26791262Y-36443816D01*
X26918816Y-36316262D01*
X27014789Y-36163522D01*
X27074368Y-35993255D01*
X27075311Y-35984890D01*
X27094565Y-35814003D01*
X27094565Y-35813996D01*
X27074369Y-35634750D01*
X27074368Y-35634745D01*
X27059228Y-35591478D01*
X27014789Y-35464478D01*
X26998615Y-35438738D01*
X26972257Y-35396789D01*
X26918816Y-35311738D01*
X26791262Y-35184184D01*
X26638523Y-35088211D01*
X26535027Y-35051996D01*
X38316133Y-35051996D01*
X38316133Y-35052003D01*
X38336328Y-35231249D01*
X38336329Y-35231254D01*
X38395909Y-35401523D01*
X38466582Y-35513997D01*
X38491882Y-35554262D01*
X38619436Y-35681816D01*
X38772176Y-35777789D01*
X38875650Y-35813996D01*
X38942443Y-35837368D01*
X38942448Y-35837369D01*
X39121694Y-35857565D01*
X39121698Y-35857565D01*
X39121702Y-35857565D01*
X39300947Y-35837369D01*
X39300950Y-35837368D01*
X39300953Y-35837368D01*
X39471220Y-35777789D01*
X39623960Y-35681816D01*
X39751514Y-35554262D01*
X39847487Y-35401522D01*
X39907066Y-35231255D01*
X39913538Y-35173816D01*
X39927263Y-35052003D01*
X39927263Y-35051996D01*
X39907067Y-34872750D01*
X39907066Y-34872745D01*
X39847486Y-34702476D01*
X39827706Y-34670996D01*
X67539315Y-34670996D01*
X67539315Y-34671003D01*
X67559510Y-34850249D01*
X67559511Y-34850254D01*
X67619091Y-35020523D01*
X67661623Y-35088211D01*
X67715064Y-35173262D01*
X67842618Y-35300816D01*
X67995358Y-35396789D01*
X68165625Y-35456368D01*
X68165630Y-35456369D01*
X68344876Y-35476565D01*
X68344880Y-35476565D01*
X68344884Y-35476565D01*
X68524129Y-35456369D01*
X68524132Y-35456368D01*
X68524135Y-35456368D01*
X68694402Y-35396789D01*
X68847142Y-35300816D01*
X68974696Y-35173262D01*
X69070669Y-35020522D01*
X69130248Y-34850255D01*
X69132131Y-34833544D01*
X69150445Y-34671003D01*
X69150445Y-34670996D01*
X69136136Y-34543996D01*
X73235435Y-34543996D01*
X73235435Y-34544003D01*
X73255630Y-34723249D01*
X73255631Y-34723254D01*
X73315211Y-34893523D01*
X73411184Y-35046262D01*
X73519741Y-35154819D01*
X73553226Y-35216142D01*
X73548242Y-35285834D01*
X73519741Y-35330181D01*
X73411184Y-35438737D01*
X73315211Y-35591476D01*
X73255631Y-35761745D01*
X73255630Y-35761750D01*
X73235435Y-35940996D01*
X73235435Y-35941003D01*
X73255630Y-36120249D01*
X73255631Y-36120254D01*
X73315211Y-36290523D01*
X73411184Y-36443262D01*
X73519741Y-36551819D01*
X73553226Y-36613142D01*
X73548242Y-36682834D01*
X73519741Y-36727181D01*
X73411184Y-36835737D01*
X73315211Y-36988476D01*
X73255631Y-37158745D01*
X73255630Y-37158750D01*
X73235435Y-37337996D01*
X73235435Y-37338003D01*
X73255630Y-37517249D01*
X73255631Y-37517254D01*
X73315211Y-37687523D01*
X73407720Y-37834749D01*
X73411184Y-37840262D01*
X73538738Y-37967816D01*
X73691478Y-38063789D01*
X73861745Y-38123368D01*
X73861750Y-38123369D01*
X74040996Y-38143565D01*
X74041000Y-38143565D01*
X74041004Y-38143565D01*
X74220249Y-38123369D01*
X74220252Y-38123368D01*
X74220255Y-38123368D01*
X74390522Y-38063789D01*
X74543262Y-37967816D01*
X74670816Y-37840262D01*
X74766789Y-37687522D01*
X74826368Y-37517255D01*
X74826369Y-37517249D01*
X74846565Y-37338003D01*
X74846565Y-37337996D01*
X74826369Y-37158750D01*
X74826368Y-37158745D01*
X74766788Y-36988476D01*
X74692427Y-36870132D01*
X74670816Y-36835738D01*
X74562259Y-36727181D01*
X74528774Y-36665858D01*
X74533758Y-36596166D01*
X74562259Y-36551819D01*
X74574290Y-36539788D01*
X74670816Y-36443262D01*
X74766789Y-36290522D01*
X74826368Y-36120255D01*
X74826369Y-36120249D01*
X74846565Y-35941003D01*
X74846565Y-35940996D01*
X74826369Y-35761750D01*
X74826368Y-35761745D01*
X74798485Y-35682059D01*
X74766789Y-35591478D01*
X74718104Y-35513997D01*
X79464751Y-35513997D01*
X79464751Y-35514002D01*
X79483685Y-35682056D01*
X79539545Y-35841694D01*
X79539547Y-35841697D01*
X79629518Y-35984884D01*
X79629523Y-35984890D01*
X79749109Y-36104476D01*
X79749115Y-36104481D01*
X79892302Y-36194452D01*
X79892305Y-36194454D01*
X79892309Y-36194455D01*
X79892310Y-36194456D01*
X79964913Y-36219860D01*
X80051943Y-36250314D01*
X80219997Y-36269249D01*
X80220000Y-36269249D01*
X80220003Y-36269249D01*
X80388056Y-36250314D01*
X80388059Y-36250313D01*
X80547690Y-36194456D01*
X80547692Y-36194454D01*
X80547694Y-36194454D01*
X80547697Y-36194452D01*
X80690884Y-36104481D01*
X80690885Y-36104480D01*
X80690890Y-36104477D01*
X80810477Y-35984890D01*
X80900452Y-35841697D01*
X80900454Y-35841694D01*
X80900454Y-35841692D01*
X80900456Y-35841690D01*
X80956313Y-35682059D01*
X80956313Y-35682058D01*
X80956314Y-35682056D01*
X80975249Y-35514002D01*
X80975249Y-35513997D01*
X83864751Y-35513997D01*
X83864751Y-35514002D01*
X83883685Y-35682056D01*
X83939545Y-35841694D01*
X83939547Y-35841697D01*
X84029518Y-35984884D01*
X84029523Y-35984890D01*
X84149109Y-36104476D01*
X84149115Y-36104481D01*
X84292302Y-36194452D01*
X84292305Y-36194454D01*
X84292309Y-36194455D01*
X84292310Y-36194456D01*
X84364913Y-36219860D01*
X84451943Y-36250314D01*
X84619997Y-36269249D01*
X84620000Y-36269249D01*
X84620003Y-36269249D01*
X84788056Y-36250314D01*
X84788059Y-36250313D01*
X84947690Y-36194456D01*
X84947692Y-36194454D01*
X84947694Y-36194454D01*
X84947697Y-36194452D01*
X85090884Y-36104481D01*
X85090885Y-36104480D01*
X85090890Y-36104477D01*
X85210477Y-35984890D01*
X85300452Y-35841697D01*
X85300454Y-35841694D01*
X85300454Y-35841692D01*
X85300456Y-35841690D01*
X85356313Y-35682059D01*
X85356313Y-35682058D01*
X85356314Y-35682056D01*
X85375249Y-35514002D01*
X85375249Y-35513997D01*
X85356314Y-35345943D01*
X85316183Y-35231255D01*
X85300456Y-35186310D01*
X85300455Y-35186309D01*
X85300454Y-35186305D01*
X85300452Y-35186302D01*
X85210481Y-35043115D01*
X85210476Y-35043109D01*
X85090890Y-34923523D01*
X85090884Y-34923518D01*
X84947697Y-34833547D01*
X84947694Y-34833545D01*
X84788056Y-34777685D01*
X84620003Y-34758751D01*
X84619997Y-34758751D01*
X84451943Y-34777685D01*
X84292305Y-34833545D01*
X84292302Y-34833547D01*
X84149115Y-34923518D01*
X84149109Y-34923523D01*
X84029523Y-35043109D01*
X84029518Y-35043115D01*
X83939547Y-35186302D01*
X83939545Y-35186305D01*
X83883685Y-35345943D01*
X83864751Y-35513997D01*
X80975249Y-35513997D01*
X80956314Y-35345943D01*
X80916183Y-35231255D01*
X80900456Y-35186310D01*
X80900455Y-35186309D01*
X80900454Y-35186305D01*
X80900452Y-35186302D01*
X80810481Y-35043115D01*
X80810476Y-35043109D01*
X80690890Y-34923523D01*
X80690884Y-34923518D01*
X80547697Y-34833547D01*
X80547694Y-34833545D01*
X80388056Y-34777685D01*
X80220003Y-34758751D01*
X80219997Y-34758751D01*
X80051943Y-34777685D01*
X79892305Y-34833545D01*
X79892302Y-34833547D01*
X79749115Y-34923518D01*
X79749109Y-34923523D01*
X79629523Y-35043109D01*
X79629518Y-35043115D01*
X79539547Y-35186302D01*
X79539545Y-35186305D01*
X79483685Y-35345943D01*
X79464751Y-35513997D01*
X74718104Y-35513997D01*
X74670816Y-35438738D01*
X74562259Y-35330181D01*
X74528774Y-35268858D01*
X74533758Y-35199166D01*
X74562259Y-35154819D01*
X74670816Y-35046262D01*
X74766789Y-34893522D01*
X74826368Y-34723255D01*
X74828709Y-34702478D01*
X74846565Y-34544003D01*
X74846565Y-34543996D01*
X74826369Y-34364750D01*
X74826368Y-34364745D01*
X74811228Y-34321478D01*
X74766789Y-34194478D01*
X74750615Y-34168738D01*
X74670815Y-34041737D01*
X74543262Y-33914184D01*
X74390523Y-33818211D01*
X74220254Y-33758631D01*
X74220249Y-33758630D01*
X74041004Y-33738435D01*
X74040996Y-33738435D01*
X73861750Y-33758630D01*
X73861745Y-33758631D01*
X73691476Y-33818211D01*
X73538737Y-33914184D01*
X73411184Y-34041737D01*
X73315211Y-34194476D01*
X73255631Y-34364745D01*
X73255630Y-34364750D01*
X73235435Y-34543996D01*
X69136136Y-34543996D01*
X69130249Y-34491750D01*
X69130248Y-34491745D01*
X69070669Y-34321478D01*
X68974696Y-34168738D01*
X68847142Y-34041184D01*
X68694403Y-33945211D01*
X68524134Y-33885631D01*
X68524129Y-33885630D01*
X68344884Y-33865435D01*
X68344876Y-33865435D01*
X68165630Y-33885630D01*
X68165625Y-33885631D01*
X67995356Y-33945211D01*
X67842617Y-34041184D01*
X67715064Y-34168737D01*
X67619091Y-34321476D01*
X67559511Y-34491745D01*
X67559510Y-34491750D01*
X67539315Y-34670996D01*
X39827706Y-34670996D01*
X39751513Y-34549737D01*
X39623960Y-34422184D01*
X39471221Y-34326211D01*
X39300952Y-34266631D01*
X39300947Y-34266630D01*
X39121702Y-34246435D01*
X39121694Y-34246435D01*
X38942448Y-34266630D01*
X38942443Y-34266631D01*
X38772174Y-34326211D01*
X38619435Y-34422184D01*
X38491882Y-34549737D01*
X38395909Y-34702476D01*
X38336329Y-34872745D01*
X38336328Y-34872750D01*
X38316133Y-35051996D01*
X26535027Y-35051996D01*
X26468254Y-35028631D01*
X26468249Y-35028630D01*
X26289004Y-35008435D01*
X26288996Y-35008435D01*
X26109750Y-35028630D01*
X26109745Y-35028631D01*
X25939476Y-35088211D01*
X25786737Y-35184184D01*
X25659184Y-35311737D01*
X25563211Y-35464476D01*
X25503631Y-35634745D01*
X25503630Y-35634750D01*
X25483435Y-35813996D01*
X18494500Y-35813996D01*
X18494500Y-27028798D01*
X18911290Y-27028798D01*
X18911290Y-27028801D01*
X18931704Y-27314233D01*
X18992528Y-27593837D01*
X18992530Y-27593843D01*
X18992531Y-27593846D01*
X19086012Y-27844478D01*
X19092535Y-27861966D01*
X19229670Y-28113109D01*
X19229675Y-28113117D01*
X19401154Y-28342187D01*
X19401170Y-28342205D01*
X19603494Y-28544529D01*
X19603512Y-28544545D01*
X19832582Y-28716024D01*
X19832595Y-28716032D01*
X19872760Y-28737964D01*
X19922166Y-28787369D01*
X19937018Y-28855642D01*
X19912601Y-28921106D01*
X19869630Y-28957280D01*
X19820267Y-28982432D01*
X19673830Y-29088823D01*
X19545823Y-29216830D01*
X19439434Y-29363265D01*
X19357252Y-29524552D01*
X19357250Y-29524558D01*
X19301318Y-29696704D01*
X19301315Y-29696714D01*
X19298261Y-29716000D01*
X20256012Y-29716000D01*
X20238795Y-29725940D01*
X20182940Y-29781795D01*
X20143444Y-29850204D01*
X20123000Y-29926504D01*
X20123000Y-30005496D01*
X20143444Y-30081796D01*
X20182940Y-30150205D01*
X20238795Y-30206060D01*
X20256012Y-30216000D01*
X19298261Y-30216000D01*
X19301315Y-30235285D01*
X19301318Y-30235295D01*
X19357250Y-30407441D01*
X19357252Y-30407447D01*
X19439434Y-30568734D01*
X19545823Y-30715169D01*
X19673830Y-30843176D01*
X19820265Y-30949565D01*
X19981552Y-31031747D01*
X19981555Y-31031748D01*
X20153706Y-31087682D01*
X20332494Y-31116000D01*
X20823000Y-31116000D01*
X20823000Y-30266000D01*
X21323000Y-30266000D01*
X21323000Y-31116000D01*
X21813506Y-31116000D01*
X21992293Y-31087682D01*
X22164444Y-31031748D01*
X22164447Y-31031747D01*
X22325734Y-30949565D01*
X22472169Y-30843176D01*
X22600176Y-30715169D01*
X22706565Y-30568734D01*
X22788747Y-30407447D01*
X22788749Y-30407441D01*
X22844681Y-30235295D01*
X22844684Y-30235285D01*
X22847739Y-30216000D01*
X21889988Y-30216000D01*
X21907205Y-30206060D01*
X21963060Y-30150205D01*
X22002556Y-30081796D01*
X22023000Y-30005496D01*
X22023000Y-29926504D01*
X22002556Y-29850204D01*
X21963060Y-29781795D01*
X21907205Y-29725940D01*
X21889988Y-29716000D01*
X22847739Y-29716000D01*
X23273261Y-29716000D01*
X24231012Y-29716000D01*
X24213795Y-29725940D01*
X24157940Y-29781795D01*
X24118444Y-29850204D01*
X24098000Y-29926504D01*
X24098000Y-30005496D01*
X24118444Y-30081796D01*
X24157940Y-30150205D01*
X24213795Y-30206060D01*
X24231012Y-30216000D01*
X23273261Y-30216000D01*
X23276315Y-30235285D01*
X23276318Y-30235295D01*
X23332250Y-30407441D01*
X23332252Y-30407447D01*
X23414434Y-30568734D01*
X23520823Y-30715169D01*
X23648826Y-30843172D01*
X23648831Y-30843176D01*
X23660070Y-30851342D01*
X23702736Y-30906672D01*
X23708715Y-30976285D01*
X23694573Y-31013659D01*
X23660017Y-31073512D01*
X23660017Y-31073513D01*
X23660016Y-31073515D01*
X23622500Y-31213525D01*
X23622500Y-31358475D01*
X23660016Y-31498485D01*
X23660017Y-31498486D01*
X23662120Y-31506335D01*
X23658823Y-31507218D01*
X23664555Y-31561071D01*
X23633213Y-31623516D01*
X23630241Y-31626593D01*
X23627274Y-31629560D01*
X23627269Y-31629566D01*
X23531294Y-31782308D01*
X23471714Y-31952577D01*
X23471713Y-31952582D01*
X23451518Y-32131828D01*
X23451518Y-32131835D01*
X23471713Y-32311081D01*
X23471714Y-32311086D01*
X23531294Y-32481355D01*
X23627267Y-32634094D01*
X23754821Y-32761648D01*
X23907561Y-32857621D01*
X24077828Y-32917200D01*
X24077833Y-32917201D01*
X24257079Y-32937397D01*
X24257083Y-32937397D01*
X24257087Y-32937397D01*
X24436332Y-32917201D01*
X24436335Y-32917200D01*
X24436338Y-32917200D01*
X24606605Y-32857621D01*
X24759345Y-32761648D01*
X24886899Y-32634094D01*
X24982872Y-32481354D01*
X25042451Y-32311087D01*
X25062648Y-32131832D01*
X25044329Y-31969249D01*
X25042452Y-31952582D01*
X25042451Y-31952577D01*
X25041659Y-31950313D01*
X24982872Y-31782310D01*
X24886899Y-31629570D01*
X24759345Y-31502016D01*
X24754421Y-31497092D01*
X24755862Y-31495650D01*
X24721448Y-31446602D01*
X24718610Y-31376790D01*
X24719134Y-31374767D01*
X24723500Y-31358475D01*
X24723500Y-31213997D01*
X79464751Y-31213997D01*
X79464751Y-31214002D01*
X79483685Y-31382056D01*
X79539545Y-31541694D01*
X79539547Y-31541697D01*
X79629518Y-31684884D01*
X79629523Y-31684890D01*
X79749109Y-31804476D01*
X79749115Y-31804481D01*
X79892302Y-31894452D01*
X79892305Y-31894454D01*
X79892309Y-31894455D01*
X79892310Y-31894456D01*
X79964913Y-31919860D01*
X80051943Y-31950314D01*
X80219997Y-31969249D01*
X80220000Y-31969249D01*
X80220003Y-31969249D01*
X80388056Y-31950314D01*
X80388059Y-31950313D01*
X80547690Y-31894456D01*
X80547692Y-31894454D01*
X80547694Y-31894454D01*
X80547697Y-31894452D01*
X80690884Y-31804481D01*
X80690885Y-31804480D01*
X80690890Y-31804477D01*
X80810477Y-31684890D01*
X80845240Y-31629566D01*
X80900452Y-31541697D01*
X80900454Y-31541694D01*
X80900454Y-31541692D01*
X80900456Y-31541690D01*
X80956313Y-31382059D01*
X80956313Y-31382058D01*
X80956314Y-31382056D01*
X80975249Y-31214002D01*
X80975249Y-31213997D01*
X83864751Y-31213997D01*
X83864751Y-31214002D01*
X83883685Y-31382056D01*
X83939545Y-31541694D01*
X83939547Y-31541697D01*
X84029518Y-31684884D01*
X84029523Y-31684890D01*
X84149109Y-31804476D01*
X84149115Y-31804481D01*
X84292302Y-31894452D01*
X84292305Y-31894454D01*
X84292309Y-31894455D01*
X84292310Y-31894456D01*
X84364913Y-31919860D01*
X84451943Y-31950314D01*
X84619997Y-31969249D01*
X84620000Y-31969249D01*
X84620003Y-31969249D01*
X84788056Y-31950314D01*
X84788059Y-31950313D01*
X84947690Y-31894456D01*
X84947692Y-31894454D01*
X84947694Y-31894454D01*
X84947697Y-31894452D01*
X85090884Y-31804481D01*
X85090885Y-31804480D01*
X85090890Y-31804477D01*
X85210477Y-31684890D01*
X85245240Y-31629566D01*
X85300452Y-31541697D01*
X85300454Y-31541694D01*
X85300454Y-31541692D01*
X85300456Y-31541690D01*
X85356313Y-31382059D01*
X85356313Y-31382058D01*
X85356314Y-31382056D01*
X85375249Y-31214002D01*
X85375249Y-31213997D01*
X85356314Y-31045943D01*
X85300454Y-30886305D01*
X85300452Y-30886302D01*
X85210481Y-30743115D01*
X85210476Y-30743109D01*
X85090890Y-30623523D01*
X85090884Y-30623518D01*
X84947697Y-30533547D01*
X84947694Y-30533545D01*
X84788056Y-30477685D01*
X84620003Y-30458751D01*
X84619997Y-30458751D01*
X84451943Y-30477685D01*
X84292305Y-30533545D01*
X84292302Y-30533547D01*
X84149115Y-30623518D01*
X84149109Y-30623523D01*
X84029523Y-30743109D01*
X84029518Y-30743115D01*
X83939547Y-30886302D01*
X83939545Y-30886305D01*
X83883685Y-31045943D01*
X83864751Y-31213997D01*
X80975249Y-31213997D01*
X80956314Y-31045943D01*
X80900454Y-30886305D01*
X80900452Y-30886302D01*
X80810481Y-30743115D01*
X80810476Y-30743109D01*
X80690890Y-30623523D01*
X80690884Y-30623518D01*
X80547697Y-30533547D01*
X80547694Y-30533545D01*
X80388056Y-30477685D01*
X80220003Y-30458751D01*
X80219997Y-30458751D01*
X80051943Y-30477685D01*
X79892305Y-30533545D01*
X79892302Y-30533547D01*
X79749115Y-30623518D01*
X79749109Y-30623523D01*
X79629523Y-30743109D01*
X79629518Y-30743115D01*
X79539547Y-30886302D01*
X79539545Y-30886305D01*
X79483685Y-31045943D01*
X79464751Y-31213997D01*
X24723500Y-31213997D01*
X24723500Y-31213525D01*
X24685984Y-31073515D01*
X24664613Y-31036499D01*
X24648000Y-30974499D01*
X24648000Y-30266000D01*
X25148000Y-30266000D01*
X25148000Y-31116000D01*
X25488506Y-31116000D01*
X25667293Y-31087682D01*
X25839444Y-31031748D01*
X25839447Y-31031747D01*
X26000734Y-30949565D01*
X26147169Y-30843176D01*
X26275176Y-30715169D01*
X26381565Y-30568734D01*
X26463747Y-30407447D01*
X26463749Y-30407441D01*
X26519681Y-30235295D01*
X26519684Y-30235285D01*
X26522739Y-30216000D01*
X25564988Y-30216000D01*
X25582205Y-30206060D01*
X25638060Y-30150205D01*
X25677556Y-30081796D01*
X25698000Y-30005496D01*
X25698000Y-29926504D01*
X25677556Y-29850204D01*
X25638060Y-29781795D01*
X25582205Y-29725940D01*
X25564988Y-29716000D01*
X26522739Y-29716000D01*
X26519684Y-29696714D01*
X26519681Y-29696704D01*
X26463749Y-29524558D01*
X26463747Y-29524552D01*
X26381565Y-29363265D01*
X26275176Y-29216830D01*
X26147169Y-29088823D01*
X26000734Y-28982434D01*
X25839447Y-28900252D01*
X25839444Y-28900251D01*
X25667293Y-28844317D01*
X25488506Y-28816000D01*
X25148000Y-28816000D01*
X25148000Y-29666000D01*
X24648000Y-29666000D01*
X24648000Y-28816000D01*
X24307494Y-28816000D01*
X24128706Y-28844317D01*
X23956555Y-28900251D01*
X23956552Y-28900252D01*
X23795265Y-28982434D01*
X23648830Y-29088823D01*
X23520823Y-29216830D01*
X23414434Y-29363265D01*
X23332252Y-29524552D01*
X23332250Y-29524558D01*
X23276318Y-29696704D01*
X23276315Y-29696714D01*
X23273261Y-29716000D01*
X22847739Y-29716000D01*
X22844684Y-29696714D01*
X22844681Y-29696704D01*
X22788749Y-29524558D01*
X22788747Y-29524552D01*
X22706565Y-29363265D01*
X22600176Y-29216830D01*
X22472169Y-29088823D01*
X22325734Y-28982434D01*
X22164447Y-28900253D01*
X22106431Y-28881402D01*
X22048756Y-28841964D01*
X22021558Y-28777605D01*
X22033473Y-28708759D01*
X22070435Y-28664207D01*
X22230295Y-28544539D01*
X22432639Y-28342195D01*
X22604126Y-28113115D01*
X22698656Y-27939996D01*
X63456435Y-27939996D01*
X63456435Y-27940003D01*
X63476630Y-28119249D01*
X63476631Y-28119254D01*
X63536211Y-28289523D01*
X63575769Y-28352478D01*
X63632184Y-28442262D01*
X63759738Y-28569816D01*
X63912478Y-28665789D01*
X63912479Y-28665789D01*
X63913440Y-28666393D01*
X63959731Y-28718728D01*
X63970688Y-28757503D01*
X63984630Y-28881250D01*
X63984631Y-28881254D01*
X64044211Y-29051523D01*
X64083769Y-29114478D01*
X64140184Y-29204262D01*
X64267738Y-29331816D01*
X64420478Y-29427789D01*
X64523952Y-29463996D01*
X64590745Y-29487368D01*
X64590750Y-29487369D01*
X64769996Y-29507565D01*
X64770000Y-29507565D01*
X64770004Y-29507565D01*
X64949249Y-29487369D01*
X64949252Y-29487368D01*
X64949255Y-29487368D01*
X65016048Y-29463996D01*
X90634435Y-29463996D01*
X90634435Y-29464003D01*
X90654630Y-29643249D01*
X90654631Y-29643254D01*
X90714211Y-29813523D01*
X90810184Y-29966262D01*
X90810185Y-29966263D01*
X90855241Y-30011320D01*
X90888725Y-30072643D01*
X90883740Y-30142335D01*
X90855241Y-30186680D01*
X90810184Y-30231737D01*
X90714211Y-30384476D01*
X90654631Y-30554745D01*
X90654630Y-30554750D01*
X90634435Y-30733996D01*
X90634435Y-30734003D01*
X90654630Y-30913249D01*
X90654631Y-30913254D01*
X90714211Y-31083523D01*
X90734618Y-31116000D01*
X90810184Y-31236262D01*
X90937738Y-31363816D01*
X91090478Y-31459789D01*
X91192963Y-31495650D01*
X91260745Y-31519368D01*
X91260750Y-31519369D01*
X91439996Y-31539565D01*
X91440000Y-31539565D01*
X91440004Y-31539565D01*
X91619249Y-31519369D01*
X91619252Y-31519368D01*
X91619255Y-31519368D01*
X91789522Y-31459789D01*
X91942262Y-31363816D01*
X92069816Y-31236262D01*
X92165789Y-31083522D01*
X92225368Y-30913255D01*
X92233264Y-30843176D01*
X92245565Y-30734003D01*
X92245565Y-30733996D01*
X92225369Y-30554750D01*
X92225368Y-30554745D01*
X92198404Y-30477687D01*
X92165789Y-30384478D01*
X92069816Y-30231738D01*
X92024758Y-30186680D01*
X91991274Y-30125358D01*
X91996258Y-30055666D01*
X92024759Y-30011319D01*
X92030582Y-30005496D01*
X92069816Y-29966262D01*
X92165789Y-29813522D01*
X92225368Y-29643255D01*
X92238742Y-29524558D01*
X92245565Y-29464003D01*
X92245565Y-29463996D01*
X92225369Y-29284750D01*
X92225368Y-29284745D01*
X92165789Y-29114478D01*
X92069816Y-28961738D01*
X91942262Y-28834184D01*
X91789523Y-28738211D01*
X91619254Y-28678631D01*
X91619249Y-28678630D01*
X91440004Y-28658435D01*
X91439996Y-28658435D01*
X91260750Y-28678630D01*
X91260745Y-28678631D01*
X91090476Y-28738211D01*
X90937737Y-28834184D01*
X90810184Y-28961737D01*
X90714211Y-29114476D01*
X90654631Y-29284745D01*
X90654630Y-29284750D01*
X90634435Y-29463996D01*
X65016048Y-29463996D01*
X65119522Y-29427789D01*
X65272262Y-29331816D01*
X65399816Y-29204262D01*
X65495789Y-29051522D01*
X65555368Y-28881255D01*
X65555369Y-28881249D01*
X65575565Y-28702003D01*
X65575565Y-28701996D01*
X65555369Y-28522750D01*
X65555368Y-28522745D01*
X65527206Y-28442262D01*
X65495789Y-28352478D01*
X65399816Y-28199738D01*
X65272262Y-28072184D01*
X65272260Y-28072182D01*
X65264013Y-28067000D01*
X69883815Y-28067000D01*
X69902503Y-28244805D01*
X69902504Y-28244807D01*
X69957747Y-28414829D01*
X69957750Y-28414835D01*
X70047141Y-28569665D01*
X70088812Y-28615946D01*
X70166764Y-28702521D01*
X70166767Y-28702523D01*
X70166770Y-28702526D01*
X70311407Y-28807612D01*
X70474733Y-28880329D01*
X70649609Y-28917500D01*
X70649610Y-28917500D01*
X70828389Y-28917500D01*
X70828391Y-28917500D01*
X71003267Y-28880329D01*
X71166593Y-28807612D01*
X71311230Y-28702526D01*
X71319377Y-28693476D01*
X71378861Y-28656828D01*
X71448718Y-28658157D01*
X71500054Y-28692543D01*
X71501260Y-28691338D01*
X71506184Y-28696262D01*
X71633738Y-28823816D01*
X71666365Y-28844317D01*
X71755386Y-28900253D01*
X71786478Y-28919789D01*
X71956745Y-28979368D01*
X71956750Y-28979369D01*
X72135996Y-28999565D01*
X72136000Y-28999565D01*
X72136004Y-28999565D01*
X72315249Y-28979369D01*
X72315252Y-28979368D01*
X72315255Y-28979368D01*
X72485522Y-28919789D01*
X72638262Y-28823816D01*
X72765816Y-28696262D01*
X72861789Y-28543522D01*
X72921368Y-28373255D01*
X72923709Y-28352478D01*
X72941565Y-28194003D01*
X72941565Y-28193996D01*
X72921369Y-28014750D01*
X72921368Y-28014745D01*
X72895215Y-27940003D01*
X72861789Y-27844478D01*
X72765816Y-27691738D01*
X72638262Y-27564184D01*
X72638260Y-27564183D01*
X72485523Y-27468211D01*
X72315254Y-27408631D01*
X72315249Y-27408630D01*
X72136004Y-27388435D01*
X72135996Y-27388435D01*
X71956750Y-27408630D01*
X71956745Y-27408631D01*
X71786476Y-27468211D01*
X71633738Y-27564183D01*
X71618825Y-27579096D01*
X71557500Y-27612578D01*
X71487809Y-27607590D01*
X71435786Y-27568642D01*
X71435207Y-27569164D01*
X71432565Y-27566230D01*
X71431877Y-27565715D01*
X71430860Y-27564336D01*
X71311235Y-27431478D01*
X71311232Y-27431476D01*
X71311231Y-27431475D01*
X71311230Y-27431474D01*
X71166593Y-27326388D01*
X71003267Y-27253671D01*
X71003265Y-27253670D01*
X70875594Y-27226533D01*
X70828391Y-27216500D01*
X70649609Y-27216500D01*
X70618954Y-27223015D01*
X70474733Y-27253670D01*
X70474728Y-27253672D01*
X70311408Y-27326387D01*
X70166768Y-27431475D01*
X70047140Y-27564336D01*
X69957750Y-27719164D01*
X69957747Y-27719170D01*
X69902504Y-27889192D01*
X69902503Y-27889194D01*
X69883815Y-28067000D01*
X65264013Y-28067000D01*
X65118558Y-27975604D01*
X65072268Y-27923270D01*
X65061311Y-27884494D01*
X65047369Y-27760750D01*
X65047368Y-27760745D01*
X65032820Y-27719170D01*
X64987789Y-27590478D01*
X64972229Y-27565715D01*
X64902894Y-27455369D01*
X64891816Y-27437738D01*
X64764262Y-27310184D01*
X64611523Y-27214211D01*
X64441254Y-27154631D01*
X64441249Y-27154630D01*
X64262004Y-27134435D01*
X64261996Y-27134435D01*
X64082750Y-27154630D01*
X64082745Y-27154631D01*
X63912476Y-27214211D01*
X63759737Y-27310184D01*
X63632184Y-27437737D01*
X63536211Y-27590476D01*
X63476631Y-27760745D01*
X63476630Y-27760750D01*
X63456435Y-27939996D01*
X22698656Y-27939996D01*
X22741267Y-27861961D01*
X22841269Y-27593846D01*
X22846752Y-27568642D01*
X22902095Y-27314233D01*
X22902095Y-27314232D01*
X22902096Y-27314228D01*
X22922510Y-27028800D01*
X22921846Y-27019522D01*
X22909669Y-26849255D01*
X22902096Y-26743372D01*
X22886134Y-26669996D01*
X53804435Y-26669996D01*
X53804435Y-26670003D01*
X53824630Y-26849249D01*
X53824631Y-26849254D01*
X53884211Y-27019523D01*
X53890041Y-27028801D01*
X53980184Y-27172262D01*
X54107738Y-27299816D01*
X54260478Y-27395789D01*
X54430745Y-27455368D01*
X54430750Y-27455369D01*
X54609996Y-27475565D01*
X54610000Y-27475565D01*
X54610004Y-27475565D01*
X54789249Y-27455369D01*
X54789252Y-27455368D01*
X54789255Y-27455368D01*
X54959522Y-27395789D01*
X55112262Y-27299816D01*
X55239816Y-27172262D01*
X55329960Y-27028798D01*
X93909870Y-27028798D01*
X93909870Y-27028801D01*
X93930284Y-27314233D01*
X93991108Y-27593837D01*
X93991110Y-27593843D01*
X93991111Y-27593846D01*
X94084592Y-27844478D01*
X94091115Y-27861966D01*
X94228250Y-28113109D01*
X94228255Y-28113117D01*
X94399734Y-28342187D01*
X94399750Y-28342205D01*
X94602074Y-28544529D01*
X94602092Y-28544545D01*
X94831162Y-28716024D01*
X94831170Y-28716029D01*
X95082313Y-28853164D01*
X95082312Y-28853164D01*
X95082316Y-28853165D01*
X95082319Y-28853167D01*
X95350434Y-28953169D01*
X95350440Y-28953170D01*
X95350442Y-28953171D01*
X95630046Y-29013995D01*
X95630048Y-29013995D01*
X95630052Y-29013996D01*
X95883700Y-29032137D01*
X95915479Y-29034410D01*
X95915480Y-29034410D01*
X95915481Y-29034410D01*
X95944075Y-29032364D01*
X96200908Y-29013996D01*
X96267247Y-28999565D01*
X96480517Y-28953171D01*
X96480517Y-28953170D01*
X96480526Y-28953169D01*
X96748641Y-28853167D01*
X96999795Y-28716026D01*
X97228875Y-28544539D01*
X97431219Y-28342195D01*
X97602706Y-28113115D01*
X97739847Y-27861961D01*
X97839849Y-27593846D01*
X97845332Y-27568642D01*
X97900675Y-27314233D01*
X97900675Y-27314232D01*
X97900676Y-27314228D01*
X97921090Y-27028800D01*
X97920426Y-27019522D01*
X97908249Y-26849255D01*
X97900676Y-26743372D01*
X97839849Y-26463754D01*
X97739847Y-26195639D01*
X97724611Y-26167737D01*
X97602709Y-25944490D01*
X97602704Y-25944482D01*
X97431225Y-25715412D01*
X97431209Y-25715394D01*
X97228885Y-25513070D01*
X97228867Y-25513054D01*
X96999797Y-25341575D01*
X96999789Y-25341570D01*
X96748646Y-25204435D01*
X96748647Y-25204435D01*
X96641395Y-25164432D01*
X96480526Y-25104431D01*
X96480523Y-25104430D01*
X96480517Y-25104428D01*
X96200913Y-25043604D01*
X95915481Y-25023190D01*
X95915479Y-25023190D01*
X95630046Y-25043604D01*
X95350442Y-25104428D01*
X95082313Y-25204435D01*
X94831170Y-25341570D01*
X94831162Y-25341575D01*
X94602092Y-25513054D01*
X94602074Y-25513070D01*
X94399750Y-25715394D01*
X94399734Y-25715412D01*
X94228255Y-25944482D01*
X94228250Y-25944490D01*
X94091115Y-26195633D01*
X93991108Y-26463762D01*
X93930284Y-26743366D01*
X93909870Y-27028798D01*
X55329960Y-27028798D01*
X55335789Y-27019522D01*
X55395368Y-26849255D01*
X55415565Y-26670000D01*
X55395368Y-26490745D01*
X55335789Y-26320478D01*
X55239816Y-26167738D01*
X55112262Y-26040184D01*
X54959523Y-25944211D01*
X54789254Y-25884631D01*
X54789249Y-25884630D01*
X54610004Y-25864435D01*
X54609996Y-25864435D01*
X54430750Y-25884630D01*
X54430745Y-25884631D01*
X54260476Y-25944211D01*
X54107737Y-26040184D01*
X53980184Y-26167737D01*
X53884211Y-26320476D01*
X53824631Y-26490745D01*
X53824630Y-26490750D01*
X53804435Y-26669996D01*
X22886134Y-26669996D01*
X22841269Y-26463754D01*
X22741267Y-26195639D01*
X22726031Y-26167737D01*
X22604129Y-25944490D01*
X22604124Y-25944482D01*
X22432645Y-25715412D01*
X22432629Y-25715394D01*
X22230305Y-25513070D01*
X22230287Y-25513054D01*
X22001217Y-25341575D01*
X22001209Y-25341570D01*
X21750066Y-25204435D01*
X21750067Y-25204435D01*
X21642815Y-25164432D01*
X21481946Y-25104431D01*
X21481943Y-25104430D01*
X21481937Y-25104428D01*
X21202333Y-25043604D01*
X20916901Y-25023190D01*
X20916899Y-25023190D01*
X20631466Y-25043604D01*
X20351862Y-25104428D01*
X20083733Y-25204435D01*
X19832590Y-25341570D01*
X19832582Y-25341575D01*
X19603512Y-25513054D01*
X19603494Y-25513070D01*
X19401170Y-25715394D01*
X19401154Y-25715412D01*
X19229675Y-25944482D01*
X19229670Y-25944490D01*
X19092535Y-26195633D01*
X18992528Y-26463762D01*
X18931704Y-26743366D01*
X18911290Y-27028798D01*
X18494500Y-27028798D01*
X18494500Y-24754500D01*
X18514185Y-24687461D01*
X18566989Y-24641706D01*
X18618500Y-24630500D01*
X98141500Y-24630500D01*
X98208539Y-24650185D01*
G37*
%TD.AperFunction*%
%TD*%
M02*
