%TF.GenerationSoftware,KiCad,Pcbnew,8.0.4*%
%TF.CreationDate,2024-10-27T11:38:07-06:00*%
%TF.ProjectId,SnakeTank,536e616b-6554-4616-9e6b-2e6b69636164,rev?*%
%TF.SameCoordinates,Original*%
%TF.FileFunction,Copper,L2,Inr*%
%TF.FilePolarity,Positive*%
%FSLAX46Y46*%
G04 Gerber Fmt 4.6, Leading zero omitted, Abs format (unit mm)*
G04 Created by KiCad (PCBNEW 8.0.4) date 2024-10-27 11:38:07*
%MOMM*%
%LPD*%
G01*
G04 APERTURE LIST*
%TA.AperFunction,ComponentPad*%
%ADD10C,0.400000*%
%TD*%
%TA.AperFunction,WasherPad*%
%ADD11C,4.000000*%
%TD*%
%TA.AperFunction,ComponentPad*%
%ADD12C,1.800000*%
%TD*%
%TA.AperFunction,ComponentPad*%
%ADD13R,1.700000X1.700000*%
%TD*%
%TA.AperFunction,ComponentPad*%
%ADD14O,1.700000X1.700000*%
%TD*%
%TA.AperFunction,ComponentPad*%
%ADD15R,1.458000X1.458000*%
%TD*%
%TA.AperFunction,ComponentPad*%
%ADD16C,1.458000*%
%TD*%
%TA.AperFunction,ComponentPad*%
%ADD17O,2.300000X1.300000*%
%TD*%
%TA.AperFunction,ComponentPad*%
%ADD18O,2.600000X1.300000*%
%TD*%
%TA.AperFunction,ComponentPad*%
%ADD19O,1.800000X2.600000*%
%TD*%
%TA.AperFunction,ComponentPad*%
%ADD20R,1.800000X2.600000*%
%TD*%
%TA.AperFunction,ComponentPad*%
%ADD21C,3.000000*%
%TD*%
%TA.AperFunction,ViaPad*%
%ADD22C,0.700000*%
%TD*%
%TA.AperFunction,ViaPad*%
%ADD23C,0.600000*%
%TD*%
G04 APERTURE END LIST*
D10*
%TO.N,GND*%
%TO.C,U2*%
X84920000Y-35914000D03*
X79920000Y-35914000D03*
X84920000Y-32914000D03*
X82920000Y-35914000D03*
X82920000Y-30914000D03*
X79920000Y-30914000D03*
X84920000Y-33914000D03*
X81920000Y-35914000D03*
X79920000Y-32914000D03*
X84920000Y-30914000D03*
X79920000Y-33914000D03*
X81920000Y-30914000D03*
%TD*%
D11*
%TO.N,*%
%TO.C,RV1*%
X41574000Y-46802000D03*
X50374000Y-46802000D03*
D12*
%TO.N,GND*%
X48474000Y-53802000D03*
%TO.N,Net-(DS1-VO)*%
X45974000Y-53802000D03*
%TO.N,+5V*%
X43474000Y-53802000D03*
%TD*%
D13*
%TO.N,IO3*%
%TO.C,J1*%
X68580000Y-52807000D03*
D14*
%TO.N,IO46*%
X71120000Y-52807000D03*
%TO.N,IO9*%
X73660000Y-52807000D03*
%TO.N,IO10*%
X76200000Y-52807000D03*
%TO.N,IO11*%
X78740000Y-52807000D03*
%TO.N,IO12*%
X81280000Y-52807000D03*
%TO.N,IO13*%
X83820000Y-52807000D03*
%TO.N,IO14*%
X86360000Y-52807000D03*
%TO.N,IO21*%
X88900000Y-52807000D03*
%TO.N,IO47*%
X91440000Y-52807000D03*
%TO.N,IO48*%
X93980000Y-52807000D03*
%TO.N,IO45*%
X96520000Y-52807000D03*
%TD*%
D15*
%TO.N,+5V*%
%TO.C,J3*%
X29340000Y-44196000D03*
D16*
%TO.N,GND*%
X31880000Y-45466000D03*
%TO.N,DHT11_1_data*%
X29340000Y-46736000D03*
%TO.N,DHT11_2_data*%
X31880000Y-48006000D03*
%TO.N,DHT11_3_data*%
X29340000Y-49276000D03*
%TO.N,DHT11_4_data*%
X31880000Y-50546000D03*
%TO.N,+5V*%
X29340000Y-51816000D03*
%TO.N,GND*%
X31880000Y-53086000D03*
%TD*%
D17*
%TO.N,GND*%
%TO.C,J2*%
X24898000Y-29966000D03*
D18*
X21073000Y-29966000D03*
D17*
X24898000Y-38606000D03*
D18*
X21073000Y-38606000D03*
%TD*%
D19*
%TO.N,GND*%
%TO.C,DS1*%
X64516000Y-58029500D03*
%TO.N,+5V*%
X61976000Y-58029500D03*
%TO.N,LCD_D7*%
X59436000Y-58029500D03*
%TO.N,LCD_D6*%
X56896000Y-58029500D03*
%TO.N,LCD_D5*%
X54356000Y-58029500D03*
%TO.N,LCD_D4*%
X51816000Y-58029500D03*
%TO.N,unconnected-(DS1-D3-Pad10)*%
X49276000Y-58029500D03*
%TO.N,unconnected-(DS1-D2-Pad9)*%
X46736000Y-58029500D03*
%TO.N,unconnected-(DS1-D1-Pad8)*%
X44196000Y-58029500D03*
%TO.N,unconnected-(DS1-D0-Pad7)*%
X41656000Y-58029500D03*
%TO.N,LCD_E*%
X39116000Y-58029500D03*
%TO.N,GND*%
X36576000Y-58029500D03*
%TO.N,LCD_RS*%
X34036000Y-58029500D03*
%TO.N,Net-(DS1-VO)*%
X31496000Y-58029500D03*
%TO.N,+5V*%
X28956000Y-58029500D03*
D20*
%TO.N,GND*%
X26416000Y-58029500D03*
D21*
%TO.N,*%
X95916000Y-58029500D03*
X95915480Y-27028800D03*
X20916900Y-58029500D03*
X20916900Y-27028800D03*
%TD*%
D22*
%TO.N,GND*%
X70104000Y-58420000D03*
X47498000Y-28702000D03*
X41275000Y-30353000D03*
X54864000Y-43434000D03*
D23*
X27051000Y-35814000D03*
X23495000Y-32131000D03*
%TO.N,Net-(FB1-Pad2)*%
X26289000Y-35814000D03*
X24257083Y-32131832D03*
D22*
%TO.N,GND*%
X61658500Y-33083500D03*
X64770000Y-27305000D03*
X63475180Y-28097364D03*
X27559000Y-36576000D03*
X24384000Y-39878000D03*
X25400000Y-39878000D03*
X24384000Y-28702000D03*
X20447000Y-31242000D03*
X30734000Y-54229000D03*
X30861000Y-46482000D03*
D23*
X39114946Y-34299628D03*
X36068000Y-38407903D03*
D22*
X30351000Y-32254000D03*
X32764000Y-38350000D03*
X25400000Y-28702000D03*
X21590000Y-31242000D03*
X21590000Y-37338000D03*
X20574000Y-37338000D03*
X33147000Y-44323000D03*
X30861000Y-51816000D03*
X66421000Y-58039000D03*
X24130000Y-58039000D03*
X37719000Y-55880000D03*
X54610000Y-27472403D03*
X56007000Y-28829000D03*
X90678000Y-25654000D03*
X77343000Y-25654000D03*
X26148236Y-37345764D03*
X26287000Y-31238000D03*
D23*
X73533000Y-35179000D03*
X73533000Y-36703000D03*
X73279000Y-37719000D03*
%TO.N,LCD_D4*%
X74041000Y-37338000D03*
%TO.N,LCD_E*%
X74041000Y-35941000D03*
%TO.N,LCD_RS*%
X74041000Y-34544000D03*
D22*
%TO.N,GND*%
X73279000Y-25781000D03*
D23*
X41026531Y-34480500D03*
X36576000Y-36449000D03*
D22*
X35179000Y-54229000D03*
X67809386Y-41246586D03*
X69323486Y-39224486D03*
X69342000Y-36957000D03*
X69342000Y-34671000D03*
X41656000Y-43434000D03*
X50292000Y-43434000D03*
D23*
%TO.N,/CHIP_PU*%
X72136000Y-28194000D03*
X64770000Y-28702000D03*
D22*
%TO.N,ESP_3V3*%
X70739000Y-28067000D03*
D23*
X64262000Y-27940000D03*
D22*
%TO.N,GND*%
X24763000Y-26412000D03*
X25779000Y-26412000D03*
D23*
%TO.N,/GPIO_0*%
X94488000Y-42164000D03*
X54610000Y-26670000D03*
%TO.N,/FTDI_UART_RX*%
X91440000Y-29464000D03*
X39121698Y-35052000D03*
%TO.N,DHT11_3_data*%
X68453000Y-39243000D03*
%TO.N,DHT11_2_data*%
X68453000Y-36957000D03*
%TO.N,DHT11_1_data*%
X68344880Y-34671000D03*
%TO.N,DHT11_4_data*%
X68643000Y-41339000D03*
%TO.N,/FDTI_UART_TX*%
X91440000Y-30734000D03*
X36068000Y-37655500D03*
D22*
%TO.N,GND*%
X63754000Y-30861000D03*
%TD*%
%TA.AperFunction,Conductor*%
%TO.N,GND*%
G36*
X98208539Y-24650185D02*
G01*
X98254294Y-24702989D01*
X98265500Y-24754500D01*
X98265500Y-60589500D01*
X98245815Y-60656539D01*
X98193011Y-60702294D01*
X98141500Y-60713500D01*
X18618500Y-60713500D01*
X18551461Y-60693815D01*
X18505706Y-60641011D01*
X18494500Y-60589500D01*
X18494500Y-58029498D01*
X19030594Y-58029498D01*
X19030594Y-58029501D01*
X19049794Y-58297950D01*
X19049795Y-58297957D01*
X19107001Y-58560927D01*
X19107003Y-58560934D01*
X19117326Y-58588611D01*
X19201056Y-58813101D01*
X19201058Y-58813105D01*
X19330034Y-59049308D01*
X19330039Y-59049316D01*
X19491318Y-59264760D01*
X19491334Y-59264778D01*
X19681621Y-59455065D01*
X19681639Y-59455081D01*
X19897083Y-59616360D01*
X19897091Y-59616365D01*
X20133294Y-59745341D01*
X20133298Y-59745343D01*
X20133300Y-59745344D01*
X20385466Y-59839397D01*
X20648451Y-59896606D01*
X20896219Y-59914326D01*
X20916899Y-59915806D01*
X20916900Y-59915806D01*
X20916901Y-59915806D01*
X20936101Y-59914432D01*
X21185349Y-59896606D01*
X21448334Y-59839397D01*
X21700500Y-59745344D01*
X21936714Y-59616362D01*
X22152168Y-59455075D01*
X22342475Y-59264768D01*
X22503762Y-59049314D01*
X22632744Y-58813100D01*
X22726797Y-58560934D01*
X22784006Y-58297949D01*
X22803206Y-58029500D01*
X22784006Y-57761051D01*
X22726797Y-57498066D01*
X22632744Y-57245900D01*
X22573594Y-57137575D01*
X22503765Y-57009691D01*
X22503760Y-57009683D01*
X22342481Y-56794239D01*
X22342465Y-56794221D01*
X22229899Y-56681655D01*
X25016000Y-56681655D01*
X25016000Y-57779500D01*
X25867518Y-57779500D01*
X25856889Y-57797909D01*
X25816000Y-57950509D01*
X25816000Y-58108491D01*
X25856889Y-58261091D01*
X25867518Y-58279500D01*
X25016000Y-58279500D01*
X25016000Y-59377344D01*
X25022401Y-59436872D01*
X25022403Y-59436879D01*
X25072645Y-59571586D01*
X25072649Y-59571593D01*
X25158809Y-59686687D01*
X25158812Y-59686690D01*
X25273906Y-59772850D01*
X25273913Y-59772854D01*
X25408620Y-59823096D01*
X25408627Y-59823098D01*
X25468155Y-59829499D01*
X25468172Y-59829500D01*
X26166000Y-59829500D01*
X26166000Y-58577982D01*
X26184409Y-58588611D01*
X26337009Y-58629500D01*
X26494991Y-58629500D01*
X26647591Y-58588611D01*
X26666000Y-58577982D01*
X26666000Y-59829500D01*
X27363828Y-59829500D01*
X27363844Y-59829499D01*
X27423372Y-59823098D01*
X27423379Y-59823096D01*
X27558086Y-59772854D01*
X27558093Y-59772850D01*
X27673187Y-59686690D01*
X27673190Y-59686687D01*
X27759350Y-59571593D01*
X27759354Y-59571586D01*
X27809596Y-59436879D01*
X27809598Y-59436872D01*
X27815041Y-59386252D01*
X27841779Y-59321700D01*
X27899171Y-59281852D01*
X27968996Y-59279359D01*
X28026011Y-59311826D01*
X28121159Y-59406974D01*
X28284347Y-59525537D01*
X28369260Y-59568802D01*
X28464070Y-59617111D01*
X28464072Y-59617111D01*
X28464075Y-59617113D01*
X28566904Y-59650524D01*
X28655914Y-59679446D01*
X28855139Y-59711000D01*
X28855144Y-59711000D01*
X29056861Y-59711000D01*
X29256085Y-59679446D01*
X29447925Y-59617113D01*
X29627653Y-59525537D01*
X29790841Y-59406974D01*
X29933474Y-59264341D01*
X30052037Y-59101153D01*
X30115515Y-58976569D01*
X30163490Y-58925774D01*
X30231310Y-58908979D01*
X30297445Y-58931516D01*
X30336484Y-58976569D01*
X30399963Y-59101153D01*
X30518526Y-59264341D01*
X30661159Y-59406974D01*
X30824347Y-59525537D01*
X30909260Y-59568802D01*
X31004070Y-59617111D01*
X31004072Y-59617111D01*
X31004075Y-59617113D01*
X31106904Y-59650524D01*
X31195914Y-59679446D01*
X31395139Y-59711000D01*
X31395144Y-59711000D01*
X31596861Y-59711000D01*
X31796085Y-59679446D01*
X31987925Y-59617113D01*
X32167653Y-59525537D01*
X32330841Y-59406974D01*
X32473474Y-59264341D01*
X32592037Y-59101153D01*
X32655515Y-58976569D01*
X32703490Y-58925774D01*
X32771310Y-58908979D01*
X32837445Y-58931516D01*
X32876484Y-58976569D01*
X32939963Y-59101153D01*
X33058526Y-59264341D01*
X33201159Y-59406974D01*
X33364347Y-59525537D01*
X33449260Y-59568802D01*
X33544070Y-59617111D01*
X33544072Y-59617111D01*
X33544075Y-59617113D01*
X33646904Y-59650524D01*
X33735914Y-59679446D01*
X33935139Y-59711000D01*
X33935144Y-59711000D01*
X34136861Y-59711000D01*
X34336085Y-59679446D01*
X34527925Y-59617113D01*
X34707653Y-59525537D01*
X34870841Y-59406974D01*
X35013474Y-59264341D01*
X35132037Y-59101153D01*
X35132041Y-59101146D01*
X35133698Y-59098442D01*
X35134598Y-59097627D01*
X35134901Y-59097211D01*
X35134988Y-59097274D01*
X35185509Y-59051565D01*
X35254438Y-59040140D01*
X35318602Y-59067795D01*
X35349913Y-59106933D01*
X35378613Y-59163260D01*
X35508142Y-59341541D01*
X35663958Y-59497357D01*
X35842239Y-59626886D01*
X36038589Y-59726932D01*
X36248163Y-59795026D01*
X36325999Y-59807354D01*
X36326000Y-59807354D01*
X36326000Y-58577982D01*
X36344409Y-58588611D01*
X36497009Y-58629500D01*
X36654991Y-58629500D01*
X36807591Y-58588611D01*
X36826000Y-58577982D01*
X36826000Y-59807354D01*
X36903834Y-59795026D01*
X36903837Y-59795026D01*
X37113410Y-59726932D01*
X37309760Y-59626886D01*
X37488041Y-59497357D01*
X37643857Y-59341541D01*
X37773388Y-59163258D01*
X37802086Y-59106934D01*
X37850059Y-59056138D01*
X37917880Y-59039342D01*
X37984015Y-59061879D01*
X38018294Y-59098431D01*
X38019958Y-59101146D01*
X38019962Y-59101152D01*
X38019963Y-59101153D01*
X38138526Y-59264341D01*
X38281159Y-59406974D01*
X38444347Y-59525537D01*
X38529260Y-59568802D01*
X38624070Y-59617111D01*
X38624072Y-59617111D01*
X38624075Y-59617113D01*
X38726904Y-59650524D01*
X38815914Y-59679446D01*
X39015139Y-59711000D01*
X39015144Y-59711000D01*
X39216861Y-59711000D01*
X39416085Y-59679446D01*
X39607925Y-59617113D01*
X39787653Y-59525537D01*
X39950841Y-59406974D01*
X40093474Y-59264341D01*
X40212037Y-59101153D01*
X40275515Y-58976569D01*
X40323490Y-58925774D01*
X40391310Y-58908979D01*
X40457445Y-58931516D01*
X40496484Y-58976569D01*
X40559963Y-59101153D01*
X40678526Y-59264341D01*
X40821159Y-59406974D01*
X40984347Y-59525537D01*
X41069260Y-59568802D01*
X41164070Y-59617111D01*
X41164072Y-59617111D01*
X41164075Y-59617113D01*
X41266904Y-59650524D01*
X41355914Y-59679446D01*
X41555139Y-59711000D01*
X41555144Y-59711000D01*
X41756861Y-59711000D01*
X41956085Y-59679446D01*
X42147925Y-59617113D01*
X42327653Y-59525537D01*
X42490841Y-59406974D01*
X42633474Y-59264341D01*
X42752037Y-59101153D01*
X42815515Y-58976569D01*
X42863490Y-58925774D01*
X42931310Y-58908979D01*
X42997445Y-58931516D01*
X43036484Y-58976569D01*
X43099963Y-59101153D01*
X43218526Y-59264341D01*
X43361159Y-59406974D01*
X43524347Y-59525537D01*
X43609260Y-59568802D01*
X43704070Y-59617111D01*
X43704072Y-59617111D01*
X43704075Y-59617113D01*
X43806904Y-59650524D01*
X43895914Y-59679446D01*
X44095139Y-59711000D01*
X44095144Y-59711000D01*
X44296861Y-59711000D01*
X44496085Y-59679446D01*
X44687925Y-59617113D01*
X44867653Y-59525537D01*
X45030841Y-59406974D01*
X45173474Y-59264341D01*
X45292037Y-59101153D01*
X45355515Y-58976569D01*
X45403490Y-58925774D01*
X45471310Y-58908979D01*
X45537445Y-58931516D01*
X45576484Y-58976569D01*
X45639963Y-59101153D01*
X45758526Y-59264341D01*
X45901159Y-59406974D01*
X46064347Y-59525537D01*
X46149260Y-59568802D01*
X46244070Y-59617111D01*
X46244072Y-59617111D01*
X46244075Y-59617113D01*
X46346904Y-59650524D01*
X46435914Y-59679446D01*
X46635139Y-59711000D01*
X46635144Y-59711000D01*
X46836861Y-59711000D01*
X47036085Y-59679446D01*
X47227925Y-59617113D01*
X47407653Y-59525537D01*
X47570841Y-59406974D01*
X47713474Y-59264341D01*
X47832037Y-59101153D01*
X47895515Y-58976569D01*
X47943490Y-58925774D01*
X48011310Y-58908979D01*
X48077445Y-58931516D01*
X48116484Y-58976569D01*
X48179963Y-59101153D01*
X48298526Y-59264341D01*
X48441159Y-59406974D01*
X48604347Y-59525537D01*
X48689260Y-59568802D01*
X48784070Y-59617111D01*
X48784072Y-59617111D01*
X48784075Y-59617113D01*
X48886904Y-59650524D01*
X48975914Y-59679446D01*
X49175139Y-59711000D01*
X49175144Y-59711000D01*
X49376861Y-59711000D01*
X49576085Y-59679446D01*
X49767925Y-59617113D01*
X49947653Y-59525537D01*
X50110841Y-59406974D01*
X50253474Y-59264341D01*
X50372037Y-59101153D01*
X50435515Y-58976569D01*
X50483490Y-58925774D01*
X50551310Y-58908979D01*
X50617445Y-58931516D01*
X50656484Y-58976569D01*
X50719963Y-59101153D01*
X50838526Y-59264341D01*
X50981159Y-59406974D01*
X51144347Y-59525537D01*
X51229260Y-59568802D01*
X51324070Y-59617111D01*
X51324072Y-59617111D01*
X51324075Y-59617113D01*
X51426904Y-59650524D01*
X51515914Y-59679446D01*
X51715139Y-59711000D01*
X51715144Y-59711000D01*
X51916861Y-59711000D01*
X52116085Y-59679446D01*
X52307925Y-59617113D01*
X52487653Y-59525537D01*
X52650841Y-59406974D01*
X52793474Y-59264341D01*
X52912037Y-59101153D01*
X52975515Y-58976569D01*
X53023490Y-58925774D01*
X53091310Y-58908979D01*
X53157445Y-58931516D01*
X53196484Y-58976569D01*
X53259963Y-59101153D01*
X53378526Y-59264341D01*
X53521159Y-59406974D01*
X53684347Y-59525537D01*
X53769260Y-59568802D01*
X53864070Y-59617111D01*
X53864072Y-59617111D01*
X53864075Y-59617113D01*
X53966904Y-59650524D01*
X54055914Y-59679446D01*
X54255139Y-59711000D01*
X54255144Y-59711000D01*
X54456861Y-59711000D01*
X54656085Y-59679446D01*
X54847925Y-59617113D01*
X55027653Y-59525537D01*
X55190841Y-59406974D01*
X55333474Y-59264341D01*
X55452037Y-59101153D01*
X55515515Y-58976569D01*
X55563490Y-58925774D01*
X55631310Y-58908979D01*
X55697445Y-58931516D01*
X55736484Y-58976569D01*
X55799963Y-59101153D01*
X55918526Y-59264341D01*
X56061159Y-59406974D01*
X56224347Y-59525537D01*
X56309260Y-59568802D01*
X56404070Y-59617111D01*
X56404072Y-59617111D01*
X56404075Y-59617113D01*
X56506904Y-59650524D01*
X56595914Y-59679446D01*
X56795139Y-59711000D01*
X56795144Y-59711000D01*
X56996861Y-59711000D01*
X57196085Y-59679446D01*
X57387925Y-59617113D01*
X57567653Y-59525537D01*
X57730841Y-59406974D01*
X57873474Y-59264341D01*
X57992037Y-59101153D01*
X58055515Y-58976569D01*
X58103490Y-58925774D01*
X58171310Y-58908979D01*
X58237445Y-58931516D01*
X58276484Y-58976569D01*
X58339963Y-59101153D01*
X58458526Y-59264341D01*
X58601159Y-59406974D01*
X58764347Y-59525537D01*
X58849260Y-59568802D01*
X58944070Y-59617111D01*
X58944072Y-59617111D01*
X58944075Y-59617113D01*
X59046904Y-59650524D01*
X59135914Y-59679446D01*
X59335139Y-59711000D01*
X59335144Y-59711000D01*
X59536861Y-59711000D01*
X59736085Y-59679446D01*
X59927925Y-59617113D01*
X60107653Y-59525537D01*
X60270841Y-59406974D01*
X60413474Y-59264341D01*
X60532037Y-59101153D01*
X60595515Y-58976569D01*
X60643490Y-58925774D01*
X60711310Y-58908979D01*
X60777445Y-58931516D01*
X60816484Y-58976569D01*
X60879963Y-59101153D01*
X60998526Y-59264341D01*
X61141159Y-59406974D01*
X61304347Y-59525537D01*
X61389260Y-59568802D01*
X61484070Y-59617111D01*
X61484072Y-59617111D01*
X61484075Y-59617113D01*
X61586904Y-59650524D01*
X61675914Y-59679446D01*
X61875139Y-59711000D01*
X61875144Y-59711000D01*
X62076861Y-59711000D01*
X62276085Y-59679446D01*
X62467925Y-59617113D01*
X62647653Y-59525537D01*
X62810841Y-59406974D01*
X62953474Y-59264341D01*
X63072037Y-59101153D01*
X63072041Y-59101146D01*
X63073698Y-59098442D01*
X63074598Y-59097627D01*
X63074901Y-59097211D01*
X63074988Y-59097274D01*
X63125509Y-59051565D01*
X63194438Y-59040140D01*
X63258602Y-59067795D01*
X63289913Y-59106933D01*
X63318613Y-59163260D01*
X63448142Y-59341541D01*
X63603958Y-59497357D01*
X63782239Y-59626886D01*
X63978589Y-59726932D01*
X64188163Y-59795026D01*
X64265999Y-59807354D01*
X64266000Y-59807354D01*
X64266000Y-58577982D01*
X64284409Y-58588611D01*
X64437009Y-58629500D01*
X64594991Y-58629500D01*
X64747591Y-58588611D01*
X64766000Y-58577982D01*
X64766000Y-59807354D01*
X64843834Y-59795026D01*
X64843837Y-59795026D01*
X65053410Y-59726932D01*
X65249760Y-59626886D01*
X65428041Y-59497357D01*
X65583857Y-59341541D01*
X65713386Y-59163260D01*
X65813432Y-58966910D01*
X65881526Y-58757335D01*
X65916000Y-58539681D01*
X65916000Y-58279500D01*
X65064482Y-58279500D01*
X65075111Y-58261091D01*
X65116000Y-58108491D01*
X65116000Y-58029498D01*
X94029694Y-58029498D01*
X94029694Y-58029501D01*
X94048894Y-58297950D01*
X94048895Y-58297957D01*
X94106101Y-58560927D01*
X94106103Y-58560934D01*
X94116426Y-58588611D01*
X94200156Y-58813101D01*
X94200158Y-58813105D01*
X94329134Y-59049308D01*
X94329139Y-59049316D01*
X94490418Y-59264760D01*
X94490434Y-59264778D01*
X94680721Y-59455065D01*
X94680739Y-59455081D01*
X94896183Y-59616360D01*
X94896191Y-59616365D01*
X95132394Y-59745341D01*
X95132398Y-59745343D01*
X95132400Y-59745344D01*
X95384566Y-59839397D01*
X95647551Y-59896606D01*
X95895319Y-59914326D01*
X95915999Y-59915806D01*
X95916000Y-59915806D01*
X95916001Y-59915806D01*
X95935201Y-59914432D01*
X96184449Y-59896606D01*
X96447434Y-59839397D01*
X96699600Y-59745344D01*
X96935814Y-59616362D01*
X97151268Y-59455075D01*
X97341575Y-59264768D01*
X97502862Y-59049314D01*
X97631844Y-58813100D01*
X97725897Y-58560934D01*
X97783106Y-58297949D01*
X97802306Y-58029500D01*
X97783106Y-57761051D01*
X97725897Y-57498066D01*
X97631844Y-57245900D01*
X97572694Y-57137575D01*
X97502865Y-57009691D01*
X97502860Y-57009683D01*
X97341581Y-56794239D01*
X97341565Y-56794221D01*
X97151278Y-56603934D01*
X97151260Y-56603918D01*
X96935816Y-56442639D01*
X96935808Y-56442634D01*
X96699605Y-56313658D01*
X96699601Y-56313656D01*
X96604000Y-56277999D01*
X96447434Y-56219603D01*
X96447430Y-56219602D01*
X96447427Y-56219601D01*
X96184457Y-56162395D01*
X96184450Y-56162394D01*
X95916001Y-56143194D01*
X95915999Y-56143194D01*
X95647549Y-56162394D01*
X95647542Y-56162395D01*
X95384572Y-56219601D01*
X95384567Y-56219602D01*
X95384566Y-56219603D01*
X95340864Y-56235903D01*
X95132398Y-56313656D01*
X95132394Y-56313658D01*
X94896191Y-56442634D01*
X94896183Y-56442639D01*
X94680739Y-56603918D01*
X94680721Y-56603934D01*
X94490434Y-56794221D01*
X94490418Y-56794239D01*
X94329139Y-57009683D01*
X94329134Y-57009691D01*
X94200158Y-57245894D01*
X94200156Y-57245898D01*
X94106101Y-57498072D01*
X94048895Y-57761042D01*
X94048894Y-57761049D01*
X94029694Y-58029498D01*
X65116000Y-58029498D01*
X65116000Y-57950509D01*
X65075111Y-57797909D01*
X65064482Y-57779500D01*
X65916000Y-57779500D01*
X65916000Y-57519318D01*
X65881526Y-57301664D01*
X65813432Y-57092089D01*
X65713386Y-56895739D01*
X65583857Y-56717458D01*
X65428041Y-56561642D01*
X65249760Y-56432113D01*
X65053410Y-56332067D01*
X64843836Y-56263973D01*
X64766000Y-56251644D01*
X64766000Y-57481017D01*
X64747591Y-57470389D01*
X64594991Y-57429500D01*
X64437009Y-57429500D01*
X64284409Y-57470389D01*
X64266000Y-57481017D01*
X64266000Y-56251644D01*
X64188164Y-56263973D01*
X64188161Y-56263973D01*
X63978589Y-56332067D01*
X63782239Y-56432113D01*
X63603958Y-56561642D01*
X63448142Y-56717458D01*
X63318611Y-56895741D01*
X63289912Y-56952067D01*
X63241938Y-57002862D01*
X63174116Y-57019657D01*
X63107982Y-56997119D01*
X63073703Y-56960564D01*
X63072043Y-56957855D01*
X63026914Y-56895741D01*
X62953474Y-56794659D01*
X62810841Y-56652026D01*
X62647653Y-56533463D01*
X62467929Y-56441888D01*
X62276085Y-56379553D01*
X62076861Y-56348000D01*
X62076856Y-56348000D01*
X61875144Y-56348000D01*
X61875139Y-56348000D01*
X61675914Y-56379553D01*
X61484070Y-56441888D01*
X61304346Y-56533463D01*
X61211242Y-56601107D01*
X61141159Y-56652026D01*
X61141157Y-56652028D01*
X61141156Y-56652028D01*
X60998528Y-56794656D01*
X60998528Y-56794657D01*
X60998526Y-56794659D01*
X60947607Y-56864742D01*
X60879963Y-56957846D01*
X60816485Y-57082429D01*
X60768510Y-57133225D01*
X60700689Y-57150020D01*
X60634554Y-57127482D01*
X60595515Y-57082429D01*
X60552047Y-56997119D01*
X60532037Y-56957847D01*
X60413474Y-56794659D01*
X60270841Y-56652026D01*
X60107653Y-56533463D01*
X59927929Y-56441888D01*
X59736085Y-56379553D01*
X59536861Y-56348000D01*
X59536856Y-56348000D01*
X59335144Y-56348000D01*
X59335139Y-56348000D01*
X59135914Y-56379553D01*
X58944070Y-56441888D01*
X58764346Y-56533463D01*
X58671242Y-56601107D01*
X58601159Y-56652026D01*
X58601157Y-56652028D01*
X58601156Y-56652028D01*
X58458528Y-56794656D01*
X58458528Y-56794657D01*
X58458526Y-56794659D01*
X58407607Y-56864742D01*
X58339963Y-56957846D01*
X58276485Y-57082429D01*
X58228510Y-57133225D01*
X58160689Y-57150020D01*
X58094554Y-57127482D01*
X58055515Y-57082429D01*
X58012047Y-56997119D01*
X57992037Y-56957847D01*
X57873474Y-56794659D01*
X57730841Y-56652026D01*
X57567653Y-56533463D01*
X57387929Y-56441888D01*
X57196085Y-56379553D01*
X56996861Y-56348000D01*
X56996856Y-56348000D01*
X56795144Y-56348000D01*
X56795139Y-56348000D01*
X56595914Y-56379553D01*
X56404070Y-56441888D01*
X56224346Y-56533463D01*
X56131242Y-56601107D01*
X56061159Y-56652026D01*
X56061157Y-56652028D01*
X56061156Y-56652028D01*
X55918528Y-56794656D01*
X55918528Y-56794657D01*
X55918526Y-56794659D01*
X55867607Y-56864742D01*
X55799963Y-56957846D01*
X55736485Y-57082429D01*
X55688510Y-57133225D01*
X55620689Y-57150020D01*
X55554554Y-57127482D01*
X55515515Y-57082429D01*
X55472047Y-56997119D01*
X55452037Y-56957847D01*
X55333474Y-56794659D01*
X55190841Y-56652026D01*
X55027653Y-56533463D01*
X54847929Y-56441888D01*
X54656085Y-56379553D01*
X54456861Y-56348000D01*
X54456856Y-56348000D01*
X54255144Y-56348000D01*
X54255139Y-56348000D01*
X54055914Y-56379553D01*
X53864070Y-56441888D01*
X53684346Y-56533463D01*
X53591242Y-56601107D01*
X53521159Y-56652026D01*
X53521157Y-56652028D01*
X53521156Y-56652028D01*
X53378528Y-56794656D01*
X53378528Y-56794657D01*
X53378526Y-56794659D01*
X53327607Y-56864742D01*
X53259963Y-56957846D01*
X53196485Y-57082429D01*
X53148510Y-57133225D01*
X53080689Y-57150020D01*
X53014554Y-57127482D01*
X52975515Y-57082429D01*
X52932047Y-56997119D01*
X52912037Y-56957847D01*
X52793474Y-56794659D01*
X52650841Y-56652026D01*
X52487653Y-56533463D01*
X52307929Y-56441888D01*
X52116085Y-56379553D01*
X51916861Y-56348000D01*
X51916856Y-56348000D01*
X51715144Y-56348000D01*
X51715139Y-56348000D01*
X51515914Y-56379553D01*
X51324070Y-56441888D01*
X51144346Y-56533463D01*
X51051242Y-56601107D01*
X50981159Y-56652026D01*
X50981157Y-56652028D01*
X50981156Y-56652028D01*
X50838528Y-56794656D01*
X50838528Y-56794657D01*
X50838526Y-56794659D01*
X50787607Y-56864742D01*
X50719963Y-56957846D01*
X50656485Y-57082429D01*
X50608510Y-57133225D01*
X50540689Y-57150020D01*
X50474554Y-57127482D01*
X50435515Y-57082429D01*
X50392047Y-56997119D01*
X50372037Y-56957847D01*
X50253474Y-56794659D01*
X50110841Y-56652026D01*
X49947653Y-56533463D01*
X49767929Y-56441888D01*
X49576085Y-56379553D01*
X49376861Y-56348000D01*
X49376856Y-56348000D01*
X49175144Y-56348000D01*
X49175139Y-56348000D01*
X48975914Y-56379553D01*
X48784070Y-56441888D01*
X48604346Y-56533463D01*
X48511242Y-56601107D01*
X48441159Y-56652026D01*
X48441157Y-56652028D01*
X48441156Y-56652028D01*
X48298528Y-56794656D01*
X48298528Y-56794657D01*
X48298526Y-56794659D01*
X48247607Y-56864742D01*
X48179963Y-56957846D01*
X48116485Y-57082429D01*
X48068510Y-57133225D01*
X48000689Y-57150020D01*
X47934554Y-57127482D01*
X47895515Y-57082429D01*
X47852047Y-56997119D01*
X47832037Y-56957847D01*
X47713474Y-56794659D01*
X47570841Y-56652026D01*
X47407653Y-56533463D01*
X47227929Y-56441888D01*
X47036085Y-56379553D01*
X46836861Y-56348000D01*
X46836856Y-56348000D01*
X46635144Y-56348000D01*
X46635139Y-56348000D01*
X46435914Y-56379553D01*
X46244070Y-56441888D01*
X46064346Y-56533463D01*
X45971242Y-56601107D01*
X45901159Y-56652026D01*
X45901157Y-56652028D01*
X45901156Y-56652028D01*
X45758528Y-56794656D01*
X45758528Y-56794657D01*
X45758526Y-56794659D01*
X45707607Y-56864742D01*
X45639963Y-56957846D01*
X45576485Y-57082429D01*
X45528510Y-57133225D01*
X45460689Y-57150020D01*
X45394554Y-57127482D01*
X45355515Y-57082429D01*
X45312047Y-56997119D01*
X45292037Y-56957847D01*
X45173474Y-56794659D01*
X45030841Y-56652026D01*
X44867653Y-56533463D01*
X44687929Y-56441888D01*
X44496085Y-56379553D01*
X44296861Y-56348000D01*
X44296856Y-56348000D01*
X44095144Y-56348000D01*
X44095139Y-56348000D01*
X43895914Y-56379553D01*
X43704070Y-56441888D01*
X43524346Y-56533463D01*
X43431242Y-56601107D01*
X43361159Y-56652026D01*
X43361157Y-56652028D01*
X43361156Y-56652028D01*
X43218528Y-56794656D01*
X43218528Y-56794657D01*
X43218526Y-56794659D01*
X43167607Y-56864742D01*
X43099963Y-56957846D01*
X43036485Y-57082429D01*
X42988510Y-57133225D01*
X42920689Y-57150020D01*
X42854554Y-57127482D01*
X42815515Y-57082429D01*
X42772047Y-56997119D01*
X42752037Y-56957847D01*
X42633474Y-56794659D01*
X42490841Y-56652026D01*
X42327653Y-56533463D01*
X42147929Y-56441888D01*
X41956085Y-56379553D01*
X41756861Y-56348000D01*
X41756856Y-56348000D01*
X41555144Y-56348000D01*
X41555139Y-56348000D01*
X41355914Y-56379553D01*
X41164070Y-56441888D01*
X40984346Y-56533463D01*
X40891242Y-56601107D01*
X40821159Y-56652026D01*
X40821157Y-56652028D01*
X40821156Y-56652028D01*
X40678528Y-56794656D01*
X40678528Y-56794657D01*
X40678526Y-56794659D01*
X40627607Y-56864742D01*
X40559963Y-56957846D01*
X40496485Y-57082429D01*
X40448510Y-57133225D01*
X40380689Y-57150020D01*
X40314554Y-57127482D01*
X40275515Y-57082429D01*
X40232047Y-56997119D01*
X40212037Y-56957847D01*
X40093474Y-56794659D01*
X39950841Y-56652026D01*
X39787653Y-56533463D01*
X39607929Y-56441888D01*
X39416085Y-56379553D01*
X39216861Y-56348000D01*
X39216856Y-56348000D01*
X39015144Y-56348000D01*
X39015139Y-56348000D01*
X38815914Y-56379553D01*
X38624070Y-56441888D01*
X38444346Y-56533463D01*
X38351242Y-56601107D01*
X38281159Y-56652026D01*
X38281157Y-56652028D01*
X38281156Y-56652028D01*
X38138528Y-56794656D01*
X38138528Y-56794657D01*
X38138526Y-56794659D01*
X38094145Y-56855743D01*
X38019957Y-56957854D01*
X38018290Y-56960575D01*
X38017388Y-56961390D01*
X38017099Y-56961789D01*
X38017015Y-56961728D01*
X37966471Y-57007444D01*
X37897540Y-57018857D01*
X37833381Y-56991191D01*
X37802086Y-56952065D01*
X37773388Y-56895741D01*
X37643857Y-56717458D01*
X37488041Y-56561642D01*
X37309760Y-56432113D01*
X37113410Y-56332067D01*
X36903836Y-56263973D01*
X36826000Y-56251644D01*
X36826000Y-57481017D01*
X36807591Y-57470389D01*
X36654991Y-57429500D01*
X36497009Y-57429500D01*
X36344409Y-57470389D01*
X36326000Y-57481017D01*
X36326000Y-56251644D01*
X36248164Y-56263973D01*
X36248161Y-56263973D01*
X36038589Y-56332067D01*
X35842239Y-56432113D01*
X35663958Y-56561642D01*
X35508142Y-56717458D01*
X35378611Y-56895741D01*
X35349912Y-56952067D01*
X35301938Y-57002862D01*
X35234116Y-57019657D01*
X35167982Y-56997119D01*
X35133703Y-56960564D01*
X35132043Y-56957855D01*
X35086914Y-56895741D01*
X35013474Y-56794659D01*
X34870841Y-56652026D01*
X34707653Y-56533463D01*
X34527929Y-56441888D01*
X34336085Y-56379553D01*
X34136861Y-56348000D01*
X34136856Y-56348000D01*
X33935144Y-56348000D01*
X33935139Y-56348000D01*
X33735914Y-56379553D01*
X33544070Y-56441888D01*
X33364346Y-56533463D01*
X33271242Y-56601107D01*
X33201159Y-56652026D01*
X33201157Y-56652028D01*
X33201156Y-56652028D01*
X33058528Y-56794656D01*
X33058528Y-56794657D01*
X33058526Y-56794659D01*
X33007607Y-56864742D01*
X32939963Y-56957846D01*
X32876485Y-57082429D01*
X32828510Y-57133225D01*
X32760689Y-57150020D01*
X32694554Y-57127482D01*
X32655515Y-57082429D01*
X32612047Y-56997119D01*
X32592037Y-56957847D01*
X32473474Y-56794659D01*
X32330841Y-56652026D01*
X32167653Y-56533463D01*
X31987929Y-56441888D01*
X31796085Y-56379553D01*
X31596861Y-56348000D01*
X31596856Y-56348000D01*
X31395144Y-56348000D01*
X31395139Y-56348000D01*
X31195914Y-56379553D01*
X31004070Y-56441888D01*
X30824346Y-56533463D01*
X30731242Y-56601107D01*
X30661159Y-56652026D01*
X30661157Y-56652028D01*
X30661156Y-56652028D01*
X30518528Y-56794656D01*
X30518528Y-56794657D01*
X30518526Y-56794659D01*
X30467607Y-56864742D01*
X30399963Y-56957846D01*
X30336485Y-57082429D01*
X30288510Y-57133225D01*
X30220689Y-57150020D01*
X30154554Y-57127482D01*
X30115515Y-57082429D01*
X30072047Y-56997119D01*
X30052037Y-56957847D01*
X29933474Y-56794659D01*
X29790841Y-56652026D01*
X29627653Y-56533463D01*
X29447929Y-56441888D01*
X29256085Y-56379553D01*
X29056861Y-56348000D01*
X29056856Y-56348000D01*
X28855144Y-56348000D01*
X28855139Y-56348000D01*
X28655914Y-56379553D01*
X28464070Y-56441888D01*
X28284346Y-56533463D01*
X28121160Y-56652025D01*
X28026011Y-56747174D01*
X27964687Y-56780658D01*
X27894996Y-56775674D01*
X27839063Y-56733802D01*
X27815041Y-56672748D01*
X27809598Y-56622126D01*
X27809596Y-56622120D01*
X27759354Y-56487413D01*
X27759350Y-56487406D01*
X27673190Y-56372312D01*
X27673187Y-56372309D01*
X27558093Y-56286149D01*
X27558086Y-56286145D01*
X27423379Y-56235903D01*
X27423372Y-56235901D01*
X27363844Y-56229500D01*
X26666000Y-56229500D01*
X26666000Y-57481017D01*
X26647591Y-57470389D01*
X26494991Y-57429500D01*
X26337009Y-57429500D01*
X26184409Y-57470389D01*
X26166000Y-57481017D01*
X26166000Y-56229500D01*
X25468155Y-56229500D01*
X25408627Y-56235901D01*
X25408620Y-56235903D01*
X25273913Y-56286145D01*
X25273906Y-56286149D01*
X25158812Y-56372309D01*
X25158809Y-56372312D01*
X25072649Y-56487406D01*
X25072645Y-56487413D01*
X25022403Y-56622120D01*
X25022401Y-56622127D01*
X25016000Y-56681655D01*
X22229899Y-56681655D01*
X22152178Y-56603934D01*
X22152160Y-56603918D01*
X21936716Y-56442639D01*
X21936708Y-56442634D01*
X21700505Y-56313658D01*
X21700501Y-56313656D01*
X21604900Y-56277999D01*
X21448334Y-56219603D01*
X21448330Y-56219602D01*
X21448327Y-56219601D01*
X21185357Y-56162395D01*
X21185350Y-56162394D01*
X20916901Y-56143194D01*
X20916899Y-56143194D01*
X20648449Y-56162394D01*
X20648442Y-56162395D01*
X20385472Y-56219601D01*
X20385467Y-56219602D01*
X20385466Y-56219603D01*
X20341764Y-56235903D01*
X20133298Y-56313656D01*
X20133294Y-56313658D01*
X19897091Y-56442634D01*
X19897083Y-56442639D01*
X19681639Y-56603918D01*
X19681621Y-56603934D01*
X19491334Y-56794221D01*
X19491318Y-56794239D01*
X19330039Y-57009683D01*
X19330034Y-57009691D01*
X19201058Y-57245894D01*
X19201056Y-57245898D01*
X19107001Y-57498072D01*
X19049795Y-57761042D01*
X19049794Y-57761049D01*
X19030594Y-58029498D01*
X18494500Y-58029498D01*
X18494500Y-54255616D01*
X23584500Y-54255616D01*
X23584500Y-54456383D01*
X23615907Y-54654680D01*
X23677949Y-54845626D01*
X23762120Y-55010818D01*
X23769095Y-55024508D01*
X23887103Y-55186932D01*
X24029068Y-55328897D01*
X24191492Y-55446905D01*
X24276007Y-55489967D01*
X24370373Y-55538050D01*
X24370375Y-55538050D01*
X24370378Y-55538052D01*
X24561320Y-55600093D01*
X24759616Y-55631500D01*
X24759617Y-55631500D01*
X24960383Y-55631500D01*
X24960384Y-55631500D01*
X25158680Y-55600093D01*
X25349622Y-55538052D01*
X25528508Y-55446905D01*
X25690932Y-55328897D01*
X25832897Y-55186932D01*
X25950905Y-55024508D01*
X26042052Y-54845622D01*
X26104093Y-54654680D01*
X26135500Y-54456384D01*
X26135500Y-54255616D01*
X26104093Y-54057320D01*
X26042052Y-53866378D01*
X26042050Y-53866375D01*
X26042050Y-53866373D01*
X25958728Y-53702846D01*
X25950905Y-53687492D01*
X25832897Y-53525068D01*
X25690932Y-53383103D01*
X25528508Y-53265095D01*
X25519918Y-53260718D01*
X25349626Y-53173949D01*
X25158680Y-53111907D01*
X25110367Y-53104255D01*
X24995103Y-53085999D01*
X30646305Y-53085999D01*
X30646305Y-53086000D01*
X30665047Y-53300224D01*
X30665049Y-53300234D01*
X30720703Y-53507941D01*
X30720707Y-53507950D01*
X30811588Y-53702846D01*
X30811589Y-53702848D01*
X30851952Y-53760492D01*
X30851953Y-53760493D01*
X31417449Y-53194996D01*
X31437370Y-53269343D01*
X31499905Y-53377657D01*
X31588343Y-53466095D01*
X31696657Y-53528630D01*
X31771002Y-53548550D01*
X31205505Y-54114046D01*
X31263153Y-54154411D01*
X31458049Y-54245292D01*
X31458058Y-54245296D01*
X31665765Y-54300950D01*
X31665775Y-54300952D01*
X31879999Y-54319695D01*
X31880001Y-54319695D01*
X32094224Y-54300952D01*
X32094234Y-54300950D01*
X32301941Y-54245296D01*
X32301950Y-54245292D01*
X32496845Y-54154412D01*
X32554493Y-54114046D01*
X32242446Y-53801998D01*
X42187605Y-53801998D01*
X42187605Y-53802001D01*
X42207147Y-54025374D01*
X42207149Y-54025385D01*
X42265181Y-54241965D01*
X42265183Y-54241969D01*
X42265184Y-54241973D01*
X42359949Y-54445198D01*
X42488564Y-54628879D01*
X42647121Y-54787436D01*
X42830802Y-54916051D01*
X43034027Y-55010816D01*
X43250620Y-55068852D01*
X43410177Y-55082811D01*
X43473998Y-55088395D01*
X43474000Y-55088395D01*
X43474002Y-55088395D01*
X43529845Y-55083509D01*
X43697380Y-55068852D01*
X43913973Y-55010816D01*
X44117198Y-54916051D01*
X44300879Y-54787436D01*
X44459436Y-54628879D01*
X44588051Y-54445198D01*
X44611618Y-54394657D01*
X44657790Y-54342218D01*
X44724983Y-54323066D01*
X44791864Y-54343281D01*
X44836381Y-54394657D01*
X44859949Y-54445198D01*
X44988564Y-54628879D01*
X45147121Y-54787436D01*
X45330802Y-54916051D01*
X45534027Y-55010816D01*
X45750620Y-55068852D01*
X45910177Y-55082811D01*
X45973998Y-55088395D01*
X45974000Y-55088395D01*
X45974002Y-55088395D01*
X46029845Y-55083509D01*
X46197380Y-55068852D01*
X46413973Y-55010816D01*
X46617198Y-54916051D01*
X46800879Y-54787436D01*
X46959436Y-54628879D01*
X47052169Y-54496441D01*
X47106745Y-54452818D01*
X47176243Y-54445624D01*
X47238598Y-54477147D01*
X47257552Y-54499745D01*
X47322812Y-54599633D01*
X47991037Y-53931408D01*
X48008075Y-53994993D01*
X48073901Y-54109007D01*
X48166993Y-54202099D01*
X48281007Y-54267925D01*
X48344590Y-54284962D01*
X47675201Y-54954351D01*
X47705649Y-54978050D01*
X47909697Y-55088476D01*
X47909706Y-55088479D01*
X48129139Y-55163811D01*
X48357993Y-55202000D01*
X48590007Y-55202000D01*
X48818860Y-55163811D01*
X49038293Y-55088479D01*
X49038301Y-55088476D01*
X49242355Y-54978047D01*
X49272797Y-54954351D01*
X49272798Y-54954350D01*
X48603410Y-54284962D01*
X48666993Y-54267925D01*
X48781007Y-54202099D01*
X48874099Y-54109007D01*
X48939925Y-53994993D01*
X48956962Y-53931409D01*
X49625186Y-54599633D01*
X49709482Y-54470611D01*
X49802682Y-54258135D01*
X49859638Y-54033218D01*
X49878798Y-53802005D01*
X49878798Y-53801994D01*
X49859638Y-53570781D01*
X49802682Y-53345864D01*
X49709484Y-53133393D01*
X49625186Y-53004365D01*
X48956962Y-53672589D01*
X48939925Y-53609007D01*
X48874099Y-53494993D01*
X48781007Y-53401901D01*
X48666993Y-53336075D01*
X48603409Y-53319037D01*
X49272797Y-52649647D01*
X49272797Y-52649645D01*
X49242360Y-52625955D01*
X49242354Y-52625951D01*
X49038302Y-52515523D01*
X49038293Y-52515520D01*
X48818860Y-52440188D01*
X48590007Y-52402000D01*
X48357993Y-52402000D01*
X48129139Y-52440188D01*
X47909706Y-52515520D01*
X47909697Y-52515523D01*
X47705650Y-52625949D01*
X47675200Y-52649647D01*
X48344591Y-53319037D01*
X48281007Y-53336075D01*
X48166993Y-53401901D01*
X48073901Y-53494993D01*
X48008075Y-53609007D01*
X47991037Y-53672591D01*
X47322811Y-53004365D01*
X47257550Y-53104255D01*
X47204404Y-53149611D01*
X47135173Y-53159035D01*
X47071837Y-53129533D01*
X47052169Y-53107559D01*
X46959436Y-52975121D01*
X46800879Y-52816564D01*
X46617198Y-52687949D01*
X46413973Y-52593184D01*
X46413969Y-52593183D01*
X46413965Y-52593181D01*
X46197385Y-52535149D01*
X46197381Y-52535148D01*
X46197380Y-52535148D01*
X46197379Y-52535147D01*
X46197374Y-52535147D01*
X45974002Y-52515605D01*
X45973998Y-52515605D01*
X45750625Y-52535147D01*
X45750614Y-52535149D01*
X45534034Y-52593181D01*
X45534025Y-52593185D01*
X45330804Y-52687948D01*
X45330802Y-52687949D01*
X45147118Y-52816565D01*
X44988565Y-52975118D01*
X44859949Y-53158802D01*
X44859948Y-53158804D01*
X44836382Y-53209343D01*
X44790210Y-53261782D01*
X44723016Y-53280934D01*
X44656135Y-53260718D01*
X44611618Y-53209343D01*
X44588051Y-53158803D01*
X44459436Y-52975121D01*
X44300879Y-52816564D01*
X44117198Y-52687949D01*
X43913973Y-52593184D01*
X43913969Y-52593183D01*
X43913965Y-52593181D01*
X43697385Y-52535149D01*
X43697381Y-52535148D01*
X43697380Y-52535148D01*
X43697379Y-52535147D01*
X43697374Y-52535147D01*
X43474002Y-52515605D01*
X43473998Y-52515605D01*
X43250625Y-52535147D01*
X43250614Y-52535149D01*
X43034034Y-52593181D01*
X43034025Y-52593185D01*
X42830804Y-52687948D01*
X42830802Y-52687949D01*
X42647118Y-52816565D01*
X42488565Y-52975118D01*
X42359949Y-53158802D01*
X42359948Y-53158804D01*
X42265185Y-53362025D01*
X42265181Y-53362034D01*
X42207149Y-53578614D01*
X42207147Y-53578625D01*
X42187605Y-53801998D01*
X32242446Y-53801998D01*
X31988998Y-53548550D01*
X32063343Y-53528630D01*
X32171657Y-53466095D01*
X32260095Y-53377657D01*
X32322630Y-53269343D01*
X32342550Y-53194997D01*
X32908046Y-53760493D01*
X32948412Y-53702845D01*
X33039292Y-53507950D01*
X33039296Y-53507941D01*
X33094950Y-53300234D01*
X33094952Y-53300224D01*
X33113695Y-53086000D01*
X33113695Y-53085999D01*
X33094952Y-52871775D01*
X33094950Y-52871765D01*
X33039296Y-52664058D01*
X33039292Y-52664049D01*
X32948412Y-52469155D01*
X32908045Y-52411505D01*
X32342550Y-52977001D01*
X32322630Y-52902657D01*
X32260095Y-52794343D01*
X32171657Y-52705905D01*
X32063343Y-52643370D01*
X31988997Y-52623449D01*
X32554493Y-52057953D01*
X32554492Y-52057952D01*
X32496848Y-52017589D01*
X32496846Y-52017588D01*
X32301950Y-51926707D01*
X32301941Y-51926703D01*
X32279888Y-51920794D01*
X67348500Y-51920794D01*
X67348500Y-53693206D01*
X67359304Y-53767361D01*
X67359304Y-53767362D01*
X67359305Y-53767364D01*
X67415221Y-53881743D01*
X67415223Y-53881746D01*
X67505253Y-53971776D01*
X67505256Y-53971778D01*
X67612940Y-54024421D01*
X67619639Y-54027696D01*
X67693794Y-54038500D01*
X67693800Y-54038500D01*
X69466200Y-54038500D01*
X69466206Y-54038500D01*
X69540361Y-54027696D01*
X69597553Y-53999736D01*
X69654743Y-53971778D01*
X69654746Y-53971776D01*
X69744776Y-53881746D01*
X69744778Y-53881743D01*
X69783765Y-53801994D01*
X69800696Y-53767361D01*
X69811500Y-53693206D01*
X69811500Y-53474217D01*
X69831185Y-53407178D01*
X69883989Y-53361423D01*
X69953147Y-53351479D01*
X70016703Y-53380504D01*
X70047883Y-53421814D01*
X70049416Y-53425102D01*
X70049417Y-53425103D01*
X70173009Y-53601612D01*
X70173014Y-53601618D01*
X70325381Y-53753985D01*
X70325387Y-53753990D01*
X70501896Y-53877583D01*
X70501898Y-53877584D01*
X70697193Y-53968652D01*
X70905335Y-54024423D01*
X71066234Y-54038500D01*
X71119999Y-54043204D01*
X71120000Y-54043204D01*
X71120001Y-54043204D01*
X71173766Y-54038500D01*
X71334665Y-54024423D01*
X71542807Y-53968652D01*
X71738102Y-53877584D01*
X71914617Y-53753987D01*
X72066987Y-53601617D01*
X72190584Y-53425102D01*
X72277618Y-53238455D01*
X72323790Y-53186018D01*
X72390984Y-53166866D01*
X72457865Y-53187082D01*
X72502381Y-53238455D01*
X72514803Y-53265095D01*
X72589415Y-53425101D01*
X72589416Y-53425103D01*
X72713009Y-53601612D01*
X72713014Y-53601618D01*
X72865381Y-53753985D01*
X72865387Y-53753990D01*
X73041896Y-53877583D01*
X73041898Y-53877584D01*
X73237193Y-53968652D01*
X73445335Y-54024423D01*
X73606234Y-54038500D01*
X73659999Y-54043204D01*
X73660000Y-54043204D01*
X73660001Y-54043204D01*
X73713766Y-54038500D01*
X73874665Y-54024423D01*
X74082807Y-53968652D01*
X74278102Y-53877584D01*
X74454617Y-53753987D01*
X74606987Y-53601617D01*
X74730584Y-53425102D01*
X74817618Y-53238455D01*
X74863790Y-53186018D01*
X74930984Y-53166866D01*
X74997865Y-53187082D01*
X75042381Y-53238455D01*
X75054803Y-53265095D01*
X75129415Y-53425101D01*
X75129416Y-53425103D01*
X75253009Y-53601612D01*
X75253014Y-53601618D01*
X75405381Y-53753985D01*
X75405387Y-53753990D01*
X75581896Y-53877583D01*
X75581898Y-53877584D01*
X75777193Y-53968652D01*
X75985335Y-54024423D01*
X76146234Y-54038500D01*
X76199999Y-54043204D01*
X76200000Y-54043204D01*
X76200001Y-54043204D01*
X76253766Y-54038500D01*
X76414665Y-54024423D01*
X76622807Y-53968652D01*
X76818102Y-53877584D01*
X76994617Y-53753987D01*
X77146987Y-53601617D01*
X77270584Y-53425102D01*
X77357618Y-53238455D01*
X77403790Y-53186018D01*
X77470984Y-53166866D01*
X77537865Y-53187082D01*
X77582381Y-53238455D01*
X77594803Y-53265095D01*
X77669415Y-53425101D01*
X77669416Y-53425103D01*
X77793009Y-53601612D01*
X77793014Y-53601618D01*
X77945381Y-53753985D01*
X77945387Y-53753990D01*
X78121896Y-53877583D01*
X78121898Y-53877584D01*
X78317193Y-53968652D01*
X78525335Y-54024423D01*
X78686234Y-54038500D01*
X78739999Y-54043204D01*
X78740000Y-54043204D01*
X78740001Y-54043204D01*
X78793766Y-54038500D01*
X78954665Y-54024423D01*
X79162807Y-53968652D01*
X79358102Y-53877584D01*
X79534617Y-53753987D01*
X79686987Y-53601617D01*
X79810584Y-53425102D01*
X79897618Y-53238455D01*
X79943790Y-53186018D01*
X80010984Y-53166866D01*
X80077865Y-53187082D01*
X80122381Y-53238455D01*
X80134803Y-53265095D01*
X80209415Y-53425101D01*
X80209416Y-53425103D01*
X80333009Y-53601612D01*
X80333014Y-53601618D01*
X80485381Y-53753985D01*
X80485387Y-53753990D01*
X80661896Y-53877583D01*
X80661898Y-53877584D01*
X80857193Y-53968652D01*
X81065335Y-54024423D01*
X81226234Y-54038500D01*
X81279999Y-54043204D01*
X81280000Y-54043204D01*
X81280001Y-54043204D01*
X81333766Y-54038500D01*
X81494665Y-54024423D01*
X81702807Y-53968652D01*
X81898102Y-53877584D01*
X82074617Y-53753987D01*
X82226987Y-53601617D01*
X82350584Y-53425102D01*
X82437618Y-53238455D01*
X82483790Y-53186018D01*
X82550984Y-53166866D01*
X82617865Y-53187082D01*
X82662381Y-53238455D01*
X82674803Y-53265095D01*
X82749415Y-53425101D01*
X82749416Y-53425103D01*
X82873009Y-53601612D01*
X82873014Y-53601618D01*
X83025381Y-53753985D01*
X83025387Y-53753990D01*
X83201896Y-53877583D01*
X83201898Y-53877584D01*
X83397193Y-53968652D01*
X83605335Y-54024423D01*
X83766234Y-54038500D01*
X83819999Y-54043204D01*
X83820000Y-54043204D01*
X83820001Y-54043204D01*
X83873766Y-54038500D01*
X84034665Y-54024423D01*
X84242807Y-53968652D01*
X84438102Y-53877584D01*
X84614617Y-53753987D01*
X84766987Y-53601617D01*
X84890584Y-53425102D01*
X84977618Y-53238455D01*
X85023790Y-53186018D01*
X85090984Y-53166866D01*
X85157865Y-53187082D01*
X85202381Y-53238455D01*
X85214803Y-53265095D01*
X85289415Y-53425101D01*
X85289416Y-53425103D01*
X85413009Y-53601612D01*
X85413014Y-53601618D01*
X85565381Y-53753985D01*
X85565387Y-53753990D01*
X85741896Y-53877583D01*
X85741898Y-53877584D01*
X85937193Y-53968652D01*
X86145335Y-54024423D01*
X86306234Y-54038500D01*
X86359999Y-54043204D01*
X86360000Y-54043204D01*
X86360001Y-54043204D01*
X86413766Y-54038500D01*
X86574665Y-54024423D01*
X86782807Y-53968652D01*
X86978102Y-53877584D01*
X87154617Y-53753987D01*
X87306987Y-53601617D01*
X87430584Y-53425102D01*
X87517618Y-53238455D01*
X87563790Y-53186018D01*
X87630984Y-53166866D01*
X87697865Y-53187082D01*
X87742381Y-53238455D01*
X87754803Y-53265095D01*
X87829415Y-53425101D01*
X87829416Y-53425103D01*
X87953009Y-53601612D01*
X87953014Y-53601618D01*
X88105381Y-53753985D01*
X88105387Y-53753990D01*
X88281896Y-53877583D01*
X88281898Y-53877584D01*
X88477193Y-53968652D01*
X88685335Y-54024423D01*
X88846234Y-54038500D01*
X88899999Y-54043204D01*
X88900000Y-54043204D01*
X88900001Y-54043204D01*
X88953766Y-54038500D01*
X89114665Y-54024423D01*
X89322807Y-53968652D01*
X89518102Y-53877584D01*
X89694617Y-53753987D01*
X89846987Y-53601617D01*
X89970584Y-53425102D01*
X90057618Y-53238455D01*
X90103790Y-53186018D01*
X90170984Y-53166866D01*
X90237865Y-53187082D01*
X90282381Y-53238455D01*
X90294803Y-53265095D01*
X90369415Y-53425101D01*
X90369416Y-53425103D01*
X90493009Y-53601612D01*
X90493014Y-53601618D01*
X90645381Y-53753985D01*
X90645387Y-53753990D01*
X90821896Y-53877583D01*
X90821898Y-53877584D01*
X91017193Y-53968652D01*
X91225335Y-54024423D01*
X91386234Y-54038500D01*
X91439999Y-54043204D01*
X91440000Y-54043204D01*
X91440001Y-54043204D01*
X91493766Y-54038500D01*
X91654665Y-54024423D01*
X91862807Y-53968652D01*
X92058102Y-53877584D01*
X92234617Y-53753987D01*
X92386987Y-53601617D01*
X92510584Y-53425102D01*
X92597618Y-53238455D01*
X92643790Y-53186018D01*
X92710984Y-53166866D01*
X92777865Y-53187082D01*
X92822381Y-53238455D01*
X92834803Y-53265095D01*
X92909415Y-53425101D01*
X92909416Y-53425103D01*
X93033009Y-53601612D01*
X93033014Y-53601618D01*
X93185381Y-53753985D01*
X93185387Y-53753990D01*
X93361896Y-53877583D01*
X93361898Y-53877584D01*
X93557193Y-53968652D01*
X93765335Y-54024423D01*
X93926234Y-54038500D01*
X93979999Y-54043204D01*
X93980000Y-54043204D01*
X93980001Y-54043204D01*
X94033766Y-54038500D01*
X94194665Y-54024423D01*
X94402807Y-53968652D01*
X94598102Y-53877584D01*
X94774617Y-53753987D01*
X94926987Y-53601617D01*
X95050584Y-53425102D01*
X95137618Y-53238455D01*
X95183790Y-53186018D01*
X95250984Y-53166866D01*
X95317865Y-53187082D01*
X95362381Y-53238455D01*
X95374803Y-53265095D01*
X95449415Y-53425101D01*
X95449416Y-53425103D01*
X95573009Y-53601612D01*
X95573014Y-53601618D01*
X95725381Y-53753985D01*
X95725387Y-53753990D01*
X95901896Y-53877583D01*
X95901898Y-53877584D01*
X96097193Y-53968652D01*
X96305335Y-54024423D01*
X96466234Y-54038500D01*
X96519999Y-54043204D01*
X96520000Y-54043204D01*
X96520001Y-54043204D01*
X96573766Y-54038500D01*
X96734665Y-54024423D01*
X96942807Y-53968652D01*
X97138102Y-53877584D01*
X97314617Y-53753987D01*
X97466987Y-53601617D01*
X97590584Y-53425102D01*
X97681652Y-53229807D01*
X97737423Y-53021665D01*
X97756204Y-52807000D01*
X97737423Y-52592335D01*
X97681652Y-52384193D01*
X97590584Y-52188898D01*
X97498895Y-52057953D01*
X97466990Y-52012387D01*
X97466985Y-52012381D01*
X97314618Y-51860014D01*
X97314612Y-51860009D01*
X97138103Y-51736416D01*
X97138101Y-51736415D01*
X97040454Y-51690882D01*
X96942807Y-51645348D01*
X96942803Y-51645347D01*
X96942799Y-51645345D01*
X96734670Y-51589578D01*
X96734660Y-51589576D01*
X96520001Y-51570796D01*
X96519999Y-51570796D01*
X96305339Y-51589576D01*
X96305329Y-51589578D01*
X96097200Y-51645345D01*
X96097191Y-51645349D01*
X95901898Y-51736415D01*
X95901896Y-51736416D01*
X95725387Y-51860009D01*
X95725381Y-51860014D01*
X95573014Y-52012381D01*
X95573009Y-52012387D01*
X95449416Y-52188896D01*
X95449415Y-52188898D01*
X95362382Y-52375542D01*
X95316210Y-52427981D01*
X95249016Y-52447133D01*
X95182135Y-52426917D01*
X95137618Y-52375542D01*
X95050584Y-52188898D01*
X95050583Y-52188896D01*
X94926990Y-52012387D01*
X94926985Y-52012381D01*
X94774618Y-51860014D01*
X94774612Y-51860009D01*
X94598103Y-51736416D01*
X94598101Y-51736415D01*
X94500454Y-51690882D01*
X94402807Y-51645348D01*
X94402803Y-51645347D01*
X94402799Y-51645345D01*
X94194670Y-51589578D01*
X94194660Y-51589576D01*
X93980001Y-51570796D01*
X93979999Y-51570796D01*
X93765339Y-51589576D01*
X93765329Y-51589578D01*
X93557200Y-51645345D01*
X93557191Y-51645349D01*
X93361898Y-51736415D01*
X93361896Y-51736416D01*
X93185387Y-51860009D01*
X93185381Y-51860014D01*
X93033014Y-52012381D01*
X93033009Y-52012387D01*
X92909416Y-52188896D01*
X92909415Y-52188898D01*
X92822382Y-52375542D01*
X92776210Y-52427981D01*
X92709016Y-52447133D01*
X92642135Y-52426917D01*
X92597618Y-52375542D01*
X92510584Y-52188898D01*
X92510583Y-52188896D01*
X92386990Y-52012387D01*
X92386985Y-52012381D01*
X92234618Y-51860014D01*
X92234612Y-51860009D01*
X92058103Y-51736416D01*
X92058101Y-51736415D01*
X91960454Y-51690882D01*
X91862807Y-51645348D01*
X91862803Y-51645347D01*
X91862799Y-51645345D01*
X91654670Y-51589578D01*
X91654660Y-51589576D01*
X91440001Y-51570796D01*
X91439999Y-51570796D01*
X91225339Y-51589576D01*
X91225329Y-51589578D01*
X91017200Y-51645345D01*
X91017191Y-51645349D01*
X90821898Y-51736415D01*
X90821896Y-51736416D01*
X90645387Y-51860009D01*
X90645381Y-51860014D01*
X90493014Y-52012381D01*
X90493009Y-52012387D01*
X90369416Y-52188896D01*
X90369415Y-52188898D01*
X90282382Y-52375542D01*
X90236210Y-52427981D01*
X90169016Y-52447133D01*
X90102135Y-52426917D01*
X90057618Y-52375542D01*
X89970584Y-52188898D01*
X89970583Y-52188896D01*
X89846990Y-52012387D01*
X89846985Y-52012381D01*
X89694618Y-51860014D01*
X89694612Y-51860009D01*
X89518103Y-51736416D01*
X89518101Y-51736415D01*
X89420454Y-51690882D01*
X89322807Y-51645348D01*
X89322803Y-51645347D01*
X89322799Y-51645345D01*
X89114670Y-51589578D01*
X89114660Y-51589576D01*
X88900001Y-51570796D01*
X88899999Y-51570796D01*
X88685339Y-51589576D01*
X88685329Y-51589578D01*
X88477200Y-51645345D01*
X88477191Y-51645349D01*
X88281898Y-51736415D01*
X88281896Y-51736416D01*
X88105387Y-51860009D01*
X88105381Y-51860014D01*
X87953014Y-52012381D01*
X87953009Y-52012387D01*
X87829416Y-52188896D01*
X87829415Y-52188898D01*
X87742382Y-52375542D01*
X87696210Y-52427981D01*
X87629016Y-52447133D01*
X87562135Y-52426917D01*
X87517618Y-52375542D01*
X87430584Y-52188898D01*
X87430583Y-52188896D01*
X87306990Y-52012387D01*
X87306985Y-52012381D01*
X87154618Y-51860014D01*
X87154612Y-51860009D01*
X86978103Y-51736416D01*
X86978101Y-51736415D01*
X86880454Y-51690882D01*
X86782807Y-51645348D01*
X86782803Y-51645347D01*
X86782799Y-51645345D01*
X86574670Y-51589578D01*
X86574660Y-51589576D01*
X86360001Y-51570796D01*
X86359999Y-51570796D01*
X86145339Y-51589576D01*
X86145329Y-51589578D01*
X85937200Y-51645345D01*
X85937191Y-51645349D01*
X85741898Y-51736415D01*
X85741896Y-51736416D01*
X85565387Y-51860009D01*
X85565381Y-51860014D01*
X85413014Y-52012381D01*
X85413009Y-52012387D01*
X85289416Y-52188896D01*
X85289415Y-52188898D01*
X85202382Y-52375542D01*
X85156210Y-52427981D01*
X85089016Y-52447133D01*
X85022135Y-52426917D01*
X84977618Y-52375542D01*
X84890584Y-52188898D01*
X84890583Y-52188896D01*
X84766990Y-52012387D01*
X84766985Y-52012381D01*
X84614618Y-51860014D01*
X84614612Y-51860009D01*
X84438103Y-51736416D01*
X84438101Y-51736415D01*
X84340454Y-51690882D01*
X84242807Y-51645348D01*
X84242803Y-51645347D01*
X84242799Y-51645345D01*
X84034670Y-51589578D01*
X84034660Y-51589576D01*
X83820001Y-51570796D01*
X83819999Y-51570796D01*
X83605339Y-51589576D01*
X83605329Y-51589578D01*
X83397200Y-51645345D01*
X83397191Y-51645349D01*
X83201898Y-51736415D01*
X83201896Y-51736416D01*
X83025387Y-51860009D01*
X83025381Y-51860014D01*
X82873014Y-52012381D01*
X82873009Y-52012387D01*
X82749416Y-52188896D01*
X82749415Y-52188898D01*
X82662382Y-52375542D01*
X82616210Y-52427981D01*
X82549016Y-52447133D01*
X82482135Y-52426917D01*
X82437618Y-52375542D01*
X82350584Y-52188898D01*
X82350583Y-52188896D01*
X82226990Y-52012387D01*
X82226985Y-52012381D01*
X82074618Y-51860014D01*
X82074612Y-51860009D01*
X81898103Y-51736416D01*
X81898101Y-51736415D01*
X81800454Y-51690882D01*
X81702807Y-51645348D01*
X81702803Y-51645347D01*
X81702799Y-51645345D01*
X81494670Y-51589578D01*
X81494660Y-51589576D01*
X81280001Y-51570796D01*
X81279999Y-51570796D01*
X81065339Y-51589576D01*
X81065329Y-51589578D01*
X80857200Y-51645345D01*
X80857191Y-51645349D01*
X80661898Y-51736415D01*
X80661896Y-51736416D01*
X80485387Y-51860009D01*
X80485381Y-51860014D01*
X80333014Y-52012381D01*
X80333009Y-52012387D01*
X80209416Y-52188896D01*
X80209415Y-52188898D01*
X80122382Y-52375542D01*
X80076210Y-52427981D01*
X80009016Y-52447133D01*
X79942135Y-52426917D01*
X79897618Y-52375542D01*
X79810584Y-52188898D01*
X79810583Y-52188896D01*
X79686990Y-52012387D01*
X79686985Y-52012381D01*
X79534618Y-51860014D01*
X79534612Y-51860009D01*
X79358103Y-51736416D01*
X79358101Y-51736415D01*
X79260454Y-51690882D01*
X79162807Y-51645348D01*
X79162803Y-51645347D01*
X79162799Y-51645345D01*
X78954670Y-51589578D01*
X78954660Y-51589576D01*
X78740001Y-51570796D01*
X78739999Y-51570796D01*
X78525339Y-51589576D01*
X78525329Y-51589578D01*
X78317200Y-51645345D01*
X78317191Y-51645349D01*
X78121898Y-51736415D01*
X78121896Y-51736416D01*
X77945387Y-51860009D01*
X77945381Y-51860014D01*
X77793014Y-52012381D01*
X77793009Y-52012387D01*
X77669416Y-52188896D01*
X77669415Y-52188898D01*
X77582382Y-52375542D01*
X77536210Y-52427981D01*
X77469016Y-52447133D01*
X77402135Y-52426917D01*
X77357618Y-52375542D01*
X77270584Y-52188898D01*
X77270583Y-52188896D01*
X77146990Y-52012387D01*
X77146985Y-52012381D01*
X76994618Y-51860014D01*
X76994612Y-51860009D01*
X76818103Y-51736416D01*
X76818101Y-51736415D01*
X76720454Y-51690882D01*
X76622807Y-51645348D01*
X76622803Y-51645347D01*
X76622799Y-51645345D01*
X76414670Y-51589578D01*
X76414660Y-51589576D01*
X76200001Y-51570796D01*
X76199999Y-51570796D01*
X75985339Y-51589576D01*
X75985329Y-51589578D01*
X75777200Y-51645345D01*
X75777191Y-51645349D01*
X75581898Y-51736415D01*
X75581896Y-51736416D01*
X75405387Y-51860009D01*
X75405381Y-51860014D01*
X75253014Y-52012381D01*
X75253009Y-52012387D01*
X75129416Y-52188896D01*
X75129415Y-52188898D01*
X75042382Y-52375542D01*
X74996210Y-52427981D01*
X74929016Y-52447133D01*
X74862135Y-52426917D01*
X74817618Y-52375542D01*
X74730584Y-52188898D01*
X74730583Y-52188896D01*
X74606990Y-52012387D01*
X74606985Y-52012381D01*
X74454618Y-51860014D01*
X74454612Y-51860009D01*
X74278103Y-51736416D01*
X74278101Y-51736415D01*
X74180454Y-51690882D01*
X74082807Y-51645348D01*
X74082803Y-51645347D01*
X74082799Y-51645345D01*
X73874670Y-51589578D01*
X73874660Y-51589576D01*
X73660001Y-51570796D01*
X73659999Y-51570796D01*
X73445339Y-51589576D01*
X73445329Y-51589578D01*
X73237200Y-51645345D01*
X73237191Y-51645349D01*
X73041898Y-51736415D01*
X73041896Y-51736416D01*
X72865387Y-51860009D01*
X72865381Y-51860014D01*
X72713014Y-52012381D01*
X72713009Y-52012387D01*
X72589416Y-52188896D01*
X72589415Y-52188898D01*
X72502382Y-52375542D01*
X72456210Y-52427981D01*
X72389016Y-52447133D01*
X72322135Y-52426917D01*
X72277618Y-52375542D01*
X72190584Y-52188898D01*
X72190583Y-52188896D01*
X72066990Y-52012387D01*
X72066985Y-52012381D01*
X71914618Y-51860014D01*
X71914612Y-51860009D01*
X71738103Y-51736416D01*
X71738101Y-51736415D01*
X71640454Y-51690882D01*
X71542807Y-51645348D01*
X71542803Y-51645347D01*
X71542799Y-51645345D01*
X71334670Y-51589578D01*
X71334660Y-51589576D01*
X71120001Y-51570796D01*
X71119999Y-51570796D01*
X70905339Y-51589576D01*
X70905329Y-51589578D01*
X70697200Y-51645345D01*
X70697191Y-51645349D01*
X70501898Y-51736415D01*
X70501896Y-51736416D01*
X70325387Y-51860009D01*
X70325381Y-51860014D01*
X70173014Y-52012381D01*
X70173009Y-52012387D01*
X70049416Y-52188896D01*
X70049412Y-52188903D01*
X70047881Y-52192188D01*
X70046821Y-52193391D01*
X70046708Y-52193588D01*
X70046668Y-52193565D01*
X70001708Y-52244627D01*
X69934515Y-52263778D01*
X69867634Y-52243561D01*
X69822300Y-52190395D01*
X69811500Y-52139782D01*
X69811500Y-51920799D01*
X69811500Y-51920794D01*
X69800696Y-51846639D01*
X69796166Y-51837372D01*
X69744778Y-51732256D01*
X69744776Y-51732253D01*
X69654746Y-51642223D01*
X69654743Y-51642221D01*
X69540364Y-51586305D01*
X69540362Y-51586304D01*
X69540361Y-51586304D01*
X69466206Y-51575500D01*
X67693794Y-51575500D01*
X67619639Y-51586304D01*
X67619637Y-51586304D01*
X67619635Y-51586305D01*
X67505256Y-51642221D01*
X67505253Y-51642223D01*
X67415223Y-51732253D01*
X67415221Y-51732256D01*
X67359305Y-51846635D01*
X67359304Y-51846637D01*
X67359304Y-51846639D01*
X67348500Y-51920794D01*
X32279888Y-51920794D01*
X32104264Y-51873737D01*
X32044603Y-51837372D01*
X32014074Y-51774525D01*
X32022369Y-51705150D01*
X32066854Y-51651272D01*
X32113569Y-51632074D01*
X32185205Y-51618683D01*
X32377113Y-51544337D01*
X32552092Y-51435994D01*
X32704185Y-51297344D01*
X32828211Y-51133107D01*
X32919946Y-50948877D01*
X32976268Y-50750928D01*
X32995257Y-50546000D01*
X32976268Y-50341072D01*
X32919946Y-50143123D01*
X32828211Y-49958893D01*
X32704185Y-49794656D01*
X32552092Y-49656006D01*
X32528624Y-49641475D01*
X32377114Y-49547663D01*
X32377112Y-49547662D01*
X32310872Y-49522000D01*
X32185205Y-49473317D01*
X31982903Y-49435500D01*
X31777097Y-49435500D01*
X31574795Y-49473317D01*
X31555149Y-49480928D01*
X31382887Y-49547662D01*
X31382885Y-49547663D01*
X31207912Y-49656003D01*
X31207910Y-49656004D01*
X31207908Y-49656006D01*
X31182823Y-49678874D01*
X31055814Y-49794657D01*
X30931789Y-49958892D01*
X30840058Y-50143112D01*
X30840053Y-50143125D01*
X30783731Y-50341072D01*
X30764743Y-50545999D01*
X30764743Y-50546000D01*
X30783731Y-50750927D01*
X30840053Y-50948874D01*
X30840058Y-50948887D01*
X30897705Y-51064657D01*
X30931789Y-51133107D01*
X31055815Y-51297344D01*
X31207908Y-51435994D01*
X31382887Y-51544337D01*
X31574795Y-51618683D01*
X31646428Y-51632073D01*
X31708708Y-51663742D01*
X31743981Y-51724054D01*
X31741047Y-51793862D01*
X31700838Y-51851002D01*
X31655735Y-51873737D01*
X31458058Y-51926703D01*
X31458049Y-51926706D01*
X31263149Y-52017591D01*
X31205506Y-52057952D01*
X31205505Y-52057953D01*
X31771002Y-52623449D01*
X31696657Y-52643370D01*
X31588343Y-52705905D01*
X31499905Y-52794343D01*
X31437370Y-52902657D01*
X31417449Y-52977002D01*
X30851953Y-52411505D01*
X30851952Y-52411506D01*
X30811591Y-52469149D01*
X30720706Y-52664049D01*
X30720703Y-52664058D01*
X30665049Y-52871765D01*
X30665047Y-52871775D01*
X30646305Y-53085999D01*
X24995103Y-53085999D01*
X24960384Y-53080500D01*
X24759616Y-53080500D01*
X24660468Y-53096203D01*
X24561319Y-53111907D01*
X24370373Y-53173949D01*
X24191491Y-53265095D01*
X24098822Y-53332423D01*
X24029068Y-53383103D01*
X24029066Y-53383105D01*
X24029065Y-53383105D01*
X23887105Y-53525065D01*
X23887105Y-53525066D01*
X23887103Y-53525068D01*
X23860997Y-53561000D01*
X23769095Y-53687491D01*
X23677949Y-53866373D01*
X23615907Y-54057319D01*
X23584500Y-54255616D01*
X18494500Y-54255616D01*
X18494500Y-51815999D01*
X28224743Y-51815999D01*
X28224743Y-51816000D01*
X28243731Y-52020927D01*
X28300053Y-52218874D01*
X28300058Y-52218887D01*
X28378063Y-52375542D01*
X28391789Y-52403107D01*
X28515815Y-52567344D01*
X28667908Y-52705994D01*
X28784560Y-52778222D01*
X28831035Y-52806999D01*
X28842887Y-52814337D01*
X29034795Y-52888683D01*
X29237097Y-52926500D01*
X29237099Y-52926500D01*
X29442901Y-52926500D01*
X29442903Y-52926500D01*
X29645205Y-52888683D01*
X29837113Y-52814337D01*
X30012092Y-52705994D01*
X30164185Y-52567344D01*
X30288211Y-52403107D01*
X30379946Y-52218877D01*
X30436268Y-52020928D01*
X30455257Y-51816000D01*
X30441148Y-51663742D01*
X30436268Y-51611072D01*
X30386453Y-51435994D01*
X30379946Y-51413123D01*
X30288211Y-51228893D01*
X30164185Y-51064656D01*
X30012092Y-50926006D01*
X29988624Y-50911475D01*
X29837114Y-50817663D01*
X29837112Y-50817662D01*
X29770872Y-50792000D01*
X29645205Y-50743317D01*
X29442903Y-50705500D01*
X29237097Y-50705500D01*
X29034795Y-50743317D01*
X29015149Y-50750928D01*
X28842887Y-50817662D01*
X28842885Y-50817663D01*
X28667912Y-50926003D01*
X28667910Y-50926004D01*
X28667908Y-50926006D01*
X28642823Y-50948874D01*
X28515814Y-51064657D01*
X28391789Y-51228892D01*
X28300058Y-51413112D01*
X28300053Y-51413125D01*
X28243731Y-51611072D01*
X28224743Y-51815999D01*
X18494500Y-51815999D01*
X18494500Y-49275999D01*
X28224743Y-49275999D01*
X28224743Y-49276000D01*
X28243731Y-49480927D01*
X28300053Y-49678874D01*
X28300058Y-49678887D01*
X28357705Y-49794657D01*
X28391789Y-49863107D01*
X28515815Y-50027344D01*
X28667908Y-50165994D01*
X28842887Y-50274337D01*
X29034795Y-50348683D01*
X29237097Y-50386500D01*
X29237099Y-50386500D01*
X29442901Y-50386500D01*
X29442903Y-50386500D01*
X29645205Y-50348683D01*
X29837113Y-50274337D01*
X30012092Y-50165994D01*
X30164185Y-50027344D01*
X30288211Y-49863107D01*
X30379946Y-49678877D01*
X30436268Y-49480928D01*
X30455257Y-49276000D01*
X30436268Y-49071072D01*
X30379946Y-48873123D01*
X30377827Y-48868868D01*
X30322294Y-48757342D01*
X30288211Y-48688893D01*
X30164185Y-48524656D01*
X30012092Y-48386006D01*
X29988624Y-48371475D01*
X29837114Y-48277663D01*
X29837112Y-48277662D01*
X29770872Y-48252000D01*
X29645205Y-48203317D01*
X29442903Y-48165500D01*
X29237097Y-48165500D01*
X29034795Y-48203317D01*
X29015149Y-48210928D01*
X28842887Y-48277662D01*
X28842885Y-48277663D01*
X28667912Y-48386003D01*
X28667910Y-48386004D01*
X28667908Y-48386006D01*
X28642823Y-48408874D01*
X28515814Y-48524657D01*
X28391789Y-48688892D01*
X28300058Y-48873112D01*
X28300053Y-48873125D01*
X28243731Y-49071072D01*
X28224743Y-49275999D01*
X18494500Y-49275999D01*
X18494500Y-46735999D01*
X28224743Y-46735999D01*
X28224743Y-46736000D01*
X28243731Y-46940927D01*
X28300053Y-47138874D01*
X28300058Y-47138887D01*
X28357705Y-47254657D01*
X28391789Y-47323107D01*
X28515815Y-47487344D01*
X28667908Y-47625994D01*
X28842887Y-47734337D01*
X29034795Y-47808683D01*
X29237097Y-47846500D01*
X29237099Y-47846500D01*
X29442901Y-47846500D01*
X29442903Y-47846500D01*
X29645205Y-47808683D01*
X29837113Y-47734337D01*
X30012092Y-47625994D01*
X30164185Y-47487344D01*
X30288211Y-47323107D01*
X30379946Y-47138877D01*
X30436268Y-46940928D01*
X30455257Y-46736000D01*
X30453276Y-46714626D01*
X30436268Y-46531072D01*
X30424717Y-46490474D01*
X30379946Y-46333123D01*
X30288211Y-46148893D01*
X30164185Y-45984656D01*
X30012092Y-45846006D01*
X29969369Y-45819553D01*
X29837114Y-45737663D01*
X29837112Y-45737662D01*
X29770872Y-45712000D01*
X29645205Y-45663317D01*
X29442903Y-45625500D01*
X29237097Y-45625500D01*
X29034795Y-45663317D01*
X28981209Y-45684076D01*
X28842887Y-45737662D01*
X28842885Y-45737663D01*
X28667912Y-45846003D01*
X28667910Y-45846004D01*
X28667908Y-45846006D01*
X28563704Y-45941000D01*
X28515814Y-45984657D01*
X28391789Y-46148892D01*
X28300058Y-46333112D01*
X28300053Y-46333125D01*
X28243731Y-46531072D01*
X28224743Y-46735999D01*
X18494500Y-46735999D01*
X18494500Y-45465999D01*
X30646305Y-45465999D01*
X30646305Y-45466000D01*
X30665047Y-45680224D01*
X30665049Y-45680234D01*
X30720703Y-45887941D01*
X30720707Y-45887950D01*
X30811588Y-46082846D01*
X30811589Y-46082848D01*
X30851952Y-46140492D01*
X30851953Y-46140493D01*
X31417449Y-45574996D01*
X31437370Y-45649343D01*
X31499905Y-45757657D01*
X31588343Y-45846095D01*
X31696657Y-45908630D01*
X31771002Y-45928550D01*
X31205505Y-46494046D01*
X31263153Y-46534411D01*
X31458049Y-46625292D01*
X31458058Y-46625296D01*
X31655735Y-46678262D01*
X31715395Y-46714626D01*
X31745925Y-46777473D01*
X31737631Y-46846849D01*
X31693146Y-46900727D01*
X31646429Y-46919925D01*
X31574804Y-46933315D01*
X31574798Y-46933316D01*
X31574795Y-46933317D01*
X31555149Y-46940928D01*
X31382887Y-47007662D01*
X31382885Y-47007663D01*
X31207912Y-47116003D01*
X31207910Y-47116004D01*
X31207908Y-47116006D01*
X31182823Y-47138874D01*
X31055814Y-47254657D01*
X30931789Y-47418892D01*
X30840058Y-47603112D01*
X30840053Y-47603125D01*
X30783731Y-47801072D01*
X30764743Y-48005999D01*
X30764743Y-48006000D01*
X30783731Y-48210927D01*
X30840053Y-48408874D01*
X30840058Y-48408887D01*
X30897705Y-48524657D01*
X30931789Y-48593107D01*
X31055815Y-48757344D01*
X31207908Y-48895994D01*
X31382887Y-49004337D01*
X31574795Y-49078683D01*
X31777097Y-49116500D01*
X31777099Y-49116500D01*
X31982901Y-49116500D01*
X31982903Y-49116500D01*
X32185205Y-49078683D01*
X32377113Y-49004337D01*
X32552092Y-48895994D01*
X32704185Y-48757344D01*
X32828211Y-48593107D01*
X32919946Y-48408877D01*
X32976268Y-48210928D01*
X32995257Y-48006000D01*
X32994266Y-47995310D01*
X32976268Y-47801072D01*
X32957280Y-47734336D01*
X32919946Y-47603123D01*
X32828211Y-47418893D01*
X32704185Y-47254656D01*
X32552092Y-47116006D01*
X32528624Y-47101475D01*
X32377114Y-47007663D01*
X32377112Y-47007662D01*
X32292376Y-46974835D01*
X32185205Y-46933317D01*
X32185197Y-46933315D01*
X32185195Y-46933315D01*
X32113570Y-46919925D01*
X32051290Y-46888257D01*
X32016018Y-46827944D01*
X32017108Y-46802000D01*
X39187390Y-46802000D01*
X39207808Y-47113513D01*
X39207810Y-47113525D01*
X39268710Y-47419692D01*
X39268715Y-47419712D01*
X39369056Y-47715308D01*
X39369060Y-47715318D01*
X39507131Y-47995297D01*
X39507138Y-47995310D01*
X39514281Y-48006000D01*
X39646124Y-48203317D01*
X39680576Y-48254877D01*
X39886411Y-48489588D01*
X40069698Y-48650326D01*
X40121124Y-48695425D01*
X40380695Y-48868865D01*
X40516570Y-48935871D01*
X40660681Y-49006939D01*
X40660691Y-49006943D01*
X40956287Y-49107284D01*
X40956291Y-49107285D01*
X40956300Y-49107288D01*
X41262485Y-49168192D01*
X41574000Y-49188610D01*
X41885515Y-49168192D01*
X42191700Y-49107288D01*
X42298389Y-49071072D01*
X42487308Y-49006943D01*
X42487318Y-49006939D01*
X42492596Y-49004336D01*
X42767305Y-48868865D01*
X43026876Y-48695425D01*
X43261588Y-48489588D01*
X43467425Y-48254876D01*
X43640865Y-47995305D01*
X43778940Y-47715316D01*
X43817025Y-47603123D01*
X43879284Y-47419712D01*
X43879284Y-47419711D01*
X43879288Y-47419700D01*
X43940192Y-47113515D01*
X43960610Y-46802000D01*
X47987390Y-46802000D01*
X48007808Y-47113513D01*
X48007810Y-47113525D01*
X48068710Y-47419692D01*
X48068715Y-47419712D01*
X48169056Y-47715308D01*
X48169060Y-47715318D01*
X48307131Y-47995297D01*
X48307138Y-47995310D01*
X48314281Y-48006000D01*
X48446124Y-48203317D01*
X48480576Y-48254877D01*
X48686411Y-48489588D01*
X48869698Y-48650326D01*
X48921124Y-48695425D01*
X49180695Y-48868865D01*
X49316570Y-48935871D01*
X49460681Y-49006939D01*
X49460691Y-49006943D01*
X49756287Y-49107284D01*
X49756291Y-49107285D01*
X49756300Y-49107288D01*
X50062485Y-49168192D01*
X50374000Y-49188610D01*
X50685515Y-49168192D01*
X50991700Y-49107288D01*
X51098389Y-49071072D01*
X51287308Y-49006943D01*
X51287318Y-49006939D01*
X51292596Y-49004336D01*
X51567305Y-48868865D01*
X51826876Y-48695425D01*
X52061588Y-48489588D01*
X52267425Y-48254876D01*
X52440865Y-47995305D01*
X52578940Y-47715316D01*
X52617025Y-47603123D01*
X52679284Y-47419712D01*
X52679284Y-47419711D01*
X52679288Y-47419700D01*
X52740192Y-47113515D01*
X52760610Y-46802000D01*
X52740192Y-46490485D01*
X52679288Y-46184300D01*
X52664418Y-46140493D01*
X52578943Y-45888691D01*
X52578939Y-45888681D01*
X52476139Y-45680224D01*
X52440865Y-45608695D01*
X52267425Y-45349124D01*
X52182052Y-45251775D01*
X52061588Y-45114411D01*
X51826877Y-44908576D01*
X51567310Y-44735138D01*
X51567307Y-44735136D01*
X51567305Y-44735135D01*
X51567297Y-44735131D01*
X51287318Y-44597060D01*
X51287308Y-44597056D01*
X50991712Y-44496715D01*
X50991692Y-44496710D01*
X50685525Y-44435810D01*
X50685515Y-44435808D01*
X50374000Y-44415390D01*
X50062485Y-44435808D01*
X50062479Y-44435809D01*
X50062474Y-44435810D01*
X49756307Y-44496710D01*
X49756287Y-44496715D01*
X49460691Y-44597056D01*
X49460681Y-44597060D01*
X49180702Y-44735131D01*
X49180689Y-44735138D01*
X48921122Y-44908576D01*
X48686411Y-45114411D01*
X48480576Y-45349122D01*
X48307138Y-45608689D01*
X48307131Y-45608702D01*
X48169060Y-45888681D01*
X48169056Y-45888691D01*
X48068715Y-46184287D01*
X48068710Y-46184307D01*
X48007810Y-46490474D01*
X48007808Y-46490486D01*
X47987390Y-46802000D01*
X43960610Y-46802000D01*
X43940192Y-46490485D01*
X43879288Y-46184300D01*
X43864418Y-46140493D01*
X43778943Y-45888691D01*
X43778939Y-45888681D01*
X43676139Y-45680224D01*
X43640865Y-45608695D01*
X43467425Y-45349124D01*
X43382052Y-45251775D01*
X43261588Y-45114411D01*
X43026877Y-44908576D01*
X42767310Y-44735138D01*
X42767307Y-44735136D01*
X42767305Y-44735135D01*
X42767297Y-44735131D01*
X42487318Y-44597060D01*
X42487308Y-44597056D01*
X42191712Y-44496715D01*
X42191692Y-44496710D01*
X41885525Y-44435810D01*
X41885515Y-44435808D01*
X41574000Y-44415390D01*
X41262485Y-44435808D01*
X41262479Y-44435809D01*
X41262474Y-44435810D01*
X40956307Y-44496710D01*
X40956287Y-44496715D01*
X40660691Y-44597056D01*
X40660681Y-44597060D01*
X40380702Y-44735131D01*
X40380689Y-44735138D01*
X40121122Y-44908576D01*
X39886411Y-45114411D01*
X39680576Y-45349122D01*
X39507138Y-45608689D01*
X39507131Y-45608702D01*
X39369060Y-45888681D01*
X39369056Y-45888691D01*
X39268715Y-46184287D01*
X39268710Y-46184307D01*
X39207810Y-46490474D01*
X39207808Y-46490486D01*
X39187390Y-46802000D01*
X32017108Y-46802000D01*
X32018952Y-46758136D01*
X32059162Y-46700996D01*
X32104264Y-46678262D01*
X32301941Y-46625296D01*
X32301950Y-46625292D01*
X32496845Y-46534412D01*
X32554493Y-46494046D01*
X31988998Y-45928550D01*
X32063343Y-45908630D01*
X32171657Y-45846095D01*
X32260095Y-45757657D01*
X32322630Y-45649343D01*
X32342550Y-45574997D01*
X32908046Y-46140493D01*
X32948412Y-46082845D01*
X33039292Y-45887950D01*
X33039296Y-45887941D01*
X33094950Y-45680234D01*
X33094952Y-45680224D01*
X33113695Y-45466000D01*
X33113695Y-45465999D01*
X33094952Y-45251775D01*
X33094950Y-45251765D01*
X33039296Y-45044058D01*
X33039292Y-45044049D01*
X32948412Y-44849155D01*
X32908045Y-44791505D01*
X32342550Y-45357001D01*
X32322630Y-45282657D01*
X32260095Y-45174343D01*
X32171657Y-45085905D01*
X32063343Y-45023370D01*
X31988997Y-45003449D01*
X32554493Y-44437953D01*
X32554492Y-44437952D01*
X32496848Y-44397589D01*
X32496846Y-44397588D01*
X32301950Y-44306707D01*
X32301941Y-44306703D01*
X32094234Y-44251049D01*
X32094224Y-44251047D01*
X31880001Y-44232305D01*
X31879999Y-44232305D01*
X31665775Y-44251047D01*
X31665765Y-44251049D01*
X31458058Y-44306703D01*
X31458049Y-44306706D01*
X31263149Y-44397591D01*
X31205506Y-44437952D01*
X31205505Y-44437953D01*
X31771002Y-45003449D01*
X31696657Y-45023370D01*
X31588343Y-45085905D01*
X31499905Y-45174343D01*
X31437370Y-45282657D01*
X31417449Y-45357002D01*
X30851953Y-44791505D01*
X30851952Y-44791506D01*
X30811591Y-44849149D01*
X30720706Y-45044049D01*
X30720703Y-45044058D01*
X30665049Y-45251765D01*
X30665047Y-45251775D01*
X30646305Y-45465999D01*
X18494500Y-45465999D01*
X18494500Y-42825616D01*
X23584500Y-42825616D01*
X23584500Y-43026384D01*
X23604431Y-43152221D01*
X23615907Y-43224680D01*
X23677949Y-43415626D01*
X23769095Y-43594508D01*
X23887103Y-43756932D01*
X24029068Y-43898897D01*
X24191492Y-44016905D01*
X24276007Y-44059967D01*
X24370373Y-44108050D01*
X24370375Y-44108050D01*
X24370378Y-44108052D01*
X24561320Y-44170093D01*
X24759616Y-44201500D01*
X24759617Y-44201500D01*
X24960383Y-44201500D01*
X24960384Y-44201500D01*
X25158680Y-44170093D01*
X25349622Y-44108052D01*
X25528508Y-44016905D01*
X25690932Y-43898897D01*
X25832897Y-43756932D01*
X25950905Y-43594508D01*
X26034321Y-43430794D01*
X28229500Y-43430794D01*
X28229500Y-44961206D01*
X28240304Y-45035361D01*
X28240304Y-45035362D01*
X28240305Y-45035364D01*
X28296221Y-45149743D01*
X28296223Y-45149746D01*
X28386253Y-45239776D01*
X28386256Y-45239778D01*
X28495863Y-45293361D01*
X28500639Y-45295696D01*
X28574794Y-45306500D01*
X28574800Y-45306500D01*
X30105200Y-45306500D01*
X30105206Y-45306500D01*
X30179361Y-45295696D01*
X30236553Y-45267736D01*
X30293743Y-45239778D01*
X30293746Y-45239776D01*
X30383776Y-45149746D01*
X30383778Y-45149743D01*
X30435444Y-45044058D01*
X30439696Y-45035361D01*
X30450500Y-44961206D01*
X30450500Y-43430794D01*
X30439696Y-43356639D01*
X30437361Y-43351863D01*
X30383778Y-43242256D01*
X30383776Y-43242253D01*
X30293746Y-43152223D01*
X30293743Y-43152221D01*
X30179364Y-43096305D01*
X30179362Y-43096304D01*
X30179361Y-43096304D01*
X30105206Y-43085500D01*
X28574794Y-43085500D01*
X28500639Y-43096304D01*
X28500637Y-43096304D01*
X28500635Y-43096305D01*
X28386256Y-43152221D01*
X28386253Y-43152223D01*
X28296223Y-43242253D01*
X28296221Y-43242256D01*
X28240305Y-43356635D01*
X28240304Y-43356637D01*
X28240304Y-43356639D01*
X28229500Y-43430794D01*
X26034321Y-43430794D01*
X26042052Y-43415622D01*
X26104093Y-43224680D01*
X26135500Y-43026384D01*
X26135500Y-42825616D01*
X26104093Y-42627320D01*
X26042052Y-42436378D01*
X26042050Y-42436375D01*
X26042050Y-42436373D01*
X25950904Y-42257491D01*
X25882979Y-42164000D01*
X93801495Y-42164000D01*
X93821443Y-42328289D01*
X93821444Y-42328294D01*
X93880130Y-42483035D01*
X93880130Y-42483036D01*
X93965400Y-42606569D01*
X93974144Y-42619237D01*
X93974146Y-42619239D01*
X93974148Y-42619241D01*
X94098019Y-42728982D01*
X94098021Y-42728983D01*
X94244562Y-42805893D01*
X94405251Y-42845500D01*
X94405252Y-42845500D01*
X94570748Y-42845500D01*
X94570749Y-42845500D01*
X94731438Y-42805893D01*
X94877979Y-42728983D01*
X95001856Y-42619237D01*
X95095870Y-42483035D01*
X95154556Y-42328291D01*
X95174505Y-42164000D01*
X95154556Y-41999709D01*
X95154555Y-41999707D01*
X95154555Y-41999705D01*
X95118252Y-41903982D01*
X95095870Y-41844965D01*
X95089057Y-41835095D01*
X95026143Y-41743949D01*
X95001856Y-41708763D01*
X95001853Y-41708760D01*
X95001851Y-41708758D01*
X94877980Y-41599017D01*
X94731436Y-41522106D01*
X94623310Y-41495455D01*
X94570749Y-41482500D01*
X94405251Y-41482500D01*
X94365645Y-41492262D01*
X94244563Y-41522106D01*
X94098019Y-41599017D01*
X93974148Y-41708758D01*
X93974142Y-41708765D01*
X93880130Y-41844963D01*
X93880130Y-41844964D01*
X93821444Y-41999705D01*
X93821443Y-41999710D01*
X93801495Y-42164000D01*
X25882979Y-42164000D01*
X25832897Y-42095068D01*
X25690932Y-41953103D01*
X25528508Y-41835095D01*
X25448328Y-41794241D01*
X25349626Y-41743949D01*
X25158680Y-41681907D01*
X25007964Y-41658036D01*
X24960384Y-41650500D01*
X24759616Y-41650500D01*
X24712042Y-41658035D01*
X24561319Y-41681907D01*
X24370373Y-41743949D01*
X24191491Y-41835095D01*
X24098822Y-41902423D01*
X24029068Y-41953103D01*
X24029066Y-41953105D01*
X24029065Y-41953105D01*
X23887105Y-42095065D01*
X23887105Y-42095066D01*
X23887103Y-42095068D01*
X23837021Y-42164000D01*
X23769095Y-42257491D01*
X23677949Y-42436373D01*
X23618534Y-42619234D01*
X23615907Y-42627320D01*
X23584500Y-42825616D01*
X18494500Y-42825616D01*
X18494500Y-41339000D01*
X67956495Y-41339000D01*
X67976443Y-41503289D01*
X67976444Y-41503294D01*
X68035130Y-41658035D01*
X68035130Y-41658036D01*
X68094432Y-41743948D01*
X68129144Y-41794237D01*
X68129146Y-41794239D01*
X68129148Y-41794241D01*
X68253019Y-41903982D01*
X68253021Y-41903983D01*
X68399562Y-41980893D01*
X68560251Y-42020500D01*
X68560252Y-42020500D01*
X68725748Y-42020500D01*
X68725749Y-42020500D01*
X68886438Y-41980893D01*
X69032979Y-41903983D01*
X69156856Y-41794237D01*
X69250870Y-41658035D01*
X69309556Y-41503291D01*
X69329505Y-41339000D01*
X69309556Y-41174709D01*
X69309555Y-41174707D01*
X69309555Y-41174705D01*
X69282888Y-41104391D01*
X69250870Y-41019965D01*
X69156856Y-40883763D01*
X69156853Y-40883760D01*
X69156851Y-40883758D01*
X69032980Y-40774017D01*
X68886436Y-40697106D01*
X68778310Y-40670455D01*
X68725749Y-40657500D01*
X68560251Y-40657500D01*
X68520645Y-40667262D01*
X68399563Y-40697106D01*
X68253019Y-40774017D01*
X68129148Y-40883758D01*
X68129142Y-40883765D01*
X68035130Y-41019963D01*
X68035130Y-41019964D01*
X67976444Y-41174705D01*
X67976443Y-41174710D01*
X67956495Y-41339000D01*
X18494500Y-41339000D01*
X18494500Y-38356000D01*
X19298261Y-38356000D01*
X20256012Y-38356000D01*
X20238795Y-38365940D01*
X20182940Y-38421795D01*
X20143444Y-38490204D01*
X20123000Y-38566504D01*
X20123000Y-38645496D01*
X20143444Y-38721796D01*
X20182940Y-38790205D01*
X20238795Y-38846060D01*
X20256012Y-38856000D01*
X19298261Y-38856000D01*
X19301315Y-38875285D01*
X19301318Y-38875295D01*
X19357250Y-39047441D01*
X19357252Y-39047447D01*
X19439434Y-39208734D01*
X19545823Y-39355169D01*
X19673830Y-39483176D01*
X19820265Y-39589565D01*
X19981552Y-39671747D01*
X19981555Y-39671748D01*
X20153706Y-39727682D01*
X20332494Y-39756000D01*
X20823000Y-39756000D01*
X20823000Y-38906000D01*
X21323000Y-38906000D01*
X21323000Y-39756000D01*
X21813506Y-39756000D01*
X21992293Y-39727682D01*
X22164444Y-39671748D01*
X22164447Y-39671747D01*
X22325734Y-39589565D01*
X22472169Y-39483176D01*
X22600176Y-39355169D01*
X22706565Y-39208734D01*
X22788747Y-39047447D01*
X22788749Y-39047441D01*
X22844681Y-38875295D01*
X22844684Y-38875285D01*
X22847739Y-38856000D01*
X21889988Y-38856000D01*
X21907205Y-38846060D01*
X21963060Y-38790205D01*
X22002556Y-38721796D01*
X22023000Y-38645496D01*
X22023000Y-38566504D01*
X22002556Y-38490204D01*
X21963060Y-38421795D01*
X21907205Y-38365940D01*
X21889988Y-38356000D01*
X22847739Y-38356000D01*
X23273261Y-38356000D01*
X24231012Y-38356000D01*
X24213795Y-38365940D01*
X24157940Y-38421795D01*
X24118444Y-38490204D01*
X24098000Y-38566504D01*
X24098000Y-38645496D01*
X24118444Y-38721796D01*
X24157940Y-38790205D01*
X24213795Y-38846060D01*
X24231012Y-38856000D01*
X23273261Y-38856000D01*
X23276315Y-38875285D01*
X23276318Y-38875295D01*
X23332250Y-39047441D01*
X23332252Y-39047447D01*
X23414434Y-39208734D01*
X23520823Y-39355169D01*
X23648830Y-39483176D01*
X23795265Y-39589565D01*
X23956552Y-39671747D01*
X23956555Y-39671748D01*
X24128706Y-39727682D01*
X24307494Y-39756000D01*
X24648000Y-39756000D01*
X24648000Y-38906000D01*
X25148000Y-38906000D01*
X25148000Y-39756000D01*
X25488506Y-39756000D01*
X25667293Y-39727682D01*
X25839444Y-39671748D01*
X25839447Y-39671747D01*
X26000734Y-39589565D01*
X26147169Y-39483176D01*
X26275176Y-39355169D01*
X26356670Y-39243000D01*
X67766495Y-39243000D01*
X67786443Y-39407289D01*
X67786444Y-39407294D01*
X67845130Y-39562035D01*
X67845130Y-39562036D01*
X67920859Y-39671747D01*
X67939144Y-39698237D01*
X67939146Y-39698239D01*
X67939148Y-39698241D01*
X68063019Y-39807982D01*
X68063021Y-39807983D01*
X68209562Y-39884893D01*
X68370251Y-39924500D01*
X68370252Y-39924500D01*
X68535748Y-39924500D01*
X68535749Y-39924500D01*
X68696438Y-39884893D01*
X68842979Y-39807983D01*
X68966856Y-39698237D01*
X69060870Y-39562035D01*
X69119556Y-39407291D01*
X69139505Y-39243000D01*
X69119556Y-39078709D01*
X69119555Y-39078707D01*
X69119555Y-39078705D01*
X69092888Y-39008391D01*
X69060870Y-38923965D01*
X69027268Y-38875285D01*
X69007096Y-38846060D01*
X68966856Y-38787763D01*
X68966853Y-38787760D01*
X68966851Y-38787758D01*
X68842980Y-38678017D01*
X68696436Y-38601106D01*
X68588310Y-38574455D01*
X68535749Y-38561500D01*
X68370251Y-38561500D01*
X68330645Y-38571262D01*
X68209563Y-38601106D01*
X68063019Y-38678017D01*
X67939148Y-38787758D01*
X67939142Y-38787765D01*
X67845130Y-38923963D01*
X67845130Y-38923964D01*
X67786444Y-39078705D01*
X67786443Y-39078710D01*
X67766495Y-39243000D01*
X26356670Y-39243000D01*
X26381565Y-39208734D01*
X26463747Y-39047447D01*
X26463749Y-39047441D01*
X26519681Y-38875295D01*
X26519684Y-38875285D01*
X26522739Y-38856000D01*
X25564988Y-38856000D01*
X25582205Y-38846060D01*
X25638060Y-38790205D01*
X25677556Y-38721796D01*
X25698000Y-38645496D01*
X25698000Y-38566504D01*
X25677556Y-38490204D01*
X25638060Y-38421795D01*
X25582205Y-38365940D01*
X25564988Y-38356000D01*
X26522739Y-38356000D01*
X26519684Y-38336714D01*
X26519681Y-38336704D01*
X26463749Y-38164558D01*
X26463747Y-38164552D01*
X26381565Y-38003265D01*
X26275176Y-37856830D01*
X26147169Y-37728823D01*
X26046246Y-37655500D01*
X35381495Y-37655500D01*
X35401443Y-37819789D01*
X35401444Y-37819794D01*
X35460130Y-37974535D01*
X35460130Y-37974536D01*
X35491167Y-38019500D01*
X35554144Y-38110737D01*
X35554146Y-38110739D01*
X35554148Y-38110741D01*
X35678019Y-38220482D01*
X35678021Y-38220483D01*
X35824562Y-38297393D01*
X35985251Y-38337000D01*
X35985252Y-38337000D01*
X36150748Y-38337000D01*
X36150749Y-38337000D01*
X36311438Y-38297393D01*
X36457979Y-38220483D01*
X36581856Y-38110737D01*
X36675870Y-37974535D01*
X36734556Y-37819791D01*
X36754505Y-37655500D01*
X36734556Y-37491209D01*
X36734555Y-37491207D01*
X36734555Y-37491205D01*
X36676452Y-37338000D01*
X36675870Y-37336465D01*
X36581856Y-37200263D01*
X36581853Y-37200260D01*
X36581851Y-37200258D01*
X36457980Y-37090517D01*
X36311436Y-37013606D01*
X36203310Y-36986955D01*
X36150749Y-36974000D01*
X35985251Y-36974000D01*
X35945645Y-36983762D01*
X35824563Y-37013606D01*
X35678019Y-37090517D01*
X35554148Y-37200258D01*
X35554142Y-37200265D01*
X35460130Y-37336463D01*
X35460130Y-37336464D01*
X35401444Y-37491205D01*
X35401443Y-37491210D01*
X35381495Y-37655500D01*
X26046246Y-37655500D01*
X26000734Y-37622434D01*
X25839447Y-37540252D01*
X25839444Y-37540251D01*
X25667293Y-37484317D01*
X25488506Y-37456000D01*
X25148000Y-37456000D01*
X25148000Y-38306000D01*
X24648000Y-38306000D01*
X24648000Y-37722500D01*
X24664614Y-37660498D01*
X24666613Y-37657036D01*
X24685984Y-37623485D01*
X24723500Y-37483475D01*
X24723500Y-37088525D01*
X24688258Y-36957000D01*
X67766495Y-36957000D01*
X67786443Y-37121289D01*
X67786444Y-37121294D01*
X67845130Y-37276035D01*
X67845130Y-37276036D01*
X67930400Y-37399569D01*
X67939144Y-37412237D01*
X67939146Y-37412239D01*
X67939148Y-37412241D01*
X68063019Y-37521982D01*
X68063021Y-37521983D01*
X68209562Y-37598893D01*
X68370251Y-37638500D01*
X68370252Y-37638500D01*
X68535748Y-37638500D01*
X68535749Y-37638500D01*
X68696438Y-37598893D01*
X68842979Y-37521983D01*
X68966856Y-37412237D01*
X69060870Y-37276035D01*
X69119556Y-37121291D01*
X69139505Y-36957000D01*
X69119556Y-36792709D01*
X69119555Y-36792707D01*
X69119555Y-36792705D01*
X69064682Y-36648017D01*
X69060870Y-36637965D01*
X69050195Y-36622500D01*
X68986209Y-36529801D01*
X68966856Y-36501763D01*
X68966853Y-36501760D01*
X68966851Y-36501758D01*
X68842980Y-36392017D01*
X68696436Y-36315106D01*
X68588310Y-36288455D01*
X68535749Y-36275500D01*
X68370251Y-36275500D01*
X68330645Y-36285262D01*
X68209563Y-36315106D01*
X68063019Y-36392017D01*
X67939148Y-36501758D01*
X67939142Y-36501765D01*
X67845130Y-36637963D01*
X67845130Y-36637964D01*
X67786444Y-36792705D01*
X67786443Y-36792710D01*
X67766495Y-36957000D01*
X24688258Y-36957000D01*
X24685984Y-36948515D01*
X24613509Y-36822985D01*
X24511015Y-36720491D01*
X24511013Y-36720490D01*
X24511011Y-36720488D01*
X24385488Y-36648017D01*
X24385489Y-36648017D01*
X24374006Y-36644940D01*
X24245475Y-36610500D01*
X24100525Y-36610500D01*
X23971993Y-36644940D01*
X23960511Y-36648017D01*
X23834988Y-36720488D01*
X23834982Y-36720493D01*
X23732493Y-36822982D01*
X23732488Y-36822988D01*
X23660017Y-36948511D01*
X23660016Y-36948515D01*
X23622500Y-37088525D01*
X23622500Y-37483475D01*
X23660016Y-37623485D01*
X23660017Y-37623487D01*
X23661384Y-37628588D01*
X23659721Y-37698438D01*
X23629291Y-37748363D01*
X23520822Y-37856832D01*
X23414434Y-38003265D01*
X23332252Y-38164552D01*
X23332250Y-38164558D01*
X23276318Y-38336704D01*
X23276315Y-38336714D01*
X23273261Y-38356000D01*
X22847739Y-38356000D01*
X22844684Y-38336714D01*
X22844681Y-38336704D01*
X22788749Y-38164558D01*
X22788747Y-38164552D01*
X22706565Y-38003265D01*
X22600176Y-37856830D01*
X22472169Y-37728823D01*
X22325734Y-37622434D01*
X22164447Y-37540252D01*
X22164444Y-37540251D01*
X21992293Y-37484317D01*
X21813506Y-37456000D01*
X21323000Y-37456000D01*
X21323000Y-38306000D01*
X20823000Y-38306000D01*
X20823000Y-37456000D01*
X20332494Y-37456000D01*
X20153706Y-37484317D01*
X19981555Y-37540251D01*
X19981552Y-37540252D01*
X19820265Y-37622434D01*
X19673830Y-37728823D01*
X19545823Y-37856830D01*
X19439434Y-38003265D01*
X19357252Y-38164552D01*
X19357250Y-38164558D01*
X19301318Y-38336704D01*
X19301315Y-38336714D01*
X19298261Y-38356000D01*
X18494500Y-38356000D01*
X18494500Y-35814000D01*
X25602495Y-35814000D01*
X25622443Y-35978289D01*
X25622444Y-35978294D01*
X25681130Y-36133035D01*
X25681130Y-36133036D01*
X25756132Y-36241694D01*
X25775144Y-36269237D01*
X25775146Y-36269239D01*
X25775148Y-36269241D01*
X25899019Y-36378982D01*
X25899021Y-36378983D01*
X26045562Y-36455893D01*
X26206251Y-36495500D01*
X26206252Y-36495500D01*
X26371748Y-36495500D01*
X26371749Y-36495500D01*
X26532438Y-36455893D01*
X26678979Y-36378983D01*
X26802856Y-36269237D01*
X26896870Y-36133035D01*
X26955556Y-35978291D01*
X26975505Y-35814000D01*
X26955556Y-35649709D01*
X26955555Y-35649707D01*
X26955555Y-35649705D01*
X26928406Y-35578119D01*
X26896870Y-35494965D01*
X26890518Y-35485763D01*
X26849863Y-35426864D01*
X26802856Y-35358763D01*
X26802853Y-35358760D01*
X26802851Y-35358758D01*
X26678980Y-35249017D01*
X26532436Y-35172106D01*
X26424310Y-35145455D01*
X26371749Y-35132500D01*
X26206251Y-35132500D01*
X26166645Y-35142262D01*
X26045563Y-35172106D01*
X25899019Y-35249017D01*
X25775148Y-35358758D01*
X25775142Y-35358765D01*
X25681130Y-35494963D01*
X25681130Y-35494964D01*
X25622444Y-35649705D01*
X25622443Y-35649710D01*
X25602495Y-35814000D01*
X18494500Y-35814000D01*
X18494500Y-35052000D01*
X38435193Y-35052000D01*
X38455141Y-35216289D01*
X38455142Y-35216294D01*
X38513828Y-35371035D01*
X38513828Y-35371036D01*
X38593016Y-35485758D01*
X38607842Y-35507237D01*
X38607844Y-35507239D01*
X38607846Y-35507241D01*
X38731717Y-35616982D01*
X38731719Y-35616983D01*
X38878260Y-35693893D01*
X39038949Y-35733500D01*
X39038950Y-35733500D01*
X39204446Y-35733500D01*
X39204447Y-35733500D01*
X39365136Y-35693893D01*
X39511677Y-35616983D01*
X39635554Y-35507237D01*
X39729568Y-35371035D01*
X39788254Y-35216291D01*
X39808203Y-35052000D01*
X39788254Y-34887709D01*
X39788253Y-34887707D01*
X39788253Y-34887705D01*
X39761586Y-34817391D01*
X39729568Y-34732965D01*
X39712535Y-34708289D01*
X39686796Y-34671000D01*
X67658375Y-34671000D01*
X67678323Y-34835289D01*
X67678324Y-34835294D01*
X67737010Y-34990035D01*
X67737010Y-34990036D01*
X67819114Y-35108982D01*
X67831024Y-35126237D01*
X67831026Y-35126239D01*
X67831028Y-35126241D01*
X67954899Y-35235982D01*
X67954901Y-35235983D01*
X68101442Y-35312893D01*
X68262131Y-35352500D01*
X68262132Y-35352500D01*
X68427628Y-35352500D01*
X68427629Y-35352500D01*
X68588318Y-35312893D01*
X68734859Y-35235983D01*
X68858736Y-35126237D01*
X68952750Y-34990035D01*
X69011436Y-34835291D01*
X69031385Y-34671000D01*
X69015964Y-34544000D01*
X73354495Y-34544000D01*
X73374443Y-34708289D01*
X73374444Y-34708294D01*
X73433130Y-34863035D01*
X73433130Y-34863036D01*
X73518400Y-34986569D01*
X73527144Y-34999237D01*
X73527146Y-34999239D01*
X73527148Y-34999241D01*
X73651019Y-35108982D01*
X73696216Y-35132703D01*
X73746429Y-35181288D01*
X73762404Y-35249307D01*
X73739069Y-35315165D01*
X73696216Y-35352297D01*
X73651019Y-35376017D01*
X73527148Y-35485758D01*
X73527142Y-35485765D01*
X73433130Y-35621963D01*
X73433130Y-35621964D01*
X73374444Y-35776705D01*
X73374443Y-35776710D01*
X73354495Y-35941000D01*
X73374443Y-36105289D01*
X73374444Y-36105294D01*
X73433130Y-36260035D01*
X73433130Y-36260036D01*
X73515234Y-36378982D01*
X73527144Y-36396237D01*
X73527146Y-36396239D01*
X73527148Y-36396241D01*
X73651019Y-36505982D01*
X73696216Y-36529703D01*
X73746429Y-36578288D01*
X73762404Y-36646307D01*
X73739069Y-36712165D01*
X73696216Y-36749297D01*
X73651019Y-36773017D01*
X73527148Y-36882758D01*
X73527142Y-36882765D01*
X73433130Y-37018963D01*
X73433130Y-37018964D01*
X73374444Y-37173705D01*
X73374443Y-37173710D01*
X73354495Y-37338000D01*
X73374443Y-37502289D01*
X73374444Y-37502294D01*
X73433130Y-37657035D01*
X73433130Y-37657036D01*
X73518400Y-37780569D01*
X73527144Y-37793237D01*
X73527146Y-37793239D01*
X73527148Y-37793241D01*
X73651019Y-37902982D01*
X73651021Y-37902983D01*
X73797562Y-37979893D01*
X73958251Y-38019500D01*
X73958252Y-38019500D01*
X74123748Y-38019500D01*
X74123749Y-38019500D01*
X74284438Y-37979893D01*
X74430979Y-37902983D01*
X74554856Y-37793237D01*
X74648870Y-37657035D01*
X74707556Y-37502291D01*
X74727505Y-37338000D01*
X74707556Y-37173709D01*
X74707555Y-37173707D01*
X74707555Y-37173705D01*
X74675250Y-37088525D01*
X74648870Y-37018965D01*
X74554856Y-36882763D01*
X74554853Y-36882760D01*
X74554851Y-36882758D01*
X74430980Y-36773017D01*
X74407611Y-36760752D01*
X74385781Y-36749295D01*
X74335570Y-36700713D01*
X74319595Y-36632694D01*
X74342929Y-36566836D01*
X74385669Y-36529801D01*
X79587039Y-36529801D01*
X79669955Y-36573318D01*
X79835006Y-36614000D01*
X80004994Y-36614000D01*
X80170044Y-36573318D01*
X80252959Y-36529801D01*
X81587039Y-36529801D01*
X81669955Y-36573318D01*
X81835006Y-36614000D01*
X82004994Y-36614000D01*
X82170044Y-36573318D01*
X82252959Y-36529801D01*
X82587039Y-36529801D01*
X82669955Y-36573318D01*
X82835006Y-36614000D01*
X83004994Y-36614000D01*
X83170044Y-36573318D01*
X83252959Y-36529801D01*
X84587039Y-36529801D01*
X84669955Y-36573318D01*
X84835006Y-36614000D01*
X85004994Y-36614000D01*
X85170044Y-36573318D01*
X85252959Y-36529801D01*
X84920001Y-36196843D01*
X84920000Y-36196843D01*
X84587039Y-36529801D01*
X83252959Y-36529801D01*
X82920001Y-36196843D01*
X82920000Y-36196843D01*
X82587039Y-36529801D01*
X82252959Y-36529801D01*
X81920001Y-36196843D01*
X81920000Y-36196843D01*
X81587039Y-36529801D01*
X80252959Y-36529801D01*
X79920001Y-36196843D01*
X79920000Y-36196843D01*
X79587039Y-36529801D01*
X74385669Y-36529801D01*
X74385781Y-36529704D01*
X74430979Y-36505983D01*
X74554856Y-36396237D01*
X74648870Y-36260035D01*
X74707556Y-36105291D01*
X74727505Y-35941000D01*
X74724226Y-35913999D01*
X79214859Y-35913999D01*
X79214859Y-35914000D01*
X79235348Y-36082748D01*
X79235349Y-36082751D01*
X79295629Y-36241694D01*
X79301277Y-36249878D01*
X79637157Y-35914000D01*
X79637157Y-35913999D01*
X79617267Y-35894109D01*
X79820000Y-35894109D01*
X79820000Y-35933891D01*
X79835224Y-35970645D01*
X79863355Y-35998776D01*
X79900109Y-36014000D01*
X79939891Y-36014000D01*
X79976645Y-35998776D01*
X80004776Y-35970645D01*
X80020000Y-35933891D01*
X80020000Y-35913999D01*
X80202843Y-35913999D01*
X80202843Y-35914000D01*
X80538721Y-36249879D01*
X80544370Y-36241694D01*
X80604650Y-36082751D01*
X80604651Y-36082748D01*
X80625141Y-35914000D01*
X80625141Y-35913999D01*
X81214859Y-35913999D01*
X81214859Y-35914000D01*
X81235348Y-36082748D01*
X81235349Y-36082751D01*
X81295629Y-36241694D01*
X81301277Y-36249878D01*
X81637157Y-35914000D01*
X81637157Y-35913999D01*
X81617267Y-35894109D01*
X81820000Y-35894109D01*
X81820000Y-35933891D01*
X81835224Y-35970645D01*
X81863355Y-35998776D01*
X81900109Y-36014000D01*
X81939891Y-36014000D01*
X81976645Y-35998776D01*
X82004776Y-35970645D01*
X82020000Y-35933891D01*
X82020000Y-35914000D01*
X82202843Y-35914000D01*
X82420000Y-36131157D01*
X82637157Y-35914000D01*
X82617266Y-35894109D01*
X82820000Y-35894109D01*
X82820000Y-35933891D01*
X82835224Y-35970645D01*
X82863355Y-35998776D01*
X82900109Y-36014000D01*
X82939891Y-36014000D01*
X82976645Y-35998776D01*
X83004776Y-35970645D01*
X83020000Y-35933891D01*
X83020000Y-35913999D01*
X83202843Y-35913999D01*
X83202843Y-35914001D01*
X83538721Y-36249879D01*
X83544370Y-36241694D01*
X83604650Y-36082751D01*
X83604651Y-36082748D01*
X83625141Y-35914000D01*
X83625141Y-35913999D01*
X84214859Y-35913999D01*
X84214859Y-35914000D01*
X84235348Y-36082748D01*
X84235349Y-36082751D01*
X84295629Y-36241694D01*
X84301277Y-36249878D01*
X84637157Y-35914000D01*
X84637157Y-35913999D01*
X84617267Y-35894109D01*
X84820000Y-35894109D01*
X84820000Y-35933891D01*
X84835224Y-35970645D01*
X84863355Y-35998776D01*
X84900109Y-36014000D01*
X84939891Y-36014000D01*
X84976645Y-35998776D01*
X85004776Y-35970645D01*
X85020000Y-35933891D01*
X85020000Y-35913999D01*
X85202843Y-35913999D01*
X85202843Y-35914001D01*
X85538721Y-36249879D01*
X85544370Y-36241694D01*
X85604650Y-36082751D01*
X85604651Y-36082748D01*
X85625141Y-35914000D01*
X85625141Y-35913999D01*
X85604651Y-35745251D01*
X85604650Y-35745245D01*
X85544371Y-35586305D01*
X85538722Y-35578120D01*
X85538721Y-35578120D01*
X85202843Y-35913999D01*
X85020000Y-35913999D01*
X85020000Y-35894109D01*
X85004776Y-35857355D01*
X84976645Y-35829224D01*
X84939891Y-35814000D01*
X84900109Y-35814000D01*
X84863355Y-35829224D01*
X84835224Y-35857355D01*
X84820000Y-35894109D01*
X84617267Y-35894109D01*
X84301277Y-35578119D01*
X84295629Y-35586303D01*
X84295628Y-35586306D01*
X84235349Y-35745245D01*
X84235348Y-35745251D01*
X84214859Y-35913999D01*
X83625141Y-35913999D01*
X83604651Y-35745251D01*
X83604650Y-35745245D01*
X83544371Y-35586305D01*
X83538722Y-35578120D01*
X83202843Y-35913999D01*
X83020000Y-35913999D01*
X83020000Y-35894109D01*
X83004776Y-35857355D01*
X82976645Y-35829224D01*
X82939891Y-35814000D01*
X82900109Y-35814000D01*
X82863355Y-35829224D01*
X82835224Y-35857355D01*
X82820000Y-35894109D01*
X82617266Y-35894109D01*
X82420000Y-35696843D01*
X82202843Y-35914000D01*
X82020000Y-35914000D01*
X82020000Y-35894109D01*
X82004776Y-35857355D01*
X81976645Y-35829224D01*
X81939891Y-35814000D01*
X81900109Y-35814000D01*
X81863355Y-35829224D01*
X81835224Y-35857355D01*
X81820000Y-35894109D01*
X81617267Y-35894109D01*
X81301277Y-35578119D01*
X81295629Y-35586303D01*
X81295628Y-35586306D01*
X81235349Y-35745245D01*
X81235348Y-35745251D01*
X81214859Y-35913999D01*
X80625141Y-35913999D01*
X80604651Y-35745251D01*
X80604650Y-35745245D01*
X80544371Y-35586305D01*
X80538722Y-35578120D01*
X80202843Y-35913999D01*
X80020000Y-35913999D01*
X80020000Y-35894109D01*
X80004776Y-35857355D01*
X79976645Y-35829224D01*
X79939891Y-35814000D01*
X79900109Y-35814000D01*
X79863355Y-35829224D01*
X79835224Y-35857355D01*
X79820000Y-35894109D01*
X79617267Y-35894109D01*
X79301277Y-35578119D01*
X79295629Y-35586303D01*
X79295628Y-35586306D01*
X79235349Y-35745245D01*
X79235348Y-35745251D01*
X79214859Y-35913999D01*
X74724226Y-35913999D01*
X74707556Y-35776709D01*
X74707555Y-35776707D01*
X74707555Y-35776705D01*
X74659392Y-35649710D01*
X74648870Y-35621965D01*
X74645431Y-35616983D01*
X74569681Y-35507241D01*
X74554856Y-35485763D01*
X74554853Y-35485760D01*
X74554851Y-35485758D01*
X74430980Y-35376017D01*
X74407611Y-35363752D01*
X74385781Y-35352295D01*
X74335570Y-35303713D01*
X74334274Y-35298196D01*
X79587039Y-35298196D01*
X79920000Y-35631157D01*
X79920001Y-35631157D01*
X80252959Y-35298197D01*
X80252959Y-35298196D01*
X81587039Y-35298196D01*
X81920000Y-35631157D01*
X81920001Y-35631157D01*
X82252959Y-35298197D01*
X82252959Y-35298196D01*
X82587039Y-35298196D01*
X82920000Y-35631157D01*
X82920001Y-35631157D01*
X83252959Y-35298197D01*
X83252959Y-35298196D01*
X84587039Y-35298196D01*
X84920000Y-35631157D01*
X84920001Y-35631157D01*
X85252959Y-35298197D01*
X85252959Y-35298196D01*
X85170046Y-35254682D01*
X85004994Y-35214000D01*
X84835006Y-35214000D01*
X84669951Y-35254682D01*
X84587039Y-35298196D01*
X83252959Y-35298196D01*
X83170046Y-35254682D01*
X83004994Y-35214000D01*
X82835006Y-35214000D01*
X82669951Y-35254682D01*
X82587039Y-35298196D01*
X82252959Y-35298196D01*
X82170046Y-35254682D01*
X82004994Y-35214000D01*
X81835006Y-35214000D01*
X81669951Y-35254682D01*
X81587039Y-35298196D01*
X80252959Y-35298196D01*
X80170046Y-35254682D01*
X80004994Y-35214000D01*
X79835006Y-35214000D01*
X79669951Y-35254682D01*
X79587039Y-35298196D01*
X74334274Y-35298196D01*
X74319595Y-35235694D01*
X74342929Y-35169836D01*
X74385781Y-35132704D01*
X74430979Y-35108983D01*
X74554856Y-34999237D01*
X74648870Y-34863035D01*
X74707556Y-34708291D01*
X74727505Y-34544000D01*
X74725781Y-34529801D01*
X79587039Y-34529801D01*
X79669955Y-34573318D01*
X79835006Y-34614000D01*
X80004994Y-34614000D01*
X80170044Y-34573318D01*
X80252959Y-34529801D01*
X84587039Y-34529801D01*
X84669955Y-34573318D01*
X84835006Y-34614000D01*
X85004994Y-34614000D01*
X85170044Y-34573318D01*
X85252959Y-34529801D01*
X84920001Y-34196843D01*
X84920000Y-34196843D01*
X84587039Y-34529801D01*
X80252959Y-34529801D01*
X79920001Y-34196843D01*
X79920000Y-34196843D01*
X79587039Y-34529801D01*
X74725781Y-34529801D01*
X74707556Y-34379709D01*
X74707555Y-34379707D01*
X74707555Y-34379705D01*
X74680888Y-34309391D01*
X74648870Y-34224965D01*
X74642518Y-34215763D01*
X74601863Y-34156864D01*
X74554856Y-34088763D01*
X74554853Y-34088760D01*
X74554851Y-34088758D01*
X74430980Y-33979017D01*
X74307097Y-33913999D01*
X79214859Y-33913999D01*
X79214859Y-33914000D01*
X79235348Y-34082748D01*
X79235349Y-34082751D01*
X79295629Y-34241694D01*
X79301277Y-34249878D01*
X79637157Y-33914000D01*
X79637157Y-33913999D01*
X79617267Y-33894109D01*
X79820000Y-33894109D01*
X79820000Y-33933891D01*
X79835224Y-33970645D01*
X79863355Y-33998776D01*
X79900109Y-34014000D01*
X79939891Y-34014000D01*
X79976645Y-33998776D01*
X80004776Y-33970645D01*
X80020000Y-33933891D01*
X80020000Y-33913999D01*
X80202843Y-33913999D01*
X80202843Y-33914000D01*
X80538721Y-34249879D01*
X80544370Y-34241694D01*
X80604650Y-34082751D01*
X80604651Y-34082748D01*
X80625141Y-33914000D01*
X80625141Y-33913999D01*
X84214859Y-33913999D01*
X84214859Y-33914000D01*
X84235348Y-34082748D01*
X84235349Y-34082751D01*
X84295629Y-34241694D01*
X84301277Y-34249878D01*
X84637157Y-33914000D01*
X84637157Y-33913999D01*
X84617267Y-33894109D01*
X84820000Y-33894109D01*
X84820000Y-33933891D01*
X84835224Y-33970645D01*
X84863355Y-33998776D01*
X84900109Y-34014000D01*
X84939891Y-34014000D01*
X84976645Y-33998776D01*
X85004776Y-33970645D01*
X85020000Y-33933891D01*
X85020000Y-33913999D01*
X85202843Y-33913999D01*
X85202843Y-33914001D01*
X85538721Y-34249879D01*
X85544370Y-34241694D01*
X85604650Y-34082751D01*
X85604651Y-34082748D01*
X85625141Y-33914000D01*
X85625141Y-33913999D01*
X85604651Y-33745251D01*
X85604650Y-33745245D01*
X85544371Y-33586305D01*
X85538722Y-33578120D01*
X85202843Y-33913999D01*
X85020000Y-33913999D01*
X85020000Y-33894109D01*
X85004776Y-33857355D01*
X84976645Y-33829224D01*
X84939891Y-33814000D01*
X84900109Y-33814000D01*
X84863355Y-33829224D01*
X84835224Y-33857355D01*
X84820000Y-33894109D01*
X84617267Y-33894109D01*
X84301277Y-33578119D01*
X84295629Y-33586303D01*
X84295628Y-33586306D01*
X84235349Y-33745245D01*
X84235348Y-33745251D01*
X84214859Y-33913999D01*
X80625141Y-33913999D01*
X80604651Y-33745251D01*
X80604650Y-33745245D01*
X80544371Y-33586305D01*
X80538722Y-33578120D01*
X80538721Y-33578120D01*
X80202843Y-33913999D01*
X80020000Y-33913999D01*
X80020000Y-33894109D01*
X80004776Y-33857355D01*
X79976645Y-33829224D01*
X79939891Y-33814000D01*
X79900109Y-33814000D01*
X79863355Y-33829224D01*
X79835224Y-33857355D01*
X79820000Y-33894109D01*
X79617267Y-33894109D01*
X79301277Y-33578119D01*
X79295629Y-33586303D01*
X79295628Y-33586306D01*
X79235349Y-33745245D01*
X79235348Y-33745251D01*
X79214859Y-33913999D01*
X74307097Y-33913999D01*
X74284436Y-33902106D01*
X74176310Y-33875455D01*
X74123749Y-33862500D01*
X73958251Y-33862500D01*
X73918645Y-33872262D01*
X73797563Y-33902106D01*
X73651019Y-33979017D01*
X73527148Y-34088758D01*
X73527142Y-34088765D01*
X73433130Y-34224963D01*
X73433130Y-34224964D01*
X73374444Y-34379705D01*
X73374443Y-34379710D01*
X73354495Y-34544000D01*
X69015964Y-34544000D01*
X69011436Y-34506709D01*
X69011435Y-34506707D01*
X69011435Y-34506705D01*
X68963272Y-34379710D01*
X68952750Y-34351965D01*
X68858736Y-34215763D01*
X68858733Y-34215760D01*
X68858731Y-34215758D01*
X68734860Y-34106017D01*
X68588316Y-34029106D01*
X68480190Y-34002455D01*
X68427629Y-33989500D01*
X68262131Y-33989500D01*
X68222525Y-33999262D01*
X68101443Y-34029106D01*
X67954899Y-34106017D01*
X67831028Y-34215758D01*
X67831022Y-34215765D01*
X67737010Y-34351963D01*
X67737010Y-34351964D01*
X67678324Y-34506705D01*
X67678323Y-34506710D01*
X67658375Y-34671000D01*
X39686796Y-34671000D01*
X39635555Y-34596765D01*
X39635554Y-34596763D01*
X39635551Y-34596760D01*
X39635549Y-34596758D01*
X39511678Y-34487017D01*
X39365134Y-34410106D01*
X39257008Y-34383455D01*
X39204447Y-34370500D01*
X39038949Y-34370500D01*
X39001604Y-34379705D01*
X38878261Y-34410106D01*
X38731717Y-34487017D01*
X38607846Y-34596758D01*
X38607840Y-34596765D01*
X38513828Y-34732963D01*
X38513828Y-34732964D01*
X38455142Y-34887705D01*
X38455141Y-34887710D01*
X38435193Y-35052000D01*
X18494500Y-35052000D01*
X18494500Y-33414000D01*
X79702843Y-33414000D01*
X79920000Y-33631157D01*
X80137157Y-33414000D01*
X84702843Y-33414000D01*
X84920000Y-33631157D01*
X85137157Y-33414000D01*
X84920000Y-33196843D01*
X84702843Y-33414000D01*
X80137157Y-33414000D01*
X79920000Y-33196843D01*
X79702843Y-33414000D01*
X18494500Y-33414000D01*
X18494500Y-32913999D01*
X79214859Y-32913999D01*
X79214859Y-32914000D01*
X79235348Y-33082748D01*
X79235349Y-33082751D01*
X79295629Y-33241694D01*
X79301277Y-33249878D01*
X79637157Y-32914000D01*
X79637157Y-32913999D01*
X79617267Y-32894109D01*
X79820000Y-32894109D01*
X79820000Y-32933891D01*
X79835224Y-32970645D01*
X79863355Y-32998776D01*
X79900109Y-33014000D01*
X79939891Y-33014000D01*
X79976645Y-32998776D01*
X80004776Y-32970645D01*
X80020000Y-32933891D01*
X80020000Y-32913999D01*
X80202843Y-32913999D01*
X80202843Y-32914001D01*
X80538721Y-33249879D01*
X80544370Y-33241694D01*
X80604650Y-33082751D01*
X80604651Y-33082748D01*
X80625141Y-32914000D01*
X80625141Y-32913999D01*
X84214859Y-32913999D01*
X84214859Y-32914000D01*
X84235348Y-33082748D01*
X84235349Y-33082751D01*
X84295629Y-33241694D01*
X84301277Y-33249878D01*
X84637157Y-32914000D01*
X84637157Y-32913999D01*
X84617267Y-32894109D01*
X84820000Y-32894109D01*
X84820000Y-32933891D01*
X84835224Y-32970645D01*
X84863355Y-32998776D01*
X84900109Y-33014000D01*
X84939891Y-33014000D01*
X84976645Y-32998776D01*
X85004776Y-32970645D01*
X85020000Y-32933891D01*
X85020000Y-32913999D01*
X85202843Y-32913999D01*
X85202843Y-32914001D01*
X85538721Y-33249879D01*
X85544370Y-33241694D01*
X85604650Y-33082751D01*
X85604651Y-33082748D01*
X85625141Y-32914000D01*
X85625141Y-32913999D01*
X85604651Y-32745251D01*
X85604650Y-32745245D01*
X85544371Y-32586305D01*
X85538722Y-32578120D01*
X85538721Y-32578120D01*
X85202843Y-32913999D01*
X85020000Y-32913999D01*
X85020000Y-32894109D01*
X85004776Y-32857355D01*
X84976645Y-32829224D01*
X84939891Y-32814000D01*
X84900109Y-32814000D01*
X84863355Y-32829224D01*
X84835224Y-32857355D01*
X84820000Y-32894109D01*
X84617267Y-32894109D01*
X84301277Y-32578119D01*
X84295629Y-32586303D01*
X84295628Y-32586306D01*
X84235349Y-32745245D01*
X84235348Y-32745251D01*
X84214859Y-32913999D01*
X80625141Y-32913999D01*
X80604651Y-32745251D01*
X80604650Y-32745245D01*
X80544371Y-32586305D01*
X80538722Y-32578120D01*
X80202843Y-32913999D01*
X80020000Y-32913999D01*
X80020000Y-32894109D01*
X80004776Y-32857355D01*
X79976645Y-32829224D01*
X79939891Y-32814000D01*
X79900109Y-32814000D01*
X79863355Y-32829224D01*
X79835224Y-32857355D01*
X79820000Y-32894109D01*
X79617267Y-32894109D01*
X79301277Y-32578119D01*
X79295629Y-32586303D01*
X79295628Y-32586306D01*
X79235349Y-32745245D01*
X79235348Y-32745251D01*
X79214859Y-32913999D01*
X18494500Y-32913999D01*
X18494500Y-27028798D01*
X19030594Y-27028798D01*
X19030594Y-27028801D01*
X19049794Y-27297250D01*
X19049795Y-27297257D01*
X19105235Y-27552107D01*
X19107003Y-27560234D01*
X19132658Y-27629017D01*
X19201056Y-27812401D01*
X19201058Y-27812405D01*
X19330034Y-28048608D01*
X19330039Y-28048616D01*
X19491318Y-28264060D01*
X19491334Y-28264078D01*
X19681621Y-28454365D01*
X19681639Y-28454381D01*
X19897083Y-28615660D01*
X19897091Y-28615665D01*
X20002867Y-28673423D01*
X20052272Y-28722828D01*
X20067124Y-28791101D01*
X20042707Y-28856565D01*
X19986774Y-28898437D01*
X19981759Y-28900186D01*
X19981552Y-28900253D01*
X19820265Y-28982434D01*
X19673830Y-29088823D01*
X19545823Y-29216830D01*
X19439434Y-29363265D01*
X19357252Y-29524552D01*
X19357250Y-29524558D01*
X19301318Y-29696704D01*
X19301315Y-29696714D01*
X19298261Y-29716000D01*
X20256012Y-29716000D01*
X20238795Y-29725940D01*
X20182940Y-29781795D01*
X20143444Y-29850204D01*
X20123000Y-29926504D01*
X20123000Y-30005496D01*
X20143444Y-30081796D01*
X20182940Y-30150205D01*
X20238795Y-30206060D01*
X20256012Y-30216000D01*
X19298261Y-30216000D01*
X19301315Y-30235285D01*
X19301318Y-30235295D01*
X19357250Y-30407441D01*
X19357252Y-30407447D01*
X19439434Y-30568734D01*
X19545823Y-30715169D01*
X19673830Y-30843176D01*
X19820265Y-30949565D01*
X19981552Y-31031747D01*
X19981555Y-31031748D01*
X20153706Y-31087682D01*
X20332494Y-31116000D01*
X20823000Y-31116000D01*
X20823000Y-30266000D01*
X21323000Y-30266000D01*
X21323000Y-31116000D01*
X21813506Y-31116000D01*
X21992293Y-31087682D01*
X22164444Y-31031748D01*
X22164447Y-31031747D01*
X22325734Y-30949565D01*
X22472169Y-30843176D01*
X22600176Y-30715169D01*
X22706565Y-30568734D01*
X22788747Y-30407447D01*
X22788749Y-30407441D01*
X22844681Y-30235295D01*
X22844684Y-30235285D01*
X22847739Y-30216000D01*
X21889988Y-30216000D01*
X21907205Y-30206060D01*
X21963060Y-30150205D01*
X22002556Y-30081796D01*
X22023000Y-30005496D01*
X22023000Y-29926504D01*
X22002556Y-29850204D01*
X21963060Y-29781795D01*
X21907205Y-29725940D01*
X21889988Y-29716000D01*
X22847739Y-29716000D01*
X23273261Y-29716000D01*
X24231012Y-29716000D01*
X24213795Y-29725940D01*
X24157940Y-29781795D01*
X24118444Y-29850204D01*
X24098000Y-29926504D01*
X24098000Y-30005496D01*
X24118444Y-30081796D01*
X24157940Y-30150205D01*
X24213795Y-30206060D01*
X24231012Y-30216000D01*
X23273261Y-30216000D01*
X23276315Y-30235285D01*
X23276318Y-30235295D01*
X23332250Y-30407441D01*
X23332252Y-30407447D01*
X23414434Y-30568734D01*
X23520823Y-30715169D01*
X23648826Y-30843172D01*
X23648831Y-30843176D01*
X23660070Y-30851342D01*
X23702736Y-30906672D01*
X23708715Y-30976285D01*
X23694573Y-31013659D01*
X23660017Y-31073512D01*
X23660017Y-31073513D01*
X23660016Y-31073515D01*
X23622500Y-31213525D01*
X23622500Y-31358475D01*
X23660016Y-31498485D01*
X23660017Y-31498488D01*
X23714704Y-31593208D01*
X23731177Y-31661108D01*
X23709367Y-31725648D01*
X23649214Y-31812795D01*
X23649213Y-31812796D01*
X23590527Y-31967537D01*
X23590526Y-31967542D01*
X23570578Y-32131832D01*
X23590526Y-32296121D01*
X23590527Y-32296126D01*
X23649213Y-32450867D01*
X23649213Y-32450868D01*
X23734483Y-32574401D01*
X23743227Y-32587069D01*
X23743229Y-32587071D01*
X23743231Y-32587073D01*
X23867102Y-32696814D01*
X23867104Y-32696815D01*
X24013645Y-32773725D01*
X24174334Y-32813332D01*
X24174335Y-32813332D01*
X24339831Y-32813332D01*
X24339832Y-32813332D01*
X24500521Y-32773725D01*
X24647062Y-32696815D01*
X24770939Y-32587069D01*
X24864953Y-32450867D01*
X24916533Y-32314859D01*
X24922853Y-32298196D01*
X79587039Y-32298196D01*
X79920000Y-32631157D01*
X79920001Y-32631157D01*
X80252959Y-32298197D01*
X80252959Y-32298196D01*
X84587039Y-32298196D01*
X84920000Y-32631157D01*
X84920001Y-32631157D01*
X85252959Y-32298197D01*
X85252959Y-32298196D01*
X85170046Y-32254682D01*
X85004994Y-32214000D01*
X84835006Y-32214000D01*
X84669951Y-32254682D01*
X84587039Y-32298196D01*
X80252959Y-32298196D01*
X80170046Y-32254682D01*
X80004994Y-32214000D01*
X79835006Y-32214000D01*
X79669951Y-32254682D01*
X79587039Y-32298196D01*
X24922853Y-32298196D01*
X24923638Y-32296126D01*
X24923639Y-32296121D01*
X24928671Y-32254682D01*
X24943588Y-32131832D01*
X24923639Y-31967541D01*
X24923638Y-31967539D01*
X24923638Y-31967537D01*
X24896971Y-31897223D01*
X24864953Y-31812797D01*
X24770939Y-31676595D01*
X24770936Y-31676592D01*
X24770934Y-31676590D01*
X24720977Y-31632332D01*
X24683850Y-31573143D01*
X24684326Y-31529801D01*
X79587039Y-31529801D01*
X79669955Y-31573318D01*
X79835006Y-31614000D01*
X80004994Y-31614000D01*
X80170044Y-31573318D01*
X80252959Y-31529801D01*
X81587039Y-31529801D01*
X81669955Y-31573318D01*
X81835006Y-31614000D01*
X82004994Y-31614000D01*
X82170044Y-31573318D01*
X82252959Y-31529801D01*
X82587039Y-31529801D01*
X82669955Y-31573318D01*
X82835006Y-31614000D01*
X83004994Y-31614000D01*
X83170044Y-31573318D01*
X83252959Y-31529801D01*
X84587039Y-31529801D01*
X84669955Y-31573318D01*
X84835006Y-31614000D01*
X85004994Y-31614000D01*
X85170044Y-31573318D01*
X85252959Y-31529801D01*
X84920001Y-31196843D01*
X84920000Y-31196843D01*
X84587039Y-31529801D01*
X83252959Y-31529801D01*
X82920001Y-31196843D01*
X82920000Y-31196843D01*
X82587039Y-31529801D01*
X82252959Y-31529801D01*
X81920001Y-31196843D01*
X81920000Y-31196843D01*
X81587039Y-31529801D01*
X80252959Y-31529801D01*
X79920001Y-31196843D01*
X79920000Y-31196843D01*
X79587039Y-31529801D01*
X24684326Y-31529801D01*
X24684582Y-31506523D01*
X24683880Y-31506335D01*
X24684614Y-31503593D01*
X24684618Y-31503277D01*
X24684938Y-31502383D01*
X24685982Y-31498488D01*
X24685984Y-31498485D01*
X24723500Y-31358475D01*
X24723500Y-31213525D01*
X24685984Y-31073515D01*
X24664613Y-31036499D01*
X24648000Y-30974499D01*
X24648000Y-30266000D01*
X25148000Y-30266000D01*
X25148000Y-31116000D01*
X25488506Y-31116000D01*
X25667293Y-31087682D01*
X25839444Y-31031748D01*
X25839447Y-31031747D01*
X26000734Y-30949565D01*
X26049687Y-30913999D01*
X79214859Y-30913999D01*
X79214859Y-30914000D01*
X79235348Y-31082748D01*
X79235349Y-31082751D01*
X79295629Y-31241694D01*
X79301277Y-31249878D01*
X79637157Y-30914000D01*
X79637157Y-30913999D01*
X79617267Y-30894109D01*
X79820000Y-30894109D01*
X79820000Y-30933891D01*
X79835224Y-30970645D01*
X79863355Y-30998776D01*
X79900109Y-31014000D01*
X79939891Y-31014000D01*
X79976645Y-30998776D01*
X80004776Y-30970645D01*
X80020000Y-30933891D01*
X80020000Y-30913999D01*
X80202843Y-30913999D01*
X80202843Y-30914001D01*
X80538721Y-31249879D01*
X80544370Y-31241694D01*
X80604650Y-31082751D01*
X80604651Y-31082748D01*
X80625141Y-30914000D01*
X80625141Y-30913999D01*
X81214859Y-30913999D01*
X81214859Y-30914000D01*
X81235348Y-31082748D01*
X81235349Y-31082751D01*
X81295629Y-31241694D01*
X81301277Y-31249878D01*
X81637157Y-30914000D01*
X81637157Y-30913999D01*
X81617267Y-30894109D01*
X81820000Y-30894109D01*
X81820000Y-30933891D01*
X81835224Y-30970645D01*
X81863355Y-30998776D01*
X81900109Y-31014000D01*
X81939891Y-31014000D01*
X81976645Y-30998776D01*
X82004776Y-30970645D01*
X82020000Y-30933891D01*
X82020000Y-30914000D01*
X82202843Y-30914000D01*
X82420000Y-31131157D01*
X82637157Y-30914000D01*
X82617266Y-30894109D01*
X82820000Y-30894109D01*
X82820000Y-30933891D01*
X82835224Y-30970645D01*
X82863355Y-30998776D01*
X82900109Y-31014000D01*
X82939891Y-31014000D01*
X82976645Y-30998776D01*
X83004776Y-30970645D01*
X83020000Y-30933891D01*
X83020000Y-30913999D01*
X83202843Y-30913999D01*
X83202843Y-30914001D01*
X83538721Y-31249879D01*
X83544370Y-31241694D01*
X83604650Y-31082751D01*
X83604651Y-31082748D01*
X83625141Y-30914000D01*
X83625141Y-30913999D01*
X84214859Y-30913999D01*
X84214859Y-30914000D01*
X84235348Y-31082748D01*
X84235349Y-31082751D01*
X84295629Y-31241694D01*
X84301277Y-31249878D01*
X84637157Y-30914000D01*
X84637157Y-30913999D01*
X84617267Y-30894109D01*
X84820000Y-30894109D01*
X84820000Y-30933891D01*
X84835224Y-30970645D01*
X84863355Y-30998776D01*
X84900109Y-31014000D01*
X84939891Y-31014000D01*
X84976645Y-30998776D01*
X85004776Y-30970645D01*
X85020000Y-30933891D01*
X85020000Y-30913999D01*
X85202843Y-30913999D01*
X85202843Y-30914001D01*
X85538721Y-31249879D01*
X85544370Y-31241694D01*
X85604650Y-31082751D01*
X85604651Y-31082748D01*
X85625141Y-30914000D01*
X85625141Y-30913999D01*
X85604651Y-30745251D01*
X85604650Y-30745245D01*
X85544371Y-30586305D01*
X85538722Y-30578120D01*
X85202843Y-30913999D01*
X85020000Y-30913999D01*
X85020000Y-30894109D01*
X85004776Y-30857355D01*
X84976645Y-30829224D01*
X84939891Y-30814000D01*
X84900109Y-30814000D01*
X84863355Y-30829224D01*
X84835224Y-30857355D01*
X84820000Y-30894109D01*
X84617267Y-30894109D01*
X84301277Y-30578119D01*
X84295629Y-30586303D01*
X84295628Y-30586306D01*
X84235349Y-30745245D01*
X84235348Y-30745251D01*
X84214859Y-30913999D01*
X83625141Y-30913999D01*
X83604651Y-30745251D01*
X83604650Y-30745245D01*
X83544371Y-30586305D01*
X83538722Y-30578120D01*
X83538721Y-30578120D01*
X83202843Y-30913999D01*
X83020000Y-30913999D01*
X83020000Y-30894109D01*
X83004776Y-30857355D01*
X82976645Y-30829224D01*
X82939891Y-30814000D01*
X82900109Y-30814000D01*
X82863355Y-30829224D01*
X82835224Y-30857355D01*
X82820000Y-30894109D01*
X82617266Y-30894109D01*
X82420000Y-30696843D01*
X82202843Y-30914000D01*
X82020000Y-30914000D01*
X82020000Y-30894109D01*
X82004776Y-30857355D01*
X81976645Y-30829224D01*
X81939891Y-30814000D01*
X81900109Y-30814000D01*
X81863355Y-30829224D01*
X81835224Y-30857355D01*
X81820000Y-30894109D01*
X81617267Y-30894109D01*
X81301277Y-30578119D01*
X81295629Y-30586303D01*
X81295628Y-30586306D01*
X81235349Y-30745245D01*
X81235348Y-30745251D01*
X81214859Y-30913999D01*
X80625141Y-30913999D01*
X80604651Y-30745251D01*
X80604650Y-30745245D01*
X80544371Y-30586305D01*
X80538722Y-30578120D01*
X80538721Y-30578120D01*
X80202843Y-30913999D01*
X80020000Y-30913999D01*
X80020000Y-30894109D01*
X80004776Y-30857355D01*
X79976645Y-30829224D01*
X79939891Y-30814000D01*
X79900109Y-30814000D01*
X79863355Y-30829224D01*
X79835224Y-30857355D01*
X79820000Y-30894109D01*
X79617267Y-30894109D01*
X79301277Y-30578119D01*
X79295629Y-30586303D01*
X79295628Y-30586306D01*
X79235349Y-30745245D01*
X79235348Y-30745251D01*
X79214859Y-30913999D01*
X26049687Y-30913999D01*
X26147169Y-30843176D01*
X26275176Y-30715169D01*
X26381565Y-30568734D01*
X26463747Y-30407447D01*
X26463749Y-30407441D01*
X26499244Y-30298196D01*
X79587039Y-30298196D01*
X79920000Y-30631157D01*
X79920001Y-30631157D01*
X80252959Y-30298197D01*
X80252959Y-30298196D01*
X81587039Y-30298196D01*
X81920000Y-30631157D01*
X81920001Y-30631157D01*
X82252959Y-30298197D01*
X82252959Y-30298196D01*
X82587039Y-30298196D01*
X82920000Y-30631157D01*
X82920001Y-30631157D01*
X83252959Y-30298197D01*
X83252959Y-30298196D01*
X84587039Y-30298196D01*
X84920000Y-30631157D01*
X84920001Y-30631157D01*
X85252959Y-30298197D01*
X85252959Y-30298196D01*
X85170046Y-30254682D01*
X85004994Y-30214000D01*
X84835006Y-30214000D01*
X84669951Y-30254682D01*
X84587039Y-30298196D01*
X83252959Y-30298196D01*
X83170046Y-30254682D01*
X83004994Y-30214000D01*
X82835006Y-30214000D01*
X82669951Y-30254682D01*
X82587039Y-30298196D01*
X82252959Y-30298196D01*
X82170046Y-30254682D01*
X82004994Y-30214000D01*
X81835006Y-30214000D01*
X81669951Y-30254682D01*
X81587039Y-30298196D01*
X80252959Y-30298196D01*
X80170046Y-30254682D01*
X80004994Y-30214000D01*
X79835006Y-30214000D01*
X79669951Y-30254682D01*
X79587039Y-30298196D01*
X26499244Y-30298196D01*
X26519681Y-30235295D01*
X26519684Y-30235285D01*
X26522739Y-30216000D01*
X25564988Y-30216000D01*
X25582205Y-30206060D01*
X25638060Y-30150205D01*
X25677556Y-30081796D01*
X25698000Y-30005496D01*
X25698000Y-29926504D01*
X25677556Y-29850204D01*
X25638060Y-29781795D01*
X25582205Y-29725940D01*
X25564988Y-29716000D01*
X26522739Y-29716000D01*
X26519684Y-29696714D01*
X26519681Y-29696704D01*
X26463749Y-29524558D01*
X26463747Y-29524552D01*
X26432893Y-29464000D01*
X90753495Y-29464000D01*
X90773443Y-29628289D01*
X90773444Y-29628294D01*
X90832130Y-29783035D01*
X90832130Y-29783036D01*
X90917400Y-29906569D01*
X90926144Y-29919237D01*
X90926146Y-29919239D01*
X90926148Y-29919241D01*
X91024287Y-30006185D01*
X91061414Y-30065374D01*
X91060646Y-30135240D01*
X91024287Y-30191815D01*
X90926148Y-30278758D01*
X90926142Y-30278765D01*
X90832130Y-30414963D01*
X90832130Y-30414964D01*
X90773444Y-30569705D01*
X90773443Y-30569710D01*
X90753495Y-30734000D01*
X90773443Y-30898289D01*
X90773444Y-30898294D01*
X90832130Y-31053035D01*
X90832130Y-31053036D01*
X90856045Y-31087682D01*
X90926144Y-31189237D01*
X90926146Y-31189239D01*
X90926148Y-31189241D01*
X91050019Y-31298982D01*
X91050021Y-31298983D01*
X91196562Y-31375893D01*
X91357251Y-31415500D01*
X91357252Y-31415500D01*
X91522748Y-31415500D01*
X91522749Y-31415500D01*
X91683438Y-31375893D01*
X91829979Y-31298983D01*
X91953856Y-31189237D01*
X92047870Y-31053035D01*
X92106556Y-30898291D01*
X92126505Y-30734000D01*
X92106556Y-30569709D01*
X92106555Y-30569707D01*
X92106555Y-30569705D01*
X92079888Y-30499391D01*
X92047870Y-30414965D01*
X91953856Y-30278763D01*
X91855709Y-30191812D01*
X91818585Y-30132626D01*
X91819353Y-30062761D01*
X91855709Y-30006187D01*
X91953856Y-29919237D01*
X92047870Y-29783035D01*
X92106556Y-29628291D01*
X92126505Y-29464000D01*
X92106556Y-29299709D01*
X92106555Y-29299707D01*
X92106555Y-29299705D01*
X92075124Y-29216830D01*
X92047870Y-29144965D01*
X91953856Y-29008763D01*
X91953853Y-29008760D01*
X91953851Y-29008758D01*
X91829980Y-28899017D01*
X91683436Y-28822106D01*
X91557644Y-28791101D01*
X91522749Y-28782500D01*
X91357251Y-28782500D01*
X91322356Y-28791101D01*
X91196563Y-28822106D01*
X91050019Y-28899017D01*
X90926148Y-29008758D01*
X90926142Y-29008765D01*
X90832130Y-29144963D01*
X90832130Y-29144964D01*
X90773444Y-29299705D01*
X90773443Y-29299710D01*
X90753495Y-29464000D01*
X26432893Y-29464000D01*
X26381565Y-29363265D01*
X26275176Y-29216830D01*
X26147169Y-29088823D01*
X26000734Y-28982434D01*
X25839447Y-28900252D01*
X25839444Y-28900251D01*
X25667293Y-28844317D01*
X25488506Y-28816000D01*
X25148000Y-28816000D01*
X25148000Y-29666000D01*
X24648000Y-29666000D01*
X24648000Y-28816000D01*
X24307494Y-28816000D01*
X24128706Y-28844317D01*
X23956555Y-28900251D01*
X23956552Y-28900252D01*
X23795265Y-28982434D01*
X23648830Y-29088823D01*
X23520823Y-29216830D01*
X23414434Y-29363265D01*
X23332252Y-29524552D01*
X23332250Y-29524558D01*
X23276318Y-29696704D01*
X23276315Y-29696714D01*
X23273261Y-29716000D01*
X22847739Y-29716000D01*
X22844684Y-29696714D01*
X22844681Y-29696704D01*
X22788749Y-29524558D01*
X22788747Y-29524552D01*
X22706565Y-29363265D01*
X22600176Y-29216830D01*
X22472169Y-29088823D01*
X22325734Y-28982434D01*
X22164447Y-28900252D01*
X22164444Y-28900251D01*
X21992294Y-28844317D01*
X21983592Y-28842939D01*
X21920458Y-28813009D01*
X21883528Y-28753696D01*
X21884526Y-28683834D01*
X21923137Y-28625602D01*
X21935963Y-28616144D01*
X21936698Y-28615670D01*
X21936714Y-28615662D01*
X22152168Y-28454375D01*
X22342475Y-28264068D01*
X22503762Y-28048614D01*
X22563069Y-27940000D01*
X63575495Y-27940000D01*
X63595443Y-28104289D01*
X63595444Y-28104294D01*
X63654130Y-28259035D01*
X63654130Y-28259036D01*
X63722640Y-28358289D01*
X63748144Y-28395237D01*
X63748146Y-28395239D01*
X63748148Y-28395241D01*
X63872019Y-28504982D01*
X63872021Y-28504983D01*
X64017528Y-28581350D01*
X64067740Y-28629933D01*
X64082904Y-28694500D01*
X64083495Y-28694500D01*
X64083495Y-28697015D01*
X64083715Y-28697952D01*
X64083495Y-28700450D01*
X64083495Y-28701999D01*
X64103443Y-28866289D01*
X64103444Y-28866294D01*
X64162130Y-29021035D01*
X64162130Y-29021036D01*
X64208921Y-29088823D01*
X64256144Y-29157237D01*
X64256146Y-29157239D01*
X64256148Y-29157241D01*
X64380019Y-29266982D01*
X64380021Y-29266983D01*
X64526562Y-29343893D01*
X64687251Y-29383500D01*
X64687252Y-29383500D01*
X64852748Y-29383500D01*
X64852749Y-29383500D01*
X65013438Y-29343893D01*
X65159979Y-29266983D01*
X65283856Y-29157237D01*
X65377870Y-29021035D01*
X65436556Y-28866291D01*
X65456505Y-28702000D01*
X65436556Y-28537709D01*
X65436555Y-28537707D01*
X65436555Y-28537705D01*
X65404948Y-28454365D01*
X65377870Y-28382965D01*
X65360837Y-28358289D01*
X65330863Y-28314864D01*
X65283856Y-28246763D01*
X65283853Y-28246760D01*
X65283851Y-28246758D01*
X65159980Y-28137017D01*
X65026577Y-28067003D01*
X65026564Y-28066996D01*
X70002871Y-28066996D01*
X70002871Y-28067003D01*
X70021325Y-28230795D01*
X70021327Y-28230805D01*
X70074571Y-28382965D01*
X70075771Y-28386394D01*
X70163471Y-28525969D01*
X70280031Y-28642529D01*
X70419606Y-28730229D01*
X70575196Y-28784673D01*
X70575202Y-28784673D01*
X70575204Y-28784674D01*
X70738996Y-28803129D01*
X70739000Y-28803129D01*
X70739004Y-28803129D01*
X70902795Y-28784674D01*
X70902794Y-28784674D01*
X70902804Y-28784673D01*
X71058394Y-28730229D01*
X71197969Y-28642529D01*
X71314529Y-28525969D01*
X71320436Y-28516566D01*
X71372765Y-28470276D01*
X71441818Y-28459624D01*
X71505668Y-28487995D01*
X71527481Y-28512095D01*
X71545161Y-28537709D01*
X71608819Y-28629933D01*
X71622145Y-28649238D01*
X71622148Y-28649241D01*
X71746019Y-28758982D01*
X71746021Y-28758983D01*
X71892562Y-28835893D01*
X72053251Y-28875500D01*
X72053252Y-28875500D01*
X72218748Y-28875500D01*
X72218749Y-28875500D01*
X72379438Y-28835893D01*
X72525979Y-28758983D01*
X72649856Y-28649237D01*
X72743870Y-28513035D01*
X72802556Y-28358291D01*
X72822505Y-28194000D01*
X72802556Y-28029709D01*
X72802555Y-28029707D01*
X72802555Y-28029705D01*
X72771379Y-27947501D01*
X72743870Y-27874965D01*
X72649856Y-27738763D01*
X72649853Y-27738760D01*
X72649851Y-27738758D01*
X72525980Y-27629017D01*
X72379436Y-27552106D01*
X72271310Y-27525455D01*
X72218749Y-27512500D01*
X72053251Y-27512500D01*
X72013645Y-27522262D01*
X71892563Y-27552106D01*
X71746019Y-27629017D01*
X71622148Y-27738758D01*
X71622139Y-27738768D01*
X71611024Y-27754871D01*
X71556740Y-27798859D01*
X71487291Y-27806516D01*
X71424727Y-27775410D01*
X71403983Y-27750398D01*
X71396672Y-27738763D01*
X71377407Y-27708103D01*
X71314531Y-27608033D01*
X71197969Y-27491471D01*
X71058392Y-27403770D01*
X70902805Y-27349327D01*
X70902795Y-27349325D01*
X70739004Y-27330871D01*
X70738996Y-27330871D01*
X70575204Y-27349325D01*
X70575194Y-27349327D01*
X70419607Y-27403770D01*
X70280030Y-27491471D01*
X70163471Y-27608030D01*
X70075770Y-27747607D01*
X70021327Y-27903194D01*
X70021325Y-27903204D01*
X70002871Y-28066996D01*
X65026564Y-28066996D01*
X65014471Y-28060649D01*
X64964259Y-28012065D01*
X64949095Y-27947501D01*
X64948505Y-27947501D01*
X64948505Y-27944987D01*
X64948284Y-27944047D01*
X64948505Y-27941540D01*
X64948505Y-27940000D01*
X64928556Y-27775710D01*
X64928555Y-27775705D01*
X64901888Y-27705391D01*
X64869870Y-27620965D01*
X64860942Y-27608031D01*
X64822340Y-27552106D01*
X64775856Y-27484763D01*
X64775853Y-27484760D01*
X64775851Y-27484758D01*
X64651980Y-27375017D01*
X64505436Y-27298106D01*
X64397310Y-27271455D01*
X64344749Y-27258500D01*
X64179251Y-27258500D01*
X64139645Y-27268262D01*
X64018563Y-27298106D01*
X63872019Y-27375017D01*
X63748148Y-27484758D01*
X63748142Y-27484765D01*
X63654130Y-27620963D01*
X63654130Y-27620964D01*
X63595444Y-27775705D01*
X63595443Y-27775710D01*
X63575495Y-27940000D01*
X22563069Y-27940000D01*
X22632744Y-27812400D01*
X22726797Y-27560234D01*
X22784006Y-27297249D01*
X22803206Y-27028800D01*
X22784006Y-26760351D01*
X22764351Y-26670000D01*
X53923495Y-26670000D01*
X53943443Y-26834289D01*
X53943444Y-26834294D01*
X54002130Y-26989035D01*
X54002130Y-26989036D01*
X54087400Y-27112569D01*
X54096144Y-27125237D01*
X54096146Y-27125239D01*
X54096148Y-27125241D01*
X54220019Y-27234982D01*
X54220021Y-27234983D01*
X54366562Y-27311893D01*
X54527251Y-27351500D01*
X54527252Y-27351500D01*
X54692748Y-27351500D01*
X54692749Y-27351500D01*
X54853438Y-27311893D01*
X54999979Y-27234983D01*
X55123856Y-27125237D01*
X55190423Y-27028798D01*
X94029174Y-27028798D01*
X94029174Y-27028801D01*
X94048374Y-27297250D01*
X94048375Y-27297257D01*
X94103815Y-27552107D01*
X94105583Y-27560234D01*
X94131238Y-27629017D01*
X94199636Y-27812401D01*
X94199638Y-27812405D01*
X94328614Y-28048608D01*
X94328619Y-28048616D01*
X94489898Y-28264060D01*
X94489914Y-28264078D01*
X94680201Y-28454365D01*
X94680219Y-28454381D01*
X94895663Y-28615660D01*
X94895671Y-28615665D01*
X95131874Y-28744641D01*
X95131878Y-28744643D01*
X95131880Y-28744644D01*
X95384046Y-28838697D01*
X95647031Y-28895906D01*
X95894799Y-28913626D01*
X95915479Y-28915106D01*
X95915480Y-28915106D01*
X95915481Y-28915106D01*
X95934681Y-28913732D01*
X96183929Y-28895906D01*
X96446914Y-28838697D01*
X96699080Y-28744644D01*
X96935294Y-28615662D01*
X97150748Y-28454375D01*
X97341055Y-28264068D01*
X97502342Y-28048614D01*
X97631324Y-27812400D01*
X97725377Y-27560234D01*
X97782586Y-27297249D01*
X97801786Y-27028800D01*
X97782586Y-26760351D01*
X97725377Y-26497366D01*
X97631324Y-26245200D01*
X97614705Y-26214765D01*
X97502345Y-26008991D01*
X97502340Y-26008983D01*
X97341061Y-25793539D01*
X97341045Y-25793521D01*
X97150758Y-25603234D01*
X97150740Y-25603218D01*
X96935296Y-25441939D01*
X96935288Y-25441934D01*
X96699085Y-25312958D01*
X96699081Y-25312956D01*
X96603480Y-25277299D01*
X96446914Y-25218903D01*
X96446910Y-25218902D01*
X96446907Y-25218901D01*
X96183937Y-25161695D01*
X96183930Y-25161694D01*
X95915481Y-25142494D01*
X95915479Y-25142494D01*
X95647029Y-25161694D01*
X95647022Y-25161695D01*
X95384052Y-25218901D01*
X95384047Y-25218902D01*
X95384046Y-25218903D01*
X95323079Y-25241642D01*
X95131878Y-25312956D01*
X95131874Y-25312958D01*
X94895671Y-25441934D01*
X94895663Y-25441939D01*
X94680219Y-25603218D01*
X94680201Y-25603234D01*
X94489914Y-25793521D01*
X94489898Y-25793539D01*
X94328619Y-26008983D01*
X94328614Y-26008991D01*
X94199638Y-26245194D01*
X94199636Y-26245198D01*
X94105581Y-26497372D01*
X94048375Y-26760342D01*
X94048374Y-26760349D01*
X94029174Y-27028798D01*
X55190423Y-27028798D01*
X55217870Y-26989035D01*
X55276556Y-26834291D01*
X55296505Y-26670000D01*
X55276556Y-26505709D01*
X55276555Y-26505707D01*
X55276555Y-26505705D01*
X55249888Y-26435391D01*
X55217870Y-26350965D01*
X55123856Y-26214763D01*
X55123853Y-26214760D01*
X55123851Y-26214758D01*
X54999980Y-26105017D01*
X54853436Y-26028106D01*
X54745310Y-26001455D01*
X54692749Y-25988500D01*
X54527251Y-25988500D01*
X54487645Y-25998262D01*
X54366563Y-26028106D01*
X54220019Y-26105017D01*
X54096148Y-26214758D01*
X54096142Y-26214765D01*
X54002130Y-26350963D01*
X54002130Y-26350964D01*
X53943444Y-26505705D01*
X53943443Y-26505710D01*
X53923495Y-26670000D01*
X22764351Y-26670000D01*
X22726797Y-26497366D01*
X22632744Y-26245200D01*
X22616125Y-26214765D01*
X22503765Y-26008991D01*
X22503760Y-26008983D01*
X22342481Y-25793539D01*
X22342465Y-25793521D01*
X22152178Y-25603234D01*
X22152160Y-25603218D01*
X21936716Y-25441939D01*
X21936708Y-25441934D01*
X21700505Y-25312958D01*
X21700501Y-25312956D01*
X21604900Y-25277299D01*
X21448334Y-25218903D01*
X21448330Y-25218902D01*
X21448327Y-25218901D01*
X21185357Y-25161695D01*
X21185350Y-25161694D01*
X20916901Y-25142494D01*
X20916899Y-25142494D01*
X20648449Y-25161694D01*
X20648442Y-25161695D01*
X20385472Y-25218901D01*
X20385467Y-25218902D01*
X20385466Y-25218903D01*
X20324499Y-25241642D01*
X20133298Y-25312956D01*
X20133294Y-25312958D01*
X19897091Y-25441934D01*
X19897083Y-25441939D01*
X19681639Y-25603218D01*
X19681621Y-25603234D01*
X19491334Y-25793521D01*
X19491318Y-25793539D01*
X19330039Y-26008983D01*
X19330034Y-26008991D01*
X19201058Y-26245194D01*
X19201056Y-26245198D01*
X19107001Y-26497372D01*
X19049795Y-26760342D01*
X19049794Y-26760349D01*
X19030594Y-27028798D01*
X18494500Y-27028798D01*
X18494500Y-24754500D01*
X18514185Y-24687461D01*
X18566989Y-24641706D01*
X18618500Y-24630500D01*
X98141500Y-24630500D01*
X98208539Y-24650185D01*
G37*
%TD.AperFunction*%
%TD*%
M02*
