%TF.GenerationSoftware,KiCad,Pcbnew,8.0.4*%
%TF.CreationDate,2024-10-27T11:38:08-06:00*%
%TF.ProjectId,SnakeTank,536e616b-6554-4616-9e6b-2e6b69636164,rev?*%
%TF.SameCoordinates,Original*%
%TF.FileFunction,Copper,L4,Bot*%
%TF.FilePolarity,Positive*%
%FSLAX46Y46*%
G04 Gerber Fmt 4.6, Leading zero omitted, Abs format (unit mm)*
G04 Created by KiCad (PCBNEW 8.0.4) date 2024-10-27 11:38:08*
%MOMM*%
%LPD*%
G01*
G04 APERTURE LIST*
%TA.AperFunction,ComponentPad*%
%ADD10C,0.400000*%
%TD*%
%TA.AperFunction,WasherPad*%
%ADD11C,4.000000*%
%TD*%
%TA.AperFunction,ComponentPad*%
%ADD12C,1.800000*%
%TD*%
%TA.AperFunction,ComponentPad*%
%ADD13R,1.700000X1.700000*%
%TD*%
%TA.AperFunction,ComponentPad*%
%ADD14O,1.700000X1.700000*%
%TD*%
%TA.AperFunction,ComponentPad*%
%ADD15R,1.458000X1.458000*%
%TD*%
%TA.AperFunction,ComponentPad*%
%ADD16C,1.458000*%
%TD*%
%TA.AperFunction,ComponentPad*%
%ADD17O,2.300000X1.300000*%
%TD*%
%TA.AperFunction,ComponentPad*%
%ADD18O,2.600000X1.300000*%
%TD*%
%TA.AperFunction,ComponentPad*%
%ADD19O,1.800000X2.600000*%
%TD*%
%TA.AperFunction,ComponentPad*%
%ADD20R,1.800000X2.600000*%
%TD*%
%TA.AperFunction,ComponentPad*%
%ADD21C,3.000000*%
%TD*%
%TA.AperFunction,ViaPad*%
%ADD22C,0.700000*%
%TD*%
%TA.AperFunction,ViaPad*%
%ADD23C,0.600000*%
%TD*%
%TA.AperFunction,Conductor*%
%ADD24C,0.304800*%
%TD*%
G04 APERTURE END LIST*
D10*
%TO.P,U2,41_21*%
%TO.N,GND*%
X84920000Y-35914000D03*
%TO.P,U2,41_20*%
X79920000Y-35914000D03*
%TO.P,U2,41_19*%
X84920000Y-32914000D03*
%TO.P,U2,41_18*%
X82920000Y-35914000D03*
%TO.P,U2,41_17*%
X82920000Y-30914000D03*
%TO.P,U2,41_16*%
X79920000Y-30914000D03*
%TO.P,U2,41_15*%
X84920000Y-33914000D03*
%TO.P,U2,41_14*%
X81920000Y-35914000D03*
%TO.P,U2,41_13*%
X79920000Y-32914000D03*
%TO.P,U2,41_12*%
X84920000Y-30914000D03*
%TO.P,U2,41_11*%
X79920000Y-33914000D03*
%TO.P,U2,41_10*%
X81920000Y-30914000D03*
%TD*%
D11*
%TO.P,RV1,*%
%TO.N,*%
X41574000Y-46802000D03*
X50374000Y-46802000D03*
D12*
%TO.P,RV1,1,1*%
%TO.N,GND*%
X48474000Y-53802000D03*
%TO.P,RV1,2,2*%
%TO.N,Net-(DS1-VO)*%
X45974000Y-53802000D03*
%TO.P,RV1,3,3*%
%TO.N,+5V*%
X43474000Y-53802000D03*
%TD*%
D13*
%TO.P,J1,1,Pin_1*%
%TO.N,IO3*%
X68580000Y-52807000D03*
D14*
%TO.P,J1,2,Pin_2*%
%TO.N,IO46*%
X71120000Y-52807000D03*
%TO.P,J1,3,Pin_3*%
%TO.N,IO9*%
X73660000Y-52807000D03*
%TO.P,J1,4,Pin_4*%
%TO.N,IO10*%
X76200000Y-52807000D03*
%TO.P,J1,5,Pin_5*%
%TO.N,IO11*%
X78740000Y-52807000D03*
%TO.P,J1,6,Pin_6*%
%TO.N,IO12*%
X81280000Y-52807000D03*
%TO.P,J1,7,Pin_7*%
%TO.N,IO13*%
X83820000Y-52807000D03*
%TO.P,J1,8,Pin_8*%
%TO.N,IO14*%
X86360000Y-52807000D03*
%TO.P,J1,9,Pin_9*%
%TO.N,IO21*%
X88900000Y-52807000D03*
%TO.P,J1,10,Pin_10*%
%TO.N,IO47*%
X91440000Y-52807000D03*
%TO.P,J1,11,Pin_11*%
%TO.N,IO48*%
X93980000Y-52807000D03*
%TO.P,J1,12,Pin_12*%
%TO.N,IO45*%
X96520000Y-52807000D03*
%TD*%
D15*
%TO.P,J3,1*%
%TO.N,+5V*%
X29340000Y-44196000D03*
D16*
%TO.P,J3,2*%
%TO.N,GND*%
X31880000Y-45466000D03*
%TO.P,J3,3*%
%TO.N,DHT11_1_data*%
X29340000Y-46736000D03*
%TO.P,J3,4*%
%TO.N,DHT11_2_data*%
X31880000Y-48006000D03*
%TO.P,J3,5*%
%TO.N,DHT11_3_data*%
X29340000Y-49276000D03*
%TO.P,J3,6*%
%TO.N,DHT11_4_data*%
X31880000Y-50546000D03*
%TO.P,J3,7*%
%TO.N,+5V*%
X29340000Y-51816000D03*
%TO.P,J3,8*%
%TO.N,GND*%
X31880000Y-53086000D03*
%TD*%
D17*
%TO.P,J2,S1,SHIELD*%
%TO.N,GND*%
X24898000Y-29966000D03*
D18*
X21073000Y-29966000D03*
D17*
X24898000Y-38606000D03*
D18*
X21073000Y-38606000D03*
%TD*%
D19*
%TO.P,DS1,16,LED(-)*%
%TO.N,GND*%
X64516000Y-58029500D03*
%TO.P,DS1,15,LED(+)*%
%TO.N,+5V*%
X61976000Y-58029500D03*
%TO.P,DS1,14,D7*%
%TO.N,LCD_D7*%
X59436000Y-58029500D03*
%TO.P,DS1,13,D6*%
%TO.N,LCD_D6*%
X56896000Y-58029500D03*
%TO.P,DS1,12,D5*%
%TO.N,LCD_D5*%
X54356000Y-58029500D03*
%TO.P,DS1,11,D4*%
%TO.N,LCD_D4*%
X51816000Y-58029500D03*
%TO.P,DS1,10,D3*%
%TO.N,unconnected-(DS1-D3-Pad10)*%
X49276000Y-58029500D03*
%TO.P,DS1,9,D2*%
%TO.N,unconnected-(DS1-D2-Pad9)*%
X46736000Y-58029500D03*
%TO.P,DS1,8,D1*%
%TO.N,unconnected-(DS1-D1-Pad8)*%
X44196000Y-58029500D03*
%TO.P,DS1,7,D0*%
%TO.N,unconnected-(DS1-D0-Pad7)*%
X41656000Y-58029500D03*
%TO.P,DS1,6,E*%
%TO.N,LCD_E*%
X39116000Y-58029500D03*
%TO.P,DS1,5,R/W*%
%TO.N,GND*%
X36576000Y-58029500D03*
%TO.P,DS1,4,RS*%
%TO.N,LCD_RS*%
X34036000Y-58029500D03*
%TO.P,DS1,3,VO*%
%TO.N,Net-(DS1-VO)*%
X31496000Y-58029500D03*
%TO.P,DS1,2,VDD*%
%TO.N,+5V*%
X28956000Y-58029500D03*
D20*
%TO.P,DS1,1,VSS*%
%TO.N,GND*%
X26416000Y-58029500D03*
D21*
%TO.P,DS1,*%
%TO.N,*%
X95916000Y-58029500D03*
X95915480Y-27028800D03*
X20916900Y-58029500D03*
X20916900Y-27028800D03*
%TD*%
D22*
%TO.N,GND*%
X70104000Y-58420000D03*
X47498000Y-28702000D03*
X41275000Y-30353000D03*
X54864000Y-43434000D03*
D23*
X27051000Y-35814000D03*
X23495000Y-32131000D03*
%TO.N,Net-(FB1-Pad2)*%
X26289000Y-35814000D03*
X24257083Y-32131832D03*
D22*
%TO.N,GND*%
X61658500Y-33083500D03*
X64770000Y-27305000D03*
X63475180Y-28097364D03*
X27559000Y-36576000D03*
X24384000Y-39878000D03*
X25400000Y-39878000D03*
X24384000Y-28702000D03*
X20447000Y-31242000D03*
X30734000Y-54229000D03*
X30861000Y-46482000D03*
D23*
X39114946Y-34299628D03*
X36068000Y-38407903D03*
D22*
X30351000Y-32254000D03*
X32764000Y-38350000D03*
X25400000Y-28702000D03*
X21590000Y-31242000D03*
X21590000Y-37338000D03*
X20574000Y-37338000D03*
X33147000Y-44323000D03*
X30861000Y-51816000D03*
X66421000Y-58039000D03*
X24130000Y-58039000D03*
X37719000Y-55880000D03*
X54610000Y-27472403D03*
X56007000Y-28829000D03*
X90678000Y-25654000D03*
X77343000Y-25654000D03*
X26148236Y-37345764D03*
X26287000Y-31238000D03*
D23*
X73533000Y-35179000D03*
X73533000Y-36703000D03*
X73279000Y-37719000D03*
%TO.N,LCD_D4*%
X74041000Y-37338000D03*
%TO.N,LCD_E*%
X74041000Y-35941000D03*
%TO.N,LCD_RS*%
X74041000Y-34544000D03*
D22*
%TO.N,GND*%
X73279000Y-25781000D03*
D23*
X41026531Y-34480500D03*
X36576000Y-36449000D03*
D22*
X35179000Y-54229000D03*
X67809386Y-41246586D03*
X69323486Y-39224486D03*
X69342000Y-36957000D03*
X69342000Y-34671000D03*
X41656000Y-43434000D03*
X50292000Y-43434000D03*
D23*
%TO.N,/CHIP_PU*%
X72136000Y-28194000D03*
X64770000Y-28702000D03*
D22*
%TO.N,ESP_3V3*%
X70739000Y-28067000D03*
D23*
X64262000Y-27940000D03*
D22*
%TO.N,GND*%
X24763000Y-26412000D03*
X25779000Y-26412000D03*
D23*
%TO.N,/GPIO_0*%
X94488000Y-42164000D03*
X54610000Y-26670000D03*
%TO.N,/FTDI_UART_RX*%
X91440000Y-29464000D03*
X39121698Y-35052000D03*
%TO.N,DHT11_3_data*%
X68453000Y-39243000D03*
%TO.N,DHT11_2_data*%
X68453000Y-36957000D03*
%TO.N,DHT11_1_data*%
X68344880Y-34671000D03*
%TO.N,DHT11_4_data*%
X68643000Y-41339000D03*
%TO.N,/FDTI_UART_TX*%
X91440000Y-30734000D03*
X36068000Y-37655500D03*
D22*
%TO.N,GND*%
X63754000Y-30861000D03*
%TD*%
D24*
%TO.N,Net-(FB1-Pad2)*%
X24257083Y-32131832D02*
X24257083Y-33782083D01*
X24257083Y-33782083D02*
X26289000Y-35814000D01*
%TO.N,/FDTI_UART_TX*%
X79865772Y-29952200D02*
X90658200Y-29952200D01*
X78829972Y-30988000D02*
X79865772Y-29952200D01*
X90658200Y-29952200D02*
X91440000Y-30734000D01*
X64680028Y-30988000D02*
X78829972Y-30988000D01*
X36068000Y-37655500D02*
X58012528Y-37655500D01*
X58012528Y-37655500D02*
X64680028Y-30988000D01*
%TO.N,/FTDI_UART_RX*%
X58928000Y-29972000D02*
X76327000Y-29972000D01*
X52832000Y-36068000D02*
X58928000Y-29972000D01*
X41550800Y-36068000D02*
X52832000Y-36068000D01*
X76327000Y-29972000D02*
X77597000Y-28702000D01*
X40534800Y-35052000D02*
X41550800Y-36068000D01*
X77597000Y-28702000D02*
X90678000Y-28702000D01*
X90678000Y-28702000D02*
X91440000Y-29464000D01*
X39121698Y-35052000D02*
X40534800Y-35052000D01*
%TO.N,/GPIO_0*%
X95250000Y-30480000D02*
X91313000Y-26543000D01*
X54737000Y-26543000D02*
X54610000Y-26670000D01*
X95250000Y-41402000D02*
X95250000Y-30480000D01*
X94488000Y-42164000D02*
X95250000Y-41402000D01*
X91313000Y-26543000D02*
X54737000Y-26543000D01*
%TO.N,LCD_RS*%
X51292200Y-55006800D02*
X37058700Y-55006800D01*
X58547000Y-53086000D02*
X53213000Y-53086000D01*
X71374000Y-40259000D02*
X58547000Y-53086000D01*
X37058700Y-55006800D02*
X34036000Y-58029500D01*
X71374000Y-36195000D02*
X71374000Y-40259000D01*
X53213000Y-53086000D02*
X51292200Y-55006800D01*
X73025000Y-34544000D02*
X71374000Y-36195000D01*
X74041000Y-34544000D02*
X73025000Y-34544000D01*
%TO.N,LCD_E*%
X52197000Y-56007000D02*
X41138500Y-56007000D01*
X59626500Y-54737000D02*
X53467000Y-54737000D01*
X72644000Y-41719500D02*
X59626500Y-54737000D01*
X72644000Y-36703000D02*
X72644000Y-41719500D01*
X53467000Y-54737000D02*
X52197000Y-56007000D01*
X73406000Y-35941000D02*
X72644000Y-36703000D01*
X74041000Y-35941000D02*
X73406000Y-35941000D01*
X41138500Y-56007000D02*
X39116000Y-58029500D01*
%TO.N,LCD_D4*%
X61685300Y-56424700D02*
X53420800Y-56424700D01*
X74041000Y-44069000D02*
X61685300Y-56424700D01*
X53420800Y-56424700D02*
X51816000Y-58029500D01*
X74041000Y-37338000D02*
X74041000Y-44069000D01*
%TO.N,DHT11_4_data*%
X32512000Y-50546000D02*
X31880000Y-50546000D01*
X41148000Y-41910000D02*
X32512000Y-50546000D01*
X68643000Y-41339000D02*
X68072000Y-41910000D01*
X68072000Y-41910000D02*
X41148000Y-41910000D01*
%TO.N,ESP_3V3*%
X64389000Y-28067000D02*
X70739000Y-28067000D01*
X64262000Y-27940000D02*
X64389000Y-28067000D01*
%TO.N,/CHIP_PU*%
X71483600Y-28846400D02*
X72136000Y-28194000D01*
X64770000Y-28702000D02*
X64914400Y-28846400D01*
X64914400Y-28846400D02*
X71483600Y-28846400D01*
%TO.N,Net-(DS1-VO)*%
X44721600Y-52549600D02*
X45974000Y-53802000D01*
X35080400Y-52549600D02*
X44721600Y-52549600D01*
X31407100Y-56222900D02*
X35080400Y-52549600D01*
X31407100Y-57924700D02*
X31407100Y-56222900D01*
%TO.N,DHT11_3_data*%
X40267331Y-41148000D02*
X32139331Y-49276000D01*
X68453000Y-39243000D02*
X66548000Y-41148000D01*
X32139331Y-49276000D02*
X29340000Y-49276000D01*
X66548000Y-41148000D02*
X40267331Y-41148000D01*
%TO.N,DHT11_2_data*%
X65278000Y-40132000D02*
X39754000Y-40132000D01*
X39754000Y-40132000D02*
X31880000Y-48006000D01*
X68453000Y-36957000D02*
X65278000Y-40132000D01*
%TO.N,DHT11_1_data*%
X29340000Y-46352000D02*
X29340000Y-46736000D01*
X36576000Y-39116000D02*
X29340000Y-46352000D01*
X63899880Y-39116000D02*
X36576000Y-39116000D01*
X68344880Y-34671000D02*
X63899880Y-39116000D01*
%TD*%
%TA.AperFunction,Conductor*%
%TO.N,GND*%
G36*
X40330137Y-55679385D02*
G01*
X40375892Y-55732189D01*
X40385836Y-55801347D01*
X40356811Y-55864903D01*
X40350779Y-55871381D01*
X39874278Y-56347880D01*
X39812955Y-56381365D01*
X39743263Y-56376381D01*
X39730302Y-56370683D01*
X39653616Y-56331609D01*
X39653603Y-56331603D01*
X39443952Y-56263485D01*
X39315719Y-56243175D01*
X39226222Y-56229000D01*
X39005778Y-56229000D01*
X38933201Y-56240495D01*
X38788047Y-56263485D01*
X38578396Y-56331603D01*
X38578393Y-56331604D01*
X38381974Y-56431687D01*
X38203641Y-56561252D01*
X38203636Y-56561256D01*
X38047756Y-56717136D01*
X37946008Y-56857181D01*
X37890678Y-56899846D01*
X37821065Y-56905825D01*
X37759270Y-56873219D01*
X37745372Y-56857180D01*
X37643862Y-56717464D01*
X37643857Y-56717458D01*
X37488041Y-56561642D01*
X37309760Y-56432113D01*
X37113410Y-56332067D01*
X36961202Y-56282612D01*
X36903526Y-56243175D01*
X36876328Y-56178816D01*
X36888243Y-56109970D01*
X36911836Y-56077003D01*
X37292821Y-55696019D01*
X37354144Y-55662534D01*
X37380502Y-55659700D01*
X40263098Y-55659700D01*
X40330137Y-55679385D01*
G37*
%TD.AperFunction*%
%TA.AperFunction,Conductor*%
G36*
X42088830Y-53222185D02*
G01*
X42134585Y-53274989D01*
X42144529Y-53344147D01*
X42141996Y-53356941D01*
X42087868Y-53570682D01*
X42087864Y-53570702D01*
X42068700Y-53801993D01*
X42068700Y-53802006D01*
X42087864Y-54033297D01*
X42087866Y-54033308D01*
X42129942Y-54199460D01*
X42127317Y-54269280D01*
X42087361Y-54326598D01*
X42022759Y-54353214D01*
X42009736Y-54353900D01*
X36994393Y-54353900D01*
X36868261Y-54378989D01*
X36868255Y-54378991D01*
X36749437Y-54428207D01*
X36642497Y-54499661D01*
X34794278Y-56347880D01*
X34732955Y-56381365D01*
X34663263Y-56376381D01*
X34650302Y-56370683D01*
X34573616Y-56331609D01*
X34573603Y-56331603D01*
X34363952Y-56263485D01*
X34235719Y-56243175D01*
X34146222Y-56229000D01*
X33925778Y-56229000D01*
X33853201Y-56240495D01*
X33708047Y-56263485D01*
X33498396Y-56331603D01*
X33498393Y-56331604D01*
X33301974Y-56431687D01*
X33123641Y-56561252D01*
X33123636Y-56561256D01*
X32967756Y-56717136D01*
X32967752Y-56717141D01*
X32866318Y-56856754D01*
X32810988Y-56899420D01*
X32741375Y-56905399D01*
X32679580Y-56872793D01*
X32665682Y-56856754D01*
X32564247Y-56717141D01*
X32564243Y-56717136D01*
X32408363Y-56561256D01*
X32408358Y-56561252D01*
X32284714Y-56471420D01*
X32242048Y-56416091D01*
X32236069Y-56346477D01*
X32268674Y-56284682D01*
X32269844Y-56283495D01*
X35314521Y-53238819D01*
X35375844Y-53205334D01*
X35402202Y-53202500D01*
X42021791Y-53202500D01*
X42088830Y-53222185D01*
G37*
%TD.AperFunction*%
%TA.AperFunction,Conductor*%
G36*
X67914435Y-42582585D02*
G01*
X67960190Y-42635389D01*
X67970134Y-42704547D01*
X67941109Y-42768103D01*
X67935077Y-42774581D01*
X58312878Y-52396781D01*
X58251555Y-52430266D01*
X58225197Y-52433100D01*
X53148693Y-52433100D01*
X53022561Y-52458189D01*
X53022555Y-52458191D01*
X52903737Y-52507407D01*
X52796797Y-52578861D01*
X52796796Y-52578862D01*
X51058078Y-54317581D01*
X50996755Y-54351066D01*
X50970397Y-54353900D01*
X49937747Y-54353900D01*
X49870708Y-54334215D01*
X49824953Y-54281411D01*
X49815009Y-54212253D01*
X49817541Y-54199460D01*
X49859638Y-54033218D01*
X49878798Y-53802005D01*
X49878798Y-53801994D01*
X49859638Y-53570781D01*
X49802682Y-53345864D01*
X49709484Y-53133393D01*
X49625186Y-53004365D01*
X48956962Y-53672589D01*
X48939925Y-53609007D01*
X48874099Y-53494993D01*
X48781007Y-53401901D01*
X48666993Y-53336075D01*
X48603409Y-53319037D01*
X49272797Y-52649647D01*
X49272797Y-52649645D01*
X49242360Y-52625955D01*
X49242354Y-52625951D01*
X49038302Y-52515523D01*
X49038293Y-52515520D01*
X48818860Y-52440188D01*
X48590007Y-52402000D01*
X48357993Y-52402000D01*
X48129139Y-52440188D01*
X47909706Y-52515520D01*
X47909697Y-52515523D01*
X47705650Y-52625949D01*
X47675200Y-52649647D01*
X48344591Y-53319037D01*
X48281007Y-53336075D01*
X48166993Y-53401901D01*
X48073901Y-53494993D01*
X48008075Y-53609007D01*
X47991037Y-53672591D01*
X47322811Y-53004365D01*
X47318029Y-53004861D01*
X47274959Y-53041618D01*
X47205728Y-53051041D01*
X47142392Y-53021538D01*
X47120489Y-52996260D01*
X47082983Y-52938852D01*
X47082980Y-52938849D01*
X47082979Y-52938847D01*
X46925784Y-52768087D01*
X46925779Y-52768083D01*
X46925777Y-52768081D01*
X46742634Y-52625535D01*
X46742628Y-52625531D01*
X46538504Y-52515064D01*
X46538495Y-52515061D01*
X46318984Y-52439702D01*
X46134904Y-52408985D01*
X46090049Y-52401500D01*
X45857951Y-52401500D01*
X45825246Y-52406957D01*
X45629013Y-52439702D01*
X45624045Y-52440961D01*
X45623545Y-52438987D01*
X45562428Y-52441725D01*
X45504325Y-52408985D01*
X45137805Y-52042463D01*
X45137804Y-52042462D01*
X45137800Y-52042459D01*
X45030864Y-51971008D01*
X45030859Y-51971006D01*
X44912044Y-51921791D01*
X44912040Y-51921790D01*
X44908467Y-51921079D01*
X44904893Y-51920368D01*
X44904890Y-51920367D01*
X44904890Y-51920368D01*
X44785907Y-51896700D01*
X44785905Y-51896700D01*
X35016095Y-51896700D01*
X35016093Y-51896700D01*
X34889961Y-51921789D01*
X34889955Y-51921791D01*
X34856621Y-51935599D01*
X34856620Y-51935599D01*
X34771138Y-51971006D01*
X34664198Y-52042460D01*
X33305990Y-53400668D01*
X33244667Y-53434153D01*
X33174975Y-53429169D01*
X33119042Y-53387297D01*
X33094625Y-53321833D01*
X33094781Y-53302179D01*
X33113695Y-53086000D01*
X33113695Y-53085999D01*
X33094952Y-52871775D01*
X33094950Y-52871765D01*
X33039296Y-52664058D01*
X33039292Y-52664049D01*
X32948412Y-52469155D01*
X32908045Y-52411505D01*
X32342550Y-52977001D01*
X32322630Y-52902657D01*
X32260095Y-52794343D01*
X32171657Y-52705905D01*
X32063343Y-52643370D01*
X31988997Y-52623449D01*
X32554493Y-52057953D01*
X32554492Y-52057952D01*
X32496848Y-52017589D01*
X32496846Y-52017588D01*
X32306133Y-51928657D01*
X32253694Y-51882485D01*
X32234542Y-51815291D01*
X32254758Y-51748410D01*
X32306131Y-51703894D01*
X32497098Y-51614845D01*
X32673326Y-51491449D01*
X32825449Y-51339326D01*
X32948845Y-51163098D01*
X33039765Y-50968120D01*
X33040880Y-50963956D01*
X33072973Y-50908366D01*
X37179345Y-46801994D01*
X39068556Y-46801994D01*
X39068556Y-46802005D01*
X39088310Y-47116004D01*
X39088311Y-47116011D01*
X39147270Y-47425083D01*
X39244497Y-47724316D01*
X39244499Y-47724321D01*
X39378461Y-48009003D01*
X39378464Y-48009009D01*
X39547051Y-48274661D01*
X39547054Y-48274665D01*
X39747606Y-48517090D01*
X39747608Y-48517092D01*
X39747610Y-48517094D01*
X39898615Y-48658897D01*
X39976968Y-48732476D01*
X39976978Y-48732484D01*
X40231504Y-48917408D01*
X40231509Y-48917410D01*
X40231516Y-48917416D01*
X40507234Y-49068994D01*
X40507239Y-49068996D01*
X40507241Y-49068997D01*
X40507242Y-49068998D01*
X40799771Y-49184818D01*
X40799774Y-49184819D01*
X41104523Y-49263065D01*
X41104527Y-49263066D01*
X41170010Y-49271338D01*
X41416670Y-49302499D01*
X41416679Y-49302499D01*
X41416682Y-49302500D01*
X41416684Y-49302500D01*
X41731316Y-49302500D01*
X41731318Y-49302500D01*
X41731321Y-49302499D01*
X41731329Y-49302499D01*
X41941089Y-49276000D01*
X42043473Y-49263066D01*
X42348225Y-49184819D01*
X42348228Y-49184818D01*
X42640757Y-49068998D01*
X42640758Y-49068997D01*
X42640756Y-49068997D01*
X42640766Y-49068994D01*
X42916484Y-48917416D01*
X43171030Y-48732478D01*
X43400390Y-48517094D01*
X43600947Y-48274663D01*
X43769537Y-48009007D01*
X43903503Y-47724315D01*
X44000731Y-47425079D01*
X44059688Y-47116015D01*
X44059689Y-47116004D01*
X44079444Y-46802005D01*
X44079444Y-46801994D01*
X47868556Y-46801994D01*
X47868556Y-46802005D01*
X47888310Y-47116004D01*
X47888311Y-47116011D01*
X47947270Y-47425083D01*
X48044497Y-47724316D01*
X48044499Y-47724321D01*
X48178461Y-48009003D01*
X48178464Y-48009009D01*
X48347051Y-48274661D01*
X48347054Y-48274665D01*
X48547606Y-48517090D01*
X48547608Y-48517092D01*
X48547610Y-48517094D01*
X48698615Y-48658897D01*
X48776968Y-48732476D01*
X48776978Y-48732484D01*
X49031504Y-48917408D01*
X49031509Y-48917410D01*
X49031516Y-48917416D01*
X49307234Y-49068994D01*
X49307239Y-49068996D01*
X49307241Y-49068997D01*
X49307242Y-49068998D01*
X49599771Y-49184818D01*
X49599774Y-49184819D01*
X49904523Y-49263065D01*
X49904527Y-49263066D01*
X49970010Y-49271338D01*
X50216670Y-49302499D01*
X50216679Y-49302499D01*
X50216682Y-49302500D01*
X50216684Y-49302500D01*
X50531316Y-49302500D01*
X50531318Y-49302500D01*
X50531321Y-49302499D01*
X50531329Y-49302499D01*
X50741089Y-49276000D01*
X50843473Y-49263066D01*
X51148225Y-49184819D01*
X51148228Y-49184818D01*
X51440757Y-49068998D01*
X51440758Y-49068997D01*
X51440756Y-49068997D01*
X51440766Y-49068994D01*
X51716484Y-48917416D01*
X51971030Y-48732478D01*
X52200390Y-48517094D01*
X52400947Y-48274663D01*
X52569537Y-48009007D01*
X52703503Y-47724315D01*
X52800731Y-47425079D01*
X52859688Y-47116015D01*
X52859689Y-47116004D01*
X52879444Y-46802005D01*
X52879444Y-46801994D01*
X52859689Y-46487995D01*
X52859688Y-46487988D01*
X52859688Y-46487985D01*
X52800731Y-46178921D01*
X52703503Y-45879685D01*
X52569537Y-45594993D01*
X52461973Y-45425499D01*
X52400948Y-45329338D01*
X52400945Y-45329334D01*
X52200393Y-45086909D01*
X52200391Y-45086907D01*
X52142436Y-45032483D01*
X51971030Y-44871522D01*
X51971027Y-44871520D01*
X51971021Y-44871515D01*
X51716495Y-44686591D01*
X51716488Y-44686586D01*
X51716484Y-44686584D01*
X51440766Y-44535006D01*
X51440763Y-44535004D01*
X51440758Y-44535002D01*
X51440757Y-44535001D01*
X51148228Y-44419181D01*
X51148225Y-44419180D01*
X50843476Y-44340934D01*
X50843463Y-44340932D01*
X50531329Y-44301500D01*
X50531318Y-44301500D01*
X50216682Y-44301500D01*
X50216670Y-44301500D01*
X49904536Y-44340932D01*
X49904523Y-44340934D01*
X49599774Y-44419180D01*
X49599771Y-44419181D01*
X49307242Y-44535001D01*
X49307241Y-44535002D01*
X49031516Y-44686584D01*
X49031504Y-44686591D01*
X48776978Y-44871515D01*
X48776968Y-44871523D01*
X48547608Y-45086907D01*
X48547606Y-45086909D01*
X48347054Y-45329334D01*
X48347051Y-45329338D01*
X48178464Y-45594990D01*
X48178461Y-45594996D01*
X48044499Y-45879678D01*
X48044497Y-45879683D01*
X47947270Y-46178916D01*
X47888311Y-46487988D01*
X47888310Y-46487995D01*
X47868556Y-46801994D01*
X44079444Y-46801994D01*
X44059689Y-46487995D01*
X44059688Y-46487988D01*
X44059688Y-46487985D01*
X44000731Y-46178921D01*
X43903503Y-45879685D01*
X43769537Y-45594993D01*
X43661973Y-45425499D01*
X43600948Y-45329338D01*
X43600945Y-45329334D01*
X43400393Y-45086909D01*
X43400391Y-45086907D01*
X43342436Y-45032483D01*
X43171030Y-44871522D01*
X43171027Y-44871520D01*
X43171021Y-44871515D01*
X42916495Y-44686591D01*
X42916488Y-44686586D01*
X42916484Y-44686584D01*
X42640766Y-44535006D01*
X42640763Y-44535004D01*
X42640758Y-44535002D01*
X42640757Y-44535001D01*
X42348228Y-44419181D01*
X42348225Y-44419180D01*
X42043476Y-44340934D01*
X42043463Y-44340932D01*
X41731329Y-44301500D01*
X41731318Y-44301500D01*
X41416682Y-44301500D01*
X41416670Y-44301500D01*
X41104536Y-44340932D01*
X41104523Y-44340934D01*
X40799774Y-44419180D01*
X40799771Y-44419181D01*
X40507242Y-44535001D01*
X40507241Y-44535002D01*
X40231516Y-44686584D01*
X40231504Y-44686591D01*
X39976978Y-44871515D01*
X39976968Y-44871523D01*
X39747608Y-45086907D01*
X39747606Y-45086909D01*
X39547054Y-45329334D01*
X39547051Y-45329338D01*
X39378464Y-45594990D01*
X39378461Y-45594996D01*
X39244499Y-45879678D01*
X39244497Y-45879683D01*
X39147270Y-46178916D01*
X39088311Y-46487988D01*
X39088310Y-46487995D01*
X39068556Y-46801994D01*
X37179345Y-46801994D01*
X41382121Y-42599219D01*
X41443444Y-42565734D01*
X41469802Y-42562900D01*
X67847396Y-42562900D01*
X67914435Y-42582585D01*
G37*
%TD.AperFunction*%
%TA.AperFunction,Conductor*%
G36*
X31437370Y-45649343D02*
G01*
X31499905Y-45757657D01*
X31588343Y-45846095D01*
X31696657Y-45908630D01*
X31771002Y-45928550D01*
X31205505Y-46494046D01*
X31263153Y-46534411D01*
X31453866Y-46623342D01*
X31506305Y-46669514D01*
X31525457Y-46736708D01*
X31505241Y-46803589D01*
X31453866Y-46848106D01*
X31262902Y-46937155D01*
X31262897Y-46937157D01*
X31086672Y-47060551D01*
X30934551Y-47212672D01*
X30811157Y-47388897D01*
X30811155Y-47388901D01*
X30720236Y-47583878D01*
X30720232Y-47583887D01*
X30664555Y-47791678D01*
X30664553Y-47791689D01*
X30645804Y-48005998D01*
X30645804Y-48006001D01*
X30664553Y-48220310D01*
X30664555Y-48220321D01*
X30720232Y-48428112D01*
X30720235Y-48428121D01*
X30728897Y-48446695D01*
X30739389Y-48515772D01*
X30710870Y-48579556D01*
X30652393Y-48617796D01*
X30616515Y-48623100D01*
X30448326Y-48623100D01*
X30381287Y-48603415D01*
X30346751Y-48570223D01*
X30285447Y-48482671D01*
X30133327Y-48330551D01*
X29957102Y-48207157D01*
X29957098Y-48207155D01*
X29766721Y-48118380D01*
X29714284Y-48072210D01*
X29695132Y-48005016D01*
X29715348Y-47938135D01*
X29766721Y-47893619D01*
X29957098Y-47804845D01*
X30133326Y-47681449D01*
X30285449Y-47529326D01*
X30408845Y-47353098D01*
X30499765Y-47158120D01*
X30555446Y-46950316D01*
X30574196Y-46736000D01*
X30555446Y-46521684D01*
X30499765Y-46313880D01*
X30499762Y-46313873D01*
X30473395Y-46257328D01*
X30462903Y-46188251D01*
X30491423Y-46124467D01*
X30498070Y-46117269D01*
X30597614Y-46017725D01*
X30658931Y-45984244D01*
X30728623Y-45989228D01*
X30784557Y-46031099D01*
X30797671Y-46053003D01*
X30811586Y-46082844D01*
X30811587Y-46082845D01*
X30851952Y-46140492D01*
X30851952Y-46140493D01*
X31417449Y-45574996D01*
X31437370Y-45649343D01*
G37*
%TD.AperFunction*%
%TA.AperFunction,Conductor*%
G36*
X38961437Y-39788585D02*
G01*
X39007192Y-39841389D01*
X39017136Y-39910547D01*
X38988111Y-39974103D01*
X38982079Y-39980581D01*
X33317879Y-45644777D01*
X33256556Y-45678262D01*
X33186864Y-45673278D01*
X33130931Y-45631406D01*
X33106514Y-45565942D01*
X33106670Y-45546288D01*
X33113695Y-45466000D01*
X33113695Y-45465999D01*
X33094952Y-45251775D01*
X33094950Y-45251765D01*
X33039296Y-45044058D01*
X33039292Y-45044049D01*
X32948412Y-44849155D01*
X32908045Y-44791505D01*
X32342550Y-45357001D01*
X32322630Y-45282657D01*
X32260095Y-45174343D01*
X32171657Y-45085905D01*
X32063343Y-45023370D01*
X31988997Y-45003449D01*
X32554493Y-44437953D01*
X32554492Y-44437952D01*
X32496845Y-44397587D01*
X32496844Y-44397586D01*
X32467003Y-44383671D01*
X32414565Y-44337498D01*
X32395414Y-44270304D01*
X32415631Y-44203423D01*
X32431720Y-44183619D01*
X36810121Y-39805219D01*
X36871444Y-39771734D01*
X36897802Y-39768900D01*
X38894398Y-39768900D01*
X38961437Y-39788585D01*
G37*
%TD.AperFunction*%
%TA.AperFunction,Conductor*%
G36*
X98208539Y-24650185D02*
G01*
X98254294Y-24702989D01*
X98265500Y-24754500D01*
X98265500Y-60589500D01*
X98245815Y-60656539D01*
X98193011Y-60702294D01*
X98141500Y-60713500D01*
X18618500Y-60713500D01*
X18551461Y-60693815D01*
X18505706Y-60641011D01*
X18494500Y-60589500D01*
X18494500Y-58029498D01*
X18911290Y-58029498D01*
X18911290Y-58029501D01*
X18931704Y-58314933D01*
X18992528Y-58594537D01*
X18992530Y-58594543D01*
X18992531Y-58594546D01*
X19053292Y-58757451D01*
X19092535Y-58862666D01*
X19229670Y-59113809D01*
X19229675Y-59113817D01*
X19401154Y-59342887D01*
X19401170Y-59342905D01*
X19603494Y-59545229D01*
X19603512Y-59545245D01*
X19832582Y-59716724D01*
X19832590Y-59716729D01*
X20083733Y-59853864D01*
X20083732Y-59853864D01*
X20083736Y-59853865D01*
X20083739Y-59853867D01*
X20351854Y-59953869D01*
X20351860Y-59953870D01*
X20351862Y-59953871D01*
X20631466Y-60014695D01*
X20631468Y-60014695D01*
X20631472Y-60014696D01*
X20885120Y-60032837D01*
X20916899Y-60035110D01*
X20916900Y-60035110D01*
X20916901Y-60035110D01*
X20945495Y-60033064D01*
X21202328Y-60014696D01*
X21481946Y-59953869D01*
X21750061Y-59853867D01*
X22001215Y-59716726D01*
X22230295Y-59545239D01*
X22432639Y-59342895D01*
X22604126Y-59113815D01*
X22741267Y-58862661D01*
X22841269Y-58594546D01*
X22902096Y-58314928D01*
X22922510Y-58029500D01*
X22902096Y-57744072D01*
X22860387Y-57552340D01*
X22841271Y-57464462D01*
X22841270Y-57464460D01*
X22841269Y-57464454D01*
X22741267Y-57196339D01*
X22684235Y-57091894D01*
X22604129Y-56945190D01*
X22604124Y-56945182D01*
X22432645Y-56716112D01*
X22432629Y-56716094D01*
X22398190Y-56681655D01*
X25016000Y-56681655D01*
X25016000Y-57779500D01*
X25867518Y-57779500D01*
X25856889Y-57797909D01*
X25816000Y-57950509D01*
X25816000Y-58108491D01*
X25856889Y-58261091D01*
X25867518Y-58279500D01*
X25016000Y-58279500D01*
X25016000Y-59377344D01*
X25022401Y-59436872D01*
X25022403Y-59436879D01*
X25072645Y-59571586D01*
X25072649Y-59571593D01*
X25158809Y-59686687D01*
X25158812Y-59686690D01*
X25273906Y-59772850D01*
X25273913Y-59772854D01*
X25408620Y-59823096D01*
X25408627Y-59823098D01*
X25468155Y-59829499D01*
X25468172Y-59829500D01*
X26166000Y-59829500D01*
X26166000Y-58577982D01*
X26184409Y-58588611D01*
X26337009Y-58629500D01*
X26494991Y-58629500D01*
X26647591Y-58588611D01*
X26666000Y-58577982D01*
X26666000Y-59829500D01*
X27363828Y-59829500D01*
X27363844Y-59829499D01*
X27423372Y-59823098D01*
X27423379Y-59823096D01*
X27558086Y-59772854D01*
X27558093Y-59772850D01*
X27673187Y-59686690D01*
X27673190Y-59686687D01*
X27759350Y-59571593D01*
X27759354Y-59571586D01*
X27789213Y-59491531D01*
X27831084Y-59435597D01*
X27896548Y-59411180D01*
X27964821Y-59426031D01*
X27993076Y-59447183D01*
X28043636Y-59497743D01*
X28043641Y-59497747D01*
X28199192Y-59610760D01*
X28221978Y-59627315D01*
X28338501Y-59686687D01*
X28418393Y-59727395D01*
X28418396Y-59727396D01*
X28523221Y-59761455D01*
X28628049Y-59795515D01*
X28845778Y-59830000D01*
X28845779Y-59830000D01*
X29066221Y-59830000D01*
X29066222Y-59830000D01*
X29283951Y-59795515D01*
X29493606Y-59727395D01*
X29690022Y-59627315D01*
X29868365Y-59497742D01*
X30024242Y-59341865D01*
X30034804Y-59327326D01*
X30125682Y-59202245D01*
X30181011Y-59159579D01*
X30250625Y-59153600D01*
X30312420Y-59186205D01*
X30326318Y-59202245D01*
X30427752Y-59341858D01*
X30427756Y-59341863D01*
X30583636Y-59497743D01*
X30583641Y-59497747D01*
X30739192Y-59610760D01*
X30761978Y-59627315D01*
X30878501Y-59686687D01*
X30958393Y-59727395D01*
X30958396Y-59727396D01*
X31063221Y-59761455D01*
X31168049Y-59795515D01*
X31385778Y-59830000D01*
X31385779Y-59830000D01*
X31606221Y-59830000D01*
X31606222Y-59830000D01*
X31823951Y-59795515D01*
X32033606Y-59727395D01*
X32230022Y-59627315D01*
X32408365Y-59497742D01*
X32564242Y-59341865D01*
X32574804Y-59327326D01*
X32665682Y-59202245D01*
X32721011Y-59159579D01*
X32790625Y-59153600D01*
X32852420Y-59186205D01*
X32866318Y-59202245D01*
X32967752Y-59341858D01*
X32967756Y-59341863D01*
X33123636Y-59497743D01*
X33123641Y-59497747D01*
X33279192Y-59610760D01*
X33301978Y-59627315D01*
X33418501Y-59686687D01*
X33498393Y-59727395D01*
X33498396Y-59727396D01*
X33603221Y-59761455D01*
X33708049Y-59795515D01*
X33925778Y-59830000D01*
X33925779Y-59830000D01*
X34146221Y-59830000D01*
X34146222Y-59830000D01*
X34363951Y-59795515D01*
X34573606Y-59727395D01*
X34770022Y-59627315D01*
X34948365Y-59497742D01*
X35104242Y-59341865D01*
X35205991Y-59201817D01*
X35261320Y-59159153D01*
X35330933Y-59153174D01*
X35392729Y-59185779D01*
X35406627Y-59201818D01*
X35508142Y-59341541D01*
X35663958Y-59497357D01*
X35842239Y-59626886D01*
X36038589Y-59726932D01*
X36248163Y-59795026D01*
X36325999Y-59807354D01*
X36326000Y-59807354D01*
X36326000Y-58577982D01*
X36344409Y-58588611D01*
X36497009Y-58629500D01*
X36654991Y-58629500D01*
X36807591Y-58588611D01*
X36826000Y-58577982D01*
X36826000Y-59807354D01*
X36903834Y-59795026D01*
X36903837Y-59795026D01*
X37113410Y-59726932D01*
X37309760Y-59626886D01*
X37488041Y-59497357D01*
X37643857Y-59341541D01*
X37643862Y-59341535D01*
X37745372Y-59201819D01*
X37800702Y-59159153D01*
X37870315Y-59153174D01*
X37932110Y-59185779D01*
X37946008Y-59201819D01*
X38047752Y-59341858D01*
X38047756Y-59341863D01*
X38203636Y-59497743D01*
X38203641Y-59497747D01*
X38359192Y-59610760D01*
X38381978Y-59627315D01*
X38498501Y-59686687D01*
X38578393Y-59727395D01*
X38578396Y-59727396D01*
X38683221Y-59761455D01*
X38788049Y-59795515D01*
X39005778Y-59830000D01*
X39005779Y-59830000D01*
X39226221Y-59830000D01*
X39226222Y-59830000D01*
X39443951Y-59795515D01*
X39653606Y-59727395D01*
X39850022Y-59627315D01*
X40028365Y-59497742D01*
X40184242Y-59341865D01*
X40194804Y-59327326D01*
X40285682Y-59202245D01*
X40341011Y-59159579D01*
X40410625Y-59153600D01*
X40472420Y-59186205D01*
X40486318Y-59202245D01*
X40587752Y-59341858D01*
X40587756Y-59341863D01*
X40743636Y-59497743D01*
X40743641Y-59497747D01*
X40899192Y-59610760D01*
X40921978Y-59627315D01*
X41038501Y-59686687D01*
X41118393Y-59727395D01*
X41118396Y-59727396D01*
X41223221Y-59761455D01*
X41328049Y-59795515D01*
X41545778Y-59830000D01*
X41545779Y-59830000D01*
X41766221Y-59830000D01*
X41766222Y-59830000D01*
X41983951Y-59795515D01*
X42193606Y-59727395D01*
X42390022Y-59627315D01*
X42568365Y-59497742D01*
X42724242Y-59341865D01*
X42734804Y-59327326D01*
X42825682Y-59202245D01*
X42881011Y-59159579D01*
X42950625Y-59153600D01*
X43012420Y-59186205D01*
X43026318Y-59202245D01*
X43127752Y-59341858D01*
X43127756Y-59341863D01*
X43283636Y-59497743D01*
X43283641Y-59497747D01*
X43439192Y-59610760D01*
X43461978Y-59627315D01*
X43578501Y-59686687D01*
X43658393Y-59727395D01*
X43658396Y-59727396D01*
X43763221Y-59761455D01*
X43868049Y-59795515D01*
X44085778Y-59830000D01*
X44085779Y-59830000D01*
X44306221Y-59830000D01*
X44306222Y-59830000D01*
X44523951Y-59795515D01*
X44733606Y-59727395D01*
X44930022Y-59627315D01*
X45108365Y-59497742D01*
X45264242Y-59341865D01*
X45274804Y-59327326D01*
X45365682Y-59202245D01*
X45421011Y-59159579D01*
X45490625Y-59153600D01*
X45552420Y-59186205D01*
X45566318Y-59202245D01*
X45667752Y-59341858D01*
X45667756Y-59341863D01*
X45823636Y-59497743D01*
X45823641Y-59497747D01*
X45979192Y-59610760D01*
X46001978Y-59627315D01*
X46118501Y-59686687D01*
X46198393Y-59727395D01*
X46198396Y-59727396D01*
X46303221Y-59761455D01*
X46408049Y-59795515D01*
X46625778Y-59830000D01*
X46625779Y-59830000D01*
X46846221Y-59830000D01*
X46846222Y-59830000D01*
X47063951Y-59795515D01*
X47273606Y-59727395D01*
X47470022Y-59627315D01*
X47648365Y-59497742D01*
X47804242Y-59341865D01*
X47814804Y-59327326D01*
X47905682Y-59202245D01*
X47961011Y-59159579D01*
X48030625Y-59153600D01*
X48092420Y-59186205D01*
X48106318Y-59202245D01*
X48207752Y-59341858D01*
X48207756Y-59341863D01*
X48363636Y-59497743D01*
X48363641Y-59497747D01*
X48519192Y-59610760D01*
X48541978Y-59627315D01*
X48658501Y-59686687D01*
X48738393Y-59727395D01*
X48738396Y-59727396D01*
X48843221Y-59761455D01*
X48948049Y-59795515D01*
X49165778Y-59830000D01*
X49165779Y-59830000D01*
X49386221Y-59830000D01*
X49386222Y-59830000D01*
X49603951Y-59795515D01*
X49813606Y-59727395D01*
X50010022Y-59627315D01*
X50188365Y-59497742D01*
X50344242Y-59341865D01*
X50354804Y-59327326D01*
X50445682Y-59202245D01*
X50501011Y-59159579D01*
X50570625Y-59153600D01*
X50632420Y-59186205D01*
X50646318Y-59202245D01*
X50747752Y-59341858D01*
X50747756Y-59341863D01*
X50903636Y-59497743D01*
X50903641Y-59497747D01*
X51059192Y-59610760D01*
X51081978Y-59627315D01*
X51198501Y-59686687D01*
X51278393Y-59727395D01*
X51278396Y-59727396D01*
X51383221Y-59761455D01*
X51488049Y-59795515D01*
X51705778Y-59830000D01*
X51705779Y-59830000D01*
X51926221Y-59830000D01*
X51926222Y-59830000D01*
X52143951Y-59795515D01*
X52353606Y-59727395D01*
X52550022Y-59627315D01*
X52728365Y-59497742D01*
X52884242Y-59341865D01*
X52894804Y-59327326D01*
X52985682Y-59202245D01*
X53041011Y-59159579D01*
X53110625Y-59153600D01*
X53172420Y-59186205D01*
X53186318Y-59202245D01*
X53287752Y-59341858D01*
X53287756Y-59341863D01*
X53443636Y-59497743D01*
X53443641Y-59497747D01*
X53599192Y-59610760D01*
X53621978Y-59627315D01*
X53738501Y-59686687D01*
X53818393Y-59727395D01*
X53818396Y-59727396D01*
X53923221Y-59761455D01*
X54028049Y-59795515D01*
X54245778Y-59830000D01*
X54245779Y-59830000D01*
X54466221Y-59830000D01*
X54466222Y-59830000D01*
X54683951Y-59795515D01*
X54893606Y-59727395D01*
X55090022Y-59627315D01*
X55268365Y-59497742D01*
X55424242Y-59341865D01*
X55434804Y-59327326D01*
X55525682Y-59202245D01*
X55581011Y-59159579D01*
X55650625Y-59153600D01*
X55712420Y-59186205D01*
X55726318Y-59202245D01*
X55827752Y-59341858D01*
X55827756Y-59341863D01*
X55983636Y-59497743D01*
X55983641Y-59497747D01*
X56139192Y-59610760D01*
X56161978Y-59627315D01*
X56278501Y-59686687D01*
X56358393Y-59727395D01*
X56358396Y-59727396D01*
X56463221Y-59761455D01*
X56568049Y-59795515D01*
X56785778Y-59830000D01*
X56785779Y-59830000D01*
X57006221Y-59830000D01*
X57006222Y-59830000D01*
X57223951Y-59795515D01*
X57433606Y-59727395D01*
X57630022Y-59627315D01*
X57808365Y-59497742D01*
X57964242Y-59341865D01*
X57974804Y-59327326D01*
X58065682Y-59202245D01*
X58121011Y-59159579D01*
X58190625Y-59153600D01*
X58252420Y-59186205D01*
X58266318Y-59202245D01*
X58367752Y-59341858D01*
X58367756Y-59341863D01*
X58523636Y-59497743D01*
X58523641Y-59497747D01*
X58679192Y-59610760D01*
X58701978Y-59627315D01*
X58818501Y-59686687D01*
X58898393Y-59727395D01*
X58898396Y-59727396D01*
X59003221Y-59761455D01*
X59108049Y-59795515D01*
X59325778Y-59830000D01*
X59325779Y-59830000D01*
X59546221Y-59830000D01*
X59546222Y-59830000D01*
X59763951Y-59795515D01*
X59973606Y-59727395D01*
X60170022Y-59627315D01*
X60348365Y-59497742D01*
X60504242Y-59341865D01*
X60514804Y-59327326D01*
X60605682Y-59202245D01*
X60661011Y-59159579D01*
X60730625Y-59153600D01*
X60792420Y-59186205D01*
X60806318Y-59202245D01*
X60907752Y-59341858D01*
X60907756Y-59341863D01*
X61063636Y-59497743D01*
X61063641Y-59497747D01*
X61219192Y-59610760D01*
X61241978Y-59627315D01*
X61358501Y-59686687D01*
X61438393Y-59727395D01*
X61438396Y-59727396D01*
X61543221Y-59761455D01*
X61648049Y-59795515D01*
X61865778Y-59830000D01*
X61865779Y-59830000D01*
X62086221Y-59830000D01*
X62086222Y-59830000D01*
X62303951Y-59795515D01*
X62513606Y-59727395D01*
X62710022Y-59627315D01*
X62888365Y-59497742D01*
X63044242Y-59341865D01*
X63145991Y-59201817D01*
X63201320Y-59159153D01*
X63270933Y-59153174D01*
X63332729Y-59185779D01*
X63346627Y-59201818D01*
X63448142Y-59341541D01*
X63603958Y-59497357D01*
X63782239Y-59626886D01*
X63978589Y-59726932D01*
X64188163Y-59795026D01*
X64265999Y-59807354D01*
X64266000Y-59807354D01*
X64266000Y-58577982D01*
X64284409Y-58588611D01*
X64437009Y-58629500D01*
X64594991Y-58629500D01*
X64747591Y-58588611D01*
X64766000Y-58577982D01*
X64766000Y-59807354D01*
X64843834Y-59795026D01*
X64843837Y-59795026D01*
X65053410Y-59726932D01*
X65249760Y-59626886D01*
X65428041Y-59497357D01*
X65583857Y-59341541D01*
X65713386Y-59163260D01*
X65813432Y-58966910D01*
X65881526Y-58757335D01*
X65916000Y-58539681D01*
X65916000Y-58279500D01*
X65064482Y-58279500D01*
X65075111Y-58261091D01*
X65116000Y-58108491D01*
X65116000Y-58029498D01*
X93910390Y-58029498D01*
X93910390Y-58029501D01*
X93930804Y-58314933D01*
X93991628Y-58594537D01*
X93991630Y-58594543D01*
X93991631Y-58594546D01*
X94052392Y-58757451D01*
X94091635Y-58862666D01*
X94228770Y-59113809D01*
X94228775Y-59113817D01*
X94400254Y-59342887D01*
X94400270Y-59342905D01*
X94602594Y-59545229D01*
X94602612Y-59545245D01*
X94831682Y-59716724D01*
X94831690Y-59716729D01*
X95082833Y-59853864D01*
X95082832Y-59853864D01*
X95082836Y-59853865D01*
X95082839Y-59853867D01*
X95350954Y-59953869D01*
X95350960Y-59953870D01*
X95350962Y-59953871D01*
X95630566Y-60014695D01*
X95630568Y-60014695D01*
X95630572Y-60014696D01*
X95884220Y-60032837D01*
X95915999Y-60035110D01*
X95916000Y-60035110D01*
X95916001Y-60035110D01*
X95944595Y-60033064D01*
X96201428Y-60014696D01*
X96481046Y-59953869D01*
X96749161Y-59853867D01*
X97000315Y-59716726D01*
X97229395Y-59545239D01*
X97431739Y-59342895D01*
X97603226Y-59113815D01*
X97740367Y-58862661D01*
X97840369Y-58594546D01*
X97901196Y-58314928D01*
X97921610Y-58029500D01*
X97901196Y-57744072D01*
X97859487Y-57552340D01*
X97840371Y-57464462D01*
X97840370Y-57464460D01*
X97840369Y-57464454D01*
X97740367Y-57196339D01*
X97683335Y-57091894D01*
X97603229Y-56945190D01*
X97603224Y-56945182D01*
X97431745Y-56716112D01*
X97431729Y-56716094D01*
X97229405Y-56513770D01*
X97229387Y-56513754D01*
X97000317Y-56342275D01*
X97000309Y-56342270D01*
X96749166Y-56205135D01*
X96749167Y-56205135D01*
X96624380Y-56158592D01*
X96481046Y-56105131D01*
X96481043Y-56105130D01*
X96481037Y-56105128D01*
X96201433Y-56044304D01*
X95916001Y-56023890D01*
X95915999Y-56023890D01*
X95630566Y-56044304D01*
X95350962Y-56105128D01*
X95082833Y-56205135D01*
X94831690Y-56342270D01*
X94831682Y-56342275D01*
X94602612Y-56513754D01*
X94602594Y-56513770D01*
X94400270Y-56716094D01*
X94400254Y-56716112D01*
X94228775Y-56945182D01*
X94228770Y-56945190D01*
X94091635Y-57196333D01*
X93991628Y-57464462D01*
X93930804Y-57744066D01*
X93910390Y-58029498D01*
X65116000Y-58029498D01*
X65116000Y-57950509D01*
X65075111Y-57797909D01*
X65064482Y-57779500D01*
X65916000Y-57779500D01*
X65916000Y-57519318D01*
X65881526Y-57301664D01*
X65813432Y-57092089D01*
X65713386Y-56895739D01*
X65583857Y-56717458D01*
X65428041Y-56561642D01*
X65249760Y-56432113D01*
X65053410Y-56332067D01*
X64843836Y-56263973D01*
X64766000Y-56251644D01*
X64766000Y-57481017D01*
X64747591Y-57470389D01*
X64594991Y-57429500D01*
X64437009Y-57429500D01*
X64284409Y-57470389D01*
X64266000Y-57481017D01*
X64266000Y-56251644D01*
X64188164Y-56263973D01*
X64188161Y-56263973D01*
X63978589Y-56332067D01*
X63782239Y-56432113D01*
X63603958Y-56561642D01*
X63448142Y-56717458D01*
X63448142Y-56717459D01*
X63346627Y-56857181D01*
X63291297Y-56899846D01*
X63221683Y-56905825D01*
X63159888Y-56873219D01*
X63145991Y-56857180D01*
X63044247Y-56717141D01*
X63044243Y-56717136D01*
X62888363Y-56561256D01*
X62888358Y-56561252D01*
X62764714Y-56471420D01*
X62722048Y-56416091D01*
X62716069Y-56346477D01*
X62748674Y-56284682D01*
X62749844Y-56283495D01*
X67017821Y-52015518D01*
X67079142Y-51982035D01*
X67148834Y-51987019D01*
X67204767Y-52028891D01*
X67229184Y-52094355D01*
X67229500Y-52103201D01*
X67229500Y-53704870D01*
X67229501Y-53704876D01*
X67235908Y-53764483D01*
X67286202Y-53899328D01*
X67286206Y-53899335D01*
X67372452Y-54014544D01*
X67372455Y-54014547D01*
X67487664Y-54100793D01*
X67487671Y-54100797D01*
X67622517Y-54151091D01*
X67622516Y-54151091D01*
X67629444Y-54151835D01*
X67682127Y-54157500D01*
X69477872Y-54157499D01*
X69537483Y-54151091D01*
X69672331Y-54100796D01*
X69787546Y-54014546D01*
X69873796Y-53899331D01*
X69922810Y-53767916D01*
X69964681Y-53711984D01*
X70030145Y-53687566D01*
X70098418Y-53702417D01*
X70126673Y-53723569D01*
X70248599Y-53845495D01*
X70345384Y-53913265D01*
X70442165Y-53981032D01*
X70442167Y-53981033D01*
X70442170Y-53981035D01*
X70656337Y-54080903D01*
X70656343Y-54080904D01*
X70656344Y-54080905D01*
X70711285Y-54095626D01*
X70884592Y-54142063D01*
X71061034Y-54157500D01*
X71119999Y-54162659D01*
X71120000Y-54162659D01*
X71120001Y-54162659D01*
X71178966Y-54157500D01*
X71355408Y-54142063D01*
X71583663Y-54080903D01*
X71797830Y-53981035D01*
X71991401Y-53845495D01*
X72158495Y-53678401D01*
X72277846Y-53507950D01*
X72288425Y-53492842D01*
X72343002Y-53449217D01*
X72412500Y-53442023D01*
X72474855Y-53473546D01*
X72491575Y-53492842D01*
X72621500Y-53678395D01*
X72621505Y-53678401D01*
X72788599Y-53845495D01*
X72885384Y-53913265D01*
X72982165Y-53981032D01*
X72982167Y-53981033D01*
X72982170Y-53981035D01*
X73196337Y-54080903D01*
X73196343Y-54080904D01*
X73196344Y-54080905D01*
X73251285Y-54095626D01*
X73424592Y-54142063D01*
X73601034Y-54157500D01*
X73659999Y-54162659D01*
X73660000Y-54162659D01*
X73660001Y-54162659D01*
X73718966Y-54157500D01*
X73895408Y-54142063D01*
X74123663Y-54080903D01*
X74337830Y-53981035D01*
X74531401Y-53845495D01*
X74698495Y-53678401D01*
X74817846Y-53507950D01*
X74828425Y-53492842D01*
X74883002Y-53449217D01*
X74952500Y-53442023D01*
X75014855Y-53473546D01*
X75031575Y-53492842D01*
X75161500Y-53678395D01*
X75161505Y-53678401D01*
X75328599Y-53845495D01*
X75425384Y-53913265D01*
X75522165Y-53981032D01*
X75522167Y-53981033D01*
X75522170Y-53981035D01*
X75736337Y-54080903D01*
X75736343Y-54080904D01*
X75736344Y-54080905D01*
X75791285Y-54095626D01*
X75964592Y-54142063D01*
X76141034Y-54157500D01*
X76199999Y-54162659D01*
X76200000Y-54162659D01*
X76200001Y-54162659D01*
X76258966Y-54157500D01*
X76435408Y-54142063D01*
X76663663Y-54080903D01*
X76877830Y-53981035D01*
X77071401Y-53845495D01*
X77238495Y-53678401D01*
X77357846Y-53507950D01*
X77368425Y-53492842D01*
X77423002Y-53449217D01*
X77492500Y-53442023D01*
X77554855Y-53473546D01*
X77571575Y-53492842D01*
X77701500Y-53678395D01*
X77701505Y-53678401D01*
X77868599Y-53845495D01*
X77965384Y-53913265D01*
X78062165Y-53981032D01*
X78062167Y-53981033D01*
X78062170Y-53981035D01*
X78276337Y-54080903D01*
X78276343Y-54080904D01*
X78276344Y-54080905D01*
X78331285Y-54095626D01*
X78504592Y-54142063D01*
X78681034Y-54157500D01*
X78739999Y-54162659D01*
X78740000Y-54162659D01*
X78740001Y-54162659D01*
X78798966Y-54157500D01*
X78975408Y-54142063D01*
X79203663Y-54080903D01*
X79417830Y-53981035D01*
X79611401Y-53845495D01*
X79778495Y-53678401D01*
X79897846Y-53507950D01*
X79908425Y-53492842D01*
X79963002Y-53449217D01*
X80032500Y-53442023D01*
X80094855Y-53473546D01*
X80111575Y-53492842D01*
X80241500Y-53678395D01*
X80241505Y-53678401D01*
X80408599Y-53845495D01*
X80505384Y-53913265D01*
X80602165Y-53981032D01*
X80602167Y-53981033D01*
X80602170Y-53981035D01*
X80816337Y-54080903D01*
X80816343Y-54080904D01*
X80816344Y-54080905D01*
X80871285Y-54095626D01*
X81044592Y-54142063D01*
X81221034Y-54157500D01*
X81279999Y-54162659D01*
X81280000Y-54162659D01*
X81280001Y-54162659D01*
X81338966Y-54157500D01*
X81515408Y-54142063D01*
X81743663Y-54080903D01*
X81957830Y-53981035D01*
X82151401Y-53845495D01*
X82318495Y-53678401D01*
X82437846Y-53507950D01*
X82448425Y-53492842D01*
X82503002Y-53449217D01*
X82572500Y-53442023D01*
X82634855Y-53473546D01*
X82651575Y-53492842D01*
X82781500Y-53678395D01*
X82781505Y-53678401D01*
X82948599Y-53845495D01*
X83045384Y-53913265D01*
X83142165Y-53981032D01*
X83142167Y-53981033D01*
X83142170Y-53981035D01*
X83356337Y-54080903D01*
X83356343Y-54080904D01*
X83356344Y-54080905D01*
X83411285Y-54095626D01*
X83584592Y-54142063D01*
X83761034Y-54157500D01*
X83819999Y-54162659D01*
X83820000Y-54162659D01*
X83820001Y-54162659D01*
X83878966Y-54157500D01*
X84055408Y-54142063D01*
X84283663Y-54080903D01*
X84497830Y-53981035D01*
X84691401Y-53845495D01*
X84858495Y-53678401D01*
X84977846Y-53507950D01*
X84988425Y-53492842D01*
X85043002Y-53449217D01*
X85112500Y-53442023D01*
X85174855Y-53473546D01*
X85191575Y-53492842D01*
X85321500Y-53678395D01*
X85321505Y-53678401D01*
X85488599Y-53845495D01*
X85585384Y-53913265D01*
X85682165Y-53981032D01*
X85682167Y-53981033D01*
X85682170Y-53981035D01*
X85896337Y-54080903D01*
X85896343Y-54080904D01*
X85896344Y-54080905D01*
X85951285Y-54095626D01*
X86124592Y-54142063D01*
X86301034Y-54157500D01*
X86359999Y-54162659D01*
X86360000Y-54162659D01*
X86360001Y-54162659D01*
X86418966Y-54157500D01*
X86595408Y-54142063D01*
X86823663Y-54080903D01*
X87037830Y-53981035D01*
X87231401Y-53845495D01*
X87398495Y-53678401D01*
X87517846Y-53507950D01*
X87528425Y-53492842D01*
X87583002Y-53449217D01*
X87652500Y-53442023D01*
X87714855Y-53473546D01*
X87731575Y-53492842D01*
X87861500Y-53678395D01*
X87861505Y-53678401D01*
X88028599Y-53845495D01*
X88125384Y-53913265D01*
X88222165Y-53981032D01*
X88222167Y-53981033D01*
X88222170Y-53981035D01*
X88436337Y-54080903D01*
X88436343Y-54080904D01*
X88436344Y-54080905D01*
X88491285Y-54095626D01*
X88664592Y-54142063D01*
X88841034Y-54157500D01*
X88899999Y-54162659D01*
X88900000Y-54162659D01*
X88900001Y-54162659D01*
X88958966Y-54157500D01*
X89135408Y-54142063D01*
X89363663Y-54080903D01*
X89577830Y-53981035D01*
X89771401Y-53845495D01*
X89938495Y-53678401D01*
X90057846Y-53507950D01*
X90068425Y-53492842D01*
X90123002Y-53449217D01*
X90192500Y-53442023D01*
X90254855Y-53473546D01*
X90271575Y-53492842D01*
X90401500Y-53678395D01*
X90401505Y-53678401D01*
X90568599Y-53845495D01*
X90665384Y-53913265D01*
X90762165Y-53981032D01*
X90762167Y-53981033D01*
X90762170Y-53981035D01*
X90976337Y-54080903D01*
X90976343Y-54080904D01*
X90976344Y-54080905D01*
X91031285Y-54095626D01*
X91204592Y-54142063D01*
X91381034Y-54157500D01*
X91439999Y-54162659D01*
X91440000Y-54162659D01*
X91440001Y-54162659D01*
X91498966Y-54157500D01*
X91675408Y-54142063D01*
X91903663Y-54080903D01*
X92117830Y-53981035D01*
X92311401Y-53845495D01*
X92478495Y-53678401D01*
X92597846Y-53507950D01*
X92608425Y-53492842D01*
X92663002Y-53449217D01*
X92732500Y-53442023D01*
X92794855Y-53473546D01*
X92811575Y-53492842D01*
X92941500Y-53678395D01*
X92941505Y-53678401D01*
X93108599Y-53845495D01*
X93205384Y-53913265D01*
X93302165Y-53981032D01*
X93302167Y-53981033D01*
X93302170Y-53981035D01*
X93516337Y-54080903D01*
X93516343Y-54080904D01*
X93516344Y-54080905D01*
X93571285Y-54095626D01*
X93744592Y-54142063D01*
X93921034Y-54157500D01*
X93979999Y-54162659D01*
X93980000Y-54162659D01*
X93980001Y-54162659D01*
X94038966Y-54157500D01*
X94215408Y-54142063D01*
X94443663Y-54080903D01*
X94657830Y-53981035D01*
X94851401Y-53845495D01*
X95018495Y-53678401D01*
X95137846Y-53507950D01*
X95148425Y-53492842D01*
X95203002Y-53449217D01*
X95272500Y-53442023D01*
X95334855Y-53473546D01*
X95351575Y-53492842D01*
X95481500Y-53678395D01*
X95481505Y-53678401D01*
X95648599Y-53845495D01*
X95745384Y-53913265D01*
X95842165Y-53981032D01*
X95842167Y-53981033D01*
X95842170Y-53981035D01*
X96056337Y-54080903D01*
X96056343Y-54080904D01*
X96056344Y-54080905D01*
X96111285Y-54095626D01*
X96284592Y-54142063D01*
X96461034Y-54157500D01*
X96519999Y-54162659D01*
X96520000Y-54162659D01*
X96520001Y-54162659D01*
X96578966Y-54157500D01*
X96755408Y-54142063D01*
X96983663Y-54080903D01*
X97197830Y-53981035D01*
X97391401Y-53845495D01*
X97558495Y-53678401D01*
X97694035Y-53484830D01*
X97793903Y-53270663D01*
X97855063Y-53042408D01*
X97875659Y-52807000D01*
X97855063Y-52571592D01*
X97793903Y-52343337D01*
X97694035Y-52129171D01*
X97688425Y-52121158D01*
X97558494Y-51935597D01*
X97391402Y-51768506D01*
X97391395Y-51768501D01*
X97388464Y-51766449D01*
X97314518Y-51714671D01*
X97197834Y-51632967D01*
X97197830Y-51632965D01*
X97197828Y-51632964D01*
X96983663Y-51533097D01*
X96983659Y-51533096D01*
X96983655Y-51533094D01*
X96755413Y-51471938D01*
X96755403Y-51471936D01*
X96520001Y-51451341D01*
X96519999Y-51451341D01*
X96284596Y-51471936D01*
X96284586Y-51471938D01*
X96056344Y-51533094D01*
X96056335Y-51533098D01*
X95842171Y-51632964D01*
X95842169Y-51632965D01*
X95648597Y-51768505D01*
X95481505Y-51935597D01*
X95351575Y-52121158D01*
X95296998Y-52164783D01*
X95227500Y-52171977D01*
X95165145Y-52140454D01*
X95148425Y-52121158D01*
X95018494Y-51935597D01*
X94851402Y-51768506D01*
X94851395Y-51768501D01*
X94848464Y-51766449D01*
X94774518Y-51714671D01*
X94657834Y-51632967D01*
X94657830Y-51632965D01*
X94657828Y-51632964D01*
X94443663Y-51533097D01*
X94443659Y-51533096D01*
X94443655Y-51533094D01*
X94215413Y-51471938D01*
X94215403Y-51471936D01*
X93980001Y-51451341D01*
X93979999Y-51451341D01*
X93744596Y-51471936D01*
X93744586Y-51471938D01*
X93516344Y-51533094D01*
X93516335Y-51533098D01*
X93302171Y-51632964D01*
X93302169Y-51632965D01*
X93108597Y-51768505D01*
X92941505Y-51935597D01*
X92811575Y-52121158D01*
X92756998Y-52164783D01*
X92687500Y-52171977D01*
X92625145Y-52140454D01*
X92608425Y-52121158D01*
X92478494Y-51935597D01*
X92311402Y-51768506D01*
X92311395Y-51768501D01*
X92308464Y-51766449D01*
X92234518Y-51714671D01*
X92117834Y-51632967D01*
X92117830Y-51632965D01*
X92117828Y-51632964D01*
X91903663Y-51533097D01*
X91903659Y-51533096D01*
X91903655Y-51533094D01*
X91675413Y-51471938D01*
X91675403Y-51471936D01*
X91440001Y-51451341D01*
X91439999Y-51451341D01*
X91204596Y-51471936D01*
X91204586Y-51471938D01*
X90976344Y-51533094D01*
X90976335Y-51533098D01*
X90762171Y-51632964D01*
X90762169Y-51632965D01*
X90568597Y-51768505D01*
X90401505Y-51935597D01*
X90271575Y-52121158D01*
X90216998Y-52164783D01*
X90147500Y-52171977D01*
X90085145Y-52140454D01*
X90068425Y-52121158D01*
X89938494Y-51935597D01*
X89771402Y-51768506D01*
X89771395Y-51768501D01*
X89768464Y-51766449D01*
X89694518Y-51714671D01*
X89577834Y-51632967D01*
X89577830Y-51632965D01*
X89577828Y-51632964D01*
X89363663Y-51533097D01*
X89363659Y-51533096D01*
X89363655Y-51533094D01*
X89135413Y-51471938D01*
X89135403Y-51471936D01*
X88900001Y-51451341D01*
X88899999Y-51451341D01*
X88664596Y-51471936D01*
X88664586Y-51471938D01*
X88436344Y-51533094D01*
X88436335Y-51533098D01*
X88222171Y-51632964D01*
X88222169Y-51632965D01*
X88028597Y-51768505D01*
X87861505Y-51935597D01*
X87731575Y-52121158D01*
X87676998Y-52164783D01*
X87607500Y-52171977D01*
X87545145Y-52140454D01*
X87528425Y-52121158D01*
X87398494Y-51935597D01*
X87231402Y-51768506D01*
X87231395Y-51768501D01*
X87228464Y-51766449D01*
X87154518Y-51714671D01*
X87037834Y-51632967D01*
X87037830Y-51632965D01*
X87037828Y-51632964D01*
X86823663Y-51533097D01*
X86823659Y-51533096D01*
X86823655Y-51533094D01*
X86595413Y-51471938D01*
X86595403Y-51471936D01*
X86360001Y-51451341D01*
X86359999Y-51451341D01*
X86124596Y-51471936D01*
X86124586Y-51471938D01*
X85896344Y-51533094D01*
X85896335Y-51533098D01*
X85682171Y-51632964D01*
X85682169Y-51632965D01*
X85488597Y-51768505D01*
X85321505Y-51935597D01*
X85191575Y-52121158D01*
X85136998Y-52164783D01*
X85067500Y-52171977D01*
X85005145Y-52140454D01*
X84988425Y-52121158D01*
X84858494Y-51935597D01*
X84691402Y-51768506D01*
X84691395Y-51768501D01*
X84688464Y-51766449D01*
X84614518Y-51714671D01*
X84497834Y-51632967D01*
X84497830Y-51632965D01*
X84497828Y-51632964D01*
X84283663Y-51533097D01*
X84283659Y-51533096D01*
X84283655Y-51533094D01*
X84055413Y-51471938D01*
X84055403Y-51471936D01*
X83820001Y-51451341D01*
X83819999Y-51451341D01*
X83584596Y-51471936D01*
X83584586Y-51471938D01*
X83356344Y-51533094D01*
X83356335Y-51533098D01*
X83142171Y-51632964D01*
X83142169Y-51632965D01*
X82948597Y-51768505D01*
X82781505Y-51935597D01*
X82651575Y-52121158D01*
X82596998Y-52164783D01*
X82527500Y-52171977D01*
X82465145Y-52140454D01*
X82448425Y-52121158D01*
X82318494Y-51935597D01*
X82151402Y-51768506D01*
X82151395Y-51768501D01*
X82148464Y-51766449D01*
X82074518Y-51714671D01*
X81957834Y-51632967D01*
X81957830Y-51632965D01*
X81957828Y-51632964D01*
X81743663Y-51533097D01*
X81743659Y-51533096D01*
X81743655Y-51533094D01*
X81515413Y-51471938D01*
X81515403Y-51471936D01*
X81280001Y-51451341D01*
X81279999Y-51451341D01*
X81044596Y-51471936D01*
X81044586Y-51471938D01*
X80816344Y-51533094D01*
X80816335Y-51533098D01*
X80602171Y-51632964D01*
X80602169Y-51632965D01*
X80408597Y-51768505D01*
X80241505Y-51935597D01*
X80111575Y-52121158D01*
X80056998Y-52164783D01*
X79987500Y-52171977D01*
X79925145Y-52140454D01*
X79908425Y-52121158D01*
X79778494Y-51935597D01*
X79611402Y-51768506D01*
X79611395Y-51768501D01*
X79608464Y-51766449D01*
X79534518Y-51714671D01*
X79417834Y-51632967D01*
X79417830Y-51632965D01*
X79417828Y-51632964D01*
X79203663Y-51533097D01*
X79203659Y-51533096D01*
X79203655Y-51533094D01*
X78975413Y-51471938D01*
X78975403Y-51471936D01*
X78740001Y-51451341D01*
X78739999Y-51451341D01*
X78504596Y-51471936D01*
X78504586Y-51471938D01*
X78276344Y-51533094D01*
X78276335Y-51533098D01*
X78062171Y-51632964D01*
X78062169Y-51632965D01*
X77868597Y-51768505D01*
X77701505Y-51935597D01*
X77571575Y-52121158D01*
X77516998Y-52164783D01*
X77447500Y-52171977D01*
X77385145Y-52140454D01*
X77368425Y-52121158D01*
X77238494Y-51935597D01*
X77071402Y-51768506D01*
X77071395Y-51768501D01*
X77068464Y-51766449D01*
X76994518Y-51714671D01*
X76877834Y-51632967D01*
X76877830Y-51632965D01*
X76877828Y-51632964D01*
X76663663Y-51533097D01*
X76663659Y-51533096D01*
X76663655Y-51533094D01*
X76435413Y-51471938D01*
X76435403Y-51471936D01*
X76200001Y-51451341D01*
X76199999Y-51451341D01*
X75964596Y-51471936D01*
X75964586Y-51471938D01*
X75736344Y-51533094D01*
X75736335Y-51533098D01*
X75522171Y-51632964D01*
X75522169Y-51632965D01*
X75328597Y-51768505D01*
X75161505Y-51935597D01*
X75031575Y-52121158D01*
X74976998Y-52164783D01*
X74907500Y-52171977D01*
X74845145Y-52140454D01*
X74828425Y-52121158D01*
X74698494Y-51935597D01*
X74531402Y-51768506D01*
X74531395Y-51768501D01*
X74528464Y-51766449D01*
X74454518Y-51714671D01*
X74337834Y-51632967D01*
X74337830Y-51632965D01*
X74337828Y-51632964D01*
X74123663Y-51533097D01*
X74123659Y-51533096D01*
X74123655Y-51533094D01*
X73895413Y-51471938D01*
X73895403Y-51471936D01*
X73660001Y-51451341D01*
X73659999Y-51451341D01*
X73424596Y-51471936D01*
X73424586Y-51471938D01*
X73196344Y-51533094D01*
X73196335Y-51533098D01*
X72982171Y-51632964D01*
X72982169Y-51632965D01*
X72788597Y-51768505D01*
X72621505Y-51935597D01*
X72491575Y-52121158D01*
X72436998Y-52164783D01*
X72367500Y-52171977D01*
X72305145Y-52140454D01*
X72288425Y-52121158D01*
X72158494Y-51935597D01*
X71991402Y-51768506D01*
X71991395Y-51768501D01*
X71988464Y-51766449D01*
X71914518Y-51714671D01*
X71797834Y-51632967D01*
X71797830Y-51632965D01*
X71797828Y-51632964D01*
X71583663Y-51533097D01*
X71583659Y-51533096D01*
X71583655Y-51533094D01*
X71355413Y-51471938D01*
X71355403Y-51471936D01*
X71120001Y-51451341D01*
X71119999Y-51451341D01*
X70884596Y-51471936D01*
X70884586Y-51471938D01*
X70656344Y-51533094D01*
X70656335Y-51533098D01*
X70442171Y-51632964D01*
X70442169Y-51632965D01*
X70248600Y-51768503D01*
X70126673Y-51890430D01*
X70065350Y-51923914D01*
X69995658Y-51918930D01*
X69939725Y-51877058D01*
X69922810Y-51846081D01*
X69873797Y-51714671D01*
X69873793Y-51714664D01*
X69787547Y-51599455D01*
X69787544Y-51599452D01*
X69672335Y-51513206D01*
X69672328Y-51513202D01*
X69537482Y-51462908D01*
X69537483Y-51462908D01*
X69477883Y-51456501D01*
X69477881Y-51456500D01*
X69477873Y-51456500D01*
X69477865Y-51456500D01*
X67876201Y-51456500D01*
X67809162Y-51436815D01*
X67763407Y-51384011D01*
X67753463Y-51314853D01*
X67782488Y-51251297D01*
X67788506Y-51244833D01*
X74548141Y-44485199D01*
X74619593Y-44378263D01*
X74651389Y-44301500D01*
X74668809Y-44259444D01*
X74677019Y-44218165D01*
X74693900Y-44133307D01*
X74693900Y-37839248D01*
X74712906Y-37773276D01*
X74732086Y-37742751D01*
X74766789Y-37687522D01*
X74826368Y-37517255D01*
X74826369Y-37517249D01*
X74846565Y-37338003D01*
X74846565Y-37337996D01*
X74826369Y-37158750D01*
X74826368Y-37158745D01*
X74779808Y-37025684D01*
X74766789Y-36988478D01*
X74670816Y-36835738D01*
X74562259Y-36727181D01*
X74528774Y-36665858D01*
X74533758Y-36596166D01*
X74562259Y-36551819D01*
X74584277Y-36529801D01*
X79587039Y-36529801D01*
X79669955Y-36573318D01*
X79835006Y-36614000D01*
X80004994Y-36614000D01*
X80170044Y-36573318D01*
X80252959Y-36529801D01*
X81587039Y-36529801D01*
X81669955Y-36573318D01*
X81835006Y-36614000D01*
X82004994Y-36614000D01*
X82170044Y-36573318D01*
X82252959Y-36529801D01*
X82587039Y-36529801D01*
X82669955Y-36573318D01*
X82835006Y-36614000D01*
X83004994Y-36614000D01*
X83170044Y-36573318D01*
X83252959Y-36529801D01*
X84587039Y-36529801D01*
X84669955Y-36573318D01*
X84835006Y-36614000D01*
X85004994Y-36614000D01*
X85170044Y-36573318D01*
X85252959Y-36529801D01*
X84920001Y-36196843D01*
X84920000Y-36196843D01*
X84587039Y-36529801D01*
X83252959Y-36529801D01*
X82920001Y-36196843D01*
X82920000Y-36196843D01*
X82587039Y-36529801D01*
X82252959Y-36529801D01*
X81920001Y-36196843D01*
X81920000Y-36196843D01*
X81587039Y-36529801D01*
X80252959Y-36529801D01*
X79920001Y-36196843D01*
X79920000Y-36196843D01*
X79587039Y-36529801D01*
X74584277Y-36529801D01*
X74670816Y-36443262D01*
X74766789Y-36290522D01*
X74826368Y-36120255D01*
X74838340Y-36014000D01*
X74846565Y-35941003D01*
X74846565Y-35940996D01*
X74843523Y-35913999D01*
X79214859Y-35913999D01*
X79214859Y-35914000D01*
X79235348Y-36082748D01*
X79235349Y-36082751D01*
X79295629Y-36241694D01*
X79301277Y-36249878D01*
X79637157Y-35914000D01*
X79637157Y-35913999D01*
X79617267Y-35894109D01*
X79820000Y-35894109D01*
X79820000Y-35933891D01*
X79835224Y-35970645D01*
X79863355Y-35998776D01*
X79900109Y-36014000D01*
X79939891Y-36014000D01*
X79976645Y-35998776D01*
X80004776Y-35970645D01*
X80020000Y-35933891D01*
X80020000Y-35913999D01*
X80202843Y-35913999D01*
X80202843Y-35914000D01*
X80538721Y-36249879D01*
X80544370Y-36241694D01*
X80604650Y-36082751D01*
X80604651Y-36082748D01*
X80625141Y-35914000D01*
X80625141Y-35913999D01*
X81214859Y-35913999D01*
X81214859Y-35914000D01*
X81235348Y-36082748D01*
X81235349Y-36082751D01*
X81295629Y-36241694D01*
X81301277Y-36249878D01*
X81637157Y-35914000D01*
X81637157Y-35913999D01*
X81617267Y-35894109D01*
X81820000Y-35894109D01*
X81820000Y-35933891D01*
X81835224Y-35970645D01*
X81863355Y-35998776D01*
X81900109Y-36014000D01*
X81939891Y-36014000D01*
X81976645Y-35998776D01*
X82004776Y-35970645D01*
X82020000Y-35933891D01*
X82020000Y-35914000D01*
X82202843Y-35914000D01*
X82420000Y-36131157D01*
X82637157Y-35914000D01*
X82617266Y-35894109D01*
X82820000Y-35894109D01*
X82820000Y-35933891D01*
X82835224Y-35970645D01*
X82863355Y-35998776D01*
X82900109Y-36014000D01*
X82939891Y-36014000D01*
X82976645Y-35998776D01*
X83004776Y-35970645D01*
X83020000Y-35933891D01*
X83020000Y-35913999D01*
X83202843Y-35913999D01*
X83202843Y-35914001D01*
X83538721Y-36249879D01*
X83544370Y-36241694D01*
X83604650Y-36082751D01*
X83604651Y-36082748D01*
X83625141Y-35914000D01*
X83625141Y-35913999D01*
X84214859Y-35913999D01*
X84214859Y-35914000D01*
X84235348Y-36082748D01*
X84235349Y-36082751D01*
X84295629Y-36241694D01*
X84301277Y-36249878D01*
X84637157Y-35914000D01*
X84637157Y-35913999D01*
X84617267Y-35894109D01*
X84820000Y-35894109D01*
X84820000Y-35933891D01*
X84835224Y-35970645D01*
X84863355Y-35998776D01*
X84900109Y-36014000D01*
X84939891Y-36014000D01*
X84976645Y-35998776D01*
X85004776Y-35970645D01*
X85020000Y-35933891D01*
X85020000Y-35913999D01*
X85202843Y-35913999D01*
X85202843Y-35914001D01*
X85538721Y-36249879D01*
X85544370Y-36241694D01*
X85604650Y-36082751D01*
X85604651Y-36082748D01*
X85625141Y-35914000D01*
X85625141Y-35913999D01*
X85604651Y-35745251D01*
X85604650Y-35745245D01*
X85544371Y-35586305D01*
X85538722Y-35578120D01*
X85202843Y-35913999D01*
X85020000Y-35913999D01*
X85020000Y-35894109D01*
X85004776Y-35857355D01*
X84976645Y-35829224D01*
X84939891Y-35814000D01*
X84900109Y-35814000D01*
X84863355Y-35829224D01*
X84835224Y-35857355D01*
X84820000Y-35894109D01*
X84617267Y-35894109D01*
X84301277Y-35578119D01*
X84295629Y-35586303D01*
X84295628Y-35586306D01*
X84235349Y-35745245D01*
X84235348Y-35745251D01*
X84214859Y-35913999D01*
X83625141Y-35913999D01*
X83604651Y-35745251D01*
X83604650Y-35745245D01*
X83544371Y-35586305D01*
X83538722Y-35578120D01*
X83538721Y-35578120D01*
X83202843Y-35913999D01*
X83020000Y-35913999D01*
X83020000Y-35894109D01*
X83004776Y-35857355D01*
X82976645Y-35829224D01*
X82939891Y-35814000D01*
X82900109Y-35814000D01*
X82863355Y-35829224D01*
X82835224Y-35857355D01*
X82820000Y-35894109D01*
X82617266Y-35894109D01*
X82420000Y-35696843D01*
X82202843Y-35914000D01*
X82020000Y-35914000D01*
X82020000Y-35894109D01*
X82004776Y-35857355D01*
X81976645Y-35829224D01*
X81939891Y-35814000D01*
X81900109Y-35814000D01*
X81863355Y-35829224D01*
X81835224Y-35857355D01*
X81820000Y-35894109D01*
X81617267Y-35894109D01*
X81301277Y-35578119D01*
X81295629Y-35586303D01*
X81295628Y-35586306D01*
X81235349Y-35745245D01*
X81235348Y-35745251D01*
X81214859Y-35913999D01*
X80625141Y-35913999D01*
X80604651Y-35745251D01*
X80604650Y-35745245D01*
X80544371Y-35586305D01*
X80538722Y-35578120D01*
X80538721Y-35578120D01*
X80202843Y-35913999D01*
X80020000Y-35913999D01*
X80020000Y-35894109D01*
X80004776Y-35857355D01*
X79976645Y-35829224D01*
X79939891Y-35814000D01*
X79900109Y-35814000D01*
X79863355Y-35829224D01*
X79835224Y-35857355D01*
X79820000Y-35894109D01*
X79617267Y-35894109D01*
X79301277Y-35578119D01*
X79295629Y-35586303D01*
X79295628Y-35586306D01*
X79235349Y-35745245D01*
X79235348Y-35745251D01*
X79214859Y-35913999D01*
X74843523Y-35913999D01*
X74826369Y-35761750D01*
X74826368Y-35761745D01*
X74813365Y-35724585D01*
X74766789Y-35591478D01*
X74763537Y-35586303D01*
X74727582Y-35529080D01*
X74670816Y-35438738D01*
X74562259Y-35330181D01*
X74544794Y-35298196D01*
X79587039Y-35298196D01*
X79920000Y-35631157D01*
X79920001Y-35631157D01*
X80252959Y-35298197D01*
X80252959Y-35298196D01*
X81587039Y-35298196D01*
X81920000Y-35631157D01*
X81920001Y-35631157D01*
X82252959Y-35298197D01*
X82252959Y-35298196D01*
X82587039Y-35298196D01*
X82920000Y-35631157D01*
X82920001Y-35631157D01*
X83252959Y-35298197D01*
X83252959Y-35298196D01*
X84587039Y-35298196D01*
X84920000Y-35631157D01*
X84920001Y-35631157D01*
X85252959Y-35298197D01*
X85252959Y-35298196D01*
X85170046Y-35254682D01*
X85004994Y-35214000D01*
X84835006Y-35214000D01*
X84669951Y-35254682D01*
X84587039Y-35298196D01*
X83252959Y-35298196D01*
X83170046Y-35254682D01*
X83004994Y-35214000D01*
X82835006Y-35214000D01*
X82669951Y-35254682D01*
X82587039Y-35298196D01*
X82252959Y-35298196D01*
X82170046Y-35254682D01*
X82004994Y-35214000D01*
X81835006Y-35214000D01*
X81669951Y-35254682D01*
X81587039Y-35298196D01*
X80252959Y-35298196D01*
X80170046Y-35254682D01*
X80004994Y-35214000D01*
X79835006Y-35214000D01*
X79669951Y-35254682D01*
X79587039Y-35298196D01*
X74544794Y-35298196D01*
X74528774Y-35268858D01*
X74533758Y-35199166D01*
X74562259Y-35154819D01*
X74670816Y-35046262D01*
X74766789Y-34893522D01*
X74826368Y-34723255D01*
X74828709Y-34702478D01*
X74846565Y-34544003D01*
X74846565Y-34543996D01*
X74844966Y-34529801D01*
X79587039Y-34529801D01*
X79669955Y-34573318D01*
X79835006Y-34614000D01*
X80004994Y-34614000D01*
X80170044Y-34573318D01*
X80252959Y-34529801D01*
X84587039Y-34529801D01*
X84669955Y-34573318D01*
X84835006Y-34614000D01*
X85004994Y-34614000D01*
X85170044Y-34573318D01*
X85252959Y-34529801D01*
X84920001Y-34196843D01*
X84920000Y-34196843D01*
X84587039Y-34529801D01*
X80252959Y-34529801D01*
X79920001Y-34196843D01*
X79920000Y-34196843D01*
X79587039Y-34529801D01*
X74844966Y-34529801D01*
X74826369Y-34364750D01*
X74826368Y-34364745D01*
X74811228Y-34321478D01*
X74766789Y-34194478D01*
X74750615Y-34168738D01*
X74670815Y-34041737D01*
X74543262Y-33914184D01*
X74542968Y-33913999D01*
X79214859Y-33913999D01*
X79214859Y-33914000D01*
X79235348Y-34082748D01*
X79235349Y-34082751D01*
X79295629Y-34241694D01*
X79301277Y-34249878D01*
X79637157Y-33914000D01*
X79637157Y-33913999D01*
X79617267Y-33894109D01*
X79820000Y-33894109D01*
X79820000Y-33933891D01*
X79835224Y-33970645D01*
X79863355Y-33998776D01*
X79900109Y-34014000D01*
X79939891Y-34014000D01*
X79976645Y-33998776D01*
X80004776Y-33970645D01*
X80020000Y-33933891D01*
X80020000Y-33913999D01*
X80202843Y-33913999D01*
X80202843Y-33914000D01*
X80538721Y-34249879D01*
X80544370Y-34241694D01*
X80604650Y-34082751D01*
X80604651Y-34082748D01*
X80625141Y-33914000D01*
X80625141Y-33913999D01*
X84214859Y-33913999D01*
X84214859Y-33914000D01*
X84235348Y-34082748D01*
X84235349Y-34082751D01*
X84295629Y-34241694D01*
X84301277Y-34249878D01*
X84637157Y-33914000D01*
X84637157Y-33913999D01*
X84617267Y-33894109D01*
X84820000Y-33894109D01*
X84820000Y-33933891D01*
X84835224Y-33970645D01*
X84863355Y-33998776D01*
X84900109Y-34014000D01*
X84939891Y-34014000D01*
X84976645Y-33998776D01*
X85004776Y-33970645D01*
X85020000Y-33933891D01*
X85020000Y-33913999D01*
X85202843Y-33913999D01*
X85202843Y-33914001D01*
X85538721Y-34249879D01*
X85544370Y-34241694D01*
X85604650Y-34082751D01*
X85604651Y-34082748D01*
X85625141Y-33914000D01*
X85625141Y-33913999D01*
X85604651Y-33745251D01*
X85604650Y-33745245D01*
X85544371Y-33586305D01*
X85538722Y-33578120D01*
X85538721Y-33578120D01*
X85202843Y-33913999D01*
X85020000Y-33913999D01*
X85020000Y-33894109D01*
X85004776Y-33857355D01*
X84976645Y-33829224D01*
X84939891Y-33814000D01*
X84900109Y-33814000D01*
X84863355Y-33829224D01*
X84835224Y-33857355D01*
X84820000Y-33894109D01*
X84617267Y-33894109D01*
X84301277Y-33578119D01*
X84295629Y-33586303D01*
X84295628Y-33586306D01*
X84235349Y-33745245D01*
X84235348Y-33745251D01*
X84214859Y-33913999D01*
X80625141Y-33913999D01*
X80604651Y-33745251D01*
X80604650Y-33745245D01*
X80544371Y-33586305D01*
X80538722Y-33578120D01*
X80202843Y-33913999D01*
X80020000Y-33913999D01*
X80020000Y-33894109D01*
X80004776Y-33857355D01*
X79976645Y-33829224D01*
X79939891Y-33814000D01*
X79900109Y-33814000D01*
X79863355Y-33829224D01*
X79835224Y-33857355D01*
X79820000Y-33894109D01*
X79617267Y-33894109D01*
X79301277Y-33578119D01*
X79295629Y-33586303D01*
X79295628Y-33586306D01*
X79235349Y-33745245D01*
X79235348Y-33745251D01*
X79214859Y-33913999D01*
X74542968Y-33913999D01*
X74390523Y-33818211D01*
X74220254Y-33758631D01*
X74220249Y-33758630D01*
X74041004Y-33738435D01*
X74040996Y-33738435D01*
X73861750Y-33758630D01*
X73861745Y-33758631D01*
X73691477Y-33818211D01*
X73605724Y-33872094D01*
X73539752Y-33891100D01*
X72960693Y-33891100D01*
X72834562Y-33916189D01*
X72834559Y-33916190D01*
X72834557Y-33916190D01*
X72834556Y-33916191D01*
X72828982Y-33918500D01*
X72828975Y-33918503D01*
X72828974Y-33918502D01*
X72715740Y-33965405D01*
X72715733Y-33965409D01*
X72608798Y-34036860D01*
X72608797Y-34036861D01*
X70866863Y-35778794D01*
X70866857Y-35778801D01*
X70814230Y-35857563D01*
X70814231Y-35857564D01*
X70795408Y-35885735D01*
X70746191Y-36004555D01*
X70746189Y-36004561D01*
X70721100Y-36130692D01*
X70721100Y-39937197D01*
X70701415Y-40004236D01*
X70684781Y-40024878D01*
X69599418Y-41110240D01*
X69538095Y-41143725D01*
X69468403Y-41138741D01*
X69412470Y-41096869D01*
X69394695Y-41063513D01*
X69368789Y-40989478D01*
X69272816Y-40836738D01*
X69145262Y-40709184D01*
X69091177Y-40675200D01*
X68992523Y-40613211D01*
X68822254Y-40553631D01*
X68822249Y-40553630D01*
X68643004Y-40533435D01*
X68642996Y-40533435D01*
X68463750Y-40553630D01*
X68463742Y-40553632D01*
X68364252Y-40588445D01*
X68294473Y-40592006D01*
X68233846Y-40557277D01*
X68201619Y-40495283D01*
X68208025Y-40425708D01*
X68235614Y-40383725D01*
X68555050Y-40064289D01*
X68616371Y-40030806D01*
X68628853Y-40028751D01*
X68632255Y-40028368D01*
X68802522Y-39968789D01*
X68955262Y-39872816D01*
X69082816Y-39745262D01*
X69178789Y-39592522D01*
X69238368Y-39422255D01*
X69258565Y-39243000D01*
X69254704Y-39208734D01*
X69238369Y-39063750D01*
X69238368Y-39063745D01*
X69186128Y-38914452D01*
X69178789Y-38893478D01*
X69142432Y-38835617D01*
X69082815Y-38740737D01*
X68955262Y-38613184D01*
X68802523Y-38517211D01*
X68632254Y-38457631D01*
X68632249Y-38457630D01*
X68453004Y-38437435D01*
X68452996Y-38437435D01*
X68273750Y-38457630D01*
X68273742Y-38457632D01*
X68174252Y-38492445D01*
X68104473Y-38496006D01*
X68043846Y-38461277D01*
X68011619Y-38399283D01*
X68018025Y-38329708D01*
X68045614Y-38287725D01*
X68555050Y-37778289D01*
X68616371Y-37744806D01*
X68628853Y-37742751D01*
X68632255Y-37742368D01*
X68802522Y-37682789D01*
X68955262Y-37586816D01*
X69082816Y-37459262D01*
X69178789Y-37306522D01*
X69238368Y-37136255D01*
X69243746Y-37088525D01*
X69258565Y-36957003D01*
X69258565Y-36956996D01*
X69238369Y-36777750D01*
X69238368Y-36777745D01*
X69218333Y-36720488D01*
X69178789Y-36607478D01*
X69082816Y-36454738D01*
X68955262Y-36327184D01*
X68901021Y-36293102D01*
X68802523Y-36231211D01*
X68632254Y-36171631D01*
X68632249Y-36171630D01*
X68453004Y-36151435D01*
X68452996Y-36151435D01*
X68273750Y-36171630D01*
X68273745Y-36171631D01*
X68103476Y-36231211D01*
X67971256Y-36314291D01*
X67904019Y-36333291D01*
X67837184Y-36312923D01*
X67791970Y-36259655D01*
X67782733Y-36190399D01*
X67812404Y-36127142D01*
X67817584Y-36121635D01*
X68446930Y-35492289D01*
X68508251Y-35458806D01*
X68520733Y-35456751D01*
X68524135Y-35456368D01*
X68694402Y-35396789D01*
X68847142Y-35300816D01*
X68974696Y-35173262D01*
X69070669Y-35020522D01*
X69130248Y-34850255D01*
X69130249Y-34850249D01*
X69150445Y-34671003D01*
X69150445Y-34670996D01*
X69130249Y-34491750D01*
X69130248Y-34491745D01*
X69105908Y-34422185D01*
X69070669Y-34321478D01*
X68974696Y-34168738D01*
X68847142Y-34041184D01*
X68803879Y-34014000D01*
X68694403Y-33945211D01*
X68524134Y-33885631D01*
X68524129Y-33885630D01*
X68344884Y-33865435D01*
X68344876Y-33865435D01*
X68165630Y-33885630D01*
X68165625Y-33885631D01*
X67995356Y-33945211D01*
X67842617Y-34041184D01*
X67715064Y-34168737D01*
X67619090Y-34321478D01*
X67565928Y-34473408D01*
X67559512Y-34491745D01*
X67559512Y-34491750D01*
X67559128Y-34495156D01*
X67558265Y-34497207D01*
X67557963Y-34498534D01*
X67557730Y-34498480D01*
X67532058Y-34559568D01*
X67523589Y-34568948D01*
X63665758Y-38426781D01*
X63604435Y-38460266D01*
X63578077Y-38463100D01*
X58387831Y-38463100D01*
X58320792Y-38443415D01*
X58275037Y-38390611D01*
X58265093Y-38321453D01*
X58294118Y-38257897D01*
X58318941Y-38235997D01*
X58323592Y-38232889D01*
X58428728Y-38162641D01*
X63177367Y-33414000D01*
X79702843Y-33414000D01*
X79920000Y-33631157D01*
X80137157Y-33414000D01*
X84702843Y-33414000D01*
X84920000Y-33631157D01*
X85137157Y-33414000D01*
X84920000Y-33196843D01*
X84702843Y-33414000D01*
X80137157Y-33414000D01*
X79920000Y-33196843D01*
X79702843Y-33414000D01*
X63177367Y-33414000D01*
X63677368Y-32913999D01*
X79214859Y-32913999D01*
X79214859Y-32914000D01*
X79235348Y-33082748D01*
X79235349Y-33082751D01*
X79295629Y-33241694D01*
X79301277Y-33249878D01*
X79637157Y-32914000D01*
X79637157Y-32913999D01*
X79617267Y-32894109D01*
X79820000Y-32894109D01*
X79820000Y-32933891D01*
X79835224Y-32970645D01*
X79863355Y-32998776D01*
X79900109Y-33014000D01*
X79939891Y-33014000D01*
X79976645Y-32998776D01*
X80004776Y-32970645D01*
X80020000Y-32933891D01*
X80020000Y-32913999D01*
X80202843Y-32913999D01*
X80202843Y-32914001D01*
X80538721Y-33249879D01*
X80544370Y-33241694D01*
X80604650Y-33082751D01*
X80604651Y-33082748D01*
X80625141Y-32914000D01*
X80625141Y-32913999D01*
X84214859Y-32913999D01*
X84214859Y-32914000D01*
X84235348Y-33082748D01*
X84235349Y-33082751D01*
X84295629Y-33241694D01*
X84301277Y-33249878D01*
X84637157Y-32914000D01*
X84637157Y-32913999D01*
X84617267Y-32894109D01*
X84820000Y-32894109D01*
X84820000Y-32933891D01*
X84835224Y-32970645D01*
X84863355Y-32998776D01*
X84900109Y-33014000D01*
X84939891Y-33014000D01*
X84976645Y-32998776D01*
X85004776Y-32970645D01*
X85020000Y-32933891D01*
X85020000Y-32913999D01*
X85202843Y-32913999D01*
X85202843Y-32914001D01*
X85538721Y-33249879D01*
X85544370Y-33241694D01*
X85604650Y-33082751D01*
X85604651Y-33082748D01*
X85625141Y-32914000D01*
X85625141Y-32913999D01*
X85604651Y-32745251D01*
X85604650Y-32745245D01*
X85544371Y-32586305D01*
X85538722Y-32578120D01*
X85538721Y-32578120D01*
X85202843Y-32913999D01*
X85020000Y-32913999D01*
X85020000Y-32894109D01*
X85004776Y-32857355D01*
X84976645Y-32829224D01*
X84939891Y-32814000D01*
X84900109Y-32814000D01*
X84863355Y-32829224D01*
X84835224Y-32857355D01*
X84820000Y-32894109D01*
X84617267Y-32894109D01*
X84301277Y-32578119D01*
X84295629Y-32586303D01*
X84295628Y-32586306D01*
X84235349Y-32745245D01*
X84235348Y-32745251D01*
X84214859Y-32913999D01*
X80625141Y-32913999D01*
X80604651Y-32745251D01*
X80604650Y-32745245D01*
X80544371Y-32586305D01*
X80538722Y-32578120D01*
X80202843Y-32913999D01*
X80020000Y-32913999D01*
X80020000Y-32894109D01*
X80004776Y-32857355D01*
X79976645Y-32829224D01*
X79939891Y-32814000D01*
X79900109Y-32814000D01*
X79863355Y-32829224D01*
X79835224Y-32857355D01*
X79820000Y-32894109D01*
X79617267Y-32894109D01*
X79301277Y-32578119D01*
X79295629Y-32586303D01*
X79295628Y-32586306D01*
X79235349Y-32745245D01*
X79235348Y-32745251D01*
X79214859Y-32913999D01*
X63677368Y-32913999D01*
X64293171Y-32298196D01*
X79587039Y-32298196D01*
X79920000Y-32631157D01*
X79920001Y-32631157D01*
X80252959Y-32298197D01*
X80252959Y-32298196D01*
X84587039Y-32298196D01*
X84920000Y-32631157D01*
X84920001Y-32631157D01*
X85252959Y-32298197D01*
X85252959Y-32298196D01*
X85170046Y-32254682D01*
X85004994Y-32214000D01*
X84835006Y-32214000D01*
X84669951Y-32254682D01*
X84587039Y-32298196D01*
X80252959Y-32298196D01*
X80170046Y-32254682D01*
X80004994Y-32214000D01*
X79835006Y-32214000D01*
X79669951Y-32254682D01*
X79587039Y-32298196D01*
X64293171Y-32298196D01*
X64914149Y-31677218D01*
X64975472Y-31643734D01*
X65001830Y-31640900D01*
X78894279Y-31640900D01*
X78981671Y-31623516D01*
X79020416Y-31615809D01*
X79139236Y-31566592D01*
X79147864Y-31560827D01*
X79159220Y-31553240D01*
X79194299Y-31529801D01*
X79587039Y-31529801D01*
X79669955Y-31573318D01*
X79835006Y-31614000D01*
X80004994Y-31614000D01*
X80170044Y-31573318D01*
X80252959Y-31529801D01*
X81587039Y-31529801D01*
X81669955Y-31573318D01*
X81835006Y-31614000D01*
X82004994Y-31614000D01*
X82170044Y-31573318D01*
X82252959Y-31529801D01*
X82587039Y-31529801D01*
X82669955Y-31573318D01*
X82835006Y-31614000D01*
X83004994Y-31614000D01*
X83170044Y-31573318D01*
X83252959Y-31529801D01*
X84587039Y-31529801D01*
X84669955Y-31573318D01*
X84835006Y-31614000D01*
X85004994Y-31614000D01*
X85170044Y-31573318D01*
X85252959Y-31529801D01*
X84920001Y-31196843D01*
X84920000Y-31196843D01*
X84587039Y-31529801D01*
X83252959Y-31529801D01*
X82920001Y-31196843D01*
X82920000Y-31196843D01*
X82587039Y-31529801D01*
X82252959Y-31529801D01*
X81920001Y-31196843D01*
X81920000Y-31196843D01*
X81587039Y-31529801D01*
X80252959Y-31529801D01*
X79920001Y-31196843D01*
X79920000Y-31196843D01*
X79587039Y-31529801D01*
X79194299Y-31529801D01*
X79228097Y-31507218D01*
X79246172Y-31495141D01*
X79820000Y-30921312D01*
X79820000Y-30933891D01*
X79835224Y-30970645D01*
X79863355Y-30998776D01*
X79900109Y-31014000D01*
X79939891Y-31014000D01*
X79976645Y-30998776D01*
X80004776Y-30970645D01*
X80020000Y-30933891D01*
X80020000Y-30894109D01*
X80004776Y-30857355D01*
X79976645Y-30829224D01*
X79939891Y-30814000D01*
X79927312Y-30814000D01*
X79927398Y-30813913D01*
X79988719Y-30780430D01*
X80058410Y-30785414D01*
X80102758Y-30813915D01*
X80538721Y-31249879D01*
X80544370Y-31241694D01*
X80604650Y-31082751D01*
X80604651Y-31082748D01*
X80625141Y-30914000D01*
X80625141Y-30913999D01*
X80604505Y-30744046D01*
X80615965Y-30675123D01*
X80662869Y-30623337D01*
X80727601Y-30605100D01*
X81112399Y-30605100D01*
X81179438Y-30624785D01*
X81225193Y-30677589D01*
X81235495Y-30744046D01*
X81214859Y-30913999D01*
X81214859Y-30914000D01*
X81235348Y-31082748D01*
X81235349Y-31082751D01*
X81295629Y-31241694D01*
X81301277Y-31249878D01*
X81657047Y-30894109D01*
X81820000Y-30894109D01*
X81820000Y-30933891D01*
X81835224Y-30970645D01*
X81863355Y-30998776D01*
X81900109Y-31014000D01*
X81939891Y-31014000D01*
X81976645Y-30998776D01*
X82004776Y-30970645D01*
X82020000Y-30933891D01*
X82020000Y-30894109D01*
X82004776Y-30857355D01*
X81976645Y-30829224D01*
X81939891Y-30814000D01*
X81900109Y-30814000D01*
X81863355Y-30829224D01*
X81835224Y-30857355D01*
X81820000Y-30894109D01*
X81657047Y-30894109D01*
X81909738Y-30641419D01*
X81971061Y-30607934D01*
X81997419Y-30605100D01*
X82212381Y-30605100D01*
X82279420Y-30624785D01*
X82325175Y-30677589D01*
X82335119Y-30746747D01*
X82306094Y-30810303D01*
X82300062Y-30816781D01*
X82202843Y-30914000D01*
X82420000Y-31131157D01*
X82637157Y-30914000D01*
X82617266Y-30894109D01*
X82820000Y-30894109D01*
X82820000Y-30933891D01*
X82835224Y-30970645D01*
X82863355Y-30998776D01*
X82900109Y-31014000D01*
X82939891Y-31014000D01*
X82976645Y-30998776D01*
X83004776Y-30970645D01*
X83020000Y-30933891D01*
X83020000Y-30894109D01*
X83004776Y-30857355D01*
X82976645Y-30829224D01*
X82939891Y-30814000D01*
X82900109Y-30814000D01*
X82863355Y-30829224D01*
X82835224Y-30857355D01*
X82820000Y-30894109D01*
X82617266Y-30894109D01*
X82539938Y-30816781D01*
X82506453Y-30755458D01*
X82511437Y-30685766D01*
X82553309Y-30629833D01*
X82618773Y-30605416D01*
X82627619Y-30605100D01*
X82842581Y-30605100D01*
X82909620Y-30624785D01*
X82930262Y-30641419D01*
X83538721Y-31249879D01*
X83544370Y-31241694D01*
X83604650Y-31082751D01*
X83604651Y-31082748D01*
X83625141Y-30914000D01*
X83625141Y-30913999D01*
X83604505Y-30744046D01*
X83615965Y-30675123D01*
X83662869Y-30623337D01*
X83727601Y-30605100D01*
X84112399Y-30605100D01*
X84179438Y-30624785D01*
X84225193Y-30677589D01*
X84235495Y-30744046D01*
X84214859Y-30913999D01*
X84214859Y-30914000D01*
X84235348Y-31082748D01*
X84235349Y-31082751D01*
X84295629Y-31241694D01*
X84301277Y-31249878D01*
X84657047Y-30894109D01*
X84820000Y-30894109D01*
X84820000Y-30933891D01*
X84835224Y-30970645D01*
X84863355Y-30998776D01*
X84900109Y-31014000D01*
X84939891Y-31014000D01*
X84976645Y-30998776D01*
X85004776Y-30970645D01*
X85020000Y-30933891D01*
X85020000Y-30894109D01*
X85004776Y-30857355D01*
X84976645Y-30829224D01*
X84939891Y-30814000D01*
X84900109Y-30814000D01*
X84863355Y-30829224D01*
X84835224Y-30857355D01*
X84820000Y-30894109D01*
X84657047Y-30894109D01*
X84832318Y-30718838D01*
X84893641Y-30685353D01*
X84963333Y-30690337D01*
X85007680Y-30718838D01*
X85538721Y-31249879D01*
X85544370Y-31241694D01*
X85604650Y-31082751D01*
X85604651Y-31082748D01*
X85625141Y-30914000D01*
X85625141Y-30913999D01*
X85604505Y-30744046D01*
X85615965Y-30675123D01*
X85662869Y-30623337D01*
X85727601Y-30605100D01*
X90336397Y-30605100D01*
X90403436Y-30624785D01*
X90424078Y-30641419D01*
X90618708Y-30836049D01*
X90652193Y-30897372D01*
X90654246Y-30909834D01*
X90654631Y-30913248D01*
X90654632Y-30913255D01*
X90714210Y-31083521D01*
X90716825Y-31087682D01*
X90810184Y-31236262D01*
X90937738Y-31363816D01*
X91090478Y-31459789D01*
X91191511Y-31495142D01*
X91260745Y-31519368D01*
X91260750Y-31519369D01*
X91439996Y-31539565D01*
X91440000Y-31539565D01*
X91440004Y-31539565D01*
X91619249Y-31519369D01*
X91619252Y-31519368D01*
X91619255Y-31519368D01*
X91789522Y-31459789D01*
X91942262Y-31363816D01*
X92069816Y-31236262D01*
X92165789Y-31083522D01*
X92225368Y-30913255D01*
X92225369Y-30913248D01*
X92245565Y-30734003D01*
X92245565Y-30733996D01*
X92225369Y-30554750D01*
X92225368Y-30554745D01*
X92165788Y-30384476D01*
X92072051Y-30235295D01*
X92069816Y-30231738D01*
X92024759Y-30186681D01*
X91991274Y-30125358D01*
X91996258Y-30055666D01*
X92024759Y-30011319D01*
X92030582Y-30005496D01*
X92069816Y-29966262D01*
X92165789Y-29813522D01*
X92225368Y-29643255D01*
X92238742Y-29524558D01*
X92245565Y-29464003D01*
X92245565Y-29463996D01*
X92225369Y-29284750D01*
X92225368Y-29284745D01*
X92212024Y-29246611D01*
X92165789Y-29114478D01*
X92069816Y-28961738D01*
X91942262Y-28834184D01*
X91789521Y-28738210D01*
X91619255Y-28678632D01*
X91619249Y-28678631D01*
X91615833Y-28678246D01*
X91613779Y-28677382D01*
X91612466Y-28677083D01*
X91612518Y-28676852D01*
X91551422Y-28651171D01*
X91542050Y-28642708D01*
X91094204Y-28194862D01*
X91094200Y-28194859D01*
X90987264Y-28123408D01*
X90977235Y-28119254D01*
X90868444Y-28074191D01*
X90868440Y-28074190D01*
X90863399Y-28073187D01*
X90858357Y-28072184D01*
X90858354Y-28072183D01*
X90858354Y-28072184D01*
X90742307Y-28049100D01*
X90742305Y-28049100D01*
X77532695Y-28049100D01*
X77532693Y-28049100D01*
X77416651Y-28072183D01*
X77416646Y-28072184D01*
X77406556Y-28074191D01*
X77406555Y-28074191D01*
X77287737Y-28123407D01*
X77180797Y-28194861D01*
X77180796Y-28194862D01*
X76092878Y-29282781D01*
X76031555Y-29316266D01*
X76005197Y-29319100D01*
X72233602Y-29319100D01*
X72166563Y-29299415D01*
X72120808Y-29246611D01*
X72110864Y-29177453D01*
X72139889Y-29113897D01*
X72145901Y-29107438D01*
X72238051Y-29015288D01*
X72299370Y-28981806D01*
X72311853Y-28979751D01*
X72315255Y-28979368D01*
X72485522Y-28919789D01*
X72638262Y-28823816D01*
X72765816Y-28696262D01*
X72861789Y-28543522D01*
X72921368Y-28373255D01*
X72921369Y-28373249D01*
X72941565Y-28194003D01*
X72941565Y-28193996D01*
X72921369Y-28014750D01*
X72921368Y-28014745D01*
X72895215Y-27940003D01*
X72861789Y-27844478D01*
X72765816Y-27691738D01*
X72638262Y-27564184D01*
X72497226Y-27475565D01*
X72485521Y-27468210D01*
X72396161Y-27436942D01*
X72339384Y-27396220D01*
X72313637Y-27331267D01*
X72327093Y-27262706D01*
X72375480Y-27212303D01*
X72437115Y-27195900D01*
X90991197Y-27195900D01*
X91058236Y-27215585D01*
X91078878Y-27232219D01*
X94560781Y-30714121D01*
X94594266Y-30775444D01*
X94597100Y-30801802D01*
X94597100Y-41080197D01*
X94577415Y-41147236D01*
X94560781Y-41167878D01*
X94385950Y-41342708D01*
X94324627Y-41376193D01*
X94312156Y-41378247D01*
X94308749Y-41378630D01*
X94138478Y-41438210D01*
X93985737Y-41534184D01*
X93858184Y-41661737D01*
X93762211Y-41814476D01*
X93702631Y-41984745D01*
X93702630Y-41984750D01*
X93682435Y-42163996D01*
X93682435Y-42164003D01*
X93702630Y-42343249D01*
X93702631Y-42343254D01*
X93762211Y-42513523D01*
X93791605Y-42560303D01*
X93858184Y-42666262D01*
X93985738Y-42793816D01*
X94138478Y-42889789D01*
X94308745Y-42949368D01*
X94308750Y-42949369D01*
X94487996Y-42969565D01*
X94488000Y-42969565D01*
X94488004Y-42969565D01*
X94667249Y-42949369D01*
X94667252Y-42949368D01*
X94667255Y-42949368D01*
X94837522Y-42889789D01*
X94990262Y-42793816D01*
X95117816Y-42666262D01*
X95213789Y-42513522D01*
X95273368Y-42343255D01*
X95273751Y-42339850D01*
X95274612Y-42337800D01*
X95274917Y-42336468D01*
X95275150Y-42336521D01*
X95300813Y-42275437D01*
X95309271Y-42266067D01*
X95757141Y-41818199D01*
X95828592Y-41711264D01*
X95849106Y-41661738D01*
X95877809Y-41592444D01*
X95902900Y-41466305D01*
X95902900Y-30415695D01*
X95902900Y-30415692D01*
X95877810Y-30289561D01*
X95877809Y-30289560D01*
X95877809Y-30289556D01*
X95828592Y-30170736D01*
X95757141Y-30063801D01*
X95757139Y-30063798D01*
X95757136Y-30063795D01*
X92722140Y-27028798D01*
X93909870Y-27028798D01*
X93909870Y-27028801D01*
X93930284Y-27314233D01*
X93991108Y-27593837D01*
X93991110Y-27593843D01*
X93991111Y-27593846D01*
X94084592Y-27844478D01*
X94091115Y-27861966D01*
X94228250Y-28113109D01*
X94228255Y-28113117D01*
X94399734Y-28342187D01*
X94399750Y-28342205D01*
X94602074Y-28544529D01*
X94602092Y-28544545D01*
X94831162Y-28716024D01*
X94831170Y-28716029D01*
X95082313Y-28853164D01*
X95082312Y-28853164D01*
X95082316Y-28853165D01*
X95082319Y-28853167D01*
X95350434Y-28953169D01*
X95350440Y-28953170D01*
X95350442Y-28953171D01*
X95630046Y-29013995D01*
X95630048Y-29013995D01*
X95630052Y-29013996D01*
X95883700Y-29032137D01*
X95915479Y-29034410D01*
X95915480Y-29034410D01*
X95915481Y-29034410D01*
X95944075Y-29032364D01*
X96200908Y-29013996D01*
X96348884Y-28981806D01*
X96480517Y-28953171D01*
X96480517Y-28953170D01*
X96480526Y-28953169D01*
X96748641Y-28853167D01*
X96999795Y-28716026D01*
X97228875Y-28544539D01*
X97431219Y-28342195D01*
X97602706Y-28113115D01*
X97739847Y-27861961D01*
X97839849Y-27593846D01*
X97845332Y-27568642D01*
X97900675Y-27314233D01*
X97900675Y-27314232D01*
X97900676Y-27314228D01*
X97921090Y-27028800D01*
X97920426Y-27019522D01*
X97908249Y-26849255D01*
X97900676Y-26743372D01*
X97839849Y-26463754D01*
X97739847Y-26195639D01*
X97724611Y-26167737D01*
X97602709Y-25944490D01*
X97602704Y-25944482D01*
X97431225Y-25715412D01*
X97431209Y-25715394D01*
X97228885Y-25513070D01*
X97228867Y-25513054D01*
X96999797Y-25341575D01*
X96999789Y-25341570D01*
X96748646Y-25204435D01*
X96748647Y-25204435D01*
X96641395Y-25164432D01*
X96480526Y-25104431D01*
X96480523Y-25104430D01*
X96480517Y-25104428D01*
X96200913Y-25043604D01*
X95915481Y-25023190D01*
X95915479Y-25023190D01*
X95630046Y-25043604D01*
X95350442Y-25104428D01*
X95082313Y-25204435D01*
X94831170Y-25341570D01*
X94831162Y-25341575D01*
X94602092Y-25513054D01*
X94602074Y-25513070D01*
X94399750Y-25715394D01*
X94399734Y-25715412D01*
X94228255Y-25944482D01*
X94228250Y-25944490D01*
X94091115Y-26195633D01*
X93991108Y-26463762D01*
X93930284Y-26743366D01*
X93909870Y-27028798D01*
X92722140Y-27028798D01*
X91729205Y-26035863D01*
X91729204Y-26035862D01*
X91729200Y-26035859D01*
X91622264Y-25964408D01*
X91573504Y-25944211D01*
X91503444Y-25915191D01*
X91503438Y-25915189D01*
X91377307Y-25890100D01*
X91377305Y-25890100D01*
X54825951Y-25890100D01*
X54796299Y-25885062D01*
X54796044Y-25886181D01*
X54789253Y-25884631D01*
X54610004Y-25864435D01*
X54609996Y-25864435D01*
X54430750Y-25884630D01*
X54430745Y-25884631D01*
X54260476Y-25944211D01*
X54107737Y-26040184D01*
X53980184Y-26167737D01*
X53884211Y-26320476D01*
X53824631Y-26490745D01*
X53824630Y-26490750D01*
X53804435Y-26669996D01*
X53804435Y-26670003D01*
X53824630Y-26849249D01*
X53824631Y-26849254D01*
X53884211Y-27019523D01*
X53890041Y-27028801D01*
X53980184Y-27172262D01*
X54107738Y-27299816D01*
X54260478Y-27395789D01*
X54430745Y-27455368D01*
X54430750Y-27455369D01*
X54609996Y-27475565D01*
X54610000Y-27475565D01*
X54610004Y-27475565D01*
X54789249Y-27455369D01*
X54789252Y-27455368D01*
X54789255Y-27455368D01*
X54959522Y-27395789D01*
X55112262Y-27299816D01*
X55179859Y-27232219D01*
X55241182Y-27198734D01*
X55267540Y-27195900D01*
X63574660Y-27195900D01*
X63641699Y-27215585D01*
X63687454Y-27268389D01*
X63697398Y-27337547D01*
X63668373Y-27401103D01*
X63662341Y-27407581D01*
X63632184Y-27437737D01*
X63536211Y-27590476D01*
X63476631Y-27760745D01*
X63476630Y-27760750D01*
X63456435Y-27939996D01*
X63456435Y-27940003D01*
X63476630Y-28119249D01*
X63476631Y-28119254D01*
X63536211Y-28289523D01*
X63569314Y-28342205D01*
X63632184Y-28442262D01*
X63759738Y-28569816D01*
X63912478Y-28665789D01*
X63912479Y-28665789D01*
X63913440Y-28666393D01*
X63959731Y-28718728D01*
X63970688Y-28757503D01*
X63984630Y-28881250D01*
X63984631Y-28881254D01*
X64044211Y-29051523D01*
X64092974Y-29129128D01*
X64111974Y-29196365D01*
X64091606Y-29263200D01*
X64038339Y-29308414D01*
X63987980Y-29319100D01*
X58863693Y-29319100D01*
X58737561Y-29344189D01*
X58737555Y-29344191D01*
X58618736Y-29393407D01*
X58511798Y-29464860D01*
X58511795Y-29464863D01*
X52597878Y-35378781D01*
X52536555Y-35412266D01*
X52510197Y-35415100D01*
X41872603Y-35415100D01*
X41805564Y-35395415D01*
X41784922Y-35378781D01*
X40951005Y-34544863D01*
X40951004Y-34544862D01*
X40951000Y-34544859D01*
X40844064Y-34473408D01*
X40725244Y-34424191D01*
X40725240Y-34424190D01*
X40720199Y-34423187D01*
X40715157Y-34422184D01*
X40715154Y-34422183D01*
X40715154Y-34422184D01*
X40599107Y-34399100D01*
X40599105Y-34399100D01*
X39622946Y-34399100D01*
X39556974Y-34380094D01*
X39471220Y-34326211D01*
X39300952Y-34266631D01*
X39300947Y-34266630D01*
X39121702Y-34246435D01*
X39121694Y-34246435D01*
X38942448Y-34266630D01*
X38942443Y-34266631D01*
X38772174Y-34326211D01*
X38619435Y-34422184D01*
X38491882Y-34549737D01*
X38395909Y-34702476D01*
X38336329Y-34872745D01*
X38336328Y-34872750D01*
X38316133Y-35051996D01*
X38316133Y-35052003D01*
X38336328Y-35231249D01*
X38336329Y-35231254D01*
X38395909Y-35401523D01*
X38435467Y-35464478D01*
X38491882Y-35554262D01*
X38619436Y-35681816D01*
X38772176Y-35777789D01*
X38875650Y-35813996D01*
X38942443Y-35837368D01*
X38942448Y-35837369D01*
X39121694Y-35857565D01*
X39121698Y-35857565D01*
X39121702Y-35857565D01*
X39300947Y-35837369D01*
X39300950Y-35837368D01*
X39300953Y-35837368D01*
X39471220Y-35777789D01*
X39556974Y-35723905D01*
X39622946Y-35704900D01*
X40212997Y-35704900D01*
X40280036Y-35724585D01*
X40300678Y-35741219D01*
X41134594Y-36575136D01*
X41134601Y-36575142D01*
X41229714Y-36638694D01*
X41229715Y-36638694D01*
X41241536Y-36646592D01*
X41360356Y-36695809D01*
X41360360Y-36695809D01*
X41360361Y-36695810D01*
X41486492Y-36720900D01*
X41486495Y-36720900D01*
X52896307Y-36720900D01*
X52981165Y-36704019D01*
X53022444Y-36695809D01*
X53141264Y-36646592D01*
X53149126Y-36641338D01*
X53153085Y-36638694D01*
X53200641Y-36606918D01*
X53248200Y-36575141D01*
X59162121Y-30661218D01*
X59223444Y-30627734D01*
X59249802Y-30624900D01*
X63820426Y-30624900D01*
X63887465Y-30644585D01*
X63933220Y-30697389D01*
X63943164Y-30766547D01*
X63914139Y-30830103D01*
X63908107Y-30836580D01*
X60830688Y-33913999D01*
X57778406Y-36966281D01*
X57717083Y-36999766D01*
X57690725Y-37002600D01*
X36569248Y-37002600D01*
X36503276Y-36983594D01*
X36417522Y-36929711D01*
X36247254Y-36870131D01*
X36247249Y-36870130D01*
X36068004Y-36849935D01*
X36067996Y-36849935D01*
X35888750Y-36870130D01*
X35888745Y-36870131D01*
X35718476Y-36929711D01*
X35565737Y-37025684D01*
X35438184Y-37153237D01*
X35342211Y-37305976D01*
X35282631Y-37476245D01*
X35282630Y-37476250D01*
X35262435Y-37655496D01*
X35262435Y-37655503D01*
X35282630Y-37834749D01*
X35282631Y-37834754D01*
X35342211Y-38005023D01*
X35438184Y-38157762D01*
X35565738Y-38285316D01*
X35718478Y-38381289D01*
X35848487Y-38426781D01*
X35888745Y-38440868D01*
X35888749Y-38440869D01*
X35969509Y-38449967D01*
X36027462Y-38456497D01*
X36091875Y-38483563D01*
X36131430Y-38541157D01*
X36133569Y-38610994D01*
X36101259Y-38667398D01*
X30781180Y-43987478D01*
X30719857Y-44020963D01*
X30650165Y-44015979D01*
X30594232Y-43974107D01*
X30569815Y-43908643D01*
X30569499Y-43899797D01*
X30569499Y-43419129D01*
X30569498Y-43419123D01*
X30569497Y-43419116D01*
X30563091Y-43359517D01*
X30512796Y-43224669D01*
X30512795Y-43224668D01*
X30512793Y-43224664D01*
X30426547Y-43109455D01*
X30426544Y-43109452D01*
X30311335Y-43023206D01*
X30311328Y-43023202D01*
X30176482Y-42972908D01*
X30176483Y-42972908D01*
X30116883Y-42966501D01*
X30116881Y-42966500D01*
X30116873Y-42966500D01*
X30116864Y-42966500D01*
X28563129Y-42966500D01*
X28563123Y-42966501D01*
X28503516Y-42972908D01*
X28368671Y-43023202D01*
X28368664Y-43023206D01*
X28253455Y-43109452D01*
X28253452Y-43109455D01*
X28167206Y-43224664D01*
X28167202Y-43224671D01*
X28116908Y-43359517D01*
X28110877Y-43415622D01*
X28110501Y-43419123D01*
X28110500Y-43419135D01*
X28110500Y-44972870D01*
X28110501Y-44972876D01*
X28116908Y-45032483D01*
X28167202Y-45167328D01*
X28167206Y-45167335D01*
X28253452Y-45282544D01*
X28253455Y-45282547D01*
X28368664Y-45368793D01*
X28368671Y-45368797D01*
X28503517Y-45419091D01*
X28503516Y-45419091D01*
X28510444Y-45419835D01*
X28563127Y-45425500D01*
X28681806Y-45425499D01*
X28748844Y-45445183D01*
X28794599Y-45497987D01*
X28804543Y-45567145D01*
X28775519Y-45630701D01*
X28734217Y-45661878D01*
X28722902Y-45667154D01*
X28722897Y-45667157D01*
X28546672Y-45790551D01*
X28394551Y-45942672D01*
X28271157Y-46118897D01*
X28271155Y-46118901D01*
X28180236Y-46313878D01*
X28180232Y-46313887D01*
X28124555Y-46521678D01*
X28124553Y-46521689D01*
X28105804Y-46735998D01*
X28105804Y-46736001D01*
X28124553Y-46950310D01*
X28124555Y-46950321D01*
X28180232Y-47158112D01*
X28180234Y-47158116D01*
X28180235Y-47158120D01*
X28205673Y-47212672D01*
X28271155Y-47353098D01*
X28271157Y-47353102D01*
X28394551Y-47529327D01*
X28546672Y-47681448D01*
X28722897Y-47804842D01*
X28722899Y-47804843D01*
X28722902Y-47804845D01*
X28913276Y-47893618D01*
X28965715Y-47939790D01*
X28984867Y-48006984D01*
X28964651Y-48073865D01*
X28913276Y-48118382D01*
X28722901Y-48207155D01*
X28722897Y-48207157D01*
X28546672Y-48330551D01*
X28394551Y-48482672D01*
X28271157Y-48658897D01*
X28271155Y-48658901D01*
X28180236Y-48853878D01*
X28180232Y-48853887D01*
X28124555Y-49061678D01*
X28124553Y-49061689D01*
X28105804Y-49275998D01*
X28105804Y-49276001D01*
X28124553Y-49490310D01*
X28124555Y-49490321D01*
X28180232Y-49698112D01*
X28180234Y-49698116D01*
X28180235Y-49698120D01*
X28271155Y-49893098D01*
X28271157Y-49893102D01*
X28394551Y-50069327D01*
X28546672Y-50221448D01*
X28722897Y-50344842D01*
X28722899Y-50344843D01*
X28722902Y-50344845D01*
X28913276Y-50433618D01*
X28965715Y-50479790D01*
X28984867Y-50546984D01*
X28964651Y-50613865D01*
X28913276Y-50658382D01*
X28722901Y-50747155D01*
X28722897Y-50747157D01*
X28546672Y-50870551D01*
X28394551Y-51022672D01*
X28271157Y-51198897D01*
X28271155Y-51198901D01*
X28180236Y-51393878D01*
X28180232Y-51393887D01*
X28124555Y-51601678D01*
X28124553Y-51601689D01*
X28105804Y-51815998D01*
X28105804Y-51816001D01*
X28124553Y-52030310D01*
X28124555Y-52030321D01*
X28180232Y-52238112D01*
X28180234Y-52238116D01*
X28180235Y-52238120D01*
X28269834Y-52430266D01*
X28271155Y-52433098D01*
X28271156Y-52433100D01*
X28394551Y-52609327D01*
X28546672Y-52761448D01*
X28722897Y-52884842D01*
X28722899Y-52884843D01*
X28722902Y-52884845D01*
X28917880Y-52975765D01*
X29125684Y-53031446D01*
X29278766Y-53044838D01*
X29339998Y-53050196D01*
X29340000Y-53050196D01*
X29340002Y-53050196D01*
X29393579Y-53045508D01*
X29554316Y-53031446D01*
X29762120Y-52975765D01*
X29957098Y-52884845D01*
X30133326Y-52761449D01*
X30285449Y-52609326D01*
X30338280Y-52533875D01*
X30408844Y-52433100D01*
X30408844Y-52433099D01*
X30408845Y-52433098D01*
X30499765Y-52238120D01*
X30555446Y-52030316D01*
X30574196Y-51816000D01*
X30555446Y-51601684D01*
X30499765Y-51393880D01*
X30408845Y-51198902D01*
X30408843Y-51198899D01*
X30408842Y-51198897D01*
X30285448Y-51022672D01*
X30133327Y-50870551D01*
X29957102Y-50747157D01*
X29957098Y-50747155D01*
X29766721Y-50658380D01*
X29714284Y-50612210D01*
X29695132Y-50545016D01*
X29715348Y-50478135D01*
X29766721Y-50433619D01*
X29957098Y-50344845D01*
X30133326Y-50221449D01*
X30285449Y-50069326D01*
X30346751Y-49981776D01*
X30401327Y-49938152D01*
X30448326Y-49928900D01*
X30616515Y-49928900D01*
X30683554Y-49948585D01*
X30729309Y-50001389D01*
X30739253Y-50070547D01*
X30728897Y-50105305D01*
X30720235Y-50123878D01*
X30720232Y-50123887D01*
X30664555Y-50331678D01*
X30664553Y-50331689D01*
X30645804Y-50545998D01*
X30645804Y-50546001D01*
X30664553Y-50760310D01*
X30664555Y-50760321D01*
X30720232Y-50968112D01*
X30720234Y-50968116D01*
X30720235Y-50968120D01*
X30745673Y-51022672D01*
X30811155Y-51163098D01*
X30811157Y-51163102D01*
X30934551Y-51339327D01*
X31086672Y-51491448D01*
X31262897Y-51614842D01*
X31262899Y-51614843D01*
X31262902Y-51614845D01*
X31453866Y-51703893D01*
X31506305Y-51750065D01*
X31525457Y-51817259D01*
X31505241Y-51884140D01*
X31453866Y-51928657D01*
X31263149Y-52017590D01*
X31205506Y-52057952D01*
X31205505Y-52057953D01*
X31771002Y-52623449D01*
X31696657Y-52643370D01*
X31588343Y-52705905D01*
X31499905Y-52794343D01*
X31437370Y-52902657D01*
X31417449Y-52977002D01*
X30851953Y-52411505D01*
X30851952Y-52411506D01*
X30811591Y-52469149D01*
X30720706Y-52664049D01*
X30720703Y-52664058D01*
X30665049Y-52871765D01*
X30665047Y-52871775D01*
X30646305Y-53085999D01*
X30646305Y-53086000D01*
X30665047Y-53300224D01*
X30665049Y-53300234D01*
X30720703Y-53507941D01*
X30720707Y-53507950D01*
X30811588Y-53702846D01*
X30811589Y-53702848D01*
X30851952Y-53760492D01*
X30851953Y-53760493D01*
X31417449Y-53194996D01*
X31437370Y-53269343D01*
X31499905Y-53377657D01*
X31588343Y-53466095D01*
X31696657Y-53528630D01*
X31771002Y-53548550D01*
X31205505Y-54114046D01*
X31263153Y-54154411D01*
X31458049Y-54245292D01*
X31458058Y-54245296D01*
X31665765Y-54300950D01*
X31665775Y-54300952D01*
X31879999Y-54319695D01*
X31880001Y-54319695D01*
X32096179Y-54300781D01*
X32164679Y-54314547D01*
X32214862Y-54363162D01*
X32230796Y-54431191D01*
X32207421Y-54497035D01*
X32194668Y-54511990D01*
X30899963Y-55806694D01*
X30899962Y-55806695D01*
X30828507Y-55913637D01*
X30779291Y-56032455D01*
X30779289Y-56032461D01*
X30754200Y-56158592D01*
X30754200Y-56374154D01*
X30734515Y-56441193D01*
X30703085Y-56474472D01*
X30583641Y-56561252D01*
X30583636Y-56561256D01*
X30427756Y-56717136D01*
X30427752Y-56717141D01*
X30326318Y-56856754D01*
X30270988Y-56899420D01*
X30201375Y-56905399D01*
X30139580Y-56872793D01*
X30125682Y-56856754D01*
X30024247Y-56717141D01*
X30024243Y-56717136D01*
X29868363Y-56561256D01*
X29868358Y-56561252D01*
X29690025Y-56431687D01*
X29690024Y-56431686D01*
X29690022Y-56431685D01*
X29627096Y-56399622D01*
X29493606Y-56331604D01*
X29493603Y-56331603D01*
X29283952Y-56263485D01*
X29155719Y-56243175D01*
X29066222Y-56229000D01*
X28845778Y-56229000D01*
X28773201Y-56240495D01*
X28628047Y-56263485D01*
X28418396Y-56331603D01*
X28418393Y-56331604D01*
X28221974Y-56431687D01*
X28043641Y-56561252D01*
X28043636Y-56561256D01*
X27993075Y-56611817D01*
X27931752Y-56645301D01*
X27862060Y-56640316D01*
X27806127Y-56598445D01*
X27789213Y-56567468D01*
X27759354Y-56487413D01*
X27759350Y-56487406D01*
X27673190Y-56372312D01*
X27673187Y-56372309D01*
X27558093Y-56286149D01*
X27558086Y-56286145D01*
X27423379Y-56235903D01*
X27423372Y-56235901D01*
X27363844Y-56229500D01*
X26666000Y-56229500D01*
X26666000Y-57481017D01*
X26647591Y-57470389D01*
X26494991Y-57429500D01*
X26337009Y-57429500D01*
X26184409Y-57470389D01*
X26166000Y-57481017D01*
X26166000Y-56229500D01*
X25468155Y-56229500D01*
X25408627Y-56235901D01*
X25408620Y-56235903D01*
X25273913Y-56286145D01*
X25273906Y-56286149D01*
X25158812Y-56372309D01*
X25158809Y-56372312D01*
X25072649Y-56487406D01*
X25072645Y-56487413D01*
X25022403Y-56622120D01*
X25022401Y-56622127D01*
X25016000Y-56681655D01*
X22398190Y-56681655D01*
X22230305Y-56513770D01*
X22230287Y-56513754D01*
X22001217Y-56342275D01*
X22001209Y-56342270D01*
X21750066Y-56205135D01*
X21750067Y-56205135D01*
X21625280Y-56158592D01*
X21481946Y-56105131D01*
X21481943Y-56105130D01*
X21481937Y-56105128D01*
X21202333Y-56044304D01*
X20916901Y-56023890D01*
X20916899Y-56023890D01*
X20631466Y-56044304D01*
X20351862Y-56105128D01*
X20083733Y-56205135D01*
X19832590Y-56342270D01*
X19832582Y-56342275D01*
X19603512Y-56513754D01*
X19603494Y-56513770D01*
X19401170Y-56716094D01*
X19401154Y-56716112D01*
X19229675Y-56945182D01*
X19229670Y-56945190D01*
X19092535Y-57196333D01*
X18992528Y-57464462D01*
X18931704Y-57744066D01*
X18911290Y-58029498D01*
X18494500Y-58029498D01*
X18494500Y-54255616D01*
X23584500Y-54255616D01*
X23584500Y-54456384D01*
X23593307Y-54511990D01*
X23615907Y-54654680D01*
X23677949Y-54845626D01*
X23769095Y-55024508D01*
X23887103Y-55186932D01*
X24029068Y-55328897D01*
X24191492Y-55446905D01*
X24276007Y-55489967D01*
X24370373Y-55538050D01*
X24370375Y-55538050D01*
X24370378Y-55538052D01*
X24561320Y-55600093D01*
X24759616Y-55631500D01*
X24759617Y-55631500D01*
X24960383Y-55631500D01*
X24960384Y-55631500D01*
X25158680Y-55600093D01*
X25349622Y-55538052D01*
X25528508Y-55446905D01*
X25690932Y-55328897D01*
X25832897Y-55186932D01*
X25950905Y-55024508D01*
X26042052Y-54845622D01*
X26104093Y-54654680D01*
X26135500Y-54456384D01*
X26135500Y-54255616D01*
X26104093Y-54057320D01*
X26042052Y-53866378D01*
X26042050Y-53866375D01*
X26042050Y-53866373D01*
X25969287Y-53723569D01*
X25950905Y-53687492D01*
X25832897Y-53525068D01*
X25690932Y-53383103D01*
X25528508Y-53265095D01*
X25349626Y-53173949D01*
X25158680Y-53111907D01*
X24960384Y-53080500D01*
X24759616Y-53080500D01*
X24660468Y-53096203D01*
X24561319Y-53111907D01*
X24370373Y-53173949D01*
X24191491Y-53265095D01*
X24140450Y-53302179D01*
X24029068Y-53383103D01*
X24029066Y-53383105D01*
X24029065Y-53383105D01*
X23887105Y-53525065D01*
X23887105Y-53525066D01*
X23887103Y-53525068D01*
X23853953Y-53570695D01*
X23769095Y-53687491D01*
X23677949Y-53866373D01*
X23615907Y-54057319D01*
X23607691Y-54109191D01*
X23584500Y-54255616D01*
X18494500Y-54255616D01*
X18494500Y-42825616D01*
X23584500Y-42825616D01*
X23584500Y-43026383D01*
X23615907Y-43224680D01*
X23677949Y-43415626D01*
X23769095Y-43594508D01*
X23887103Y-43756932D01*
X24029068Y-43898897D01*
X24191492Y-44016905D01*
X24276007Y-44059967D01*
X24370373Y-44108050D01*
X24370375Y-44108050D01*
X24370378Y-44108052D01*
X24561320Y-44170093D01*
X24759616Y-44201500D01*
X24759617Y-44201500D01*
X24960383Y-44201500D01*
X24960384Y-44201500D01*
X25158680Y-44170093D01*
X25349622Y-44108052D01*
X25528508Y-44016905D01*
X25690932Y-43898897D01*
X25832897Y-43756932D01*
X25950905Y-43594508D01*
X26042052Y-43415622D01*
X26104093Y-43224680D01*
X26135500Y-43026384D01*
X26135500Y-42825616D01*
X26104093Y-42627320D01*
X26042052Y-42436378D01*
X26042050Y-42436375D01*
X26042050Y-42436373D01*
X25950904Y-42257491D01*
X25832897Y-42095068D01*
X25690932Y-41953103D01*
X25528508Y-41835095D01*
X25488041Y-41814476D01*
X25349626Y-41743949D01*
X25158680Y-41681907D01*
X24960384Y-41650500D01*
X24759616Y-41650500D01*
X24688662Y-41661738D01*
X24561319Y-41681907D01*
X24370373Y-41743949D01*
X24191491Y-41835095D01*
X24098822Y-41902423D01*
X24029068Y-41953103D01*
X24029066Y-41953105D01*
X24029065Y-41953105D01*
X23887105Y-42095065D01*
X23887105Y-42095066D01*
X23887103Y-42095068D01*
X23857580Y-42135703D01*
X23769095Y-42257491D01*
X23677949Y-42436373D01*
X23615907Y-42627319D01*
X23584500Y-42825616D01*
X18494500Y-42825616D01*
X18494500Y-38356000D01*
X19298261Y-38356000D01*
X20256012Y-38356000D01*
X20238795Y-38365940D01*
X20182940Y-38421795D01*
X20143444Y-38490204D01*
X20123000Y-38566504D01*
X20123000Y-38645496D01*
X20143444Y-38721796D01*
X20182940Y-38790205D01*
X20238795Y-38846060D01*
X20256012Y-38856000D01*
X19298261Y-38856000D01*
X19301315Y-38875285D01*
X19301318Y-38875295D01*
X19357250Y-39047441D01*
X19357252Y-39047447D01*
X19439434Y-39208734D01*
X19545823Y-39355169D01*
X19673830Y-39483176D01*
X19820265Y-39589565D01*
X19981552Y-39671747D01*
X19981555Y-39671748D01*
X20153706Y-39727682D01*
X20332494Y-39756000D01*
X20823000Y-39756000D01*
X20823000Y-38906000D01*
X21323000Y-38906000D01*
X21323000Y-39756000D01*
X21813506Y-39756000D01*
X21992293Y-39727682D01*
X22164444Y-39671748D01*
X22164447Y-39671747D01*
X22325734Y-39589565D01*
X22472169Y-39483176D01*
X22600176Y-39355169D01*
X22706565Y-39208734D01*
X22788747Y-39047447D01*
X22788749Y-39047441D01*
X22844681Y-38875295D01*
X22844684Y-38875285D01*
X22847739Y-38856000D01*
X21889988Y-38856000D01*
X21907205Y-38846060D01*
X21963060Y-38790205D01*
X22002556Y-38721796D01*
X22023000Y-38645496D01*
X22023000Y-38566504D01*
X22002556Y-38490204D01*
X21963060Y-38421795D01*
X21907205Y-38365940D01*
X21889988Y-38356000D01*
X22847739Y-38356000D01*
X23273261Y-38356000D01*
X24231012Y-38356000D01*
X24213795Y-38365940D01*
X24157940Y-38421795D01*
X24118444Y-38490204D01*
X24098000Y-38566504D01*
X24098000Y-38645496D01*
X24118444Y-38721796D01*
X24157940Y-38790205D01*
X24213795Y-38846060D01*
X24231012Y-38856000D01*
X23273261Y-38856000D01*
X23276315Y-38875285D01*
X23276318Y-38875295D01*
X23332250Y-39047441D01*
X23332252Y-39047447D01*
X23414434Y-39208734D01*
X23520823Y-39355169D01*
X23648830Y-39483176D01*
X23795265Y-39589565D01*
X23956552Y-39671747D01*
X23956555Y-39671748D01*
X24128706Y-39727682D01*
X24307494Y-39756000D01*
X24648000Y-39756000D01*
X24648000Y-38906000D01*
X25148000Y-38906000D01*
X25148000Y-39756000D01*
X25488506Y-39756000D01*
X25667293Y-39727682D01*
X25839444Y-39671748D01*
X25839447Y-39671747D01*
X26000734Y-39589565D01*
X26147169Y-39483176D01*
X26275176Y-39355169D01*
X26381565Y-39208734D01*
X26463747Y-39047447D01*
X26463749Y-39047441D01*
X26519681Y-38875295D01*
X26519684Y-38875285D01*
X26522739Y-38856000D01*
X25564988Y-38856000D01*
X25582205Y-38846060D01*
X25638060Y-38790205D01*
X25677556Y-38721796D01*
X25698000Y-38645496D01*
X25698000Y-38566504D01*
X25677556Y-38490204D01*
X25638060Y-38421795D01*
X25582205Y-38365940D01*
X25564988Y-38356000D01*
X26522739Y-38356000D01*
X26519684Y-38336714D01*
X26519681Y-38336704D01*
X26463749Y-38164558D01*
X26463747Y-38164552D01*
X26381565Y-38003265D01*
X26275176Y-37856830D01*
X26147169Y-37728823D01*
X26000734Y-37622434D01*
X25839447Y-37540252D01*
X25839444Y-37540251D01*
X25667293Y-37484317D01*
X25488506Y-37456000D01*
X25148000Y-37456000D01*
X25148000Y-38306000D01*
X24648000Y-38306000D01*
X24648000Y-37722500D01*
X24664614Y-37660498D01*
X24667502Y-37655496D01*
X24685984Y-37623485D01*
X24723500Y-37483475D01*
X24723500Y-37088525D01*
X24685984Y-36948515D01*
X24675127Y-36929711D01*
X24613511Y-36822988D01*
X24613506Y-36822982D01*
X24511017Y-36720493D01*
X24511011Y-36720488D01*
X24385488Y-36648017D01*
X24385489Y-36648017D01*
X24353703Y-36639500D01*
X24245475Y-36610500D01*
X24100525Y-36610500D01*
X23992297Y-36639500D01*
X23960511Y-36648017D01*
X23834988Y-36720488D01*
X23834982Y-36720493D01*
X23732493Y-36822982D01*
X23732488Y-36822988D01*
X23660017Y-36948511D01*
X23660016Y-36948515D01*
X23622500Y-37088525D01*
X23622500Y-37483475D01*
X23660016Y-37623485D01*
X23660017Y-37623487D01*
X23661384Y-37628588D01*
X23659721Y-37698438D01*
X23629291Y-37748363D01*
X23520822Y-37856832D01*
X23414434Y-38003265D01*
X23332252Y-38164552D01*
X23332250Y-38164558D01*
X23276318Y-38336704D01*
X23276315Y-38336714D01*
X23273261Y-38356000D01*
X22847739Y-38356000D01*
X22844684Y-38336714D01*
X22844681Y-38336704D01*
X22788749Y-38164558D01*
X22788747Y-38164552D01*
X22706565Y-38003265D01*
X22600176Y-37856830D01*
X22472169Y-37728823D01*
X22325734Y-37622434D01*
X22164447Y-37540252D01*
X22164444Y-37540251D01*
X21992293Y-37484317D01*
X21813506Y-37456000D01*
X21323000Y-37456000D01*
X21323000Y-38306000D01*
X20823000Y-38306000D01*
X20823000Y-37456000D01*
X20332494Y-37456000D01*
X20153706Y-37484317D01*
X19981555Y-37540251D01*
X19981552Y-37540252D01*
X19820265Y-37622434D01*
X19673830Y-37728823D01*
X19545823Y-37856830D01*
X19439434Y-38003265D01*
X19357252Y-38164552D01*
X19357250Y-38164558D01*
X19301318Y-38336704D01*
X19301315Y-38336714D01*
X19298261Y-38356000D01*
X18494500Y-38356000D01*
X18494500Y-27028798D01*
X18911290Y-27028798D01*
X18911290Y-27028801D01*
X18931704Y-27314233D01*
X18992528Y-27593837D01*
X18992530Y-27593843D01*
X18992531Y-27593846D01*
X19086012Y-27844478D01*
X19092535Y-27861966D01*
X19229670Y-28113109D01*
X19229675Y-28113117D01*
X19401154Y-28342187D01*
X19401170Y-28342205D01*
X19603494Y-28544529D01*
X19603512Y-28544545D01*
X19832582Y-28716024D01*
X19832595Y-28716032D01*
X19872760Y-28737964D01*
X19922166Y-28787369D01*
X19937018Y-28855642D01*
X19912601Y-28921106D01*
X19869630Y-28957280D01*
X19820267Y-28982432D01*
X19673830Y-29088823D01*
X19545823Y-29216830D01*
X19439434Y-29363265D01*
X19357252Y-29524552D01*
X19357250Y-29524558D01*
X19301318Y-29696704D01*
X19301315Y-29696714D01*
X19298261Y-29716000D01*
X20256012Y-29716000D01*
X20238795Y-29725940D01*
X20182940Y-29781795D01*
X20143444Y-29850204D01*
X20123000Y-29926504D01*
X20123000Y-30005496D01*
X20143444Y-30081796D01*
X20182940Y-30150205D01*
X20238795Y-30206060D01*
X20256012Y-30216000D01*
X19298261Y-30216000D01*
X19301315Y-30235285D01*
X19301318Y-30235295D01*
X19357250Y-30407441D01*
X19357252Y-30407447D01*
X19439434Y-30568734D01*
X19545823Y-30715169D01*
X19673830Y-30843176D01*
X19820265Y-30949565D01*
X19981552Y-31031747D01*
X19981555Y-31031748D01*
X20153706Y-31087682D01*
X20332494Y-31116000D01*
X20823000Y-31116000D01*
X20823000Y-30266000D01*
X21323000Y-30266000D01*
X21323000Y-31116000D01*
X21813506Y-31116000D01*
X21992293Y-31087682D01*
X22164444Y-31031748D01*
X22164447Y-31031747D01*
X22325734Y-30949565D01*
X22472169Y-30843176D01*
X22600176Y-30715169D01*
X22706565Y-30568734D01*
X22788747Y-30407447D01*
X22788749Y-30407441D01*
X22844681Y-30235295D01*
X22844684Y-30235285D01*
X22847739Y-30216000D01*
X21889988Y-30216000D01*
X21907205Y-30206060D01*
X21963060Y-30150205D01*
X22002556Y-30081796D01*
X22023000Y-30005496D01*
X22023000Y-29926504D01*
X22002556Y-29850204D01*
X21963060Y-29781795D01*
X21907205Y-29725940D01*
X21889988Y-29716000D01*
X22847739Y-29716000D01*
X23273261Y-29716000D01*
X24231012Y-29716000D01*
X24213795Y-29725940D01*
X24157940Y-29781795D01*
X24118444Y-29850204D01*
X24098000Y-29926504D01*
X24098000Y-30005496D01*
X24118444Y-30081796D01*
X24157940Y-30150205D01*
X24213795Y-30206060D01*
X24231012Y-30216000D01*
X23273261Y-30216000D01*
X23276315Y-30235285D01*
X23276318Y-30235295D01*
X23332250Y-30407441D01*
X23332252Y-30407447D01*
X23414434Y-30568734D01*
X23520823Y-30715169D01*
X23648826Y-30843172D01*
X23648831Y-30843176D01*
X23660070Y-30851342D01*
X23702736Y-30906672D01*
X23708715Y-30976285D01*
X23694573Y-31013659D01*
X23660017Y-31073512D01*
X23660017Y-31073513D01*
X23660016Y-31073515D01*
X23622500Y-31213525D01*
X23622500Y-31358475D01*
X23660016Y-31498485D01*
X23660017Y-31498486D01*
X23662120Y-31506335D01*
X23658823Y-31507218D01*
X23664555Y-31561071D01*
X23633213Y-31623516D01*
X23630241Y-31626593D01*
X23627274Y-31629560D01*
X23627269Y-31629566D01*
X23531294Y-31782308D01*
X23471714Y-31952577D01*
X23471713Y-31952582D01*
X23451518Y-32131828D01*
X23451518Y-32131835D01*
X23471713Y-32311081D01*
X23471714Y-32311086D01*
X23531294Y-32481354D01*
X23585177Y-32567108D01*
X23604183Y-32633080D01*
X23604183Y-33846388D01*
X23604183Y-33846390D01*
X23604182Y-33846390D01*
X23623840Y-33945211D01*
X23625758Y-33954852D01*
X23629274Y-33972527D01*
X23678491Y-34091347D01*
X23747400Y-34194478D01*
X23749945Y-34198287D01*
X23749946Y-34198288D01*
X25467708Y-35916049D01*
X25501193Y-35977372D01*
X25503246Y-35989834D01*
X25503631Y-35993248D01*
X25503632Y-35993255D01*
X25563210Y-36163521D01*
X25568306Y-36171631D01*
X25659184Y-36316262D01*
X25786738Y-36443816D01*
X25939478Y-36539789D01*
X26040511Y-36575142D01*
X26109745Y-36599368D01*
X26109750Y-36599369D01*
X26288996Y-36619565D01*
X26289000Y-36619565D01*
X26289004Y-36619565D01*
X26468249Y-36599369D01*
X26468252Y-36599368D01*
X26468255Y-36599368D01*
X26638522Y-36539789D01*
X26791262Y-36443816D01*
X26918816Y-36316262D01*
X27014789Y-36163522D01*
X27074368Y-35993255D01*
X27074369Y-35993248D01*
X27094565Y-35814003D01*
X27094565Y-35813996D01*
X27074369Y-35634750D01*
X27074368Y-35634745D01*
X27014789Y-35464478D01*
X26998615Y-35438738D01*
X26972257Y-35396789D01*
X26918816Y-35311738D01*
X26791262Y-35184184D01*
X26638521Y-35088210D01*
X26468255Y-35028632D01*
X26468248Y-35028631D01*
X26464834Y-35028246D01*
X26462781Y-35027383D01*
X26461466Y-35027083D01*
X26461518Y-35026852D01*
X26400422Y-35001172D01*
X26391049Y-34992708D01*
X24946302Y-33547961D01*
X24912817Y-33486638D01*
X24909983Y-33460280D01*
X24909983Y-32633080D01*
X24928989Y-32567108D01*
X24982872Y-32481354D01*
X25042451Y-32311087D01*
X25042452Y-32311081D01*
X25062648Y-32131835D01*
X25062648Y-32131828D01*
X25042452Y-31952582D01*
X25042451Y-31952577D01*
X24982871Y-31782308D01*
X24886898Y-31629569D01*
X24754421Y-31497092D01*
X24755862Y-31495650D01*
X24721448Y-31446602D01*
X24718610Y-31376790D01*
X24719134Y-31374767D01*
X24723500Y-31358475D01*
X24723500Y-31213525D01*
X24685984Y-31073515D01*
X24664613Y-31036499D01*
X24648000Y-30974499D01*
X24648000Y-30266000D01*
X25148000Y-30266000D01*
X25148000Y-31116000D01*
X25488506Y-31116000D01*
X25667293Y-31087682D01*
X25839444Y-31031748D01*
X25839447Y-31031747D01*
X26000734Y-30949565D01*
X26147169Y-30843176D01*
X26275176Y-30715169D01*
X26381565Y-30568734D01*
X26463747Y-30407447D01*
X26463749Y-30407441D01*
X26519681Y-30235295D01*
X26519684Y-30235285D01*
X26522739Y-30216000D01*
X25564988Y-30216000D01*
X25582205Y-30206060D01*
X25638060Y-30150205D01*
X25677556Y-30081796D01*
X25698000Y-30005496D01*
X25698000Y-29926504D01*
X25677556Y-29850204D01*
X25638060Y-29781795D01*
X25582205Y-29725940D01*
X25564988Y-29716000D01*
X26522739Y-29716000D01*
X26519684Y-29696714D01*
X26519681Y-29696704D01*
X26463749Y-29524558D01*
X26463747Y-29524552D01*
X26381565Y-29363265D01*
X26275176Y-29216830D01*
X26147169Y-29088823D01*
X26000734Y-28982434D01*
X25839447Y-28900252D01*
X25839444Y-28900251D01*
X25667293Y-28844317D01*
X25488506Y-28816000D01*
X25148000Y-28816000D01*
X25148000Y-29666000D01*
X24648000Y-29666000D01*
X24648000Y-28816000D01*
X24307494Y-28816000D01*
X24128706Y-28844317D01*
X23956555Y-28900251D01*
X23956552Y-28900252D01*
X23795265Y-28982434D01*
X23648830Y-29088823D01*
X23520823Y-29216830D01*
X23414434Y-29363265D01*
X23332252Y-29524552D01*
X23332250Y-29524558D01*
X23276318Y-29696704D01*
X23276315Y-29696714D01*
X23273261Y-29716000D01*
X22847739Y-29716000D01*
X22844684Y-29696714D01*
X22844681Y-29696704D01*
X22788749Y-29524558D01*
X22788747Y-29524552D01*
X22706565Y-29363265D01*
X22600176Y-29216830D01*
X22472169Y-29088823D01*
X22325734Y-28982434D01*
X22164447Y-28900253D01*
X22106431Y-28881402D01*
X22048756Y-28841964D01*
X22021558Y-28777605D01*
X22033473Y-28708759D01*
X22070435Y-28664207D01*
X22230295Y-28544539D01*
X22432639Y-28342195D01*
X22604126Y-28113115D01*
X22741267Y-27861961D01*
X22841269Y-27593846D01*
X22846752Y-27568642D01*
X22902095Y-27314233D01*
X22902095Y-27314232D01*
X22902096Y-27314228D01*
X22922510Y-27028800D01*
X22921846Y-27019522D01*
X22909669Y-26849255D01*
X22902096Y-26743372D01*
X22841269Y-26463754D01*
X22741267Y-26195639D01*
X22726031Y-26167737D01*
X22604129Y-25944490D01*
X22604124Y-25944482D01*
X22432645Y-25715412D01*
X22432629Y-25715394D01*
X22230305Y-25513070D01*
X22230287Y-25513054D01*
X22001217Y-25341575D01*
X22001209Y-25341570D01*
X21750066Y-25204435D01*
X21750067Y-25204435D01*
X21642815Y-25164432D01*
X21481946Y-25104431D01*
X21481943Y-25104430D01*
X21481937Y-25104428D01*
X21202333Y-25043604D01*
X20916901Y-25023190D01*
X20916899Y-25023190D01*
X20631466Y-25043604D01*
X20351862Y-25104428D01*
X20083733Y-25204435D01*
X19832590Y-25341570D01*
X19832582Y-25341575D01*
X19603512Y-25513054D01*
X19603494Y-25513070D01*
X19401170Y-25715394D01*
X19401154Y-25715412D01*
X19229675Y-25944482D01*
X19229670Y-25944490D01*
X19092535Y-26195633D01*
X18992528Y-26463762D01*
X18931704Y-26743366D01*
X18911290Y-27028798D01*
X18494500Y-27028798D01*
X18494500Y-24754500D01*
X18514185Y-24687461D01*
X18566989Y-24641706D01*
X18618500Y-24630500D01*
X98141500Y-24630500D01*
X98208539Y-24650185D01*
G37*
%TD.AperFunction*%
%TD*%
M02*
